<svg width="250" height="300" viewBox="0 0 250 300" fill="none" xmlns="http://www.w3.org/2000/svg">
<path d="M0 86.5735C0 81.5012 3.79756 77.2323 8.83535 76.6416L221.093 51.7516C227.037 51.0546 232.258 55.6991 232.258 61.6835V201.693C232.258 206.791 228.423 211.073 223.355 211.632L11.097 235.058C5.17577 235.712 0 231.076 0 225.119V86.5735Z" fill="#00528D"/>
<rect x="2.5" y="78.5757" width="236.936" height="155.208" rx="7.5" fill="#0093FE" stroke="#0062A9" stroke-width="5"/>
<path d="M175.807 151.761C175.807 146.238 180.284 141.761 185.807 141.761H248C249.105 141.761 250 142.656 250 143.761V171.802C250 172.907 249.105 173.802 248 173.802H185.807C180.284 173.802 175.807 169.325 175.807 163.802V151.761Z" fill="#004170"/>
<path d="M175.807 148.557C175.807 143.034 180.284 138.557 185.807 138.557H248C249.105 138.557 250 139.452 250 140.557V170.2C250 171.305 249.105 172.2 248 172.2H185.807C180.284 172.2 175.807 167.723 175.807 162.2V148.557Z" fill="#00528D"/>
<ellipse cx="194.356" cy="155.378" rx="7.25806" ry="7.20934" fill="#D9D9D9"/>
<rect x="19.3555" y="100.107" width="8.06452" height="116.951" rx="4.03226" fill="#00528D"/>
<path d="M124.895 1.05326C123.237 -0.351264 120.749 -0.351216 119.092 1.05418C108.291 10.2164 86.8264 21.8062 54.7283 22.697C52.5424 22.7577 50.7623 24.5012 50.7834 26.6544C51.3467 84.07 64.691 135.46 120.597 157.69C121.485 158.044 122.508 158.056 123.405 157.726C181.282 136.418 192.811 84.1213 193.293 26.6538C193.311 24.5006 191.531 22.7577 189.345 22.697C157.24 21.8063 135.708 10.2157 124.895 1.05326Z" fill="#0EA900"/>
<path d="M124.93 18.7816C123.247 17.4074 120.759 17.4075 119.076 18.7827C110.579 25.7273 94.4028 34.175 70.5691 35.0299C68.3837 35.1083 66.5998 36.8475 66.6272 39.0006C67.1896 83.2025 77.6653 122.686 120.609 139.93C121.496 140.286 122.516 140.298 123.412 139.965C167.869 123.428 176.967 83.2534 177.45 39.0005C177.473 36.8473 175.689 35.1083 173.504 35.0299C149.664 34.1751 133.438 25.7265 124.93 18.7816Z" fill="#EEEEEE"/>
<path d="M112.744 61.5447V57.4418C112.744 51.7768 117.367 47.1843 123.071 47.1843C128.774 47.1843 133.397 51.7768 133.397 57.4418V61.5447H135.463C138.885 61.5447 141.659 64.3003 141.659 67.6992V88.2141C141.659 91.613 138.885 94.3686 135.463 94.3686H110.678C107.257 94.3686 104.482 91.613 104.482 88.2141V67.6992C104.482 64.3003 107.257 61.5447 110.678 61.5447H112.744ZM118.94 57.4418V61.5447H127.201V57.4418C127.201 55.1757 125.352 53.3388 123.071 53.3388C120.789 53.3388 118.94 55.1757 118.94 57.4418Z" fill="#0EA900"/>
<path fill-rule="evenodd" clip-rule="evenodd" d="M124.391 75.8315C125.002 75.4432 125.408 74.7628 125.408 73.9882C125.408 72.7809 124.422 71.8021 123.207 71.8021C121.991 71.8021 121.006 72.7809 121.006 73.9882C121.006 74.7628 121.411 75.4432 122.023 75.8315L121.11 80.0619C121.057 80.311 121.246 80.5462 121.501 80.5462H124.912C125.167 80.5462 125.357 80.311 125.303 80.0619L124.391 75.8315Z" fill="#096B00"/>
<ellipse cx="81.5207" cy="271.897" rx="20.0461" ry="19.9115" fill="url(#paint0_linear_57_809)"/>
<path d="M97.5573 271.897C97.5573 280.693 90.3787 287.825 81.5199 287.825C72.661 287.825 65.4824 280.693 65.4824 271.897C65.4824 263.102 72.661 255.969 81.5199 255.969C90.3787 255.969 97.5573 263.102 97.5573 271.897Z" fill="url(#paint1_linear_57_809)" stroke="#EEEEEE" stroke-width="0.5"/>
<path d="M81.9044 263.806C83.5204 263.806 84.7844 264.15 85.6964 264.838C86.6084 265.51 87.2084 266.462 87.4964 267.694H88.7684V269.35H87.7124C87.7284 269.446 87.7364 269.542 87.7364 269.638C87.7364 269.718 87.7364 269.798 87.7364 269.878C87.7364 270.038 87.7284 270.198 87.7124 270.358C87.7124 270.502 87.7044 270.638 87.6884 270.766H88.7684V272.422H87.3524C87.1124 273.174 86.7284 273.846 86.2004 274.438C85.6724 275.03 84.9764 275.494 84.1124 275.83C83.2484 276.166 82.1844 276.334 80.9204 276.334H80.4644V280.942H76.8884V272.422H75.5204V270.766H76.8884V269.35H75.5204V267.694H76.8884V263.806H81.9044ZM83.6084 272.422H80.4644V273.454H80.8484C81.5044 273.454 82.0644 273.374 82.5284 273.214C82.9924 273.054 83.3524 272.79 83.6084 272.422ZM84.1364 269.35H80.4644V270.766H84.1364C84.1524 270.638 84.1604 270.518 84.1604 270.406C84.1604 270.278 84.1604 270.142 84.1604 269.998C84.1604 269.886 84.1604 269.782 84.1604 269.686C84.1604 269.574 84.1524 269.462 84.1364 269.35ZM81.7364 266.686H80.4644V267.694H83.7524C83.5764 267.374 83.3204 267.126 82.9844 266.95C82.6644 266.774 82.2484 266.686 81.7364 266.686Z" fill="#EEEEEE"/>
<path d="M110.117 288.381V293.031C110.117 296.875 119.545 300 131.166 300C142.786 300 152.214 296.875 152.214 293.031V288.381C147.686 291.55 139.41 293.031 131.166 293.031C122.922 293.031 114.645 291.55 110.117 288.381ZM145.198 258.186C156.818 258.186 166.246 255.061 166.246 251.217C166.246 247.373 156.818 244.248 145.198 244.248C133.577 244.248 124.149 247.373 124.149 251.217C124.149 255.061 133.577 258.186 145.198 258.186ZM110.117 276.959V282.577C110.117 286.421 119.545 289.546 131.166 289.546C142.786 289.546 152.214 286.421 152.214 282.577V276.959C147.686 280.661 139.399 282.577 131.166 282.577C122.933 282.577 114.645 280.661 110.117 276.959ZM155.722 278.156C162.004 276.948 166.246 274.705 166.246 272.124V267.474C163.703 269.26 159.965 270.48 155.722 271.231V278.156ZM131.166 261.67C119.545 261.67 110.117 265.569 110.117 270.382C110.117 275.195 119.545 279.093 131.166 279.093C142.786 279.093 152.214 275.195 152.214 270.382C152.214 265.569 142.786 261.67 131.166 261.67ZM155.207 267.801C161.784 266.625 166.246 264.316 166.246 261.67V257.021C162.354 259.754 155.667 261.224 148.629 261.572C151.863 263.13 154.242 265.22 155.207 267.801Z" fill="#FFBC0F"/>
<ellipse cx="187.097" cy="278.761" rx="20.0461" ry="19.9115" fill="url(#paint2_linear_57_809)"/>
<path d="M203.133 278.761C203.133 287.556 195.955 294.689 187.096 294.689C178.237 294.689 171.059 287.556 171.059 278.761C171.059 269.966 178.237 262.833 187.096 262.833C195.955 262.833 203.133 269.966 203.133 278.761Z" fill="url(#paint3_linear_57_809)" stroke="#EEEEEE" stroke-width="0.5"/>
<path d="M190.8 280.571C190.279 280.571 189.811 280.804 189.488 281.172L189.488 281.172C188.842 281.914 187.904 282.382 186.858 282.382C184.911 282.382 183.332 280.761 183.332 278.761C183.332 276.762 184.911 275.141 186.858 275.141C187.904 275.141 188.842 275.608 189.488 276.351V276.35C189.811 276.719 190.279 276.951 190.8 276.951C191.773 276.951 192.563 276.141 192.563 275.141C192.563 274.667 192.386 274.236 192.095 273.913C191.183 272.875 189.981 272.109 188.621 271.75V269.704C188.621 268.708 187.835 267.901 186.865 267.901C185.888 267.901 185.095 268.714 185.095 269.718V271.749C182.054 272.553 179.807 275.388 179.807 278.761C179.807 282.135 182.054 284.97 185.095 285.774V287.819C185.095 288.815 185.882 289.622 186.851 289.622C187.829 289.622 188.621 288.809 188.621 287.805V285.773C189.975 285.415 191.171 284.655 192.082 283.624C192.1 283.604 192.118 283.583 192.136 283.562C192.143 283.554 192.15 283.546 192.157 283.538L192.157 283.538C192.411 283.224 192.563 282.821 192.563 282.382C192.563 281.382 191.774 280.571 190.8 280.571Z" fill="#EEEEEE"/>
<defs>
<linearGradient id="paint0_linear_57_809" x1="81.5207" y1="251.985" x2="81.5207" y2="291.808" gradientUnits="userSpaceOnUse">
<stop stop-color="#FFB800"/>
<stop offset="0.364583" stop-color="#FFC42B"/>
<stop offset="0.5" stop-color="#FFDD85"/>
<stop offset="0.703125" stop-color="#F1BD35"/>
<stop offset="1" stop-color="#FFD772"/>
</linearGradient>
<linearGradient id="paint1_linear_57_809" x1="81.5199" y1="255.719" x2="81.5199" y2="288.075" gradientUnits="userSpaceOnUse">
<stop stop-color="#FFB800"/>
<stop offset="0.364583" stop-color="#FFC42B"/>
<stop offset="0.5" stop-color="#FFDD85"/>
<stop offset="0.703125" stop-color="#F1BD35"/>
<stop offset="1" stop-color="#FFD772"/>
</linearGradient>
<linearGradient id="paint2_linear_57_809" x1="187.097" y1="258.849" x2="187.097" y2="298.672" gradientUnits="userSpaceOnUse">
<stop stop-color="#FFB800"/>
<stop offset="0.364583" stop-color="#FFC42B"/>
<stop offset="0.5" stop-color="#FFDD85"/>
<stop offset="0.703125" stop-color="#F1BD35"/>
<stop offset="1" stop-color="#FFD772"/>
</linearGradient>
<linearGradient id="paint3_linear_57_809" x1="187.096" y1="262.583" x2="187.096" y2="294.939" gradientUnits="userSpaceOnUse">
<stop stop-color="#FFB800"/>
<stop offset="0.364583" stop-color="#FFC42B"/>
<stop offset="0.5" stop-color="#FFDD85"/>
<stop offset="0.703125" stop-color="#F1BD35"/>
<stop offset="1" stop-color="#FFD772"/>
</linearGradient>
</defs>
</svg>
