<svg width="395" height="354" viewBox="0 0 395 354" fill="none" xmlns="http://www.w3.org/2000/svg">
<path d="M207 193.406C207 188.337 210.793 184.069 215.828 183.475L369.621 165.319C375.567 164.617 380.793 169.262 380.793 175.25V275.739C380.793 280.835 376.962 285.115 371.897 285.678L218.104 302.766C212.181 303.424 207 298.787 207 292.827V193.406Z" fill="#00528D"/>
<rect x="208.5" y="184.81" width="178.034" height="117.69" rx="8.5" fill="#0079D1" stroke="#0062A9" stroke-width="3"/>
<path d="M338.552 242.793C338.552 237.27 343.029 232.793 348.552 232.793H392.069C393.174 232.793 394.069 233.689 394.069 234.793V254.931C394.069 256.036 393.174 256.931 392.069 256.931H348.552C343.029 256.931 338.552 252.454 338.552 246.931V242.793Z" fill="#004170"/>
<path d="M338.552 240.379C338.552 234.856 343.029 230.379 348.552 230.379H392.069C393.174 230.379 394.069 231.275 394.069 232.379V253.724C394.069 254.829 393.174 255.724 392.069 255.724H348.552C343.029 255.724 338.552 251.247 338.552 245.724V240.379Z" fill="#00528D"/>
<circle cx="352.431" cy="243.052" r="5.43103" fill="#D9D9D9"/>
<rect x="221.483" y="201.414" width="6.03448" height="88.1034" rx="3.01724" fill="#00528D"/>
<path d="M300.456 126.793C299.216 125.735 297.354 125.735 296.114 126.794C288.032 133.696 271.97 142.427 247.952 143.098C246.316 143.144 244.984 144.458 245 146.08C245.422 189.333 255.407 228.046 297.24 244.793C297.904 245.059 298.67 245.069 299.341 244.82C342.649 228.768 351.276 189.371 351.636 146.079C351.65 144.457 350.318 143.144 348.682 143.098C324.659 142.427 308.547 133.696 300.456 126.793Z" fill="#0EA900"/>
<path d="M300.482 140.149C299.223 139.114 297.361 139.114 296.102 140.15C289.744 145.381 277.64 151.745 259.805 152.389C258.17 152.448 256.835 153.758 256.856 155.38C257.277 188.679 265.115 218.423 297.249 231.414C297.912 231.682 298.676 231.691 299.347 231.44C332.612 218.982 339.42 188.718 339.781 155.38C339.799 153.758 338.464 152.448 336.829 152.389C318.99 151.745 306.849 145.381 300.482 140.149Z" fill="white"/>
<path d="M291.364 172.364V169.273C291.364 165.005 294.823 161.545 299.091 161.545C303.359 161.545 306.818 165.005 306.818 169.273V172.364H308.364C310.924 172.364 313 174.439 313 177V192.455C313 195.015 310.924 197.091 308.364 197.091H289.818C287.258 197.091 285.182 195.015 285.182 192.455V177C285.182 174.439 287.258 172.364 289.818 172.364H291.364ZM296 169.273V172.364H302.182V169.273C302.182 167.566 300.798 166.182 299.091 166.182C297.384 166.182 296 167.566 296 169.273Z" fill="#0EA900"/>
<path fill-rule="evenodd" clip-rule="evenodd" d="M300.078 183.127C300.536 182.834 300.84 182.322 300.84 181.738C300.84 180.828 300.103 180.091 299.193 180.091C298.283 180.091 297.546 180.828 297.546 181.738C297.546 182.322 297.85 182.834 298.308 183.127C298.306 183.135 298.304 183.143 298.302 183.152L297.65 186.194C297.596 186.443 297.786 186.678 298.041 186.678H300.345C300.6 186.678 300.79 186.443 300.736 186.194L300.084 183.152C300.082 183.143 300.08 183.135 300.078 183.127Z" fill="#096B00"/>
<circle cx="268" cy="330.829" r="15" fill="url(#paint0_linear_0_94)"/>
<circle cx="267.999" cy="330.829" r="11.9375" fill="url(#paint1_linear_0_94)" stroke="white" stroke-width="0.5"/>
<path d="M268.266 324.049C269.613 324.049 270.666 324.336 271.426 324.909C272.186 325.469 272.686 326.263 272.926 327.289H273.986V328.669H273.106C273.119 328.749 273.126 328.829 273.126 328.909C273.126 328.976 273.126 329.043 273.126 329.109C273.126 329.243 273.119 329.376 273.106 329.509C273.106 329.629 273.099 329.743 273.086 329.849H273.986V331.229H272.806C272.606 331.856 272.286 332.416 271.846 332.909C271.406 333.403 270.826 333.789 270.106 334.069C269.386 334.349 268.499 334.489 267.446 334.489H267.066V338.329H264.086V331.229H262.946V329.849H264.086V328.669H262.946V327.289H264.086V324.049H268.266ZM269.686 331.229H267.066V332.089H267.386C267.933 332.089 268.399 332.023 268.786 331.889C269.173 331.756 269.473 331.536 269.686 331.229ZM270.126 328.669H267.066V329.849H270.126C270.139 329.743 270.146 329.643 270.146 329.549C270.146 329.443 270.146 329.329 270.146 329.209C270.146 329.116 270.146 329.029 270.146 328.949C270.146 328.856 270.139 328.763 270.126 328.669ZM268.126 326.449H267.066V327.289H269.806C269.659 327.023 269.446 326.816 269.166 326.669C268.899 326.523 268.553 326.449 268.126 326.449Z" fill="white"/>
<path d="M289.398 343.247V346.75C289.398 349.646 296.453 352 305.148 352C313.844 352 320.898 349.646 320.898 346.75V343.247C317.511 345.634 311.317 346.75 305.148 346.75C298.98 346.75 292.786 345.634 289.398 343.247ZM315.648 320.5C324.344 320.5 331.398 318.146 331.398 315.25C331.398 312.354 324.344 310 315.648 310C306.953 310 299.898 312.354 299.898 315.25C299.898 318.146 306.953 320.5 315.648 320.5ZM289.398 334.642V338.875C289.398 341.771 296.453 344.125 305.148 344.125C313.844 344.125 320.898 341.771 320.898 338.875V334.642C317.511 337.431 311.309 338.875 305.148 338.875C298.988 338.875 292.786 337.431 289.398 334.642ZM323.523 335.545C328.224 334.634 331.398 332.944 331.398 331V327.497C329.495 328.843 326.698 329.761 323.523 330.327V335.545ZM305.148 323.125C296.453 323.125 289.398 326.062 289.398 329.688C289.398 333.313 296.453 336.25 305.148 336.25C313.844 336.25 320.898 333.313 320.898 329.688C320.898 326.062 313.844 323.125 305.148 323.125ZM323.138 327.743C328.06 326.857 331.398 325.118 331.398 323.125V319.622C328.486 321.681 323.482 322.789 318.216 323.051C320.636 324.224 322.416 325.799 323.138 327.743Z" fill="#FFBC0F"/>
<circle cx="347" cy="336" r="15" fill="url(#paint2_linear_0_94)"/>
<path d="M358.937 336C358.937 342.593 353.593 347.937 347 347.937C340.407 347.937 335.062 342.593 335.062 336C335.062 329.407 340.407 324.062 347 324.062C353.593 324.062 358.937 329.407 358.937 336Z" fill="url(#paint3_linear_0_94)" stroke="white" stroke-width="0.5"/>
<path d="M349.772 337.364C349.382 337.364 349.032 337.539 348.79 337.817L348.79 337.816C348.307 338.375 347.604 338.727 346.822 338.727C345.365 338.727 344.184 337.506 344.184 336C344.184 334.494 345.365 333.273 346.822 333.273C347.604 333.273 348.307 333.625 348.79 334.184V334.184C349.032 334.462 349.382 334.637 349.772 334.637C350.5 334.637 351.091 334.026 351.091 333.273C351.091 332.916 350.958 332.591 350.741 332.348C350.058 331.566 349.159 330.989 348.141 330.718V329.177C348.141 328.427 347.553 327.818 346.827 327.818C346.096 327.818 345.503 328.431 345.503 329.187V330.717C343.227 331.323 341.546 333.459 341.546 336C341.546 338.542 343.227 340.677 345.503 341.283V342.824C345.503 343.574 346.091 344.182 346.817 344.182C347.548 344.182 348.141 343.569 348.141 342.813V341.282C349.154 341.013 350.049 340.44 350.731 339.663C350.745 339.648 350.758 339.633 350.771 339.617C350.777 339.611 350.782 339.605 350.787 339.599L350.787 339.599C350.977 339.362 351.091 339.059 351.091 338.727C351.091 337.974 350.5 337.364 349.772 337.364Z" fill="white"/>
<rect x="0.636353" y="0.668579" width="188.921" height="352.468" rx="15" fill="#A9A9A9"/>
<rect width="184.277" height="345.519" rx="10" fill="white"/>
<rect width="184.277" height="345.519" rx="10" fill="#4D4D4D" fill-opacity="0.2"/>
<rect x="12.123" y="24.2461" width="160.03" height="292.176" rx="10" fill="#151515"/>
<rect x="27.8941" y="275.201" width="130.934" height="25.4593" rx="12" fill="#333333"/>
<path d="M45.3078 286.854C45.3145 286.85 45.3483 286.829 45.3539 286.825C45.3544 286.825 45.3802 286.808 45.3901 286.801C45.4214 286.779 45.451 286.757 45.4786 286.734C45.4855 286.729 45.5103 286.708 45.5158 286.703C45.5221 286.697 45.5518 286.67 45.5561 286.666C45.5817 286.641 45.6054 286.617 45.6273 286.592C45.6314 286.587 45.691 286.514 45.6953 286.508C45.7039 286.496 45.7124 286.485 45.7202 286.473C45.7242 286.467 45.7467 286.433 45.7536 286.421C45.7573 286.415 45.78 286.375 45.783 286.37C45.7889 286.359 45.8056 286.325 45.8082 286.32C45.8184 286.298 45.8278 286.277 45.8361 286.256C45.8402 286.245 45.844 286.235 45.8477 286.225C45.848 286.224 45.8483 286.224 45.8485 286.223C45.8519 286.213 45.8551 286.204 45.858 286.195C45.8581 286.195 45.8583 286.194 45.8584 286.194C45.8646 286.175 45.8699 286.156 45.8749 286.139C45.8761 286.134 45.8773 286.13 45.8784 286.125C45.8837 286.104 45.888 286.084 45.8916 286.066C45.8939 286.053 45.8957 286.042 45.8972 286.031C45.8978 286.028 45.9005 286.009 45.9011 286.003C45.9024 285.991 45.9035 285.98 45.9041 285.971C45.9046 285.964 45.9055 285.946 45.9055 285.943C45.9057 285.941 45.9057 285.939 45.9057 285.938C45.9055 285.931 45.9057 285.928 45.9057 285.928V279.625C45.6529 279.625 45.4001 279.69 45.1735 279.82L40.4678 282.52C40.0148 282.78 39.7357 283.261 39.7357 283.781V289.181C39.7357 289.394 39.7824 289.6 39.8686 289.787L45.3078 286.854Z" fill="white"/>
<path d="M52.0766 289.181V283.78C52.0766 283.261 51.7975 282.78 51.3444 282.52L46.6383 279.82C46.4117 279.69 46.1589 279.625 45.9061 279.625V285.928C45.9061 285.928 45.906 285.931 45.9061 285.937C45.9061 285.939 45.9061 285.941 45.9063 285.943C45.9063 285.946 45.9064 285.949 45.9066 285.952C45.9067 285.958 45.9072 285.964 45.9077 285.971C45.9084 285.98 45.9094 285.991 45.9107 286.002C45.9113 286.008 45.9121 286.015 45.913 286.021C45.9135 286.024 45.9141 286.028 45.9146 286.031C45.9161 286.042 45.9179 286.053 45.9202 286.065C45.9238 286.084 45.9281 286.104 45.9334 286.125C45.9345 286.129 45.9357 286.134 45.9369 286.139C45.9417 286.156 45.9471 286.175 45.9534 286.194C45.9535 286.194 45.9537 286.194 45.9538 286.195C45.9569 286.204 45.9601 286.213 45.9633 286.223C45.9635 286.223 45.9638 286.224 45.9641 286.225C45.9678 286.235 45.9716 286.245 45.9757 286.256C45.984 286.276 45.9934 286.298 46.0036 286.32C46.0141 286.342 46.0256 286.364 46.0381 286.386C46.0413 286.392 46.0446 286.398 46.0478 286.404C46.051 286.409 46.0544 286.415 46.0581 286.421C46.065 286.432 46.0722 286.444 46.0798 286.455C46.0837 286.461 46.0875 286.467 46.0915 286.473C46.0993 286.484 46.1077 286.496 46.1163 286.508C46.1206 286.514 46.125 286.519 46.1295 286.525C46.1338 286.531 46.1384 286.537 46.1431 286.543C46.1477 286.549 46.1525 286.555 46.1575 286.561C46.1623 286.566 46.1672 286.572 46.1724 286.578L46.1844 286.592C46.2064 286.617 46.2301 286.641 46.2557 286.666C46.26 286.67 46.2644 286.674 46.2688 286.678C46.2716 286.681 46.2744 286.683 46.2771 286.686C46.2833 286.691 46.2895 286.697 46.296 286.703C46.3015 286.707 46.3072 286.712 46.313 286.717C46.3196 286.723 46.3263 286.729 46.3334 286.734C46.361 286.757 46.3906 286.779 46.4218 286.801C46.9285 287.153 51.5074 289.558 51.9434 289.787C52.0299 289.6 52.0766 289.394 52.0766 289.181Z" fill="white"/>
<path d="M39.8686 289.787C39.993 290.057 40.2001 290.288 40.4678 290.442L45.174 293.142C45.627 293.402 46.1853 293.402 46.6381 293.142L51.3443 290.442C51.6119 290.288 51.819 290.057 51.9435 289.787C51.5075 289.558 46.9286 287.153 46.422 286.801C46.3907 286.779 46.3197 286.723 46.3131 286.717C46.3075 286.712 46.2835 286.691 46.2774 286.686C46.2747 286.683 46.2067 286.617 46.1847 286.592C46.1805 286.588 46.1482 286.549 46.1436 286.543C46.1388 286.537 46.1207 286.514 46.1166 286.508C46.1079 286.496 46.0838 286.461 46.0801 286.456C46.0724 286.444 46.0415 286.392 46.0384 286.387C46.0352 286.381 46.0065 286.326 46.0039 286.32C45.9935 286.298 45.9841 286.277 45.976 286.256C45.9717 286.246 45.9569 286.204 45.9539 286.195C45.9538 286.195 45.9418 286.157 45.9371 286.139C45.9359 286.134 45.9239 286.084 45.9202 286.066C45.9179 286.053 45.9161 286.042 45.9145 286.031C45.9139 286.028 45.9113 286.009 45.9107 286.003C45.9093 285.991 45.9083 285.98 45.9077 285.971C45.9072 285.964 45.9067 285.958 45.9066 285.952C45.9064 285.949 45.9063 285.946 45.9063 285.943C45.9061 285.941 45.9061 285.939 45.9061 285.938C45.9061 285.939 45.9061 285.941 45.906 285.943C45.906 285.946 45.9058 285.949 45.9057 285.952C45.9055 285.958 45.905 285.964 45.9046 285.971C45.904 285.98 45.9029 285.991 45.9015 286.003C45.9009 286.009 45.8983 286.028 45.8977 286.031C45.8962 286.042 45.8842 286.104 45.8787 286.125C45.8776 286.13 45.8584 286.195 45.8583 286.195C45.8554 286.204 45.8405 286.245 45.8362 286.256C45.8281 286.277 45.8187 286.298 45.8083 286.32C45.8057 286.325 45.777 286.381 45.7738 286.387C45.7708 286.392 45.7574 286.415 45.7537 286.421C45.747 286.432 45.7245 286.467 45.7203 286.473C45.7127 286.485 45.6869 286.52 45.6823 286.525C45.678 286.531 45.6316 286.587 45.6274 286.592C45.6053 286.617 45.5817 286.641 45.5563 286.666C45.552 286.67 45.4856 286.729 45.4786 286.734C45.451 286.757 45.4214 286.779 45.3901 286.801C45.3798 286.808 45.3145 286.85 45.3078 286.854L39.8686 289.787Z" fill="white"/>
<path d="M47.62 285.719C47.3936 285.719 47.1902 285.622 47.0497 285.466L47.0496 285.466C46.7689 285.154 46.3606 284.957 45.9061 284.957C45.0594 284.957 44.3731 285.64 44.3731 286.481C44.3731 287.322 45.0594 288.005 45.9061 288.005C46.3606 288.005 46.7689 287.808 47.0497 287.496V287.496C47.19 287.34 47.3936 287.243 47.62 287.243C48.0433 287.243 48.3865 287.584 48.3865 288.005C48.3865 288.204 48.3094 288.385 48.1832 288.521C47.7865 288.958 47.264 289.281 46.6726 289.432V290.293C46.6726 290.712 46.3308 291.052 45.909 291.052C45.4841 291.052 45.1396 290.709 45.1396 290.287V289.432C43.8173 289.094 42.8401 287.901 42.8401 286.481C42.8401 285.061 43.8173 283.868 45.1396 283.53V282.669C45.1396 282.25 45.4815 281.91 45.9032 281.91C46.3281 281.91 46.6726 282.253 46.6726 282.675V283.53C47.2611 283.681 47.7811 284.001 48.1773 284.435C48.1854 284.443 48.1932 284.452 48.2009 284.461C48.2039 284.464 48.207 284.467 48.2101 284.471L48.2099 284.471C48.3203 284.603 48.3867 284.772 48.3867 284.957C48.3865 285.378 48.0434 285.719 47.62 285.719Z" fill="#333333"/>
<path fill-rule="evenodd" clip-rule="evenodd" d="M71.5613 283.194C71.2095 283.022 70.9133 282.836 70.6908 282.672C71.2545 282.155 71.9653 281.721 72.8329 281.523C72.5695 281.797 72.3001 282.11 72.0492 282.451C71.8773 282.684 71.7115 282.933 71.5613 283.194ZM72.6128 282.866C72.9062 282.468 73.2252 282.112 73.5209 281.824V283.745C73.0531 283.709 72.6117 283.605 72.2133 283.466C72.3355 283.261 72.4701 283.06 72.6128 282.866ZM73.5209 285.852V284.447C72.9303 284.408 72.3785 284.273 71.8882 284.093C71.7508 284.407 71.6506 284.723 71.6024 285.034C71.5728 285.225 71.3939 285.356 71.2029 285.326C71.0119 285.296 70.8811 285.117 70.9107 284.926C70.969 284.551 71.0873 284.178 71.2445 283.818C70.8176 283.609 70.4625 283.379 70.2018 283.18C69.6822 283.789 69.3483 284.431 69.1901 284.879C69.1258 285.061 68.9259 285.157 68.7436 285.092C68.5613 285.028 68.4657 284.828 68.53 284.646C68.7406 284.049 69.1964 283.206 69.9139 282.454C70.8044 281.52 72.1155 280.709 73.8709 280.709C75.6242 280.709 76.977 281.518 77.9168 282.446C78.6753 283.196 79.1786 284.035 79.4232 284.629C79.4968 284.808 79.4116 285.012 79.2328 285.086C79.0541 285.159 78.8495 285.074 78.7759 284.896C78.587 284.437 78.2034 283.777 77.6282 283.155C77.3248 283.365 76.9495 283.605 76.5083 283.821C76.6651 284.182 76.7806 284.556 76.832 284.933C76.8582 285.124 76.7241 285.301 76.5326 285.327C76.3411 285.353 76.1646 285.219 76.1385 285.028C76.0967 284.722 76.0004 284.408 75.8648 284.096C75.3754 284.276 74.8256 284.41 74.2209 284.448V285.852C74.2209 286.045 74.0642 286.202 73.8709 286.202C73.6776 286.202 73.5209 286.045 73.5209 285.852ZM74.9103 281.522C75.784 281.717 76.5189 282.145 77.1143 282.658C76.8492 282.836 76.5409 283.026 76.1919 283.196C76.0421 282.937 75.8762 282.688 75.7041 282.456C75.4502 282.113 75.177 281.797 74.9103 281.522ZM74.2209 283.746C74.6991 283.712 75.1399 283.609 75.5404 283.469C75.4189 283.265 75.2844 283.065 75.1415 282.872C74.8446 282.471 74.5205 282.112 74.2209 281.823V283.746ZM78.0046 285.404C80.0338 285.209 81.6221 286.201 82.5932 286.807C82.6647 286.852 82.7328 286.894 82.7975 286.934C82.9269 287.015 82.9967 287.115 83.0154 287.156C83.0154 287.285 82.8621 287.261 82.601 287.22C82.4219 287.192 82.192 287.156 81.9261 287.156C81.4032 287.156 80.401 287.444 79.9653 287.588C79.0402 287.958 77.4865 289.27 76.2385 290.325L76.2385 290.325C76.017 290.512 75.8051 290.691 75.6081 290.855C74.5624 291.727 72.8538 292.33 71.9045 292.38C69.9437 292.598 68.2008 291.509 67.5473 291.073C66.7782 290.561 65.1669 289.842 64.7568 289.794C64.5408 289.769 64.4811 289.593 64.5113 289.501C64.5113 289.501 64.9329 288.459 67.1115 289.113C67.7252 289.297 68.2008 289.548 69.2901 290.202C69.7971 290.506 70.4947 290.638 70.8152 290.638C71.4268 290.638 72.3402 290.42 73.2116 289.984C73.9088 289.635 74.2444 289.355 74.3868 289.228C74.5156 289.092 74.67 288.828 74.5188 288.677C74.3351 288.493 74.1515 288.619 73.7067 288.924L73.7065 288.924C73.6238 288.981 73.532 289.044 73.4295 289.113C72.9066 289.461 72.0497 289.693 71.6866 289.766C71.033 289.984 70.1616 289.766 69.9438 289.548C69.7695 289.374 70.1616 289.185 70.3795 289.113C70.4521 289.113 70.7716 289.025 71.4688 288.677C72.3402 288.241 72.3402 288.241 73.6474 287.37L73.6474 287.37C73.8662 287.224 74.0728 287.078 74.2753 286.934C75.2827 286.221 76.19 285.579 78.0046 285.404ZM68.3307 285.721C67.6341 285.518 67.0301 285.628 66.9918 285.721C66.9488 285.758 66.9081 285.976 67.2579 286.107C67.6951 286.272 68.8926 287.007 69.2221 287.235C69.2878 287.281 69.3731 287.34 69.4708 287.409L69.4708 287.409L69.4708 287.409L69.4708 287.409C69.863 287.684 70.453 288.097 70.7625 288.279C71.009 288.425 71.1957 288.434 71.326 288.344C71.4021 288.291 71.5651 288.162 71.7375 287.995C71.8733 287.863 71.7899 287.648 71.7375 287.609C71.484 287.419 70.8808 286.978 70.4956 286.735C70.0141 286.431 69.3041 286.005 68.3307 285.721ZM66.7602 286.273C66.0102 285.97 65.6674 286.082 65.5897 286.176C65.4336 286.306 65.5247 286.461 65.5897 286.523C66.0052 286.837 66.9141 287.464 67.2913 287.699C67.7374 287.975 68.6814 288.679 69.0405 288.947L69.0406 288.947L69.0406 288.947L69.0958 288.988C69.3722 289.194 69.6106 289.109 69.7027 289.075C69.8725 288.992 70.1905 288.83 70.3205 288.717C70.4769 288.582 70.3602 288.399 70.2717 288.327C69.8833 288.053 69.0383 287.461 68.7652 287.292C68.4238 287.081 67.6977 286.653 66.7602 286.273ZM69.7927 285.815C69.8522 285.68 70.1726 285.483 71.1359 285.815C72.1683 286.171 72.8102 286.563 73.0088 286.695C73.1034 286.755 73.2642 286.909 73.1507 287.045C73.0372 287.181 72.9258 287.262 72.8564 287.3C72.8154 287.332 72.6689 287.412 72.546 287.394C72.4648 287.381 72.3461 287.328 72.1714 287.25L72.1714 287.25C72.0816 287.209 71.9769 287.163 71.8548 287.111C71.5673 286.99 70.5211 286.446 70.0008 286.146C69.9125 286.099 69.7474 285.967 69.7927 285.815Z" fill="white"/>
<path d="M111.863 290.788L111.863 290.788C111.832 290.752 111.799 290.714 111.764 290.674C111.506 290.378 111.132 289.949 110.824 289.267C110.473 288.49 110.215 287.411 110.215 285.815C110.215 283.691 108.86 282.033 107.08 281.628L106.691 281.54V281.14V280.513C106.691 280.213 106.479 280.048 106.31 280.048C106.141 280.048 105.929 280.213 105.929 280.513V281.14V281.54L105.54 281.628C103.76 282.033 102.405 283.691 102.405 285.815C102.405 287.411 102.147 288.49 101.796 289.267C101.488 289.949 101.114 290.378 100.857 290.674C100.821 290.714 100.788 290.752 100.758 290.788L111.863 290.788ZM111.863 290.788C111.945 290.884 111.981 290.998 111.981 291.115L111.981 291.115M111.863 290.788L111.981 291.115M111.981 291.115C111.98 291.247 111.931 291.372 111.857 291.459C111.787 291.539 111.7 291.582 111.596 291.582H101.024C100.92 291.582 100.834 291.539 100.764 291.459M111.981 291.115L100.764 291.459M100.764 291.459C100.689 291.372 100.641 291.247 100.64 291.115L100.764 291.459ZM107.494 293.546C107.309 294.107 106.825 294.475 106.31 294.475C105.796 294.475 105.311 294.107 105.126 293.546H107.494ZM100.64 291.115C100.639 290.998 100.676 290.884 100.758 290.788L100.64 291.115Z" stroke="white"/>
<path fill-rule="evenodd" clip-rule="evenodd" d="M136.711 280.498C135.883 280.498 135.211 281.169 135.211 281.998V284.729C135.211 285.557 135.883 286.229 136.711 286.229H139.442C140.271 286.229 140.942 285.557 140.942 284.729V281.998C140.942 281.169 140.271 280.498 139.442 280.498H136.711ZM136.211 281.998C136.211 281.722 136.435 281.498 136.711 281.498H139.442C139.719 281.498 139.942 281.722 139.942 281.998V284.729C139.942 285.005 139.719 285.229 139.442 285.229H136.711C136.435 285.229 136.211 285.005 136.211 284.729V281.998ZM129.087 280.504C128.258 280.504 127.587 281.175 127.587 282.004V284.735C127.587 285.563 128.258 286.235 129.087 286.235H131.818C132.646 286.235 133.318 285.563 133.318 284.735V282.004C133.318 281.175 132.646 280.504 131.818 280.504H129.087ZM128.587 282.004C128.587 281.727 128.811 281.504 129.087 281.504H131.818C132.094 281.504 132.318 281.727 132.318 282.004V284.735C132.318 285.011 132.094 285.235 131.818 285.235H129.087C128.811 285.235 128.587 285.011 128.587 284.735V282.004ZM127.619 289.561C127.619 288.732 128.291 288.061 129.119 288.061H131.85C132.679 288.061 133.35 288.732 133.35 289.561V292.292C133.35 293.12 132.679 293.792 131.85 293.792H129.119C128.291 293.792 127.619 293.12 127.619 292.292V289.561ZM129.119 289.061C128.843 289.061 128.619 289.284 128.619 289.561V292.292C128.619 292.568 128.843 292.792 129.119 292.792H131.85C132.126 292.792 132.35 292.568 132.35 292.292V289.561C132.35 289.284 132.126 289.061 131.85 289.061H129.119ZM136.705 288.058C135.877 288.058 135.205 288.729 135.205 289.558V292.289C135.205 293.117 135.877 293.789 136.705 293.789H139.437C140.265 293.789 140.937 293.117 140.937 292.289V289.558C140.937 288.729 140.265 288.058 139.437 288.058H136.705ZM136.205 289.558C136.205 289.282 136.429 289.058 136.705 289.058H139.437C139.713 289.058 139.937 289.282 139.937 289.558V292.289C139.937 292.565 139.713 292.789 139.437 292.789H136.705C136.429 292.789 136.205 292.565 136.205 292.289V289.558Z" fill="white"/>
<path d="M33.8226 55.3026C33.8312 55.3077 33.8743 55.3343 33.8815 55.3387C33.8821 55.339 33.915 55.36 33.9277 55.3686C33.9677 55.3956 34.0054 55.4231 34.0407 55.451C34.0495 55.4578 34.0812 55.4841 34.0883 55.4901C34.0963 55.4969 34.1343 55.5306 34.1398 55.5359C34.1724 55.5659 34.2026 55.5965 34.2306 55.627C34.2359 55.6327 34.312 55.7239 34.3175 55.7311C34.3285 55.7454 34.3393 55.76 34.3492 55.7743C34.3543 55.7815 34.3831 55.8243 34.3919 55.8386C34.3966 55.8458 34.4256 55.8952 34.4295 55.9022C34.4369 55.9159 34.4583 55.957 34.4616 55.9638C34.4747 55.991 34.4867 56.0176 34.4972 56.0432C34.5025 56.056 34.5074 56.0691 34.5121 56.0815C34.5125 56.0823 34.5129 56.0832 34.5131 56.084C34.5174 56.0956 34.5215 56.1071 34.5252 56.1185C34.5254 56.119 34.5256 56.1194 34.5258 56.12C34.5337 56.1435 34.5405 56.1664 34.5468 56.1881C34.5483 56.1937 34.5499 56.1994 34.5513 56.2048C34.5581 56.2312 34.5636 56.2559 34.5681 56.2788C34.5711 56.2937 34.5734 56.308 34.5754 56.3212C34.5761 56.3253 34.5795 56.3493 34.5803 56.3567C34.582 56.3714 34.5834 56.3846 34.5842 56.3959C34.5848 56.4044 34.5859 56.427 34.5859 56.4304C34.5861 56.4328 34.5861 56.4351 34.5861 56.437C34.5859 56.4447 34.5861 56.4489 34.5861 56.4489V64.251C34.2633 64.251 33.9405 64.1706 33.6511 64.0096L27.6415 60.667C27.063 60.3453 26.7065 59.7507 26.7065 59.107V52.4219C26.7065 52.1587 26.7662 51.9039 26.8762 51.6725L33.8226 55.3026Z" fill="#0087FE"/>
<path d="M42.467 52.4219V59.1072C42.467 59.7507 42.1105 60.3453 41.532 60.6672L35.5218 64.0096C35.2324 64.1706 34.9096 64.251 34.5867 64.251V56.4491C34.5867 56.4491 34.5865 56.4449 34.5867 56.4372C34.5867 56.4353 34.5867 56.433 34.5869 56.4306C34.5869 56.4272 34.5871 56.4232 34.5873 56.4189C34.5875 56.4123 34.5881 56.4048 34.5887 56.3961C34.5897 56.3846 34.5908 56.3714 34.5926 56.3569C34.5934 56.3495 34.5944 56.3418 34.5955 56.3337C34.5961 56.3297 34.5969 56.3255 34.5975 56.3214C34.5995 56.3082 34.6018 56.2939 34.6047 56.279C34.6092 56.256 34.6147 56.2314 34.6216 56.205C34.6229 56.1996 34.6245 56.1939 34.6261 56.1883C34.6321 56.1666 34.639 56.1437 34.647 56.1202C34.6472 56.1196 34.6474 56.1192 34.6476 56.1187C34.6515 56.1073 34.6556 56.0957 34.6598 56.0842C34.6599 56.0834 34.6603 56.0825 34.6607 56.0817C34.6654 56.0693 34.6703 56.0562 34.6756 56.0434C34.6862 56.0176 34.6981 55.9912 34.7112 55.964C34.7246 55.9369 34.7392 55.9093 34.7553 55.8814C34.7594 55.8744 34.7635 55.8675 34.7676 55.8601C34.7717 55.8531 34.776 55.8462 34.7807 55.8388C34.7896 55.8247 34.7988 55.8103 34.8085 55.7962C34.8134 55.789 34.8183 55.7818 34.8234 55.7745C34.8334 55.7602 34.8442 55.7456 34.8551 55.7313C34.8606 55.7241 34.8663 55.7168 34.872 55.7094C34.8775 55.7023 34.8833 55.6949 34.8894 55.6875C34.8953 55.6804 34.9013 55.6732 34.9078 55.6659C34.9139 55.6587 34.9201 55.6513 34.9268 55.644L34.9421 55.627C34.9703 55.5965 35.0004 55.5659 35.0331 55.5359C35.0386 55.5306 35.0443 55.5256 35.0499 55.5205C35.0535 55.5173 35.057 55.514 35.0605 55.511C35.0683 55.5041 35.0764 55.4971 35.0846 55.4901C35.0916 55.4841 35.0989 55.478 35.1063 55.472C35.1147 55.465 35.1234 55.458 35.1324 55.4509C35.1676 55.4228 35.2054 55.3952 35.2453 55.3685C35.8924 54.933 41.7401 51.9556 42.2969 51.6721C42.4073 51.9039 42.467 52.1587 42.467 52.4219Z" fill="#009CFD"/>
<path d="M26.8762 51.6723C27.0352 51.3375 27.2997 51.052 27.6415 50.8619L33.6517 47.5194C34.2302 47.1976 34.9432 47.1976 35.5216 47.5194L41.5317 50.8619C41.8736 51.052 42.1381 51.3377 42.297 51.6723C41.7402 51.9555 35.8926 54.933 35.2455 55.3686C35.2056 55.3956 35.1149 55.465 35.1065 55.4722C35.0993 55.478 35.0687 55.504 35.0609 55.511C35.0574 55.514 34.9706 55.5964 34.9424 55.627C34.9372 55.6326 34.8958 55.6804 34.89 55.6875C34.8839 55.6947 34.8608 55.7239 34.8555 55.7311C34.8444 55.7454 34.8136 55.7888 34.8089 55.796C34.7991 55.8101 34.7596 55.874 34.7557 55.881C34.7516 55.888 34.7149 55.9568 34.7116 55.9636C34.6983 55.9908 34.6864 56.0174 34.676 56.043C34.6705 56.0558 34.6515 56.107 34.6478 56.1183C34.6476 56.1188 34.6323 56.166 34.6263 56.1879C34.6247 56.1935 34.6094 56.2559 34.6047 56.2788C34.6018 56.2937 34.5994 56.308 34.5975 56.3212C34.5967 56.3253 34.5934 56.3493 34.5926 56.3566C34.5908 56.3714 34.5895 56.3846 34.5887 56.3959C34.5881 56.4044 34.5875 56.4119 34.5873 56.4187C34.5871 56.423 34.5869 56.427 34.5869 56.4304C34.5867 56.4328 34.5867 56.4351 34.5867 56.437C34.5867 56.4351 34.5867 56.4328 34.5865 56.4304C34.5865 56.427 34.5863 56.423 34.5861 56.4187C34.5859 56.4121 34.5853 56.4045 34.5848 56.3959C34.584 56.3846 34.5826 56.3714 34.5808 56.3566C34.5801 56.3493 34.5767 56.3253 34.5759 56.3212C34.574 56.308 34.5587 56.231 34.5517 56.2048C34.5503 56.1994 34.5258 56.119 34.5256 56.1185C34.5219 56.1071 34.5029 56.056 34.4974 56.0432C34.4871 56.0174 34.4751 55.991 34.4618 55.9638C34.4585 55.957 34.4219 55.8882 34.4178 55.8812C34.4138 55.8742 34.3968 55.8459 34.3921 55.8388C34.3835 55.8246 34.3547 55.7816 34.3494 55.7745C34.3396 55.7601 34.3068 55.7166 34.3009 55.7094C34.2954 55.7022 34.2361 55.6328 34.2308 55.6272C34.2026 55.5966 34.1724 55.5661 34.1399 55.5361C34.1345 55.5308 34.0497 55.458 34.0407 55.4512C34.0054 55.4231 33.9677 55.3956 33.9277 55.3688C33.9146 55.36 33.8312 55.3079 33.8226 55.3028L26.8762 51.6723Z" fill="#0093FE"/>
<path d="M36.7755 56.7074C36.4863 56.7074 36.2265 56.8283 36.0472 57.0205L36.047 57.0203C35.6885 57.4069 35.1672 57.6504 34.5867 57.6504C33.5054 57.6504 32.6289 56.806 32.6289 55.7645C32.6289 54.7229 33.5054 53.8786 34.5867 53.8786C35.1672 53.8786 35.6885 54.1221 36.0472 54.5087V54.5085C36.2263 54.7006 36.4863 54.8215 36.7755 54.8215C37.316 54.8215 37.7544 54.3993 37.7544 53.8786C37.7544 53.6317 37.6559 53.4073 37.4948 53.2391C36.9881 52.698 36.3209 52.2992 35.5656 52.1119V51.0462C35.5656 50.5274 35.129 50.1068 34.5904 50.1068C34.0477 50.1068 33.6078 50.5306 33.6078 51.0533V52.1115C31.919 52.5302 30.6711 54.007 30.6711 55.7645C30.6711 57.5219 31.919 58.9988 33.6078 59.4174V60.4828C33.6078 61.0016 34.0444 61.4221 34.583 61.4221C35.1257 61.4221 35.5656 60.9984 35.5656 60.4756V59.4171C36.3172 59.2305 36.9813 58.8347 37.4872 58.2976C37.4975 58.287 37.5075 58.2763 37.5173 58.2653C37.5212 58.2612 37.5251 58.257 37.5291 58.2529L37.5289 58.2527C37.6698 58.0894 37.7546 57.8795 37.7546 57.6504C37.7544 57.1297 37.3162 56.7074 36.7755 56.7074Z" fill="white"/>
<rect x="70.3336" y="7.27563" width="43.6445" height="6.06174" rx="3.03087" fill="#AAAAAA"/>
<rect x="70.3277" y="322.482" width="43.6445" height="15.7605" rx="7.88026" fill="#AAAAAA"/>
<rect x="26.7065" y="83.6501" width="130.934" height="66.6792" rx="5" fill="#0094FF"/>
<path fill-rule="evenodd" clip-rule="evenodd" d="M152.647 83.6495C155.409 83.6495 157.647 85.8881 157.647 88.6495V97.5916H103.545C100.784 97.5916 98.5452 95.353 98.5452 92.5916V83.6495H152.647ZM98.5352 87.1351C98.4379 85.9732 97.5137 83.6496 94.5951 83.6496H98.5352V87.1351Z" fill="#FFD600"/>
<path fill-rule="evenodd" clip-rule="evenodd" d="M152.647 83.6495C155.409 83.6495 157.647 85.8881 157.647 88.6495V97.5916H103.545C100.784 97.5916 98.5452 95.353 98.5452 92.5916V83.6495H152.647ZM98.5352 87.1351C98.4379 85.9732 97.5137 83.6496 94.5951 83.6496H98.5352V87.1351Z" fill="#4062DA"/>
<path fill-rule="evenodd" clip-rule="evenodd" d="M152.647 83.6495C155.409 83.6495 157.647 85.8881 157.647 88.6495V97.5916H103.545C100.784 97.5916 98.5452 95.353 98.5452 92.5916V83.6495H152.647ZM98.5352 87.1351C98.4379 85.9732 97.5137 83.6496 94.5951 83.6496H98.5352V87.1351Z" fill="#333333"/>
<rect x="26.7035" y="164.878" width="130.934" height="37.5828" rx="5" fill="#C9C9C9"/>
<rect x="26.7065" y="217.008" width="130.934" height="37.5828" rx="5" fill="#C9C9C9"/>
<path d="M122.075 48.4922H119.846C119.294 48.4922 118.846 48.9399 118.846 49.4922V51.8953M122.075 60.6157H119.846C119.294 60.6157 118.846 60.168 118.846 59.6157V57.2134M127.706 48.4922H129.97C130.522 48.4922 130.97 48.9399 130.97 49.4922V51.8953M127.706 60.6157H129.97C130.522 60.6157 130.97 60.168 130.97 59.6157V57.2134M118.846 54.3979H130.97" stroke="white"/>
<path fill-rule="evenodd" clip-rule="evenodd" d="M142.52 47.3898H142.02V47.8898V50.6987H143.02V48.3898H145.082V47.3898H142.52ZM156.126 47.3898H156.626V47.8898V50.6987H155.626V48.3898H153.564V47.3898H156.126ZM142.529 62.002H142.029V61.502V58.6931H143.029V61.002H145.091V62.002H142.529ZM156.133 62.002H156.633V61.502V58.6931H155.633V61.002H153.57V62.002H156.133ZM150.531 49.2967H150.031V49.7967V53.4203V53.9203H150.531H154.069H154.569V53.4203V49.7967V49.2967H154.069H150.531ZM151.031 52.9203V50.2967H153.569V52.9203H151.031ZM144.04 49.3393H144.54H148.078H148.578V49.8393V53.4629V53.9629H148.078H144.54H144.04V53.4629V49.8393V49.3393ZM145.04 50.3393V52.9629H147.578V50.3393H145.04ZM143.993 55.3818H144.493H148.031H148.531V55.8818V59.5054V60.0054H148.031H144.493H143.993V59.5054V55.8818V55.3818ZM144.993 56.3818V59.0054H147.531V56.3818H144.993ZM151.264 56.6119H153.593V58.9527H151.264V56.6119Z" fill="white"/>
<rect x="93.9756" y="119.157" width="43.6445" height="3.63705" rx="1.81852" fill="white"/>
<defs>
<linearGradient id="paint0_linear_0_94" x1="268" y1="315.829" x2="268" y2="345.829" gradientUnits="userSpaceOnUse">
<stop stop-color="#FFB800"/>
<stop offset="0.364583" stop-color="#FFC42B"/>
<stop offset="0.5" stop-color="#FFDD85"/>
<stop offset="0.703125" stop-color="#F1BD35"/>
<stop offset="1" stop-color="#FFD772"/>
</linearGradient>
<linearGradient id="paint1_linear_0_94" x1="267.999" y1="318.642" x2="267.999" y2="343.017" gradientUnits="userSpaceOnUse">
<stop stop-color="#FFB800"/>
<stop offset="0.364583" stop-color="#FFC42B"/>
<stop offset="0.5" stop-color="#FFDD85"/>
<stop offset="0.703125" stop-color="#F1BD35"/>
<stop offset="1" stop-color="#FFD772"/>
</linearGradient>
<linearGradient id="paint2_linear_0_94" x1="347" y1="321" x2="347" y2="351" gradientUnits="userSpaceOnUse">
<stop stop-color="#FFB800"/>
<stop offset="0.364583" stop-color="#FFC42B"/>
<stop offset="0.5" stop-color="#FFDD85"/>
<stop offset="0.703125" stop-color="#F1BD35"/>
<stop offset="1" stop-color="#FFD772"/>
</linearGradient>
<linearGradient id="paint3_linear_0_94" x1="347" y1="323.812" x2="347" y2="348.187" gradientUnits="userSpaceOnUse">
<stop stop-color="#FFB800"/>
<stop offset="0.364583" stop-color="#FFC42B"/>
<stop offset="0.5" stop-color="#FFDD85"/>
<stop offset="0.703125" stop-color="#F1BD35"/>
<stop offset="1" stop-color="#FFD772"/>
</linearGradient>
</defs>
</svg>
