<svg width="230" height="280" viewBox="0 0 230 280" fill="none" xmlns="http://www.w3.org/2000/svg">
<rect x="99.4379" y="0.460083" width="130.005" height="242.548" rx="15" fill="#A9A9A9"/>
<rect x="99" width="126.809" height="237.766" rx="10" fill="white"/>
<rect x="99" width="126.809" height="237.766" rx="10" fill="#4D4D4D" fill-opacity="0.2"/>
<rect x="107.342" y="16.6848" width="110.123" height="201.059" rx="10" fill="#151515"/>
<rect x="118.195" y="189.377" width="90.1009" height="17.5196" rx="8.7598" fill="#333333"/>
<path d="M130.178 197.396C130.183 197.393 130.206 197.379 130.21 197.376C130.21 197.376 130.228 197.364 130.235 197.36C130.256 197.345 130.277 197.329 130.296 197.314C130.3 197.31 130.318 197.295 130.321 197.292C130.326 197.288 130.346 197.269 130.349 197.267C130.367 197.25 130.383 197.233 130.398 197.216C130.401 197.213 130.442 197.162 130.445 197.158C130.451 197.15 130.457 197.142 130.462 197.134C130.465 197.13 130.48 197.106 130.485 197.098C130.487 197.094 130.503 197.067 130.505 197.063C130.509 197.055 130.521 197.032 130.522 197.029C130.53 197.014 130.536 196.999 130.542 196.985C130.545 196.977 130.547 196.97 130.55 196.963C130.55 196.963 130.55 196.962 130.55 196.962C130.553 196.955 130.555 196.949 130.557 196.943C130.557 196.942 130.557 196.942 130.557 196.942C130.561 196.929 130.565 196.916 130.568 196.904C130.569 196.901 130.57 196.898 130.571 196.895C130.575 196.88 130.577 196.866 130.58 196.854C130.581 196.845 130.583 196.837 130.584 196.83C130.584 196.828 130.586 196.814 130.586 196.81C130.587 196.802 130.588 196.795 130.589 196.788C130.589 196.784 130.589 196.771 130.589 196.769C130.59 196.768 130.59 196.767 130.59 196.766C130.589 196.761 130.59 196.759 130.59 196.759V192.421C130.416 192.421 130.242 192.466 130.086 192.556L126.848 194.414C126.536 194.593 126.344 194.923 126.344 195.281V198.998C126.344 199.144 126.376 199.286 126.435 199.414L130.178 197.396Z" fill="white"/>
<path d="M134.836 198.998V195.281C134.836 194.923 134.644 194.593 134.332 194.414L131.094 192.556C130.938 192.466 130.764 192.422 130.59 192.422V196.759C130.59 196.759 130.59 196.761 130.59 196.766C130.59 196.767 130.59 196.768 130.59 196.769C130.59 196.771 130.59 196.773 130.59 196.776C130.59 196.779 130.591 196.784 130.591 196.788C130.591 196.795 130.592 196.802 130.593 196.81C130.593 196.814 130.594 196.819 130.595 196.823C130.595 196.825 130.595 196.828 130.596 196.83C130.597 196.837 130.598 196.845 130.6 196.853C130.602 196.866 130.605 196.88 130.609 196.895C130.609 196.898 130.61 196.901 130.611 196.904C130.614 196.916 130.618 196.929 130.622 196.942C130.623 196.942 130.623 196.942 130.623 196.943C130.625 196.949 130.627 196.955 130.629 196.962C130.629 196.962 130.63 196.963 130.63 196.963C130.632 196.97 130.635 196.977 130.638 196.984C130.643 196.999 130.65 197.013 130.657 197.029C130.664 197.044 130.672 197.059 130.681 197.074C130.683 197.078 130.685 197.082 130.687 197.086C130.69 197.09 130.692 197.094 130.694 197.098C130.699 197.106 130.704 197.114 130.709 197.122C130.712 197.126 130.715 197.13 130.717 197.134C130.723 197.142 130.729 197.15 130.735 197.158C130.737 197.162 130.741 197.166 130.744 197.17C130.747 197.174 130.75 197.178 130.753 197.182C130.756 197.186 130.759 197.19 130.763 197.194C130.766 197.198 130.77 197.202 130.773 197.206L130.781 197.216C130.797 197.233 130.813 197.25 130.83 197.267C130.833 197.27 130.836 197.272 130.839 197.275C130.841 197.277 130.843 197.279 130.845 197.28C130.849 197.284 130.854 197.288 130.858 197.292C130.862 197.295 130.866 197.299 130.87 197.302C130.874 197.306 130.879 197.31 130.884 197.314C130.903 197.329 130.923 197.345 130.945 197.36C131.293 197.602 134.444 199.257 134.744 199.415C134.804 199.286 134.836 199.144 134.836 198.998Z" fill="white"/>
<path d="M126.435 199.415C126.521 199.601 126.663 199.759 126.848 199.865L130.086 201.723C130.398 201.902 130.782 201.902 131.094 201.723L134.332 199.865C134.516 199.759 134.659 199.601 134.744 199.415C134.444 199.257 131.294 197.602 130.945 197.36C130.923 197.345 130.875 197.306 130.87 197.302C130.866 197.299 130.85 197.284 130.845 197.28C130.844 197.279 130.797 197.233 130.782 197.216C130.779 197.213 130.756 197.186 130.753 197.182C130.75 197.178 130.738 197.162 130.735 197.158C130.729 197.15 130.712 197.126 130.71 197.122C130.704 197.114 130.683 197.079 130.681 197.075C130.679 197.071 130.659 197.033 130.657 197.029C130.65 197.014 130.644 196.999 130.638 196.985C130.635 196.978 130.625 196.949 130.623 196.943C130.623 196.942 130.614 196.916 130.611 196.904C130.61 196.901 130.602 196.866 130.6 196.854C130.598 196.845 130.597 196.837 130.596 196.83C130.595 196.828 130.593 196.814 130.593 196.81C130.592 196.802 130.591 196.795 130.591 196.788C130.591 196.784 130.59 196.78 130.59 196.776C130.59 196.773 130.59 196.771 130.59 196.769C130.59 196.768 130.59 196.767 130.59 196.766C130.59 196.767 130.59 196.768 130.59 196.769C130.59 196.771 130.59 196.773 130.59 196.776C130.589 196.779 130.589 196.784 130.589 196.788C130.588 196.795 130.588 196.802 130.587 196.81C130.586 196.814 130.585 196.828 130.584 196.83C130.583 196.837 130.575 196.88 130.571 196.895C130.57 196.898 130.557 196.942 130.557 196.943C130.555 196.949 130.545 196.977 130.542 196.985C130.536 196.999 130.53 197.014 130.523 197.029C130.521 197.032 130.501 197.071 130.499 197.075C130.497 197.078 130.488 197.094 130.485 197.098C130.48 197.106 130.465 197.13 130.462 197.134C130.457 197.142 130.439 197.166 130.436 197.17C130.433 197.174 130.401 197.213 130.398 197.216C130.383 197.233 130.367 197.25 130.349 197.266C130.346 197.269 130.301 197.31 130.296 197.314C130.277 197.329 130.256 197.345 130.235 197.359C130.228 197.364 130.183 197.393 130.178 197.396L126.435 199.415Z" fill="white"/>
<path d="M131.769 196.615C131.613 196.615 131.473 196.548 131.377 196.441L131.377 196.441C131.184 196.226 130.903 196.091 130.59 196.091C130.007 196.091 129.535 196.56 129.535 197.139C129.535 197.719 130.007 198.188 130.59 198.188C130.903 198.188 131.184 198.053 131.377 197.838V197.838C131.473 197.731 131.613 197.664 131.769 197.664C132.061 197.664 132.297 197.898 132.297 198.188C132.297 198.325 132.244 198.45 132.157 198.543C131.884 198.844 131.524 199.066 131.117 199.17V199.763C131.117 200.051 130.882 200.285 130.592 200.285C130.299 200.285 130.062 200.049 130.062 199.759V199.17C129.152 198.938 128.48 198.117 128.48 197.139C128.48 196.162 129.152 195.341 130.062 195.109V194.516C130.062 194.228 130.298 193.994 130.588 193.994C130.88 193.994 131.117 194.23 131.117 194.52V195.109C131.522 195.213 131.88 195.433 132.153 195.731C132.158 195.737 132.164 195.743 132.169 195.749C132.171 195.751 132.173 195.754 132.175 195.756L132.175 195.756C132.251 195.847 132.297 195.964 132.297 196.091C132.297 196.381 132.061 196.615 131.769 196.615Z" fill="#333333"/>
<path fill-rule="evenodd" clip-rule="evenodd" d="M148.202 194.734C148.058 194.659 147.93 194.582 147.821 194.509C148.093 194.278 148.41 194.079 148.776 193.943C148.68 194.057 148.584 194.177 148.492 194.301C148.392 194.438 148.294 194.583 148.202 194.734ZM149.056 194.717C149.194 194.529 149.34 194.356 149.484 194.202V195.137C149.264 195.112 149.055 195.065 148.858 195.004C148.92 194.907 148.987 194.811 149.056 194.717ZM149.484 196.706V195.841C149.143 195.809 148.822 195.733 148.53 195.634C148.459 195.811 148.407 195.988 148.38 196.16C148.351 196.351 148.172 196.482 147.981 196.453C147.79 196.423 147.659 196.244 147.689 196.053C147.725 195.817 147.795 195.584 147.886 195.359C147.668 195.246 147.48 195.127 147.327 195.017C147.015 195.402 146.813 195.796 146.716 196.073C146.651 196.255 146.451 196.351 146.269 196.287C146.087 196.222 145.991 196.023 146.055 195.84C146.205 195.416 146.527 194.822 147.032 194.293C147.66 193.634 148.589 193.058 149.834 193.058C151.076 193.058 152.033 193.632 152.694 194.285C153.227 194.812 153.582 195.402 153.755 195.823C153.829 196.002 153.744 196.207 153.565 196.28C153.386 196.354 153.182 196.269 153.108 196.09C152.99 195.803 152.754 195.392 152.402 194.994C152.228 195.112 152.023 195.24 151.788 195.361C151.88 195.588 151.947 195.822 151.979 196.059C152.006 196.251 151.872 196.427 151.68 196.453C151.489 196.48 151.312 196.346 151.286 196.154C151.263 195.985 151.214 195.811 151.145 195.636C150.853 195.735 150.532 195.81 150.184 195.841V196.706C150.184 196.9 150.027 197.056 149.834 197.056C149.64 197.056 149.484 196.9 149.484 196.706ZM150.89 193.939C151.265 194.072 151.595 194.269 151.882 194.498C151.757 194.578 151.621 194.659 151.473 194.736C151.382 194.585 151.283 194.441 151.183 194.305C151.088 194.177 150.99 194.055 150.89 193.939ZM150.184 195.138C150.408 195.114 150.619 195.067 150.817 195.006C150.755 194.91 150.689 194.815 150.62 194.721C150.48 194.531 150.33 194.355 150.184 194.2V195.138ZM152.678 196.399C154.075 196.264 155.168 196.947 155.836 197.364L155.836 197.364C155.885 197.395 155.932 197.424 155.976 197.451C156.065 197.507 156.113 197.576 156.126 197.604C156.126 197.693 156.021 197.676 155.841 197.648L155.841 197.648C155.718 197.629 155.56 197.604 155.377 197.604C155.017 197.604 154.327 197.802 154.027 197.901C153.391 198.156 152.322 199.059 151.463 199.785L151.463 199.785L151.463 199.785C151.31 199.914 151.165 200.037 151.029 200.15C150.309 200.749 149.134 201.165 148.48 201.199C147.131 201.349 145.932 200.599 145.482 200.3C144.953 199.947 143.844 199.453 143.562 199.419C143.413 199.402 143.372 199.281 143.393 199.218C143.393 199.218 143.683 198.501 145.182 198.95C145.605 199.077 145.932 199.25 146.681 199.7C147.03 199.909 147.51 200 147.731 200C148.152 200 148.78 199.85 149.38 199.55C149.86 199.31 150.091 199.117 150.189 199.03C150.277 198.936 150.384 198.755 150.279 198.651C150.153 198.524 150.027 198.611 149.721 198.821L149.721 198.821C149.664 198.86 149.6 198.903 149.53 198.95C149.17 199.19 148.58 199.35 148.331 199.4C147.881 199.55 147.281 199.4 147.131 199.25C147.011 199.13 147.281 199 147.431 198.95C147.481 198.95 147.701 198.89 148.181 198.651C148.78 198.351 148.78 198.351 149.68 197.751L149.68 197.751C149.83 197.651 149.973 197.55 150.112 197.451C150.805 196.961 151.429 196.519 152.678 196.399ZM146.021 196.617C145.542 196.477 145.126 196.552 145.1 196.617C145.07 196.642 145.042 196.792 145.283 196.882C145.584 196.996 146.408 197.502 146.635 197.659C146.68 197.69 146.739 197.731 146.806 197.778L146.806 197.778C147.076 197.967 147.482 198.251 147.695 198.377C147.864 198.477 147.993 198.484 148.082 198.422C148.135 198.385 148.247 198.296 148.366 198.181C148.459 198.09 148.402 197.943 148.366 197.916C148.191 197.785 147.776 197.482 147.511 197.314C147.18 197.105 146.691 196.812 146.021 196.617ZM144.94 196.997C144.424 196.788 144.188 196.865 144.135 196.93C144.028 197.019 144.09 197.126 144.135 197.168C144.421 197.384 145.046 197.816 145.306 197.977C145.613 198.168 146.263 198.652 146.51 198.837L146.51 198.837L146.51 198.837L146.548 198.865C146.738 199.007 146.902 198.948 146.965 198.925C147.082 198.867 147.301 198.756 147.39 198.678C147.498 198.585 147.418 198.46 147.357 198.41C147.09 198.221 146.508 197.814 146.32 197.698C146.085 197.552 145.586 197.258 144.94 196.997ZM147.027 196.681C147.068 196.588 147.289 196.453 147.952 196.681C148.662 196.926 149.104 197.196 149.24 197.287C149.305 197.328 149.416 197.434 149.338 197.528C149.26 197.621 149.183 197.677 149.136 197.703C149.107 197.725 149.007 197.78 148.922 197.767C148.866 197.759 148.784 197.722 148.664 197.668L148.664 197.668C148.602 197.641 148.53 197.609 148.446 197.573C148.248 197.49 147.528 197.115 147.17 196.909C147.11 196.877 146.996 196.786 147.027 196.681Z" fill="white"/>
<path d="M175.859 200.204L175.859 200.204C175.838 200.181 175.816 200.155 175.792 200.127C175.615 199.924 175.343 199.612 175.121 199.121C174.868 198.562 174.688 197.796 174.688 196.681C174.688 195.287 173.801 194.213 172.652 193.952L172.263 193.864V193.464V193.032C172.263 192.973 172.241 192.928 172.216 192.9C172.192 192.874 172.17 192.869 172.156 192.869C172.143 192.869 172.121 192.874 172.097 192.9C172.072 192.928 172.05 192.973 172.05 193.032V193.464V193.864L171.661 193.952C170.512 194.213 169.625 195.287 169.625 196.681C169.625 197.796 169.445 198.562 169.192 199.121C168.97 199.612 168.698 199.924 168.521 200.127C168.497 200.155 168.475 200.18 168.454 200.204C168.424 200.24 168.41 200.282 168.41 200.327L175.859 200.204ZM175.859 200.204C175.889 200.24 175.903 200.281 175.903 200.327L175.903 200.328M175.859 200.204L175.903 200.328M175.903 200.328C175.902 200.383 175.881 200.433 175.855 200.463C175.834 200.488 175.816 200.494 175.794 200.494H168.519C168.497 200.494 168.479 200.488 168.458 200.463M175.903 200.328L168.458 200.463M168.458 200.463C168.432 200.433 168.411 200.383 168.41 200.327L168.458 200.463ZM172.724 202.157C172.587 202.364 172.37 202.484 172.156 202.484C171.943 202.484 171.726 202.364 171.589 202.157H172.724Z" stroke="white"/>
<path fill-rule="evenodd" clip-rule="evenodd" d="M193.389 192.866C192.56 192.866 191.889 193.538 191.889 194.366V195.622C191.889 196.45 192.56 197.122 193.389 197.122H194.644C195.473 197.122 196.144 196.45 196.144 195.622V194.366C196.144 193.538 195.473 192.866 194.644 192.866H193.389ZM192.889 194.366C192.889 194.09 193.112 193.866 193.389 193.866H194.644C194.92 193.866 195.144 194.09 195.144 194.366V195.622C195.144 195.898 194.92 196.122 194.644 196.122H193.389C193.112 196.122 192.889 195.898 192.889 195.622V194.366ZM188.142 192.87C187.313 192.87 186.642 193.542 186.642 194.37V195.626C186.642 196.454 187.313 197.126 188.142 197.126H189.397C190.226 197.126 190.897 196.454 190.897 195.626V194.37C190.897 193.542 190.226 192.87 189.397 192.87H188.142ZM187.642 194.37C187.642 194.094 187.866 193.87 188.142 193.87H189.397C189.674 193.87 189.897 194.094 189.897 194.37V195.626C189.897 195.902 189.674 196.126 189.397 196.126H188.142C187.866 196.126 187.642 195.902 187.642 195.626V194.37ZM186.664 199.571C186.664 198.742 187.336 198.071 188.164 198.071H189.42C190.248 198.071 190.92 198.742 190.92 199.571V200.826C190.92 201.655 190.248 202.326 189.42 202.326H188.164C187.336 202.326 186.664 201.655 186.664 200.826V199.571ZM188.164 199.071C187.888 199.071 187.664 199.294 187.664 199.571V200.826C187.664 201.102 187.888 201.326 188.164 201.326H189.42C189.696 201.326 189.92 201.102 189.92 200.826V199.571C189.92 199.294 189.696 199.071 189.42 199.071H188.164ZM193.385 198.069C192.556 198.069 191.885 198.74 191.885 199.569V200.824C191.885 201.653 192.556 202.324 193.385 202.324H194.64C195.469 202.324 196.14 201.653 196.14 200.824V199.569C196.14 198.74 195.469 198.069 194.64 198.069H193.385ZM192.885 199.569C192.885 199.292 193.108 199.069 193.385 199.069H194.64C194.916 199.069 195.14 199.292 195.14 199.569V200.824C195.14 201.1 194.916 201.324 194.64 201.324H193.385C193.108 201.324 192.885 201.1 192.885 200.824V199.569Z" fill="white"/>
<path d="M122.275 38.056C122.281 38.0595 122.31 38.0778 122.315 38.0808C122.316 38.0811 122.338 38.0955 122.347 38.1015C122.375 38.12 122.401 38.139 122.425 38.1582C122.431 38.1628 122.453 38.1809 122.458 38.185C122.463 38.1897 122.489 38.2129 122.493 38.2166C122.515 38.2372 122.536 38.2582 122.555 38.2793C122.559 38.2831 122.612 38.346 122.615 38.3509C122.623 38.3607 122.63 38.3707 122.637 38.3806C122.641 38.3855 122.66 38.415 122.667 38.4249C122.67 38.4298 122.69 38.4638 122.692 38.4686C122.697 38.4781 122.712 38.5064 122.714 38.511C122.723 38.5297 122.732 38.548 122.739 38.5657C122.743 38.5745 122.746 38.5834 122.749 38.592C122.749 38.5925 122.75 38.5932 122.75 38.5937C122.753 38.6017 122.756 38.6097 122.758 38.6174C122.758 38.6178 122.759 38.6181 122.759 38.6185C122.764 38.6347 122.769 38.6504 122.773 38.6653C122.774 38.6692 122.775 38.6731 122.776 38.6769C122.781 38.6951 122.785 38.7121 122.788 38.7278C122.79 38.738 122.791 38.7479 122.793 38.757C122.793 38.7598 122.796 38.7763 122.796 38.7814C122.797 38.7915 122.798 38.8006 122.799 38.8083C122.799 38.8142 122.8 38.8298 122.8 38.8321C122.8 38.8338 122.8 38.8353 122.8 38.8366C122.8 38.842 122.8 38.8448 122.8 38.8448V44.2138C122.578 44.2138 122.356 44.1585 122.157 44.0477L118.021 41.7475C117.623 41.5261 117.378 41.1169 117.378 40.674V36.0737C117.378 35.8925 117.419 35.7172 117.495 35.558L122.275 38.056Z" fill="#0087FE"/>
<path d="M128.223 36.0737V40.6741C128.223 41.1169 127.978 41.5261 127.58 41.7476L123.444 44.0477C123.245 44.1585 123.023 44.2138 122.801 44.2138V38.845C122.801 38.845 122.8 38.8421 122.801 38.8368C122.801 38.8355 122.801 38.8339 122.801 38.8322C122.801 38.8299 122.801 38.8272 122.801 38.8242C122.801 38.8197 122.802 38.8145 122.802 38.8085C122.803 38.8006 122.803 38.7915 122.805 38.7815C122.805 38.7764 122.806 38.7711 122.807 38.7655C122.807 38.7628 122.808 38.76 122.808 38.7571C122.809 38.748 122.811 38.7382 122.813 38.7279C122.816 38.7121 122.82 38.6952 122.825 38.677C122.825 38.6733 122.827 38.6694 122.828 38.6655C122.832 38.6506 122.837 38.6349 122.842 38.6186C122.842 38.6182 122.842 38.618 122.842 38.6176C122.845 38.6098 122.848 38.6018 122.851 38.5938C122.851 38.5933 122.851 38.5927 122.851 38.5922C122.855 38.5836 122.858 38.5746 122.862 38.5658C122.869 38.548 122.877 38.5299 122.886 38.5112C122.895 38.4925 122.906 38.4735 122.917 38.4543C122.919 38.4495 122.922 38.4447 122.925 38.4397C122.928 38.4349 122.931 38.4301 122.934 38.425C122.94 38.4153 122.946 38.4054 122.953 38.3957C122.957 38.3907 122.96 38.3858 122.963 38.3807C122.97 38.3709 122.978 38.3609 122.985 38.351C122.989 38.3461 122.993 38.341 122.997 38.336C123.001 38.331 123.005 38.326 123.009 38.3209C123.013 38.316 123.017 38.3111 123.022 38.306C123.026 38.3011 123.03 38.296 123.035 38.2909L123.045 38.2793C123.064 38.2582 123.085 38.2372 123.108 38.2166C123.112 38.2129 123.115 38.2094 123.119 38.2059C123.122 38.2037 123.124 38.2015 123.127 38.1995C123.132 38.1947 123.138 38.1898 123.143 38.185C123.148 38.1809 123.153 38.1767 123.158 38.1726C123.164 38.1678 123.17 38.163 123.176 38.1581C123.2 38.1387 123.226 38.1198 123.254 38.1013C123.699 37.8017 127.723 35.7528 128.106 35.5577C128.182 35.7172 128.223 35.8926 128.223 36.0737Z" fill="#009CFD"/>
<path d="M117.495 35.5578C117.604 35.3275 117.786 35.131 118.021 35.0002L122.157 32.7C122.555 32.4786 123.046 32.4786 123.444 32.7L127.58 35.0002C127.815 35.131 127.997 35.3276 128.106 35.5578C127.723 35.7528 123.699 37.8017 123.254 38.1014C123.226 38.12 123.164 38.1678 123.158 38.1727C123.153 38.1767 123.132 38.1946 123.127 38.1994C123.124 38.2015 123.065 38.2582 123.045 38.2792C123.042 38.2831 123.013 38.316 123.009 38.3209C123.005 38.3258 122.989 38.3459 122.986 38.3509C122.978 38.3607 122.957 38.3906 122.953 38.3955C122.947 38.4052 122.92 38.4492 122.917 38.454C122.914 38.4588 122.889 38.5062 122.886 38.5109C122.877 38.5296 122.869 38.5479 122.862 38.5655C122.858 38.5743 122.845 38.6095 122.843 38.6173C122.842 38.6177 122.832 38.6501 122.828 38.6652C122.827 38.6691 122.816 38.712 122.813 38.7277C122.811 38.738 122.809 38.7479 122.808 38.7569C122.807 38.7598 122.805 38.7763 122.805 38.7813C122.803 38.7915 122.802 38.8005 122.802 38.8083C122.801 38.8142 122.801 38.8194 122.801 38.824C122.801 38.827 122.801 38.8297 122.801 38.8321C122.801 38.8338 122.801 38.8353 122.801 38.8366C122.801 38.8353 122.801 38.8338 122.8 38.8321C122.8 38.8297 122.8 38.827 122.8 38.824C122.8 38.8195 122.8 38.8143 122.799 38.8083C122.799 38.8005 122.798 38.7915 122.797 38.7813C122.796 38.7763 122.794 38.7598 122.793 38.7569C122.792 38.7479 122.781 38.6949 122.776 38.6769C122.775 38.6731 122.759 38.6178 122.759 38.6174C122.756 38.6096 122.743 38.5745 122.739 38.5656C122.732 38.5479 122.724 38.5297 122.715 38.511C122.712 38.5063 122.687 38.459 122.684 38.4542C122.682 38.4494 122.67 38.4299 122.667 38.425C122.661 38.4152 122.641 38.3856 122.637 38.3807C122.631 38.3709 122.608 38.3409 122.604 38.3359C122.6 38.331 122.559 38.2833 122.556 38.2794C122.536 38.2583 122.515 38.2373 122.493 38.2167C122.489 38.213 122.431 38.163 122.425 38.1583C122.401 38.1389 122.375 38.12 122.347 38.1016C122.338 38.0955 122.281 38.0597 122.275 38.0561L117.495 35.5578Z" fill="#0093FE"/>
<path d="M124.307 39.0227C124.108 39.0227 123.929 39.1059 123.806 39.2382L123.805 39.238C123.559 39.5041 123.2 39.6716 122.801 39.6716C122.056 39.6716 121.453 39.0906 121.453 38.3739C121.453 37.6571 122.056 37.0761 122.801 37.0761C123.2 37.0761 123.559 37.2436 123.806 37.5097V37.5096C123.929 37.6418 124.108 37.725 124.307 37.725C124.679 37.725 124.98 37.4344 124.98 37.0761C124.98 36.9062 124.913 36.7518 124.802 36.636C124.453 36.2637 123.994 35.9892 123.474 35.8604V35.127C123.474 34.77 123.174 34.4806 122.803 34.4806C122.43 34.4806 122.127 34.7722 122.127 35.1319V35.8601C120.965 36.1482 120.106 37.1645 120.106 38.3739C120.106 39.5832 120.965 40.5995 122.127 40.8876V41.6207C122.127 41.9777 122.427 42.2671 122.798 42.2671C123.171 42.2671 123.474 41.9755 123.474 41.6158V40.8874C123.991 40.759 124.448 40.4866 124.796 40.117C124.804 40.1097 124.81 40.1023 124.817 40.0948C124.82 40.092 124.823 40.0891 124.825 40.0863L124.825 40.0861C124.922 39.9737 124.98 39.8293 124.98 39.6716C124.98 39.3133 124.679 39.0227 124.307 39.0227Z" fill="white"/>
<rect x="147.399" y="5.00665" width="30.0336" height="4.17134" rx="2.08567" fill="#AAAAAA"/>
<rect x="147.395" y="221.913" width="30.0336" height="10.8455" rx="5.42274" fill="#AAAAAA"/>
<rect x="117.378" y="57.5631" width="90.1009" height="45.8847" rx="5" fill="#0094FF"/>
<path fill-rule="evenodd" clip-rule="evenodd" d="M166.806 59.9613C166.739 59.1618 166.103 57.5628 164.095 57.5628H166.806V59.9613ZM202.484 57.5628C205.245 57.5628 207.484 59.8014 207.484 62.5628V67.1569H171.813C169.052 67.1569 166.813 64.9183 166.813 62.1569V57.5628H202.484Z" fill="#FFD600"/>
<path fill-rule="evenodd" clip-rule="evenodd" d="M166.806 59.9613C166.739 59.1618 166.103 57.5628 164.095 57.5628H166.806V59.9613ZM202.484 57.5628C205.245 57.5628 207.484 59.8014 207.484 62.5628V67.1569H171.813C169.052 67.1569 166.813 64.9183 166.813 62.1569V57.5628H202.484Z" fill="#4062DA"/>
<path fill-rule="evenodd" clip-rule="evenodd" d="M166.806 59.9613C166.739 59.1618 166.103 57.5628 164.095 57.5628H166.806V59.9613ZM202.484 57.5628C205.245 57.5628 207.484 59.8014 207.484 62.5628V67.1569H171.813C169.052 67.1569 166.813 64.9183 166.813 62.1569V57.5628H202.484Z" fill="#333333"/>
<rect x="117.376" y="113.459" width="90.1009" height="25.8623" rx="5" fill="#C9C9C9"/>
<rect x="117.378" y="149.332" width="90.1009" height="25.8623" rx="5" fill="#C9C9C9"/>
<path d="M183.005 33.3694H181.783C181.231 33.3694 180.783 33.8172 180.783 34.3694V35.7112M183.005 41.7121H181.783C181.231 41.7121 180.783 41.2644 180.783 40.7121V39.3709M186.88 33.3694H188.126C188.678 33.3694 189.126 33.8172 189.126 34.3694V35.7112M186.88 41.7121H188.126C188.678 41.7121 189.126 41.2644 189.126 40.7121V39.3709M180.783 37.4334H189.126" stroke="white"/>
<path fill-rule="evenodd" clip-rule="evenodd" d="M197.074 32.455H196.574V32.955V34.8879H197.574V33.455H198.837V32.455H197.074ZM206.437 32.455H206.937V32.955V34.8879H205.937V33.455H204.674V32.455H206.437ZM197.08 42.8221H196.58V42.3221V40.3892H197.58V41.8221H198.843V42.8221H197.08ZM206.441 42.8221H206.941V42.3221V40.3892H205.941V41.8221H204.678V42.8221H206.441ZM202.587 33.7672H202.087V34.2672V36.7607V37.2607H202.587H205.022H205.522V36.7607V34.2672V33.7672H205.022H202.587ZM203.087 36.2607V34.7672H204.522V36.2607H203.087ZM197.964 33.7965H198.464H200.899H201.399V34.2965V36.79V37.29H200.899H198.464H197.964V36.79V34.2965V33.7965ZM198.964 34.7965V36.29H200.399V34.7965H198.964ZM197.931 37.9545H198.431H200.866H201.366V38.4545V40.9481V41.4481H200.866H198.431H197.931V40.9481V38.4545V37.9545ZM198.931 38.9545V40.4481H200.366V38.9545H198.931ZM203.091 38.957H204.694V40.5678H203.091V38.957Z" fill="white"/>
<rect x="163.668" y="81.9969" width="30.0336" height="2.5028" rx="1.2514" fill="white"/>
<path d="M119.836 273.371V275.956C119.836 278.093 125.042 279.83 131.459 279.83C137.877 279.83 143.083 278.093 143.083 275.956V273.371C140.583 275.133 136.012 275.956 131.459 275.956C126.907 275.956 122.336 275.133 119.836 273.371ZM139.208 256.583C145.626 256.583 150.832 254.846 150.832 252.709C150.832 250.572 145.626 248.834 139.208 248.834C132.791 248.834 127.585 250.572 127.585 252.709C127.585 254.846 132.791 256.583 139.208 256.583ZM119.836 267.02V270.144C119.836 272.281 125.042 274.019 131.459 274.019C137.877 274.019 143.083 272.281 143.083 270.144V267.02C140.583 269.079 136.006 270.144 131.459 270.144C126.913 270.144 122.336 269.079 119.836 267.02ZM145.02 267.686C148.489 267.014 150.832 265.767 150.832 264.332V261.747C149.428 262.74 147.363 263.418 145.02 263.836V267.686ZM131.459 258.521C125.042 258.521 119.836 260.688 119.836 263.364C119.836 266.04 125.042 268.207 131.459 268.207C137.877 268.207 143.083 266.04 143.083 263.364C143.083 260.688 137.877 258.521 131.459 258.521ZM144.736 261.929C148.368 261.275 150.832 259.992 150.832 258.521V255.935C148.683 257.455 144.99 258.272 141.103 258.466C142.889 259.332 144.203 260.494 144.736 261.929Z" fill="#FFBC0F"/>
<circle cx="164.093" cy="268.635" r="11.3653" fill="url(#paint0_linear_0_194)"/>
<path d="M173.077 268.635C173.077 273.596 169.055 277.619 164.093 277.619C159.131 277.619 155.108 273.596 155.108 268.635C155.108 263.673 159.131 259.65 164.093 259.65C169.055 259.65 173.077 263.673 173.077 268.635Z" fill="url(#paint1_linear_0_194)" stroke="white" stroke-width="0.5"/>
<path d="M163.984 263.956C164.917 263.956 165.65 264.129 166.182 264.474C166.714 264.819 167.073 265.309 167.26 265.944H168.31V266.7H167.4C167.409 266.784 167.414 266.868 167.414 266.952C167.423 267.036 167.428 267.12 167.428 267.204C167.428 267.325 167.423 267.451 167.414 267.582C167.405 267.703 167.391 267.825 167.372 267.946H168.31V268.702H167.176C167.036 269.085 166.821 269.425 166.532 269.724C166.243 270.023 165.869 270.261 165.412 270.438C164.955 270.606 164.399 270.69 163.746 270.69H162.962V273.952H161.8V268.702H160.582V267.946H161.8V266.7H160.582V265.944H161.8V263.956H163.984ZM165.874 268.702H162.962V269.654H163.676C164.227 269.654 164.684 269.579 165.048 269.43C165.412 269.281 165.687 269.038 165.874 268.702ZM166.154 266.7H162.962V267.946H166.14C166.159 267.843 166.173 267.736 166.182 267.624C166.191 267.503 166.196 267.381 166.196 267.26C166.196 267.157 166.191 267.064 166.182 266.98C166.182 266.887 166.173 266.793 166.154 266.7ZM163.942 264.992H162.962V265.944H165.916C165.748 265.627 165.501 265.389 165.174 265.23C164.847 265.071 164.437 264.992 163.942 264.992Z" fill="white"/>
<circle cx="190.956" cy="268.635" r="11.3653" fill="url(#paint2_linear_0_194)"/>
<path d="M199.941 268.635C199.941 273.596 195.918 277.619 190.956 277.619C185.994 277.619 181.972 273.596 181.972 268.635C181.972 263.673 185.994 259.65 190.956 259.65C195.918 259.65 199.941 263.673 199.941 268.635Z" fill="url(#paint3_linear_0_194)" stroke="white" stroke-width="0.5"/>
<path d="M193.056 269.668C192.761 269.668 192.496 269.8 192.313 270.011L192.312 270.011C191.946 270.434 191.414 270.701 190.821 270.701C189.717 270.701 188.822 269.776 188.822 268.635C188.822 267.493 189.717 266.568 190.821 266.568C191.414 266.568 191.946 266.835 192.313 267.259V267.258C192.496 267.469 192.761 267.601 193.056 267.601C193.608 267.601 194.056 267.139 194.056 266.568C194.056 266.298 193.955 266.052 193.791 265.867C193.273 265.275 192.592 264.838 191.821 264.632V263.465C191.821 262.896 191.375 262.435 190.825 262.435C190.271 262.435 189.822 262.9 189.822 263.472V264.632C188.098 265.091 186.823 266.709 186.823 268.635C186.823 270.56 188.098 272.178 189.822 272.637V273.805C189.822 274.373 190.268 274.834 190.818 274.834C191.372 274.834 191.821 274.37 191.821 273.797V272.637C192.588 272.432 193.266 271.999 193.783 271.41C193.793 271.399 193.804 271.387 193.814 271.375C193.818 271.37 193.822 271.366 193.826 271.361L193.825 271.361C193.969 271.182 194.056 270.952 194.056 270.701C194.056 270.13 193.608 269.668 193.056 269.668Z" fill="white"/>
<path d="M58.6867 279.678C62.9743 279.732 67.8642 279.554 70.6104 276.613C71.2482 275.922 71.7442 275.072 71.6379 274.186C71.4253 272.273 68.821 271.458 66.695 271.139C54.2752 269.296 41.5719 270.005 29.0104 270.749C21.1617 271.21 13.2243 271.67 5.74767 273.814C1.84989 274.93 -1.2506 277.836 3.67479 279.111C8.44072 280.352 15.7401 279.165 20.7541 279.218C33.3865 279.36 46.0366 279.519 58.6867 279.678Z" fill="url(#paint4_linear_0_194)"/>
<path d="M58.6867 279.678C62.9743 279.732 67.8642 279.554 70.6104 276.613C71.2482 275.922 71.7442 275.072 71.6379 274.186C71.4253 272.273 68.821 271.458 66.695 271.139C54.2752 269.296 41.5719 270.005 29.0104 270.749C21.1617 271.21 13.2243 271.67 5.74767 273.814C1.84989 274.93 -1.2506 277.836 3.67479 279.111C8.44072 280.352 15.7401 279.165 20.7541 279.218C33.3865 279.36 46.0366 279.519 58.6867 279.678Z" fill="url(#paint5_linear_0_194)"/>
<path d="M20.5949 270.961C21.6402 270.961 22.7033 270.979 23.7486 270.979C23.9258 270.979 24.1205 270.979 24.2623 270.855C24.3863 270.731 24.4217 270.554 24.4571 270.377C24.5989 269.278 24.7406 268.162 24.9001 267.064C24.8823 267.205 21.3744 266.585 20.9491 266.94C20.1164 267.577 20.5772 270.04 20.5949 270.961Z" fill="#F0E5D4"/>
<path d="M42.9008 270.944C43.893 270.962 44.8853 270.962 45.8952 270.944C46.2141 270.944 46.5684 270.926 46.7988 270.696C47.0291 270.466 47.0466 270.093 47.0466 269.775C47.0466 268.889 47.0466 268.003 47.0466 267.117C47.0466 267.028 47.0468 266.922 46.9936 266.833C46.9228 266.709 46.7632 266.692 46.6214 266.674C45.8241 266.585 43.4501 266.32 42.9186 267.046C42.6883 267.347 43.0426 270.962 42.9008 270.944Z" fill="#F0E5D4"/>
<path d="M45.2749 117.637C48.4818 113.703 51.4405 118.044 52.5922 121.835C57.2341 137.125 58.7046 153.532 60.1397 169.761C60.37 172.365 60.6004 174.952 60.8307 177.556C61.6634 186.911 62.4785 196.283 63.3112 205.638C63.3643 206.187 54.0804 208.544 53.2832 208.792C48.4286 210.227 43.397 210.315 38.4538 209.979C32.2705 209.553 26.1227 208.473 19.904 208.544C17.2641 208.579 14.571 208.809 12.002 208.065C13.0651 202.608 13.1715 196.992 13.4195 191.429C13.9865 177.999 15.2975 164.605 16.5909 151.228C17.3173 143.716 17.7602 136.045 18.6815 128.603C19.1953 124.529 20.843 117.406 24.3687 115.599C28.1248 113.686 29.9142 118.682 32.9438 119.957C36.3987 121.428 40.6509 121.658 43.84 119.089C44.4423 118.629 44.8674 118.115 45.2749 117.637Z" fill="#333333"/>
<path d="M15.5808 75.7708C15.7757 75.0444 15.8466 74.2648 15.7934 73.5207C15.7403 72.7766 15.4391 71.9085 14.695 71.7667C13.9686 71.625 13.3662 72.3159 13.0118 72.9538C11.3464 75.8771 10.9212 79.3142 10.5315 82.6451C11.6831 82.9994 12.8879 83.1943 14.0749 83.1766C14.0749 81.777 14.4115 80.395 15.0671 79.1548C15.7758 77.8437 16.8564 76.5858 16.7501 75.0976C16.5552 75.0799 16.3604 75.0621 16.1478 75.0444C15.9529 75.2747 15.7757 75.5227 15.5808 75.7708Z" fill="#E8DBCE"/>
<path d="M38.7373 124.848C37.4085 120.241 27.1326 118.328 23.2702 116.485C19.089 114.483 15.3151 111.613 12.2678 108.122C11.5945 107.343 10.939 106.51 10.5846 105.536C9.62789 102.896 14.7305 82.7868 14.2876 82.6451L9.876 81.334C7.78537 87.2162 5.64151 93.0983 3.60403 98.9981C2.0272 103.551 -0.701256 108.3 0.166888 113.296C0.733839 116.45 4.13556 118.576 6.38565 120.861C8.88378 123.412 14.695 129.206 17.8664 132.448L27.3451 142.033C29.4534 146.746 34.3257 134.167 35.6013 132.555C37.0719 130.641 39.4814 127.452 38.7373 124.848Z" fill="#333333"/>
<path d="M21.3391 224.365C21.9769 211.201 20.6302 197.754 20.7543 184.519C20.329 179.93 21.02 175.253 22.7563 170.93C22.8626 170.664 22.9866 170.381 23.1992 170.186C23.8725 169.548 25.0064 169.885 25.8746 170.221C34.3257 173.464 44.3182 172.702 52.0252 168.113C53.5489 170.275 53.9917 172.932 54.3638 175.483C54.9662 179.629 55.6395 183.757 55.799 187.921V187.939C55.8344 188.824 55.8522 189.728 55.8344 190.614C55.7281 195.805 54.6474 200.908 53.8147 206.01C53.2654 209.341 52.7871 212.707 52.7339 216.074C52.6985 218.837 52.2733 219.847 51.9013 223.763C51.2457 230.566 50.8205 237.99 50.1296 244.793C49.3854 252.075 48.6589 259.374 48.0566 266.674C48.0388 266.957 48.0033 267.259 47.9856 267.542C47.5958 267.648 41.572 268.942 41.572 267.471C41.0936 253.297 40.5976 239.124 40.1193 224.95C39.9244 218.979 39.694 212.938 38.0818 207.25C37.4085 207.321 36.753 207.374 36.0797 207.445C32.4122 226.19 31.0125 244.864 27.345 263.609C27.0261 265.257 26.6364 267.046 25.4671 268.109C24.2978 269.172 19.833 268.977 19.4787 267.329C20.5063 253.032 20.6304 238.698 21.3391 224.365Z" fill="#363F4C"/>
<path d="M42.1212 269.544C44.265 269.367 46.4442 269.455 48.5526 269.81C50.1826 271.032 51.9897 272.042 53.8855 272.804C54.4347 273.034 55.0194 273.247 55.4269 273.672C55.8344 274.097 55.9938 274.824 55.6217 275.284C55.2851 275.674 54.7003 275.727 54.1865 275.727C50.2179 275.763 46.2493 275.426 42.3516 274.717C42.1212 274.682 41.8732 274.629 41.696 274.452C41.5543 274.31 41.5011 274.133 41.448 273.938C41.0405 272.485 41.2885 270.837 42.1212 269.544Z" fill="#736357"/>
<path d="M25.591 269.65C23.4295 269.615 21.2859 269.828 19.1775 270.306C17.6184 271.617 15.8821 272.733 14.0395 273.619C13.508 273.867 12.941 274.115 12.5689 274.576C12.1969 275.036 12.0729 275.763 12.4804 276.206C12.8347 276.578 13.4194 276.596 13.9332 276.56C17.9018 276.365 21.8351 275.781 25.6974 274.842C25.9278 274.788 26.1758 274.717 26.3352 274.54C26.4593 274.399 26.5124 274.204 26.5478 274.027C26.849 272.521 26.4946 270.891 25.591 269.65Z" fill="#736357"/>
<path d="M36.8416 115.493C38.6311 115.475 40.2786 114.447 41.5188 113.154C46.143 108.37 46.0013 100.858 45.5584 94.2143C45.5052 93.5056 45.452 92.7615 45.0445 92.1769C44.4244 91.2733 43.2198 91.043 42.1391 90.9189C37.5149 90.9189 32.9614 91.1316 28.3018 91.3619C27.912 91.3796 27.4868 91.415 27.1856 91.6454C26.849 91.9111 26.7426 92.3363 26.6717 92.7438C26.3528 94.6573 26.973 96.6593 26.9375 98.6082C26.9021 100.61 26.9907 102.63 27.345 104.597C28.0183 108.441 29.79 112.02 33.1208 114.199C34.237 114.943 35.5128 115.493 36.8416 115.493Z" fill="#F0E5D4"/>
<path d="M56.2065 175.165C56.3305 175.147 56.3838 175.094 56.3129 174.97C55.8345 174.243 55.0727 172.932 54.2931 171.373C53.7084 163.684 52.7872 155.977 51.2103 148.394C49.2437 139.057 45.0269 130.393 42.5111 121.198C41.767 118.505 40.5267 118.487 37.0718 118.629C35.6898 118.558 35.1053 118.735 34.999 118.753C32.7666 118.629 33.5285 119.019 31.7036 118.469C29.6839 117.849 27.5754 119.444 27.5754 121.127C27.5754 122.916 27.5401 124.706 27.4869 126.513C23.9612 141.13 21.835 155.977 21.1795 170.895C21.1795 170.912 21.1795 170.93 21.1795 170.948C20.9846 171.71 20.7898 172.472 20.5772 173.251C20.1342 174.403 19.6559 175.714 19.6027 176.741C19.5673 176.848 19.5496 176.936 19.5142 177.043C19.1421 178.354 20.0102 179.488 21.4453 179.93C32.4831 183.35 44.3005 182.801 54.8777 178.531C55.0194 178.478 55.1611 178.407 55.2674 178.336C55.356 178.301 55.4446 178.265 55.551 178.23C55.7104 178.123 55.8876 178.017 56.0471 177.911C56.4191 177.592 56.6495 177.167 56.7203 176.724C56.8089 176.228 56.6317 175.607 56.2065 175.165Z" fill="#1A1A1A"/>
<path d="M32.731 71.6248C31.4554 71.6248 30.1974 71.6249 28.9218 71.4654C28.3903 71.3945 28.3372 72.1564 28.8333 72.2627C30.0735 72.5462 31.3137 72.8474 32.5716 73.0245C33.4929 73.1485 33.6169 71.6248 32.731 71.6248Z" fill="#666666"/>
<path d="M25.077 62.412C24.9176 62.9435 24.9174 63.5104 24.8997 64.042C24.882 64.6266 24.758 65.2822 24.9174 65.8492C24.9883 66.1326 25.4135 66.3452 25.6084 66.0263C25.8919 65.5302 25.9451 64.9456 26.0691 64.3963C26.1931 63.7939 26.3703 63.1738 26.3349 62.5537C26.2995 61.8982 25.2542 61.7919 25.077 62.412Z" fill="#666666"/>
<path d="M30.7643 65.0165C30.1619 65.3532 29.648 65.8138 29.1165 66.2744C28.6558 66.6819 28.1598 67.054 27.8763 67.6032C27.7346 67.8513 28.018 68.1702 28.2838 68.117C28.8153 68.0107 29.2583 67.6918 29.7013 67.4083C30.3037 67.0185 30.9592 66.6642 31.4553 66.1504C31.9513 65.6543 31.4907 64.6268 30.7643 65.0165Z" fill="#666666"/>
<path d="M65.88 127.346C64.3917 125.627 50.5192 112.959 46.4265 119.834C44.5308 123.04 48.588 125.698 50.6609 127.789C53.8678 131.013 57.0924 134.238 60.2992 137.462C63.6301 140.811 66.9785 144.159 69.4411 147.862C72.4708 152.398 74.154 157.429 74.4021 162.709C74.4375 163.418 74.4553 164.144 74.9337 164.729C75.4297 165.314 76.5281 165.686 77.7152 165.438C79.6641 165.012 80.3374 163.453 80.4614 162.266C81.8434 149.226 74.774 137.692 65.88 127.346Z" fill="#333333"/>
<path d="M75.3412 165.579C75.1817 166.483 74.5793 167.369 74.8982 168.237C75.0754 168.733 75.5536 169.123 75.6245 169.637C75.6776 169.991 75.5183 170.328 75.5537 170.682C75.5892 171.125 75.9257 171.497 76.3155 171.71C76.7052 171.922 77.1659 171.975 77.6088 171.975C78.0694 171.993 78.548 171.958 78.9201 171.71C79.2744 171.479 79.4869 171.107 79.6463 170.717C79.9829 169.867 80.0007 168.91 79.8589 168.007C79.7172 167.103 79.4161 166.235 79.1149 165.367C79.0263 165.136 78.9376 164.888 78.7427 164.729C78.5833 164.605 78.3707 164.569 78.1581 164.534C77.5203 164.445 76.8471 164.463 76.2093 164.552C75.3943 164.693 75.4652 164.835 75.3412 165.579Z" fill="#F0E5D4"/>
<path d="M18.2384 68.8786C18.6105 68.0636 19.018 67.16 19.7267 66.6993C20.5417 66.1501 21.4453 66.3804 22.2071 66.6993C23.0753 67.0714 23.9078 67.5143 24.6874 68.0458C25.024 68.2762 25.8214 68.79 25.9455 69.2152C26.1226 69.8353 25.662 70.4908 25.3254 71.1464C23.2348 75.0264 21.6401 78.3396 19.5495 81.7944C19.266 82.2728 18.9116 82.8043 18.4333 82.946C18.1321 83.0346 17.8486 82.946 17.5829 82.8574C16.1655 82.3259 11.8248 80.82 13.1536 78.251C14.8013 75.0796 16.7502 72.1562 18.2384 68.8786Z" fill="#3D3D3D"/>
<path d="M19.0355 68.3471C19.2127 68.0636 19.4253 67.7625 19.7088 67.6207C20.0277 67.4613 20.3644 67.5676 20.6479 67.6739C21.8526 68.1345 23.0042 68.7546 24.1381 69.357C24.3153 69.4456 24.776 69.6936 24.8646 69.9062C24.9355 70.0302 25.0594 70.2606 25.0594 70.42C25.0594 70.9693 24.6165 71.4299 24.4039 71.9792C24.209 72.4752 23.8546 72.8827 23.6242 73.3611C23.3762 73.8749 23.0751 74.3887 22.7916 74.8848C22.3841 75.6289 21.9765 76.3907 21.6045 77.1703C21.3387 77.7195 21.0376 78.2688 20.8073 78.8357C20.701 79.1015 20.5415 79.3673 20.3289 79.5267C20.0277 79.7748 19.7265 79.757 19.4253 79.6507C18.8406 79.4558 18.2914 79.1546 17.7598 78.8535C16.9626 78.4105 16.1653 77.9676 15.3503 77.5247C15.0669 77.3652 14.4113 77.1349 14.5353 76.6211C14.5885 76.3376 14.872 76.001 15.0137 75.7529C15.2086 75.4163 15.4035 75.0619 15.5807 74.7253C16.3248 73.3611 16.9981 71.9614 17.7422 70.5795C18.1497 69.8176 18.5749 69.0735 19.0355 68.3471Z" fill="white"/>
<path d="M23.7132 68.3293C23.6423 68.2585 23.536 68.2053 23.4474 68.1521C23.2348 68.0458 23.0045 67.9218 22.7919 67.8155C22.6679 67.7446 22.4908 67.6738 22.4376 67.7446C22.4022 67.7801 22.4197 67.8332 22.4551 67.8687C22.5792 68.0813 23.6245 68.7014 23.8017 68.5419C23.8194 68.4888 23.7841 68.4002 23.7132 68.3293Z" fill="#5E625E"/>
<path d="M22.3311 67.6207C22.3311 67.5675 22.278 67.5143 22.2249 67.5143C22.1717 67.5143 22.1184 67.5498 22.0653 67.603C22.0298 67.6384 22.0121 67.6738 22.0121 67.727C22.0121 67.8156 22.1008 67.8687 22.1717 67.851C22.2425 67.8333 22.3133 67.7447 22.3311 67.6561V67.6207Z" fill="#5E625E"/>
<path d="M16.2541 79.4557C16.0946 79.4912 15.9529 79.5975 15.8466 79.7392C15.7935 79.8101 15.7403 79.881 15.7049 79.9518C15.6163 80.1467 15.6517 80.3593 15.7403 80.5365C15.8289 80.6959 16.0061 80.82 16.1655 80.8731C16.2187 80.8908 16.254 80.9086 16.3072 80.8908C16.3603 80.8908 16.4135 80.8554 16.4667 80.82C16.6616 80.6959 16.821 80.4833 16.8742 80.253C16.9982 79.8455 16.6793 79.3494 16.2541 79.4557Z" fill="#EBEFEB"/>
<path d="M47.1529 89.8737C46.9757 88.917 46.7276 87.9602 46.1606 87.1807C45.5228 86.2771 44.4953 85.7102 43.4323 85.3913C42.3693 85.0901 41.2531 85.0192 40.1547 84.9838C35.4065 84.842 30.4279 85.2672 26.3884 87.7831C26.1403 87.9425 25.8923 88.102 25.7151 88.3323C25.5202 88.5626 25.4139 88.8638 25.3076 89.1473C24.8115 90.4938 24.2978 91.858 24.2092 93.2931C24.1383 94.3562 24.28 95.4369 24.4395 96.5C24.6521 97.9173 24.8824 99.317 25.2544 100.699C25.8922 103.108 26.9552 105.412 28.284 107.52C27.4336 105.624 27.5577 103.463 27.7526 101.39C27.8412 100.327 27.9474 99.2816 28.0537 98.2185C28.16 97.1378 28.3194 95.9507 29.1167 95.2243C29.8431 94.5333 30.924 94.4093 31.9161 94.3916C32.9083 94.3739 33.9534 94.4448 34.857 94.055L35.1406 92.9211C35.1051 93.5766 35.4594 94.2145 35.9732 94.6397C36.487 95.0649 37.1071 95.2952 37.7449 95.4724C38.4359 95.6673 39.1447 95.809 39.8534 95.7558C40.5444 95.7027 41.2177 95.4546 41.9087 95.3838C42.5996 95.3129 43.3791 95.4192 43.822 95.9507C44.2473 96.4468 44.265 97.1555 44.2827 97.811C44.3359 99.6536 44.5131 101.478 44.7966 103.286C44.9029 103.091 45.0268 102.896 45.1331 102.719C45.6469 103.233 45.2925 104.065 45.0622 104.738C44.7964 105.483 44.7255 106.298 44.8318 107.077C45.576 105.146 46.3201 103.215 46.8339 101.195C47.7552 97.4921 47.8793 93.6121 47.1529 89.8737Z" fill="#736357"/>
<defs>
<linearGradient id="paint0_linear_0_194" x1="164.093" y1="257.269" x2="164.093" y2="280" gradientUnits="userSpaceOnUse">
<stop stop-color="#FFB800"/>
<stop offset="0.364583" stop-color="#FFC42B"/>
<stop offset="0.5" stop-color="#FFDD85"/>
<stop offset="0.703125" stop-color="#F1BD35"/>
<stop offset="1" stop-color="#FFD772"/>
</linearGradient>
<linearGradient id="paint1_linear_0_194" x1="164.093" y1="259.4" x2="164.093" y2="277.869" gradientUnits="userSpaceOnUse">
<stop stop-color="#FFB800"/>
<stop offset="0.364583" stop-color="#FFC42B"/>
<stop offset="0.5" stop-color="#FFDD85"/>
<stop offset="0.703125" stop-color="#F1BD35"/>
<stop offset="1" stop-color="#FFD772"/>
</linearGradient>
<linearGradient id="paint2_linear_0_194" x1="190.956" y1="257.269" x2="190.956" y2="280" gradientUnits="userSpaceOnUse">
<stop stop-color="#FFB800"/>
<stop offset="0.364583" stop-color="#FFC42B"/>
<stop offset="0.5" stop-color="#FFDD85"/>
<stop offset="0.703125" stop-color="#F1BD35"/>
<stop offset="1" stop-color="#FFD772"/>
</linearGradient>
<linearGradient id="paint3_linear_0_194" x1="190.956" y1="259.4" x2="190.956" y2="277.869" gradientUnits="userSpaceOnUse">
<stop stop-color="#FFB800"/>
<stop offset="0.364583" stop-color="#FFC42B"/>
<stop offset="0.5" stop-color="#FFDD85"/>
<stop offset="0.703125" stop-color="#F1BD35"/>
<stop offset="1" stop-color="#FFD772"/>
</linearGradient>
<linearGradient id="paint4_linear_0_194" x1="1.12669" y1="274.826" x2="71.6489" y2="274.826" gradientUnits="userSpaceOnUse">
<stop stop-color="#4D4D4D"/>
<stop offset="1"/>
</linearGradient>
<linearGradient id="paint5_linear_0_194" x1="1.12669" y1="274.826" x2="71.6489" y2="274.826" gradientUnits="userSpaceOnUse">
<stop/>
<stop offset="1"/>
</linearGradient>
</defs>
</svg>
