<svg width="230" height="281" viewBox="0 0 230 281" fill="none" xmlns="http://www.w3.org/2000/svg">
<rect x="99.4375" y="1.12085" width="130.005" height="242.548" rx="15" fill="#A9A9A9"/>
<rect x="99" y="0.660767" width="126.809" height="237.766" rx="10" fill="#EEEEEE"/>
<rect x="99" y="0.660767" width="126.809" height="237.766" rx="10" fill="#4D4D4D" fill-opacity="0.2"/>
<rect x="107.342" y="17.3455" width="110.123" height="201.059" rx="10" fill="#151515"/>
<rect x="118.195" y="190.038" width="90.1009" height="17.5196" rx="8.7598" fill="#333333"/>
<path d="M130.178 198.057C130.183 198.054 130.206 198.039 130.21 198.037C130.21 198.037 130.228 198.025 130.235 198.02C130.256 198.005 130.277 197.99 130.296 197.975C130.3 197.971 130.318 197.956 130.321 197.953C130.326 197.949 130.346 197.93 130.349 197.927C130.367 197.911 130.383 197.894 130.398 197.877C130.401 197.874 130.442 197.823 130.445 197.819C130.451 197.811 130.457 197.803 130.462 197.795C130.465 197.791 130.48 197.767 130.485 197.759C130.487 197.755 130.503 197.728 130.505 197.724C130.509 197.716 130.521 197.693 130.522 197.689C130.53 197.674 130.536 197.66 130.542 197.645C130.545 197.638 130.547 197.631 130.55 197.624C130.55 197.624 130.55 197.623 130.55 197.623C130.553 197.616 130.555 197.61 130.557 197.604C130.557 197.603 130.557 197.603 130.557 197.603C130.561 197.59 130.565 197.577 130.568 197.565C130.569 197.562 130.57 197.559 130.571 197.555C130.575 197.541 130.577 197.527 130.58 197.514C130.581 197.506 130.583 197.498 130.584 197.491C130.584 197.488 130.586 197.475 130.586 197.471C130.587 197.463 130.588 197.456 130.589 197.449C130.589 197.445 130.589 197.432 130.589 197.43C130.59 197.429 130.59 197.427 130.59 197.426C130.589 197.422 130.59 197.42 130.59 197.42V193.082C130.416 193.082 130.242 193.127 130.086 193.217L126.848 195.075C126.536 195.254 126.344 195.584 126.344 195.942V199.659C126.344 199.805 126.376 199.947 126.435 200.075L130.178 198.057Z" fill="#EEEEEE"/>
<path d="M134.836 199.658V195.942C134.836 195.584 134.644 195.254 134.332 195.075L131.094 193.216C130.938 193.127 130.764 193.082 130.59 193.082V197.42C130.59 197.42 130.59 197.422 130.59 197.426C130.59 197.427 130.59 197.429 130.59 197.43C130.59 197.432 130.59 197.434 130.59 197.436C130.59 197.44 130.591 197.444 130.591 197.449C130.591 197.455 130.592 197.463 130.593 197.471C130.593 197.475 130.594 197.479 130.595 197.484C130.595 197.486 130.595 197.488 130.596 197.491C130.597 197.498 130.598 197.506 130.6 197.514C130.602 197.527 130.605 197.541 130.609 197.555C130.609 197.558 130.61 197.561 130.611 197.565C130.614 197.577 130.618 197.589 130.622 197.602C130.622 197.603 130.623 197.603 130.623 197.603C130.625 197.61 130.627 197.616 130.629 197.622C130.629 197.623 130.63 197.623 130.63 197.624C130.632 197.631 130.635 197.638 130.638 197.645C130.643 197.66 130.65 197.674 130.657 197.689C130.664 197.704 130.672 197.72 130.681 197.735C130.683 197.739 130.685 197.743 130.687 197.747C130.69 197.751 130.692 197.755 130.694 197.759C130.699 197.767 130.704 197.775 130.709 197.783C130.712 197.787 130.715 197.791 130.717 197.795C130.723 197.803 130.729 197.811 130.735 197.819C130.737 197.823 130.741 197.827 130.744 197.831C130.747 197.835 130.75 197.839 130.753 197.843C130.756 197.847 130.759 197.851 130.763 197.855C130.766 197.859 130.77 197.863 130.773 197.867L130.781 197.877C130.797 197.894 130.813 197.911 130.83 197.927C130.833 197.93 130.836 197.933 130.839 197.936C130.841 197.938 130.843 197.939 130.845 197.941C130.849 197.945 130.854 197.949 130.858 197.953C130.862 197.956 130.866 197.959 130.87 197.963C130.874 197.967 130.879 197.971 130.884 197.975C130.903 197.99 130.923 198.005 130.945 198.02C131.293 198.262 134.444 199.918 134.744 200.075C134.804 199.946 134.836 199.805 134.836 199.658Z" fill="#EEEEEE"/>
<path d="M126.436 200.075C126.521 200.261 126.664 200.42 126.848 200.526L130.086 202.384C130.398 202.563 130.782 202.563 131.094 202.384L134.332 200.526C134.517 200.42 134.659 200.261 134.745 200.075C134.445 199.918 131.294 198.263 130.945 198.02C130.924 198.005 130.875 197.967 130.87 197.963C130.866 197.96 130.85 197.945 130.846 197.941C130.844 197.939 130.797 197.894 130.782 197.877C130.779 197.874 130.757 197.847 130.754 197.843C130.75 197.839 130.738 197.823 130.735 197.819C130.729 197.811 130.713 197.787 130.71 197.783C130.705 197.775 130.683 197.739 130.681 197.735C130.679 197.732 130.659 197.693 130.658 197.69C130.65 197.674 130.644 197.66 130.638 197.645C130.635 197.638 130.625 197.61 130.623 197.604C130.623 197.603 130.615 197.577 130.612 197.565C130.611 197.562 130.602 197.527 130.6 197.514C130.598 197.506 130.597 197.498 130.596 197.491C130.596 197.488 130.594 197.475 130.593 197.471C130.592 197.463 130.592 197.456 130.591 197.449C130.591 197.445 130.591 197.44 130.591 197.437C130.59 197.434 130.59 197.432 130.59 197.43C130.59 197.429 130.59 197.427 130.59 197.426C130.59 197.427 130.59 197.429 130.59 197.43C130.59 197.432 130.59 197.434 130.59 197.437C130.59 197.44 130.59 197.444 130.589 197.449C130.589 197.456 130.588 197.463 130.587 197.471C130.587 197.475 130.585 197.488 130.584 197.491C130.583 197.498 130.575 197.541 130.571 197.555C130.571 197.558 130.557 197.603 130.557 197.603C130.555 197.61 130.545 197.638 130.542 197.645C130.537 197.66 130.53 197.674 130.523 197.689C130.521 197.693 130.501 197.731 130.499 197.735C130.497 197.739 130.488 197.755 130.485 197.759C130.481 197.767 130.465 197.791 130.462 197.795C130.457 197.803 130.439 197.827 130.436 197.831C130.433 197.835 130.401 197.873 130.398 197.877C130.383 197.894 130.367 197.911 130.35 197.927C130.347 197.93 130.301 197.971 130.296 197.974C130.277 197.99 130.257 198.005 130.235 198.02C130.228 198.025 130.183 198.054 130.179 198.057L126.436 200.075Z" fill="#EEEEEE"/>
<path d="M131.77 197.276C131.614 197.276 131.474 197.209 131.377 197.102L131.377 197.102C131.184 196.887 130.903 196.752 130.59 196.752C130.008 196.752 129.535 197.221 129.535 197.8C129.535 198.379 130.008 198.849 130.59 198.849C130.903 198.849 131.184 198.713 131.377 198.498V198.499C131.474 198.392 131.614 198.324 131.77 198.324C132.061 198.324 132.297 198.559 132.297 198.849C132.297 198.986 132.244 199.111 132.157 199.204C131.884 199.505 131.525 199.727 131.118 199.831V200.423C131.118 200.712 130.883 200.946 130.592 200.946C130.3 200.946 130.063 200.71 130.063 200.419V199.831C129.153 199.598 128.48 198.777 128.48 197.8C128.48 196.823 129.153 196.002 130.063 195.769V195.177C130.063 194.889 130.298 194.655 130.588 194.655C130.881 194.655 131.118 194.891 131.118 195.181V195.77C131.523 195.873 131.881 196.093 132.153 196.392C132.159 196.398 132.164 196.404 132.169 196.41C132.172 196.412 132.174 196.415 132.176 196.417L132.176 196.417C132.252 196.508 132.297 196.624 132.297 196.752C132.297 197.041 132.061 197.276 131.77 197.276Z" fill="#333333"/>
<path fill-rule="evenodd" clip-rule="evenodd" d="M148.203 195.395C148.059 195.32 147.931 195.243 147.822 195.169C148.093 194.939 148.411 194.739 148.777 194.604C148.681 194.718 148.585 194.837 148.493 194.962C148.392 195.099 148.294 195.244 148.203 195.395ZM149.057 195.377C149.195 195.19 149.341 195.016 149.484 194.863V195.798C149.265 195.772 149.055 195.725 148.859 195.665C148.921 195.567 148.987 195.471 149.057 195.377ZM149.484 197.367V196.501C149.144 196.47 148.823 196.394 148.531 196.294C148.46 196.471 148.408 196.648 148.381 196.821C148.352 197.012 148.173 197.143 147.982 197.113C147.791 197.084 147.66 196.905 147.69 196.714C147.726 196.478 147.795 196.245 147.887 196.019C147.669 195.907 147.48 195.788 147.328 195.678C147.016 196.062 146.814 196.456 146.716 196.734C146.652 196.916 146.452 197.012 146.27 196.948C146.088 196.883 145.992 196.683 146.056 196.501C146.206 196.077 146.528 195.483 147.033 194.954C147.66 194.295 148.59 193.719 149.834 193.719C151.077 193.719 152.034 194.293 152.695 194.946C153.228 195.473 153.583 196.063 153.756 196.484C153.83 196.663 153.745 196.868 153.566 196.941C153.387 197.015 153.182 196.93 153.109 196.751C152.991 196.463 152.755 196.053 152.403 195.655C152.229 195.773 152.024 195.901 151.789 196.021C151.88 196.249 151.948 196.483 151.98 196.72C152.006 196.912 151.872 197.088 151.681 197.114C151.489 197.14 151.313 197.006 151.287 196.815C151.264 196.646 151.215 196.472 151.145 196.297C150.854 196.396 150.533 196.471 150.184 196.502V197.367C150.184 197.56 150.028 197.717 149.834 197.717C149.641 197.717 149.484 197.56 149.484 197.367ZM150.891 194.6C151.265 194.733 151.596 194.93 151.883 195.159C151.758 195.239 151.622 195.32 151.474 195.396C151.382 195.246 151.284 195.101 151.184 194.965C151.089 194.838 150.991 194.715 150.891 194.6ZM150.184 195.799C150.408 195.775 150.62 195.728 150.818 195.667C150.756 195.571 150.69 195.475 150.621 195.382C150.48 195.192 150.331 195.016 150.184 194.861V195.799ZM152.679 197.059C154.075 196.925 155.168 197.608 155.837 198.025L155.837 198.025C155.886 198.055 155.933 198.085 155.977 198.112C156.066 198.167 156.114 198.237 156.127 198.264C156.127 198.353 156.022 198.337 155.842 198.309L155.842 198.309C155.719 198.289 155.561 198.264 155.378 198.264C155.018 198.264 154.328 198.463 154.028 198.562C153.392 198.816 152.323 199.72 151.464 200.445L151.464 200.445L151.464 200.446C151.311 200.574 151.165 200.697 151.03 200.81C150.31 201.41 149.135 201.825 148.481 201.86C147.132 202.01 145.933 201.26 145.483 200.96C144.954 200.608 143.845 200.113 143.563 200.08C143.414 200.063 143.373 199.942 143.394 199.879C143.394 199.879 143.684 199.161 145.183 199.611C145.605 199.738 145.933 199.911 146.682 200.361C147.031 200.57 147.511 200.661 147.732 200.661C148.153 200.661 148.781 200.511 149.381 200.211C149.861 199.971 150.091 199.778 150.189 199.691C150.278 199.597 150.384 199.415 150.28 199.311C150.154 199.185 150.028 199.272 149.721 199.482L149.721 199.482C149.664 199.521 149.601 199.564 149.531 199.611C149.171 199.851 148.581 200.011 148.331 200.061C147.882 200.211 147.282 200.061 147.132 199.911C147.012 199.791 147.282 199.661 147.432 199.611C147.482 199.611 147.702 199.551 148.181 199.311C148.781 199.011 148.781 199.011 149.681 198.412L149.681 198.412C149.831 198.311 149.973 198.211 150.113 198.112C150.806 197.621 151.43 197.179 152.679 197.059ZM146.022 197.277C145.543 197.138 145.127 197.213 145.101 197.277C145.071 197.303 145.043 197.453 145.284 197.543C145.585 197.657 146.409 198.162 146.635 198.319C146.681 198.351 146.739 198.392 146.807 198.439L146.807 198.439C147.076 198.628 147.482 198.912 147.695 199.038C147.865 199.138 147.994 199.145 148.083 199.082C148.136 199.046 148.248 198.957 148.366 198.842C148.46 198.751 148.402 198.604 148.366 198.577C148.192 198.446 147.777 198.142 147.512 197.975C147.18 197.766 146.692 197.472 146.022 197.277ZM144.941 197.657C144.425 197.449 144.189 197.526 144.136 197.59C144.028 197.68 144.091 197.787 144.136 197.829C144.422 198.045 145.047 198.477 145.307 198.638C145.614 198.829 146.263 199.313 146.51 199.497L146.51 199.497L146.51 199.497L146.548 199.526C146.739 199.667 146.903 199.609 146.966 199.585C147.083 199.528 147.302 199.417 147.391 199.339C147.499 199.246 147.419 199.12 147.358 199.071C147.09 198.882 146.509 198.475 146.321 198.358C146.086 198.213 145.586 197.918 144.941 197.657ZM147.028 197.342C147.069 197.249 147.29 197.114 147.952 197.342C148.663 197.587 149.105 197.856 149.241 197.948C149.306 197.989 149.417 198.095 149.339 198.188C149.261 198.282 149.184 198.338 149.136 198.364C149.108 198.386 149.007 198.441 148.923 198.428C148.867 198.42 148.785 198.383 148.665 198.329L148.665 198.329C148.603 198.302 148.531 198.269 148.447 198.234C148.249 198.151 147.529 197.776 147.171 197.57C147.111 197.537 146.997 197.446 147.028 197.342Z" fill="#EEEEEE"/>
<path d="M175.859 200.865L175.858 200.865C175.838 200.841 175.816 200.816 175.792 200.788C175.614 200.585 175.343 200.273 175.12 199.781C174.868 199.222 174.688 198.457 174.688 197.342C174.688 195.948 173.801 194.874 172.652 194.613L172.263 194.524V194.125V193.693C172.263 193.634 172.241 193.588 172.216 193.561C172.192 193.535 172.17 193.53 172.156 193.53C172.142 193.53 172.121 193.535 172.097 193.561C172.072 193.588 172.05 193.634 172.05 193.693V194.125V194.524L171.661 194.613C170.512 194.874 169.625 195.948 169.625 197.342C169.625 198.457 169.445 199.222 169.192 199.781C168.97 200.273 168.698 200.585 168.521 200.788C168.497 200.816 168.474 200.841 168.454 200.865C168.424 200.901 168.41 200.942 168.41 200.988L175.859 200.865ZM175.859 200.865C175.889 200.901 175.903 200.942 175.902 200.988L175.902 200.988M175.859 200.865L175.902 200.988M175.902 200.988C175.902 201.043 175.881 201.093 175.855 201.123C175.834 201.148 175.815 201.155 175.794 201.155H168.519C168.497 201.155 168.479 201.148 168.458 201.123M175.902 200.988L168.458 201.123M168.458 201.123C168.432 201.093 168.411 201.043 168.41 200.988L168.458 201.123ZM172.724 202.818C172.587 203.024 172.37 203.145 172.156 203.145C171.943 203.145 171.726 203.024 171.588 202.818H172.724Z" stroke="#EEEEEE"/>
<path fill-rule="evenodd" clip-rule="evenodd" d="M193.389 193.527C192.561 193.527 191.889 194.199 191.889 195.027V196.283C191.889 197.111 192.561 197.783 193.389 197.783H194.645C195.473 197.783 196.145 197.111 196.145 196.283V195.027C196.145 194.199 195.473 193.527 194.645 193.527H193.389ZM192.889 195.027C192.889 194.751 193.113 194.527 193.389 194.527H194.645C194.921 194.527 195.145 194.751 195.145 195.027V196.283C195.145 196.559 194.921 196.783 194.645 196.783H193.389C193.113 196.783 192.889 196.559 192.889 196.283V195.027ZM188.143 193.531C187.314 193.531 186.643 194.203 186.643 195.031V196.287C186.643 197.115 187.314 197.787 188.143 197.787H189.398C190.227 197.787 190.898 197.115 190.898 196.287V195.031C190.898 194.203 190.227 193.531 189.398 193.531H188.143ZM187.643 195.031C187.643 194.755 187.866 194.531 188.143 194.531H189.398C189.674 194.531 189.898 194.755 189.898 195.031V196.287C189.898 196.563 189.674 196.787 189.398 196.787H188.143C187.866 196.787 187.643 196.563 187.643 196.287V195.031ZM186.665 200.231C186.665 199.403 187.336 198.731 188.165 198.731H189.42C190.249 198.731 190.92 199.403 190.92 200.231V201.487C190.92 202.315 190.249 202.987 189.42 202.987H188.165C187.336 202.987 186.665 202.315 186.665 201.487V200.231ZM188.165 199.731C187.889 199.731 187.665 199.955 187.665 200.231V201.487C187.665 201.763 187.889 201.987 188.165 201.987H189.42C189.697 201.987 189.92 201.763 189.92 201.487V200.231C189.92 199.955 189.697 199.731 189.42 199.731H188.165ZM193.385 198.729C192.557 198.729 191.885 199.401 191.885 200.229V201.485C191.885 202.313 192.557 202.985 193.385 202.985H194.641C195.469 202.985 196.141 202.313 196.141 201.485V200.229C196.141 199.401 195.469 198.729 194.641 198.729H193.385ZM192.885 200.229C192.885 199.953 193.109 199.729 193.385 199.729H194.641C194.917 199.729 195.141 199.953 195.141 200.229V201.485C195.141 201.761 194.917 201.985 194.641 201.985H193.385C193.109 201.985 192.885 201.761 192.885 201.485V200.229Z" fill="#EEEEEE"/>
<path d="M122.274 38.7168C122.28 38.7203 122.309 38.7386 122.314 38.7416C122.315 38.7418 122.337 38.7563 122.346 38.7622C122.374 38.7808 122.4 38.7997 122.424 38.8189C122.43 38.8236 122.452 38.8416 122.457 38.8458C122.462 38.8505 122.488 38.8737 122.492 38.8773C122.515 38.898 122.535 38.919 122.555 38.94C122.558 38.9439 122.611 39.0067 122.614 39.0117C122.622 39.0215 122.629 39.0315 122.636 39.0414C122.64 39.0463 122.66 39.0758 122.666 39.0856C122.669 39.0906 122.689 39.1246 122.692 39.1294C122.697 39.1388 122.711 39.1671 122.714 39.1718C122.723 39.1905 122.731 39.2088 122.738 39.2264C122.742 39.2353 122.745 39.2442 122.748 39.2528C122.749 39.2533 122.749 39.2539 122.749 39.2545C122.752 39.2625 122.755 39.2704 122.757 39.2782C122.758 39.2786 122.758 39.2789 122.758 39.2793C122.763 39.2955 122.768 39.3112 122.772 39.3261C122.773 39.33 122.774 39.3339 122.775 39.3376C122.78 39.3558 122.784 39.3728 122.787 39.3885C122.789 39.3988 122.791 39.4086 122.792 39.4177C122.792 39.4206 122.795 39.4371 122.795 39.4421C122.796 39.4522 122.797 39.4613 122.798 39.4691C122.798 39.475 122.799 39.4905 122.799 39.4929C122.799 39.4945 122.799 39.4961 122.799 39.4974C122.799 39.5027 122.799 39.5056 122.799 39.5056V44.8745C122.577 44.8745 122.355 44.8192 122.156 44.7084L118.02 42.4083C117.622 42.1869 117.377 41.7777 117.377 41.3348V36.7345C117.377 36.5533 117.418 36.378 117.494 36.2188L122.274 38.7168Z" fill="#0087FE"/>
<path d="M128.222 36.7345V41.3349C128.222 41.7777 127.976 42.1869 127.578 42.4084L123.442 44.7084C123.243 44.8193 123.021 44.8745 122.799 44.8745V39.5057C122.799 39.5057 122.799 39.5029 122.799 39.4975C122.799 39.4963 122.799 39.4947 122.799 39.493C122.799 39.4907 122.799 39.4879 122.799 39.485C122.799 39.4804 122.8 39.4752 122.8 39.4693C122.801 39.4613 122.802 39.4523 122.803 39.4423C122.803 39.4372 122.804 39.4319 122.805 39.4263C122.805 39.4236 122.806 39.4207 122.806 39.4179C122.808 39.4088 122.809 39.3989 122.811 39.3887C122.814 39.3728 122.818 39.356 122.823 39.3378C122.824 39.334 122.825 39.3301 122.826 39.3262C122.83 39.3113 122.835 39.2956 122.84 39.2794C122.841 39.279 122.841 39.2787 122.841 39.2784C122.843 39.2706 122.846 39.2625 122.849 39.2546C122.849 39.2541 122.85 39.2534 122.85 39.2529C122.853 39.2444 122.856 39.2354 122.86 39.2266C122.867 39.2088 122.876 39.1906 122.885 39.1719C122.894 39.1533 122.904 39.1343 122.915 39.1151C122.918 39.1103 122.921 39.1055 122.923 39.1004C122.926 39.0956 122.929 39.0908 122.932 39.0858C122.938 39.076 122.945 39.0662 122.952 39.0564C122.955 39.0515 122.958 39.0466 122.962 39.0415C122.969 39.0317 122.976 39.0217 122.984 39.0118C122.987 39.0069 122.991 39.0018 122.995 38.9967C122.999 38.9918 123.003 38.9868 123.007 38.9817C123.011 38.9768 123.015 38.9718 123.02 38.9668C123.024 38.9618 123.028 38.9568 123.033 38.9517L123.043 38.94C123.063 38.919 123.084 38.898 123.106 38.8774C123.11 38.8737 123.114 38.8702 123.118 38.8667C123.12 38.8645 123.122 38.8623 123.125 38.8602C123.13 38.8554 123.136 38.8506 123.141 38.8458C123.146 38.8417 123.151 38.8375 123.156 38.8334C123.162 38.8286 123.168 38.8238 123.174 38.8188C123.199 38.7995 123.225 38.7805 123.252 38.7621C123.697 38.4625 127.721 36.4136 128.105 36.2185C128.181 36.378 128.222 36.5533 128.222 36.7345Z" fill="#009CFD"/>
<path d="M117.494 36.2187C117.604 35.9883 117.786 35.7918 118.021 35.661L122.157 33.3609C122.555 33.1395 123.045 33.1395 123.443 33.3609L127.579 35.661C127.814 35.7918 127.996 35.9884 128.106 36.2187C127.723 36.4136 123.699 38.4625 123.253 38.7623C123.226 38.7808 123.164 38.8286 123.158 38.8335C123.153 38.8375 123.132 38.8554 123.126 38.8602C123.124 38.8623 123.064 38.919 123.045 38.9401C123.041 38.944 123.013 38.9768 123.009 38.9817C123.005 38.9866 122.989 39.0068 122.985 39.0117C122.977 39.0216 122.956 39.0514 122.953 39.0563C122.946 39.0661 122.919 39.1101 122.916 39.1149C122.914 39.1197 122.888 39.167 122.886 39.1717C122.877 39.1904 122.869 39.2087 122.862 39.2263C122.858 39.2352 122.845 39.2703 122.842 39.2781C122.842 39.2785 122.831 39.311 122.827 39.326C122.826 39.3299 122.816 39.3729 122.812 39.3886C122.81 39.3988 122.809 39.4087 122.807 39.4178C122.807 39.4206 122.805 39.4371 122.804 39.4422C122.803 39.4523 122.802 39.4614 122.801 39.4692C122.801 39.475 122.801 39.4802 122.8 39.4849C122.8 39.4878 122.8 39.4906 122.8 39.4929C122.8 39.4946 122.8 39.4961 122.8 39.4974C122.8 39.4961 122.8 39.4946 122.8 39.4929C122.8 39.4906 122.8 39.4878 122.8 39.4849C122.8 39.4803 122.799 39.4751 122.799 39.4692C122.798 39.4614 122.797 39.4523 122.796 39.4422C122.795 39.4371 122.793 39.4206 122.793 39.4178C122.791 39.4087 122.781 39.3557 122.776 39.3377C122.775 39.3339 122.758 39.2786 122.758 39.2783C122.755 39.2705 122.742 39.2353 122.739 39.2265C122.731 39.2087 122.723 39.1905 122.714 39.1718C122.712 39.1672 122.687 39.1198 122.684 39.115C122.681 39.1102 122.669 39.0907 122.666 39.0858C122.66 39.0761 122.64 39.0465 122.637 39.0415C122.63 39.0317 122.607 39.0017 122.603 38.9968C122.6 38.9918 122.559 38.9441 122.555 38.9402C122.536 38.9192 122.515 38.8981 122.493 38.8775C122.489 38.8739 122.431 38.8238 122.424 38.8191C122.4 38.7998 122.374 38.7808 122.347 38.7624C122.338 38.7563 122.28 38.7205 122.274 38.717L117.494 36.2187Z" fill="#0093FE"/>
<path d="M124.306 39.6835C124.107 39.6835 123.928 39.7667 123.805 39.8989L123.805 39.8988C123.558 40.1648 123.199 40.3324 122.8 40.3324C122.056 40.3324 121.453 39.7514 121.453 39.0346C121.453 38.3179 122.056 37.7369 122.8 37.7369C123.199 37.7369 123.558 37.9044 123.805 38.1705V38.1703C123.928 38.3026 124.107 38.3857 124.306 38.3857C124.678 38.3857 124.98 38.0952 124.98 37.7369C124.98 37.567 124.912 37.4126 124.801 37.2968C124.452 36.9245 123.993 36.65 123.474 36.5211V35.7878C123.474 35.4308 123.173 35.1414 122.802 35.1414C122.429 35.1414 122.126 35.433 122.126 35.7927V36.5209C120.964 36.809 120.105 37.8252 120.105 39.0346C120.105 40.244 120.964 41.2603 122.126 41.5484V42.2815C122.126 42.6385 122.427 42.9279 122.797 42.9279C123.171 42.9279 123.474 42.6363 123.474 42.2766V41.5481C123.991 41.4198 124.448 41.1474 124.796 40.7778C124.803 40.7705 124.81 40.7631 124.817 40.7556C124.819 40.7527 124.822 40.7499 124.825 40.747L124.825 40.7469C124.922 40.6345 124.98 40.4901 124.98 40.3324C124.98 39.9741 124.678 39.6835 124.306 39.6835Z" fill="#EEEEEE"/>
<rect x="147.4" y="5.66736" width="30.0336" height="4.17134" rx="2.08567" fill="#AAAAAA"/>
<rect x="147.395" y="222.574" width="30.0336" height="10.8455" rx="5.42274" fill="#AAAAAA"/>
<rect x="117.377" y="58.2239" width="90.1009" height="45.8847" rx="5" fill="#0094FF"/>
<path fill-rule="evenodd" clip-rule="evenodd" d="M166.807 60.622C166.74 59.8225 166.104 58.2235 164.096 58.2235H166.807V60.622ZM202.484 58.2235C205.246 58.2235 207.484 60.4621 207.484 63.2235V67.8176H171.814C169.053 67.8176 166.814 65.579 166.814 62.8176V58.2235H202.484Z" fill="#FFD600"/>
<path fill-rule="evenodd" clip-rule="evenodd" d="M166.807 60.622C166.74 59.8225 166.104 58.2235 164.096 58.2235H166.807V60.622ZM202.484 58.2235C205.246 58.2235 207.484 60.4621 207.484 63.2235V67.8176H171.814C169.053 67.8176 166.814 65.579 166.814 62.8176V58.2235H202.484Z" fill="#4062DA"/>
<path fill-rule="evenodd" clip-rule="evenodd" d="M166.807 60.622C166.74 59.8225 166.104 58.2235 164.096 58.2235H166.807V60.622ZM202.484 58.2235C205.246 58.2235 207.484 60.4621 207.484 63.2235V67.8176H171.814C169.053 67.8176 166.814 65.579 166.814 62.8176V58.2235H202.484Z" fill="#333333"/>
<rect x="117.375" y="114.12" width="90.1009" height="25.8623" rx="5" fill="#C9C9C9"/>
<rect x="117.377" y="149.993" width="90.1009" height="25.8623" rx="5" fill="#C9C9C9"/>
<path d="M183.005 34.0303H181.783C181.231 34.0303 180.783 34.478 180.783 35.0303V36.3721M183.005 42.3729H181.783C181.231 42.3729 180.783 41.9252 180.783 41.3729V40.0317M186.88 34.0303H188.126C188.678 34.0303 189.126 34.478 189.126 35.0303V36.3721M186.88 42.3729H188.126C188.678 42.3729 189.126 41.9252 189.126 41.3729V40.0317M180.783 38.0942H189.126" stroke="#EEEEEE"/>
<path fill-rule="evenodd" clip-rule="evenodd" d="M197.074 33.1157H196.574V33.6157V35.5487H197.574V34.1157H198.838V33.1157H197.074ZM206.438 33.1157H206.938V33.6157V35.5487H205.938V34.1157H204.674V33.1157H206.438ZM197.08 43.4829H196.58V42.9829V41.0499H197.58V42.4829H198.844V43.4829H197.08ZM206.442 43.4829H206.942V42.9829V41.0499H205.942V42.4829H204.679V43.4829H206.442ZM202.587 34.428H202.087V34.928V37.4215V37.9215H202.587H205.022H205.522V37.4215V34.928V34.428H205.022H202.587ZM203.087 36.9215V35.428H204.522V36.9215H203.087ZM197.964 34.4572H198.464H200.899H201.399V34.9572V37.4508V37.9508H200.899H198.464H197.964V37.4508V34.9572V34.4572ZM198.964 35.4572V36.9508H200.399V35.4572H198.964ZM197.932 38.6153H198.432H200.867H201.367V39.1153V41.6088V42.1088H200.867H198.432H197.932V41.6088V39.1153V38.6153ZM198.932 39.6153V41.1088H200.367V39.6153H198.932ZM203.092 39.6178H204.695V41.2286H203.092V39.6178Z" fill="#EEEEEE"/>
<rect x="163.668" y="82.6577" width="30.0336" height="2.5028" rx="1.2514" fill="#EEEEEE"/>
<path d="M119.836 274.032V276.617C119.836 278.754 125.042 280.491 131.46 280.491C137.877 280.491 143.083 278.754 143.083 276.617V274.032C140.583 275.793 136.012 276.617 131.46 276.617C126.907 276.617 122.336 275.793 119.836 274.032ZM139.209 257.244C145.626 257.244 150.832 255.507 150.832 253.37C150.832 251.232 145.626 249.495 139.209 249.495C132.791 249.495 127.585 251.232 127.585 253.37C127.585 255.507 132.791 257.244 139.209 257.244ZM119.836 267.681V270.805C119.836 272.942 125.042 274.679 131.46 274.679C137.877 274.679 143.083 272.942 143.083 270.805V267.681C140.583 269.739 136.006 270.805 131.46 270.805C126.913 270.805 122.336 269.739 119.836 267.681ZM145.02 268.347C148.489 267.675 150.832 266.428 150.832 264.993V262.408C149.428 263.401 147.363 264.079 145.02 264.497V268.347ZM131.46 259.181C125.042 259.181 119.836 261.349 119.836 264.025C119.836 266.7 125.042 268.868 131.46 268.868C137.877 268.868 143.083 266.7 143.083 264.025C143.083 261.349 137.877 259.181 131.46 259.181ZM144.736 262.59C148.368 261.936 150.832 260.652 150.832 259.181V256.596C148.683 258.116 144.99 258.933 141.104 259.127C142.889 259.993 144.203 261.155 144.736 262.59Z" fill="#FFBC0F"/>
<circle cx="164.092" cy="269.295" r="11.3653" fill="url(#paint0_linear_61_495)"/>
<path d="M173.076 269.295C173.076 274.257 169.054 278.28 164.092 278.28C159.13 278.28 155.107 274.257 155.107 269.295C155.107 264.333 159.13 260.311 164.092 260.311C169.054 260.311 173.076 264.333 173.076 269.295Z" fill="url(#paint1_linear_61_495)" stroke="#EEEEEE" stroke-width="0.5"/>
<path d="M163.983 264.617C164.917 264.617 165.649 264.789 166.181 265.135C166.713 265.48 167.073 265.97 167.259 266.605H168.309V267.361H167.399C167.409 267.445 167.413 267.529 167.413 267.613C167.423 267.697 167.427 267.781 167.427 267.865C167.427 267.986 167.423 268.112 167.413 268.243C167.404 268.364 167.39 268.485 167.371 268.607H168.309V269.363H167.175C167.035 269.745 166.821 270.086 166.531 270.385C166.242 270.683 165.869 270.921 165.411 271.099C164.954 271.267 164.399 271.351 163.745 271.351H162.961V274.613H161.799V269.363H160.581V268.607H161.799V267.361H160.581V266.605H161.799V264.617H163.983ZM165.873 269.363H162.961V270.315H163.675C164.226 270.315 164.683 270.24 165.047 270.091C165.411 269.941 165.687 269.699 165.873 269.363ZM166.153 267.361H162.961V268.607H166.139C166.158 268.504 166.172 268.397 166.181 268.285C166.191 268.163 166.195 268.042 166.195 267.921C166.195 267.818 166.191 267.725 166.181 267.641C166.181 267.547 166.172 267.454 166.153 267.361ZM163.941 265.653H162.961V266.605H165.915C165.747 266.287 165.5 266.049 165.173 265.891C164.847 265.732 164.436 265.653 163.941 265.653Z" fill="#EEEEEE"/>
<circle cx="190.957" cy="269.295" r="11.3653" fill="url(#paint2_linear_61_495)"/>
<path d="M199.941 269.295C199.941 274.257 195.919 278.28 190.957 278.28C185.995 278.28 181.973 274.257 181.973 269.295C181.973 264.333 185.995 260.311 190.957 260.311C195.919 260.311 199.941 264.333 199.941 269.295Z" fill="url(#paint3_linear_61_495)" stroke="#EEEEEE" stroke-width="0.5"/>
<path d="M193.057 270.328C192.762 270.328 192.496 270.461 192.313 270.671L192.313 270.671C191.947 271.095 191.415 271.362 190.822 271.362C189.718 271.362 188.823 270.436 188.823 269.295C188.823 268.154 189.718 267.229 190.822 267.229C191.415 267.229 191.947 267.496 192.313 267.919V267.919C192.496 268.13 192.762 268.262 193.057 268.262C193.609 268.262 194.056 267.799 194.056 267.229C194.056 266.958 193.956 266.712 193.791 266.528C193.274 265.935 192.593 265.498 191.822 265.293V264.125C191.822 263.557 191.376 263.096 190.826 263.096C190.272 263.096 189.823 263.56 189.823 264.133V265.293C188.098 265.751 186.824 267.37 186.824 269.295C186.824 271.221 188.098 272.839 189.823 273.298V274.465C189.823 275.034 190.268 275.494 190.818 275.494C191.372 275.494 191.822 275.03 191.822 274.457V273.297C192.589 273.093 193.267 272.659 193.784 272.071C193.794 272.059 193.804 272.047 193.814 272.035C193.818 272.031 193.822 272.026 193.826 272.022L193.826 272.022C193.97 271.843 194.057 271.613 194.057 271.362C194.056 270.791 193.609 270.328 193.057 270.328Z" fill="#EEEEEE"/>
<path d="M58.6859 280.339C62.9734 280.392 67.8633 280.215 70.6095 277.274C71.2473 276.583 71.7433 275.733 71.637 274.847C71.4244 272.933 68.8201 272.118 66.6941 271.8C54.2743 269.957 41.571 270.666 29.0095 271.41C21.1608 271.87 13.2235 272.331 5.74679 274.475C1.849 275.591 -1.25148 278.497 3.6739 279.772C8.43984 281.012 15.7393 279.825 20.7532 279.879C33.3856 280.02 46.0358 280.18 58.6859 280.339Z" fill="url(#paint4_linear_61_495)"/>
<path d="M58.6859 280.339C62.9734 280.392 67.8633 280.215 70.6095 277.274C71.2473 276.583 71.7433 275.733 71.637 274.847C71.4244 272.933 68.8201 272.118 66.6941 271.8C54.2743 269.957 41.571 270.666 29.0095 271.41C21.1608 271.87 13.2235 272.331 5.74679 274.475C1.849 275.591 -1.25148 278.497 3.6739 279.772C8.43984 281.012 15.7393 279.825 20.7532 279.879C33.3856 280.02 46.0358 280.18 58.6859 280.339Z" fill="url(#paint5_linear_61_495)"/>
<path d="M20.5942 271.622C21.6395 271.622 22.7026 271.64 23.7479 271.64C23.925 271.64 24.1198 271.64 24.2615 271.516C24.3855 271.392 24.421 271.215 24.4564 271.038C24.5981 269.939 24.7399 268.823 24.8993 267.724C24.8816 267.866 21.3736 267.246 20.9484 267.6C20.1157 268.238 20.5764 270.701 20.5942 271.622Z" fill="#F0E5D4"/>
<path d="M42.9002 271.605C43.8924 271.622 44.8847 271.622 45.8946 271.605C46.2135 271.605 46.5678 271.587 46.7982 271.357C47.0285 271.126 47.046 270.754 47.046 270.435C47.046 269.549 47.046 268.664 47.046 267.778C47.046 267.689 47.0462 267.583 46.993 267.494C46.9222 267.37 46.7625 267.353 46.6208 267.335C45.8235 267.246 43.4495 266.98 42.918 267.707C42.6876 268.008 43.042 271.622 42.9002 271.605Z" fill="#F0E5D4"/>
<path d="M45.2748 118.297C48.4817 114.364 51.4404 118.705 52.5921 122.496C57.234 137.786 58.7045 154.192 60.1396 170.421C60.3699 173.026 60.6003 175.613 60.8306 178.217C61.6633 187.572 62.4784 196.944 63.3111 206.299C63.3642 206.848 54.0803 209.204 53.2831 209.452C48.4285 210.888 43.3969 210.976 38.4538 210.639C32.2704 210.214 26.1226 209.133 19.9039 209.204C17.264 209.24 14.571 209.47 12.002 208.726C13.065 203.269 13.1714 197.653 13.4194 192.09C13.9864 178.66 15.2974 165.266 16.5908 151.889C17.3172 144.377 17.7601 136.705 18.6814 129.264C19.1952 125.189 20.8429 118.067 24.3687 116.26C28.1247 114.346 29.9141 119.343 32.9437 120.618C36.3986 122.089 40.6508 122.319 43.8399 119.75C44.4422 119.289 44.8674 118.776 45.2748 118.297Z" fill="#333333"/>
<path d="M15.5806 76.4314C15.7755 75.705 15.8464 74.9255 15.7932 74.1814C15.7401 73.4372 15.4389 72.5691 14.6948 72.4274C13.9683 72.2856 13.3659 72.9766 13.0116 73.6144C11.3462 76.5377 10.921 79.9749 10.5312 83.3057C11.6829 83.6601 12.8876 83.855 14.0747 83.8373C14.0747 82.4376 14.4113 81.0556 15.0669 79.8154C15.7755 78.5044 16.8562 77.2465 16.7499 75.7582C16.555 75.7405 16.3602 75.7227 16.1476 75.705C15.9527 75.9353 15.7755 76.1834 15.5806 76.4314Z" fill="#E8DBCE"/>
<path d="M38.7371 125.508C37.4083 120.902 27.1324 118.988 23.27 117.146C19.0888 115.144 15.315 112.273 12.2676 108.783C11.5943 108.004 10.9388 107.171 10.5844 106.196C9.62771 103.557 14.7303 83.4475 14.2874 83.3058L9.87582 81.9948C7.78518 87.8769 5.64133 93.759 3.60385 99.6588C2.02702 104.212 -0.701439 108.96 0.166705 113.957C0.733656 117.11 4.13538 119.236 6.38547 121.522C8.8836 124.073 14.6948 129.867 17.8662 133.109L27.3449 142.694C29.4532 147.407 34.3255 134.828 35.6012 133.215C37.0717 131.302 39.4813 128.113 38.7371 125.508Z" fill="#333333"/>
<path d="M21.3389 225.026C21.9767 211.862 20.6301 198.415 20.7541 185.18C20.3289 180.591 21.0199 175.914 22.7562 171.591C22.8625 171.325 22.9865 171.042 23.1991 170.847C23.8723 170.209 25.0063 170.545 25.8744 170.882C34.3255 174.124 44.3181 173.363 52.025 168.774C53.5487 170.935 53.9916 173.593 54.3636 176.144C54.966 180.29 55.6394 184.418 55.7988 188.582V188.599C55.8343 189.485 55.852 190.389 55.8343 191.275C55.728 196.466 54.6472 201.568 53.8145 206.671C53.2653 210.002 52.7869 213.368 52.7338 216.734C52.6983 219.498 52.2732 220.508 51.9011 224.424C51.2456 231.227 50.8204 238.651 50.1294 245.454C49.3853 252.736 48.6588 260.035 48.0564 267.335C48.0387 267.618 48.0032 267.919 47.9855 268.203C47.5957 268.309 41.5718 269.603 41.5718 268.132C41.0935 253.958 40.5975 239.784 40.1191 225.611C39.9242 219.64 39.6939 213.598 38.0816 207.911C37.4083 207.982 36.7528 208.035 36.0795 208.106C32.4121 226.851 31.0123 245.525 27.3449 264.27C27.0259 265.917 26.6363 267.707 25.4669 268.77C24.2976 269.833 19.8329 269.638 19.4785 267.99C20.5061 253.692 20.6302 239.359 21.3389 225.026Z" fill="#363F4C"/>
<path d="M42.1213 270.205C44.2651 270.028 46.4443 270.116 48.5526 270.471C50.1826 271.693 51.9898 272.703 53.8855 273.465C54.4348 273.695 55.0194 273.908 55.4269 274.333C55.8344 274.758 55.9939 275.485 55.6218 275.945C55.2852 276.335 54.7004 276.388 54.1866 276.388C50.2179 276.424 46.2494 276.087 42.3516 275.378C42.1213 275.343 41.8733 275.29 41.6961 275.112C41.5544 274.971 41.5012 274.794 41.448 274.599C41.0405 273.146 41.2886 271.498 42.1213 270.205Z" fill="#736357"/>
<path d="M25.5906 270.311C23.4291 270.276 21.2855 270.488 19.1771 270.967C17.618 272.278 15.8817 273.394 14.0391 274.28C13.5076 274.528 12.9406 274.776 12.5685 275.237C12.1965 275.697 12.0725 276.424 12.48 276.867C12.8343 277.239 13.419 277.256 13.9328 277.221C17.9014 277.026 21.8347 276.441 25.697 275.502C25.9274 275.449 26.1754 275.378 26.3348 275.201C26.4589 275.059 26.512 274.864 26.5474 274.687C26.8486 273.181 26.4942 271.551 25.5906 270.311Z" fill="#736357"/>
<path d="M36.8414 116.153C38.6309 116.136 40.2784 115.108 41.5186 113.815C46.1428 109.031 46.0011 101.519 45.5582 94.8751C45.505 94.1664 45.4518 93.4223 45.0443 92.8376C44.4242 91.934 43.2196 91.7037 42.1389 91.5797C37.5147 91.5797 32.9612 91.7923 28.3016 92.0226C27.9118 92.0404 27.4866 92.0758 27.1854 92.3061C26.8488 92.5719 26.7424 92.9971 26.6716 93.4046C26.3526 95.318 26.9728 97.3201 26.9374 99.269C26.9019 101.271 26.9905 103.291 27.3448 105.257C28.0181 109.102 29.7898 112.681 33.1207 114.86C34.2368 115.604 35.5126 116.153 36.8414 116.153Z" fill="#F0E5D4"/>
<path d="M56.2062 175.825C56.3302 175.808 56.3835 175.754 56.3126 175.63C55.8342 174.904 55.0724 173.593 54.2928 172.034C53.7081 164.345 52.7868 156.638 51.21 149.055C49.2434 139.718 45.0266 131.054 42.5108 121.859C41.7667 119.166 40.5263 119.148 37.0715 119.29C35.6895 119.219 35.105 119.396 34.9987 119.414C32.7663 119.29 33.5282 119.679 31.7033 119.13C29.6836 118.51 27.5751 120.105 27.5751 121.788C27.5751 123.577 27.5398 125.367 27.4866 127.174C23.9609 141.79 21.8347 156.637 21.1792 171.555C21.1792 171.573 21.1792 171.591 21.1792 171.609C20.9843 172.37 20.7895 173.132 20.5769 173.912C20.1339 175.063 19.6556 176.375 19.6024 177.402C19.567 177.508 19.5493 177.597 19.5139 177.703C19.1418 179.014 20.0099 180.148 21.445 180.591C32.4828 184.011 44.3002 183.461 54.8774 179.192C55.0191 179.138 55.1608 179.068 55.2671 178.997C55.3557 178.961 55.4443 178.926 55.5506 178.89C55.7101 178.784 55.8873 178.678 56.0468 178.571C56.4188 178.253 56.6492 177.827 56.72 177.384C56.8086 176.888 56.6314 176.268 56.2062 175.825Z" fill="#1A1A1A"/>
<path d="M32.7328 72.2856C31.4572 72.2856 30.1992 72.2856 28.9236 72.1261C28.3921 72.0552 28.339 72.8171 28.8351 72.9234C30.0753 73.2069 31.3155 73.5081 32.5734 73.6852C33.4947 73.8093 33.6187 72.2856 32.7328 72.2856Z" fill="#666666"/>
<path d="M25.0779 63.0728C24.9184 63.6043 24.9182 64.1712 24.9005 64.7027C24.8828 65.2874 24.7588 65.943 24.9183 66.5099C24.9891 66.7934 25.4144 67.006 25.6093 66.687C25.8927 66.191 25.9459 65.6063 26.0699 65.0571C26.1939 64.4547 26.3712 63.8346 26.3357 63.2145C26.3003 62.559 25.255 62.4527 25.0779 63.0728Z" fill="#666666"/>
<path d="M30.7656 65.6773C30.1632 66.0139 29.6493 66.4746 29.1178 66.9352C28.6571 67.3427 28.1611 67.7148 27.8777 68.264C27.7359 68.512 28.0194 68.831 28.2851 68.7778C28.8166 68.6715 29.2597 68.3526 29.7026 68.0691C30.305 67.6793 30.9605 67.325 31.4566 66.8112C31.9527 66.3151 31.492 65.2875 30.7656 65.6773Z" fill="#666666"/>
<path d="M65.8804 128.006C64.3922 126.288 50.5196 113.62 46.4269 120.494C44.5312 123.701 48.5884 126.359 50.6614 128.449C53.8682 131.674 57.0928 134.898 60.2996 138.123C63.6305 141.471 66.9789 144.82 69.4416 148.523C72.4712 153.059 74.1544 158.09 74.4025 163.37C74.4379 164.079 74.4557 164.805 74.9341 165.39C75.4302 165.974 76.5285 166.346 77.7156 166.098C79.6645 165.673 80.3378 164.114 80.4619 162.927C81.8438 149.887 74.7744 138.353 65.8804 128.006Z" fill="#333333"/>
<path d="M75.3413 166.24C75.1818 167.144 74.5795 168.029 74.8984 168.898C75.0755 169.394 75.5538 169.783 75.6246 170.297C75.6778 170.652 75.5185 170.988 75.5539 171.343C75.5893 171.786 75.9258 172.158 76.3156 172.37C76.7054 172.583 77.166 172.636 77.6089 172.636C78.0696 172.654 78.5482 172.618 78.9202 172.37C79.2746 172.14 79.487 171.768 79.6465 171.378C79.9831 170.528 80.0008 169.571 79.8591 168.667C79.7173 167.764 79.4163 166.896 79.1151 166.027C79.0265 165.797 78.9378 165.549 78.7429 165.39C78.5834 165.266 78.3709 165.23 78.1583 165.195C77.5205 165.106 76.8473 165.124 76.2094 165.212C75.3944 165.354 75.4653 165.496 75.3413 166.24Z" fill="#F0E5D4"/>
<path d="M18.2388 69.5394C18.6109 68.7244 19.0184 67.8208 19.7271 67.3601C20.5421 66.8109 21.4457 67.0412 22.2075 67.3601C23.0757 67.7322 23.9082 68.1752 24.6878 68.7067C25.0244 68.937 25.8218 69.4508 25.9459 69.876C26.123 70.4961 25.6624 71.1517 25.3258 71.8072C23.2352 75.6873 21.6405 79.0004 19.5499 82.4553C19.2664 82.9336 18.912 83.4651 18.4337 83.6069C18.1325 83.6955 17.849 83.6068 17.5833 83.5182C16.1659 82.9867 11.8252 81.4808 13.154 78.9118C14.8017 75.7404 16.7505 72.8171 18.2388 69.5394Z" fill="#3D3D3D"/>
<path d="M19.0352 69.0079C19.2124 68.7244 19.425 68.4232 19.7085 68.2815C20.0274 68.1221 20.3641 68.2284 20.6475 68.3347C21.8523 68.7953 23.0039 69.4154 24.1378 70.0178C24.315 70.1063 24.7757 70.3544 24.8642 70.567C24.9351 70.691 25.0591 70.9214 25.0591 71.0808C25.0591 71.63 24.6162 72.0907 24.4036 72.6399C24.2087 73.136 23.8542 73.5435 23.6239 74.0219C23.3759 74.5357 23.0747 75.0494 22.7913 75.5455C22.3838 76.2897 21.9762 77.0515 21.6041 77.8311C21.3384 78.3803 21.0373 78.9295 20.8069 79.4965C20.7006 79.7622 20.5411 80.028 20.3285 80.1875C20.0273 80.4355 19.7261 80.4178 19.4249 80.3115C18.8403 80.1166 18.291 79.8154 17.7595 79.5142C16.9622 79.0713 16.165 78.6284 15.35 78.1854C15.0665 78.026 14.4109 77.7956 14.535 77.2818C14.5881 76.9984 14.8716 76.6617 15.0134 76.4137C15.2083 76.0771 15.4032 75.7227 15.5803 75.3861C16.3245 74.0219 16.9978 72.6222 17.7419 71.2403C18.1494 70.4784 18.5746 69.7343 19.0352 69.0079Z" fill="#EEEEEE"/>
<path d="M23.7129 68.9901C23.6421 68.9193 23.5357 68.8661 23.4471 68.813C23.2345 68.7067 23.0042 68.5826 22.7916 68.4763C22.6676 68.4055 22.4905 68.3346 22.4373 68.4055C22.4019 68.4409 22.4194 68.494 22.4549 68.5295C22.5789 68.7421 23.6242 69.3622 23.8014 69.2027C23.8191 69.1496 23.7838 69.061 23.7129 68.9901Z" fill="#5E625E"/>
<path d="M22.3307 68.2815C22.3307 68.2284 22.2777 68.1752 22.2245 68.1752C22.1714 68.1752 22.1181 68.2106 22.0649 68.2638C22.0295 68.2992 22.0117 68.3347 22.0117 68.3878C22.0117 68.4764 22.1005 68.5295 22.1713 68.5118C22.2422 68.4941 22.313 68.4055 22.3307 68.3169V68.2815Z" fill="#5E625E"/>
<path d="M16.2548 80.1165C16.0954 80.1519 15.9537 80.2583 15.8474 80.4C15.7942 80.4709 15.741 80.5417 15.7056 80.6126C15.617 80.8075 15.6525 81.0201 15.7411 81.1972C15.8297 81.3567 16.0068 81.4807 16.1663 81.5339C16.2194 81.5516 16.2548 81.5693 16.3079 81.5516C16.3611 81.5516 16.4143 81.5162 16.4674 81.4807C16.6623 81.3567 16.8217 81.1441 16.8749 80.9138C16.9989 80.5063 16.68 80.0102 16.2548 80.1165Z" fill="#EBEFEB"/>
<path d="M47.1519 90.5345C46.9747 89.5778 46.7266 88.621 46.1596 87.8414C45.5218 86.9379 44.4944 86.371 43.4313 86.052C42.3683 85.7509 41.2522 85.68 40.1537 85.6445C35.4055 85.5028 30.4269 85.928 26.3874 88.4438C26.1393 88.6033 25.8913 88.7627 25.7141 88.9931C25.5192 89.2234 25.413 89.5246 25.3067 89.8081C24.8106 91.1546 24.2968 92.5188 24.2082 93.9539C24.1373 95.0169 24.2791 96.0977 24.4385 97.1607C24.6511 98.5781 24.8814 99.9778 25.2535 101.36C25.8913 103.769 26.9542 106.072 28.283 108.181C27.4326 106.285 27.5568 104.124 27.7516 102.051C27.8402 100.988 27.9464 99.9423 28.0527 98.8793C28.159 97.7985 28.3184 96.6115 29.1157 95.8851C29.8421 95.1941 30.923 95.0701 31.9151 95.0524C32.9073 95.0347 33.9525 95.1055 34.856 94.7157L35.1396 93.5819C35.1041 94.2374 35.4584 94.8752 35.9722 95.3004C36.486 95.7257 37.1061 95.956 37.744 96.1331C38.4349 96.328 39.1437 96.4697 39.8524 96.4166C40.5434 96.3634 41.2167 96.1154 41.9077 96.0445C42.5987 95.9737 43.3781 96.08 43.8211 96.6115C44.2463 97.1076 44.264 97.8162 44.2817 98.4718C44.3349 100.314 44.5121 102.139 44.7956 103.946C44.9019 103.752 45.0258 103.557 45.1321 103.379C45.6459 103.893 45.2915 104.726 45.0612 105.399C44.7954 106.143 44.7246 106.958 44.8309 107.738C45.575 105.807 46.3191 103.876 46.8329 101.856C47.7542 98.1529 47.8783 94.2728 47.1519 90.5345Z" fill="#736357"/>
<defs>
<linearGradient id="paint0_linear_61_495" x1="164.092" y1="257.93" x2="164.092" y2="280.661" gradientUnits="userSpaceOnUse">
<stop stop-color="#FFB800"/>
<stop offset="0.364583" stop-color="#FFC42B"/>
<stop offset="0.5" stop-color="#FFDD85"/>
<stop offset="0.703125" stop-color="#F1BD35"/>
<stop offset="1" stop-color="#FFD772"/>
</linearGradient>
<linearGradient id="paint1_linear_61_495" x1="164.092" y1="260.061" x2="164.092" y2="278.53" gradientUnits="userSpaceOnUse">
<stop stop-color="#FFB800"/>
<stop offset="0.364583" stop-color="#FFC42B"/>
<stop offset="0.5" stop-color="#FFDD85"/>
<stop offset="0.703125" stop-color="#F1BD35"/>
<stop offset="1" stop-color="#FFD772"/>
</linearGradient>
<linearGradient id="paint2_linear_61_495" x1="190.957" y1="257.93" x2="190.957" y2="280.661" gradientUnits="userSpaceOnUse">
<stop stop-color="#FFB800"/>
<stop offset="0.364583" stop-color="#FFC42B"/>
<stop offset="0.5" stop-color="#FFDD85"/>
<stop offset="0.703125" stop-color="#F1BD35"/>
<stop offset="1" stop-color="#FFD772"/>
</linearGradient>
<linearGradient id="paint3_linear_61_495" x1="190.957" y1="260.061" x2="190.957" y2="278.53" gradientUnits="userSpaceOnUse">
<stop stop-color="#FFB800"/>
<stop offset="0.364583" stop-color="#FFC42B"/>
<stop offset="0.5" stop-color="#FFDD85"/>
<stop offset="0.703125" stop-color="#F1BD35"/>
<stop offset="1" stop-color="#FFD772"/>
</linearGradient>
<linearGradient id="paint4_linear_61_495" x1="1.1258" y1="275.487" x2="71.648" y2="275.487" gradientUnits="userSpaceOnUse">
<stop stop-color="#4D4D4D"/>
<stop offset="1"/>
</linearGradient>
<linearGradient id="paint5_linear_61_495" x1="1.1258" y1="275.487" x2="71.648" y2="275.487" gradientUnits="userSpaceOnUse">
<stop/>
<stop offset="1"/>
</linearGradient>
</defs>
</svg>
