<svg width="259" height="225" viewBox="0 0 259 225" fill="none" xmlns="http://www.w3.org/2000/svg">
<path d="M159.499 153.058C159.499 163.646 150.915 172.23 140.327 172.23C129.738 172.23 121.154 163.646 121.154 153.058C121.154 142.469 129.738 133.885 140.327 133.885C150.915 133.885 159.499 142.469 159.499 153.058Z" stroke="#0093FE" stroke-width="3"/>
<path d="M133.896 153.288L137.21 156.886C137.595 157.304 138.251 157.317 138.653 156.915L147.104 148.464" stroke="#0093FE" stroke-width="3" stroke-linecap="round"/>
<path d="M140 133.661V128.661M136 128.661H144" stroke="#0093FE" stroke-width="3" stroke-linecap="round"/>
<path d="M101 136.661H121M116.882 143.661H103.235M115.353 151.661H104.5M115.353 159.661H107M118 167.661H110" stroke="#0093FE" stroke-width="3" stroke-linecap="round"/>
<rect x="183.254" y="83.9282" width="75.5378" height="140.93" rx="15" fill="#A9A9A9"/>
<rect x="183" y="83.6608" width="73.6808" height="138.152" rx="10" fill="#EEEEEE"/>
<rect x="183" y="83.6608" width="73.6808" height="138.152" rx="10" fill="#4D4D4D" fill-opacity="0.2"/>
<rect x="187.848" y="93.3551" width="63.986" height="116.823" rx="10" fill="#151515"/>
<rect x="194.152" y="193.696" width="52.3522" height="10.1796" rx="5.08979" fill="#333333"/>
<path d="M201.117 198.356C201.119 198.354 201.133 198.346 201.135 198.344C201.135 198.344 201.146 198.337 201.15 198.335C201.162 198.326 201.174 198.317 201.185 198.308C201.188 198.306 201.198 198.297 201.2 198.295C201.202 198.293 201.214 198.282 201.216 198.28C201.226 198.271 201.236 198.261 201.244 198.251C201.246 198.249 201.27 198.22 201.272 198.217C201.275 198.213 201.278 198.208 201.282 198.203C201.283 198.201 201.292 198.187 201.295 198.183C201.296 198.18 201.305 198.164 201.307 198.162C201.309 198.158 201.316 198.144 201.317 198.142C201.321 198.133 201.325 198.125 201.328 198.117C201.329 198.112 201.331 198.108 201.333 198.104C201.333 198.104 201.333 198.104 201.333 198.103C201.334 198.1 201.335 198.096 201.337 198.092C201.337 198.092 201.337 198.092 201.337 198.092C201.339 198.084 201.341 198.077 201.343 198.07C201.344 198.068 201.344 198.066 201.345 198.064C201.347 198.056 201.349 198.048 201.35 198.041C201.351 198.036 201.352 198.031 201.352 198.027C201.353 198.025 201.354 198.018 201.354 198.015C201.354 198.011 201.355 198.006 201.355 198.003C201.355 198 201.356 197.993 201.356 197.992C201.356 197.991 201.356 197.99 201.356 197.989C201.356 197.987 201.356 197.986 201.356 197.986V195.465C201.255 195.465 201.154 195.491 201.063 195.543L199.181 196.623C199 196.727 198.889 196.919 198.889 197.127V199.286C198.889 199.371 198.907 199.454 198.942 199.528L201.117 198.356Z" fill="#EEEEEE"/>
<path d="M203.823 199.286V197.127C203.823 196.919 203.711 196.727 203.53 196.623L201.648 195.543C201.558 195.491 201.457 195.465 201.355 195.465V197.985C201.355 197.985 201.355 197.987 201.355 197.989C201.355 197.99 201.355 197.991 201.356 197.991C201.356 197.992 201.356 197.994 201.356 197.995C201.356 197.997 201.356 198 201.356 198.002C201.356 198.006 201.357 198.01 201.357 198.015C201.358 198.018 201.358 198.02 201.358 198.023C201.358 198.024 201.359 198.025 201.359 198.027C201.359 198.031 201.36 198.036 201.361 198.04C201.363 198.048 201.364 198.056 201.366 198.064C201.367 198.066 201.367 198.068 201.368 198.07C201.37 198.077 201.372 198.084 201.374 198.092C201.374 198.092 201.374 198.092 201.375 198.092C201.376 198.096 201.377 198.1 201.378 198.103C201.378 198.103 201.379 198.104 201.379 198.104C201.38 198.108 201.382 198.112 201.383 198.116C201.387 198.125 201.39 198.133 201.394 198.142C201.399 198.151 201.403 198.16 201.408 198.169C201.41 198.171 201.411 198.173 201.412 198.176C201.413 198.178 201.415 198.18 201.416 198.183C201.419 198.187 201.422 198.192 201.425 198.196C201.426 198.199 201.428 198.201 201.43 198.203C201.433 198.208 201.436 198.213 201.44 198.217C201.441 198.22 201.443 198.222 201.445 198.224C201.447 198.227 201.448 198.229 201.45 198.231C201.452 198.234 201.454 198.236 201.456 198.238C201.458 198.241 201.46 198.243 201.462 198.245L201.467 198.251C201.476 198.261 201.485 198.271 201.495 198.28C201.497 198.282 201.499 198.284 201.501 198.285C201.502 198.286 201.503 198.287 201.504 198.288C201.506 198.291 201.509 198.293 201.511 198.295C201.514 198.297 201.516 198.299 201.518 198.301C201.521 198.303 201.524 198.306 201.526 198.308C201.537 198.317 201.549 198.326 201.562 198.334C201.764 198.475 203.595 199.437 203.769 199.528C203.804 199.454 203.823 199.371 203.823 199.286Z" fill="#EEEEEE"/>
<path d="M198.941 199.528C198.991 199.637 199.074 199.729 199.181 199.79L201.063 200.87C201.244 200.974 201.467 200.974 201.648 200.87L203.53 199.79C203.637 199.729 203.72 199.637 203.769 199.528C203.595 199.437 201.764 198.475 201.562 198.334C201.549 198.326 201.521 198.303 201.518 198.301C201.516 198.299 201.506 198.291 201.504 198.288C201.503 198.287 201.476 198.261 201.467 198.251C201.465 198.249 201.452 198.234 201.45 198.231C201.448 198.229 201.441 198.22 201.44 198.217C201.436 198.213 201.426 198.199 201.425 198.196C201.422 198.192 201.41 198.171 201.408 198.169C201.407 198.167 201.396 198.144 201.395 198.142C201.39 198.133 201.387 198.125 201.383 198.117C201.382 198.112 201.376 198.096 201.375 198.092C201.375 198.092 201.37 198.077 201.368 198.07C201.367 198.068 201.363 198.048 201.361 198.04C201.36 198.036 201.359 198.031 201.359 198.027C201.359 198.025 201.358 198.018 201.357 198.015C201.357 198.011 201.356 198.006 201.356 198.003C201.356 198 201.356 197.997 201.356 197.995C201.356 197.994 201.356 197.993 201.356 197.991C201.355 197.991 201.355 197.99 201.355 197.989C201.355 197.99 201.355 197.991 201.355 197.991C201.355 197.993 201.355 197.994 201.355 197.995C201.355 197.997 201.355 198 201.355 198.003C201.355 198.006 201.354 198.011 201.354 198.015C201.353 198.018 201.352 198.025 201.352 198.027C201.351 198.031 201.347 198.056 201.344 198.064C201.344 198.066 201.336 198.092 201.336 198.092C201.335 198.096 201.329 198.112 201.327 198.117C201.324 198.125 201.321 198.133 201.316 198.142C201.315 198.144 201.304 198.167 201.303 198.169C201.301 198.171 201.296 198.18 201.295 198.183C201.292 198.187 201.283 198.201 201.281 198.203C201.278 198.208 201.268 198.222 201.266 198.224C201.264 198.227 201.246 198.249 201.244 198.251C201.235 198.261 201.226 198.271 201.216 198.28C201.214 198.282 201.187 198.306 201.184 198.308C201.173 198.317 201.162 198.326 201.149 198.334C201.145 198.337 201.119 198.354 201.116 198.356L198.941 199.528Z" fill="#EEEEEE"/>
<path d="M202.042 197.902C201.952 197.902 201.87 197.863 201.814 197.801L201.814 197.801C201.702 197.676 201.538 197.597 201.357 197.597C201.018 197.597 200.744 197.87 200.744 198.207C200.744 198.543 201.018 198.816 201.357 198.816C201.538 198.816 201.702 198.737 201.814 198.612V198.612C201.87 198.55 201.952 198.511 202.042 198.511C202.211 198.511 202.349 198.648 202.349 198.816C202.349 198.896 202.318 198.968 202.267 199.022C202.109 199.197 201.9 199.326 201.663 199.386V199.731C201.663 199.898 201.527 200.034 201.358 200.034C201.188 200.034 201.05 199.897 201.05 199.728V199.387C200.522 199.251 200.131 198.774 200.131 198.207C200.131 197.639 200.522 197.162 201.05 197.027V196.683C201.05 196.515 201.187 196.379 201.356 196.379C201.526 196.379 201.663 196.516 201.663 196.685V197.027C201.899 197.087 202.106 197.215 202.265 197.388C202.268 197.392 202.271 197.395 202.274 197.399C202.276 197.4 202.277 197.401 202.278 197.403L202.278 197.403C202.322 197.456 202.349 197.523 202.349 197.597C202.349 197.766 202.211 197.902 202.042 197.902Z" fill="#333333"/>
<path fill-rule="evenodd" clip-rule="evenodd" d="M211.572 196.748C211.526 196.723 211.484 196.698 211.446 196.674C211.543 196.596 211.649 196.527 211.766 196.468C211.75 196.489 211.735 196.509 211.719 196.53C211.669 196.599 211.619 196.672 211.572 196.748ZM212.122 196.827C212.175 196.754 212.231 196.685 212.286 196.622V196.99C212.202 196.978 212.121 196.96 212.043 196.939C212.068 196.901 212.095 196.864 212.122 196.827ZM212.286 197.955V197.494C212.117 197.475 211.955 197.438 211.806 197.39C211.774 197.476 211.751 197.562 211.738 197.645C211.717 197.781 211.589 197.875 211.453 197.854C211.316 197.833 211.223 197.705 211.244 197.568C211.264 197.441 211.299 197.316 211.346 197.194C211.249 197.142 211.163 197.088 211.089 197.037C210.927 197.245 210.821 197.454 210.769 197.603C210.723 197.733 210.58 197.801 210.45 197.755C210.319 197.709 210.251 197.567 210.297 197.436C210.386 197.184 210.576 196.833 210.875 196.521C211.246 196.131 211.797 195.789 212.536 195.789C213.274 195.789 213.841 196.13 214.231 196.515C214.546 196.826 214.755 197.174 214.858 197.424C214.911 197.552 214.85 197.698 214.722 197.751C214.594 197.803 214.448 197.742 214.396 197.615C214.332 197.46 214.207 197.239 214.021 197.022C213.936 197.078 213.839 197.138 213.731 197.195C213.777 197.318 213.812 197.445 213.829 197.573C213.848 197.71 213.752 197.836 213.615 197.854C213.479 197.873 213.353 197.777 213.334 197.641C213.323 197.56 213.301 197.476 213.27 197.391C213.121 197.439 212.96 197.476 212.786 197.495V197.955C212.786 198.093 212.674 198.205 212.536 198.205C212.398 198.205 212.286 198.093 212.286 197.955ZM213.304 196.461C213.427 196.519 213.541 196.59 213.645 196.668C213.601 196.695 213.554 196.722 213.506 196.748C213.458 196.673 213.409 196.6 213.358 196.532C213.34 196.508 213.322 196.484 213.304 196.461ZM212.786 196.991C212.872 196.979 212.955 196.962 213.034 196.94C213.009 196.903 212.983 196.866 212.956 196.829C212.901 196.755 212.844 196.685 212.786 196.619V196.991ZM214.189 197.776C215 197.698 215.635 198.095 216.024 198.337C216.052 198.355 216.08 198.372 216.105 198.388C216.157 198.42 216.185 198.46 216.193 198.476C216.193 198.528 216.131 198.518 216.027 198.502L216.027 198.502C215.955 198.491 215.863 198.476 215.757 198.476C215.548 198.476 215.147 198.592 214.973 198.649C214.603 198.797 213.982 199.322 213.483 199.744C213.394 199.819 213.31 199.89 213.231 199.956C212.813 200.304 212.13 200.545 211.75 200.566C210.966 200.653 210.269 200.217 210.008 200.043C209.7 199.838 209.056 199.551 208.892 199.531C208.806 199.521 208.782 199.451 208.794 199.414C208.794 199.414 208.963 198.998 209.834 199.259C210.079 199.332 210.269 199.433 210.705 199.694C210.907 199.816 211.186 199.869 211.314 199.869C211.559 199.869 211.924 199.782 212.273 199.607C212.551 199.468 212.686 199.356 212.743 199.305C212.794 199.251 212.856 199.145 212.795 199.085C212.722 199.011 212.648 199.062 212.471 199.184C212.438 199.206 212.401 199.232 212.36 199.259C212.151 199.398 211.808 199.491 211.663 199.52C211.402 199.607 211.053 199.52 210.966 199.433C210.896 199.363 211.053 199.288 211.14 199.259C211.169 199.259 211.297 199.224 211.576 199.085C211.924 198.91 211.924 198.91 212.447 198.562L212.447 198.562C212.534 198.504 212.617 198.445 212.698 198.388C213.101 198.103 213.464 197.846 214.189 197.776ZM210.322 197.903C210.044 197.822 209.802 197.865 209.787 197.903C209.77 197.918 209.753 198.005 209.893 198.057C210.068 198.123 210.547 198.417 210.678 198.508C210.705 198.526 210.739 198.55 210.778 198.578L210.778 198.578L210.778 198.578L210.778 198.578L210.778 198.578C210.935 198.687 211.171 198.853 211.294 198.926C211.393 198.984 211.468 198.988 211.52 198.952C211.55 198.93 211.615 198.879 211.684 198.812C211.739 198.759 211.705 198.673 211.684 198.658C211.583 198.582 211.342 198.405 211.188 198.308C210.995 198.186 210.711 198.016 210.322 197.903ZM209.694 198.124C209.394 198.002 209.257 198.047 209.226 198.085C209.164 198.137 209.2 198.199 209.226 198.223C209.392 198.349 209.756 198.6 209.906 198.693C210.085 198.804 210.462 199.086 210.606 199.193L210.606 199.193L210.628 199.209C210.738 199.291 210.834 199.258 210.871 199.244C210.939 199.211 211.066 199.146 211.118 199.101C211.18 199.047 211.134 198.974 211.098 198.945C210.943 198.835 210.605 198.599 210.496 198.531C210.359 198.446 210.069 198.275 209.694 198.124ZM210.907 197.941C210.93 197.887 211.059 197.808 211.444 197.941C211.856 198.083 212.113 198.24 212.193 198.293C212.23 198.316 212.295 198.378 212.249 198.432C212.204 198.487 212.159 198.519 212.132 198.534C212.115 198.547 212.057 198.579 212.007 198.572C211.975 198.567 211.928 198.546 211.858 198.514L211.858 198.514L211.858 198.514C211.822 198.498 211.78 198.479 211.731 198.459C211.616 198.411 211.198 198.193 210.99 198.073C210.955 198.054 210.888 198.001 210.907 197.941Z" fill="#EEEEEE"/>
<path d="M227.688 199.961L227.688 199.961C227.676 199.947 227.663 199.932 227.649 199.916C227.546 199.798 227.392 199.621 227.265 199.341C227.122 199.023 227.018 198.584 227.018 197.941C227.018 197.113 226.49 196.471 225.803 196.315L225.608 196.271V196.071V195.82C225.608 195.724 225.542 195.685 225.506 195.685C225.471 195.685 225.404 195.724 225.404 195.82V196.071V196.271L225.209 196.315C224.522 196.471 223.995 197.113 223.995 197.941C223.995 198.584 223.891 199.023 223.747 199.341C223.621 199.621 223.466 199.798 223.363 199.916C223.349 199.932 223.336 199.947 223.324 199.961C223.3 199.99 223.289 200.024 223.289 200.059L227.688 199.961ZM227.688 199.961C227.713 199.99 227.724 200.024 227.723 200.059L227.723 200.06M227.688 199.961L227.723 200.06M227.723 200.06C227.723 200.101 227.708 200.139 227.686 200.164C227.667 200.187 227.645 200.196 227.62 200.196H223.393C223.367 200.196 223.346 200.187 223.327 200.164M227.723 200.06L223.327 200.164M223.327 200.164C223.305 200.139 223.289 200.101 223.289 200.059L223.327 200.164ZM225.906 201.082C225.825 201.25 225.667 201.353 225.506 201.353C225.345 201.353 225.187 201.25 225.107 201.082H225.906Z" stroke="#EEEEEE" stroke-width="0.5"/>
<path fill-rule="evenodd" clip-rule="evenodd" d="M237.461 195.764C237.213 195.764 237.011 195.965 237.011 196.214V197.705C237.011 197.954 237.213 198.155 237.461 198.155H238.953C239.202 198.155 239.403 197.954 239.403 197.705V196.214C239.403 195.965 239.202 195.764 238.953 195.764H237.461ZM237.511 197.655V196.264H238.903V197.655H237.511ZM234.413 195.766C234.164 195.766 233.963 195.968 233.963 196.216V197.708C233.963 197.956 234.164 198.158 234.413 198.158H235.905C236.153 198.158 236.355 197.956 236.355 197.708V196.216C236.355 195.968 236.153 195.766 235.905 195.766H234.413ZM234.463 197.658V196.266H235.855V197.658H234.463ZM233.976 199.238C233.976 198.989 234.177 198.788 234.426 198.788H235.917C236.166 198.788 236.367 198.989 236.367 199.238V200.729C236.367 200.978 236.166 201.179 235.917 201.179H234.426C234.177 201.179 233.976 200.978 233.976 200.729V199.238ZM234.476 199.288V200.679H235.867V199.288H234.476ZM237.459 198.787C237.211 198.787 237.009 198.988 237.009 199.237V200.728C237.009 200.977 237.211 201.178 237.459 201.178H238.951C239.199 201.178 239.401 200.977 239.401 200.728V199.237C239.401 198.988 239.199 198.787 238.951 198.787H237.459ZM237.509 200.678V199.287H238.901V200.678H237.509Z" fill="#EEEEEE"/>
<path d="M196.523 105.773C196.526 105.775 196.544 105.786 196.547 105.787C196.547 105.788 196.56 105.796 196.565 105.799C196.581 105.81 196.596 105.821 196.61 105.832C196.614 105.835 196.626 105.846 196.629 105.848C196.632 105.851 196.648 105.864 196.65 105.866C196.663 105.878 196.675 105.89 196.686 105.903C196.688 105.905 196.719 105.941 196.721 105.944C196.725 105.95 196.73 105.956 196.734 105.962C196.736 105.964 196.747 105.982 196.751 105.987C196.753 105.99 196.764 106.01 196.766 106.013C196.769 106.018 196.777 106.035 196.779 106.037C196.784 106.048 196.789 106.059 196.793 106.069C196.795 106.074 196.797 106.079 196.799 106.084C196.799 106.085 196.799 106.085 196.799 106.085C196.801 106.09 196.802 106.095 196.804 106.099C196.804 106.099 196.804 106.1 196.804 106.1C196.807 106.109 196.81 106.118 196.813 106.127C196.813 106.129 196.814 106.132 196.814 106.134C196.817 106.144 196.819 106.154 196.821 106.163C196.822 106.169 196.823 106.175 196.824 106.18C196.824 106.182 196.826 106.191 196.826 106.194C196.827 106.2 196.827 106.206 196.828 106.21C196.828 106.214 196.828 106.223 196.828 106.224C196.828 106.225 196.828 106.226 196.828 106.227C196.828 106.23 196.828 106.231 196.828 106.231V109.351C196.699 109.351 196.57 109.319 196.454 109.254L194.052 107.918C193.82 107.789 193.678 107.551 193.678 107.294V104.621C193.678 104.516 193.702 104.414 193.746 104.322L196.523 105.773Z" fill="#0087FE"/>
<path d="M199.979 104.621V107.294C199.979 107.552 199.836 107.789 199.605 107.918L197.202 109.254C197.086 109.319 196.957 109.351 196.828 109.351V106.231C196.828 106.231 196.828 106.23 196.828 106.227C196.828 106.226 196.828 106.225 196.828 106.224C196.828 106.223 196.828 106.221 196.828 106.219C196.828 106.217 196.829 106.214 196.829 106.21C196.829 106.206 196.83 106.2 196.831 106.195C196.831 106.192 196.831 106.189 196.832 106.185C196.832 106.184 196.832 106.182 196.832 106.18C196.833 106.175 196.834 106.169 196.835 106.163C196.837 106.154 196.839 106.144 196.842 106.134C196.843 106.132 196.843 106.129 196.844 106.127C196.846 106.118 196.849 106.109 196.852 106.1C196.852 106.1 196.852 106.1 196.853 106.099C196.854 106.095 196.856 106.09 196.857 106.086C196.857 106.085 196.858 106.085 196.858 106.085C196.86 106.08 196.862 106.074 196.864 106.069C196.868 106.059 196.873 106.048 196.878 106.037C196.883 106.027 196.889 106.016 196.896 106.004C196.897 106.002 196.899 105.999 196.9 105.996C196.902 105.993 196.904 105.99 196.906 105.987C196.909 105.982 196.913 105.976 196.917 105.97C196.919 105.967 196.921 105.965 196.923 105.962C196.927 105.956 196.931 105.95 196.935 105.944C196.938 105.942 196.94 105.939 196.942 105.936C196.944 105.933 196.947 105.93 196.949 105.927C196.952 105.924 196.954 105.921 196.957 105.918C196.959 105.915 196.961 105.912 196.964 105.91L196.97 105.903C196.982 105.891 196.994 105.878 197.007 105.866C197.009 105.864 197.011 105.862 197.013 105.86C197.015 105.859 197.016 105.858 197.018 105.856C197.021 105.854 197.024 105.851 197.027 105.848C197.03 105.846 197.033 105.843 197.036 105.841C197.039 105.838 197.043 105.835 197.046 105.832C197.06 105.821 197.076 105.81 197.091 105.799C197.35 105.625 199.688 104.435 199.911 104.321C199.955 104.414 199.979 104.516 199.979 104.621Z" fill="#009CFD"/>
<path d="M193.746 104.321C193.81 104.188 193.915 104.073 194.052 103.997L196.455 102.661C196.687 102.532 196.972 102.532 197.203 102.661L199.606 103.997C199.743 104.073 199.848 104.188 199.912 104.321C199.689 104.435 197.351 105.625 197.092 105.799C197.076 105.81 197.04 105.838 197.037 105.841C197.034 105.843 197.022 105.853 197.019 105.856C197.017 105.857 196.983 105.89 196.971 105.903C196.969 105.905 196.953 105.924 196.95 105.927C196.948 105.93 196.939 105.941 196.937 105.944C196.932 105.95 196.92 105.967 196.918 105.97C196.914 105.976 196.898 106.001 196.897 106.004C196.895 106.007 196.88 106.035 196.879 106.037C196.874 106.048 196.869 106.059 196.865 106.069C196.863 106.074 196.855 106.095 196.853 106.099C196.853 106.099 196.847 106.118 196.845 106.127C196.844 106.129 196.838 106.154 196.836 106.163C196.835 106.169 196.834 106.175 196.833 106.18C196.833 106.182 196.832 106.191 196.831 106.194C196.831 106.2 196.83 106.206 196.83 106.21C196.83 106.213 196.829 106.216 196.829 106.219C196.829 106.221 196.829 106.223 196.829 106.224C196.829 106.225 196.829 106.226 196.829 106.227C196.829 106.226 196.829 106.225 196.829 106.224C196.829 106.223 196.829 106.221 196.829 106.219C196.829 106.217 196.829 106.214 196.828 106.21C196.828 106.206 196.827 106.2 196.827 106.194C196.826 106.191 196.825 106.182 196.825 106.18C196.824 106.175 196.818 106.144 196.815 106.134C196.814 106.132 196.805 106.099 196.805 106.099C196.803 106.095 196.796 106.074 196.793 106.069C196.789 106.059 196.784 106.048 196.779 106.037C196.778 106.035 196.763 106.007 196.761 106.004C196.76 106.002 196.753 105.99 196.751 105.987C196.748 105.982 196.736 105.964 196.734 105.962C196.73 105.956 196.717 105.938 196.715 105.936C196.713 105.933 196.689 105.905 196.687 105.903C196.675 105.891 196.663 105.878 196.65 105.866C196.648 105.864 196.614 105.835 196.611 105.832C196.597 105.821 196.582 105.81 196.566 105.799C196.56 105.796 196.527 105.775 196.524 105.773L193.746 104.321Z" fill="#0093FE"/>
<path d="M197.704 106.335C197.589 106.335 197.485 106.383 197.413 106.46L197.413 106.46C197.27 106.614 197.061 106.712 196.829 106.712C196.397 106.712 196.046 106.374 196.046 105.958C196.046 105.541 196.397 105.204 196.829 105.204C197.061 105.204 197.27 105.301 197.413 105.455V105.455C197.485 105.532 197.589 105.581 197.704 105.581C197.921 105.581 198.096 105.412 198.096 105.204C198.096 105.105 198.056 105.015 197.992 104.948C197.789 104.731 197.523 104.572 197.221 104.497V104.071C197.221 103.864 197.046 103.695 196.831 103.695C196.614 103.695 196.438 103.865 196.438 104.074V104.497C195.763 104.664 195.264 105.255 195.264 105.958C195.264 106.66 195.763 107.251 196.438 107.418V107.844C196.438 108.052 196.612 108.22 196.828 108.22C197.045 108.22 197.221 108.05 197.221 107.841V107.418C197.521 107.343 197.787 107.185 197.989 106.97C197.993 106.966 197.997 106.962 198.001 106.958C198.003 106.956 198.004 106.954 198.006 106.953L198.006 106.952C198.062 106.887 198.096 106.803 198.096 106.712C198.096 106.503 197.921 106.335 197.704 106.335Z" fill="#EEEEEE"/>
<rect x="211.121" y="86.5697" width="17.4507" height="2.42371" rx="1.21186" fill="#AAAAAA"/>
<rect x="211.119" y="212.601" width="17.4507" height="6.30165" rx="3.15082" fill="#AAAAAA"/>
<rect x="193.678" y="117.108" width="52.3522" height="26.6608" rx="5" fill="#0094FF"/>
<path fill-rule="evenodd" clip-rule="evenodd" d="M222.398 118.501C222.359 118.037 221.989 117.107 220.822 117.107H222.398V118.501ZM241.033 117.108C243.794 117.108 246.033 119.346 246.033 122.108V122.682H227.402C224.64 122.682 222.402 120.444 222.402 117.682V117.108H241.033Z" fill="#FFD600"/>
<path fill-rule="evenodd" clip-rule="evenodd" d="M222.398 118.501C222.359 118.037 221.989 117.107 220.822 117.107H222.398V118.501ZM241.033 117.108C243.794 117.108 246.033 119.346 246.033 122.108V122.682H227.402C224.64 122.682 222.402 120.444 222.402 117.682V117.108H241.033Z" fill="#4062DA"/>
<path fill-rule="evenodd" clip-rule="evenodd" d="M222.398 118.501C222.359 118.037 221.989 117.107 220.822 117.107H222.398V118.501ZM241.033 117.108C243.794 117.108 246.033 119.346 246.033 122.108V122.682H227.402C224.64 122.682 222.402 120.444 222.402 117.682V117.108H241.033Z" fill="#333333"/>
<rect x="193.678" y="149.585" width="52.3522" height="15.027" rx="5" fill="#C9C9C9"/>
<rect x="193.678" y="170.429" width="52.3522" height="15.027" rx="5" fill="#C9C9C9"/>
<path d="M231.811 103.05H231.02C230.743 103.05 230.52 103.274 230.52 103.55V104.411M231.811 107.897H231.02C230.743 107.897 230.52 107.673 230.52 107.397V106.537M234.062 103.05H234.867C235.143 103.05 235.367 103.274 235.367 103.55V104.411M234.062 107.897H234.867C235.143 107.897 235.367 107.673 235.367 107.397V106.537M230.52 105.411H235.367" stroke="#EEEEEE" stroke-width="0.5"/>
<path fill-rule="evenodd" clip-rule="evenodd" d="M245.429 102.559H245.679V102.809V103.932H245.179V103.059H244.404V102.559H245.429ZM239.988 102.559H239.738V102.809V103.932H240.238V103.059H241.013V102.559H239.988ZM239.991 108.501H239.741V108.251V107.128H240.241V108.001H241.016V108.501H239.991ZM245.431 108.501H245.681V108.251V107.128H245.181V108.001H244.406V108.501H245.431ZM243.189 103.321H242.939V103.571V105.02V105.27H243.189H244.604H244.854V105.02V103.571V103.321H244.604H243.189ZM243.439 104.77V103.821H244.354V104.77H243.439ZM240.544 103.338H240.794H242.208H242.458V103.588V105.037V105.287H242.208H240.794H240.544V105.037V103.588V103.338ZM241.044 103.838V104.787H241.958V103.838H241.044ZM240.525 105.755H240.775H242.19H242.44V106.005V107.453V107.703H242.19H240.775H240.525V107.453V106.005V105.755ZM241.025 106.255V107.203H241.94V106.255H241.025ZM243.482 106.296H244.414V107.232H243.482V106.296Z" fill="#EEEEEE"/>
<rect x="220.574" y="131.305" width="17.4507" height="1.45423" rx="0.727114" fill="#EEEEEE"/>
<rect x="0.253906" y="83.9282" width="75.5378" height="140.93" rx="15" fill="#A9A9A9"/>
<rect y="83.6608" width="73.6808" height="138.152" rx="10" fill="#EEEEEE"/>
<rect y="83.6608" width="73.6808" height="138.152" rx="10" fill="#4D4D4D" fill-opacity="0.2"/>
<rect x="4.84766" y="93.3551" width="63.986" height="116.823" rx="10" fill="#151515"/>
<rect x="11.1523" y="193.696" width="52.3522" height="10.1796" rx="5.08979" fill="#333333"/>
<path d="M18.1166 198.356C18.1193 198.354 18.1328 198.346 18.1351 198.344C18.1353 198.344 18.1456 198.337 18.1495 198.335C18.162 198.326 18.1739 198.317 18.1849 198.308C18.1877 198.306 18.1976 198.297 18.1998 198.295C18.2023 198.293 18.2142 198.282 18.2159 198.28C18.2262 198.271 18.2356 198.261 18.2444 198.251C18.246 198.249 18.2699 198.22 18.2716 198.217C18.275 198.213 18.2784 198.208 18.2815 198.203C18.2831 198.201 18.2921 198.187 18.2949 198.183C18.2963 198.18 18.3054 198.164 18.3066 198.162C18.309 198.158 18.3156 198.144 18.3167 198.142C18.3208 198.133 18.3245 198.125 18.3278 198.117C18.3295 198.112 18.331 198.108 18.3325 198.104C18.3326 198.104 18.3327 198.104 18.3328 198.103C18.3342 198.1 18.3354 198.096 18.3366 198.092C18.3367 198.092 18.3367 198.092 18.3368 198.092C18.3392 198.084 18.3414 198.077 18.3434 198.07C18.3438 198.068 18.3443 198.066 18.3448 198.064C18.3469 198.056 18.3486 198.048 18.35 198.041C18.351 198.036 18.3517 198.031 18.3523 198.027C18.3525 198.025 18.3536 198.018 18.3538 198.015C18.3544 198.011 18.3548 198.006 18.3551 198.003C18.3552 198 18.3556 197.993 18.3556 197.992C18.3557 197.991 18.3557 197.99 18.3557 197.989C18.3556 197.987 18.3557 197.986 18.3557 197.986V195.465C18.2546 195.465 18.1535 195.491 18.0629 195.543L16.1814 196.623C16.0003 196.727 15.8887 196.919 15.8887 197.127V199.286C15.8887 199.371 15.9074 199.454 15.9418 199.528L18.1166 198.356Z" fill="#EEEEEE"/>
<path d="M20.8227 199.286V197.127C20.8227 196.919 20.7111 196.727 20.5299 196.623L18.6482 195.543C18.5576 195.491 18.4566 195.465 18.3555 195.465V197.985C18.3555 197.985 18.3554 197.987 18.3555 197.989C18.3555 197.99 18.3555 197.991 18.3556 197.991C18.3556 197.992 18.3556 197.994 18.3557 197.995C18.3557 197.997 18.3559 198 18.3561 198.002C18.3564 198.006 18.3568 198.01 18.3573 198.015C18.3576 198.018 18.3579 198.02 18.3583 198.023C18.3584 198.024 18.3587 198.025 18.3589 198.027C18.3595 198.031 18.3602 198.036 18.3611 198.04C18.3625 198.048 18.3643 198.056 18.3664 198.064C18.3668 198.066 18.3673 198.068 18.3678 198.07C18.3697 198.077 18.3719 198.084 18.3744 198.092C18.3744 198.092 18.3745 198.092 18.3746 198.092C18.3758 198.096 18.3771 198.1 18.3784 198.103C18.3784 198.103 18.3785 198.104 18.3787 198.104C18.3801 198.108 18.3817 198.112 18.3833 198.116C18.3866 198.125 18.3904 198.133 18.3945 198.142C18.3986 198.151 18.4032 198.16 18.4083 198.169C18.4096 198.171 18.4108 198.173 18.4121 198.176C18.4134 198.178 18.4148 198.18 18.4162 198.183C18.419 198.187 18.4219 198.192 18.4249 198.196C18.4265 198.199 18.428 198.201 18.4296 198.203C18.4327 198.208 18.4361 198.213 18.4395 198.217C18.4412 198.22 18.443 198.222 18.4448 198.224C18.4465 198.227 18.4484 198.229 18.4503 198.231C18.4521 198.234 18.454 198.236 18.456 198.238C18.4579 198.241 18.4599 198.243 18.462 198.245L18.4667 198.251C18.4756 198.261 18.485 198.271 18.4952 198.28C18.497 198.282 18.4987 198.284 18.5005 198.285C18.5016 198.286 18.5027 198.287 18.5038 198.288C18.5063 198.291 18.5088 198.293 18.5114 198.295C18.5136 198.297 18.5158 198.299 18.5182 198.301C18.5208 198.303 18.5235 198.306 18.5263 198.308C18.5374 198.317 18.5492 198.326 18.5617 198.334C18.7643 198.475 20.5951 199.437 20.7694 199.528C20.804 199.454 20.8227 199.371 20.8227 199.286Z" fill="#EEEEEE"/>
<path d="M15.9414 199.528C15.9912 199.637 16.074 199.729 16.181 199.79L18.0627 200.87C18.2438 200.974 18.4671 200.974 18.6481 200.87L20.5298 199.79C20.6368 199.729 20.7197 199.637 20.7694 199.528C20.5951 199.437 18.7643 198.475 18.5617 198.334C18.5492 198.326 18.5208 198.303 18.5182 198.301C18.5159 198.299 18.5064 198.291 18.5039 198.288C18.5028 198.287 18.4756 198.261 18.4668 198.251C18.4652 198.249 18.4522 198.234 18.4504 198.231C18.4485 198.229 18.4413 198.22 18.4396 198.217C18.4361 198.213 18.4265 198.199 18.425 198.196C18.422 198.192 18.4096 198.171 18.4083 198.169C18.4071 198.167 18.3956 198.144 18.3946 198.142C18.3904 198.133 18.3866 198.125 18.3834 198.117C18.3817 198.112 18.3757 198.096 18.3746 198.092C18.3745 198.092 18.3697 198.077 18.3678 198.07C18.3673 198.068 18.3626 198.048 18.3611 198.04C18.3602 198.036 18.3594 198.031 18.3588 198.027C18.3586 198.025 18.3575 198.018 18.3573 198.015C18.3567 198.011 18.3563 198.006 18.3561 198.003C18.3559 198 18.3557 197.997 18.3556 197.995C18.3556 197.994 18.3555 197.993 18.3555 197.991C18.3554 197.991 18.3554 197.99 18.3554 197.989C18.3554 197.99 18.3554 197.991 18.3554 197.991C18.3554 197.993 18.3553 197.994 18.3553 197.995C18.3552 197.997 18.355 198 18.3548 198.003C18.3546 198.006 18.3542 198.011 18.3536 198.015C18.3534 198.018 18.3523 198.025 18.3521 198.027C18.3515 198.031 18.3467 198.056 18.3445 198.064C18.344 198.066 18.3364 198.092 18.3363 198.092C18.3352 198.096 18.3292 198.112 18.3275 198.117C18.3242 198.125 18.3205 198.133 18.3163 198.142C18.3153 198.144 18.3038 198.167 18.3025 198.169C18.3013 198.171 18.296 198.18 18.2945 198.183C18.2918 198.187 18.2828 198.201 18.2812 198.203C18.2781 198.208 18.2678 198.222 18.266 198.224C18.2642 198.227 18.2457 198.249 18.244 198.251C18.2352 198.261 18.2257 198.271 18.2156 198.28C18.2139 198.282 18.1873 198.306 18.1845 198.308C18.1735 198.317 18.1616 198.326 18.1491 198.334C18.145 198.337 18.1189 198.354 18.1162 198.356L15.9414 199.528Z" fill="#EEEEEE"/>
<path d="M19.042 197.902C18.9515 197.902 18.8702 197.863 18.814 197.801L18.814 197.801C18.7017 197.676 18.5385 197.597 18.3568 197.597C18.0182 197.597 17.7438 197.87 17.7438 198.207C17.7438 198.543 18.0182 198.816 18.3568 198.816C18.5385 198.816 18.7017 198.737 18.814 198.612V198.612C18.8701 198.55 18.9515 198.511 19.042 198.511C19.2113 198.511 19.3485 198.648 19.3485 198.816C19.3485 198.896 19.3177 198.968 19.2672 199.022C19.1086 199.197 18.8997 199.326 18.6632 199.386V199.731C18.6632 199.898 18.5265 200.034 18.3579 200.034C18.188 200.034 18.0503 199.897 18.0503 199.728V199.387C17.5216 199.251 17.1309 198.774 17.1309 198.207C17.1309 197.639 17.5216 197.162 18.0503 197.027V196.683C18.0503 196.515 18.187 196.379 18.3556 196.379C18.5255 196.379 18.6632 196.516 18.6632 196.685V197.027C18.8985 197.087 19.1065 197.215 19.2648 197.388C19.2681 197.392 19.2712 197.395 19.2743 197.399C19.2755 197.4 19.2767 197.401 19.278 197.403L19.2779 197.403C19.322 197.456 19.3486 197.523 19.3486 197.597C19.3485 197.766 19.2113 197.902 19.042 197.902Z" fill="#333333"/>
<path fill-rule="evenodd" clip-rule="evenodd" d="M28.5715 196.748C28.5263 196.723 28.4842 196.698 28.4456 196.674C28.5426 196.596 28.6493 196.527 28.7659 196.468C28.7503 196.489 28.7347 196.509 28.7193 196.53C28.6686 196.599 28.6188 196.672 28.5715 196.748ZM29.1219 196.827C29.1753 196.754 29.2307 196.685 29.2863 196.622V196.99C29.2023 196.978 29.121 196.96 29.043 196.939C29.0683 196.901 29.0947 196.864 29.1219 196.827ZM29.2863 197.955V197.494C29.1165 197.475 28.9555 197.438 28.8064 197.39C28.7744 197.476 28.751 197.562 28.7381 197.645C28.7169 197.781 28.5891 197.875 28.4527 197.854C28.3162 197.833 28.2228 197.705 28.244 197.568C28.2637 197.441 28.2993 197.316 28.346 197.194C28.2492 197.142 28.1629 197.088 28.0888 197.037C27.9268 197.245 27.8209 197.454 27.7686 197.603C27.7226 197.733 27.5798 197.801 27.4496 197.755C27.3194 197.709 27.2511 197.567 27.2971 197.436C27.3862 197.184 27.5763 196.833 27.8745 196.521C28.2459 196.131 28.7973 195.789 29.5363 195.789C30.2739 195.789 30.8411 196.13 31.2314 196.515C31.5456 196.826 31.7549 197.174 31.8581 197.424C31.9107 197.552 31.8498 197.698 31.7221 197.751C31.5945 197.803 31.4483 197.742 31.3958 197.615C31.332 197.46 31.2066 197.239 31.0205 197.022C30.9356 197.078 30.8388 197.138 30.7308 197.195C30.7773 197.318 30.8118 197.445 30.8293 197.573C30.848 197.71 30.7523 197.836 30.6155 197.854C30.4787 197.873 30.3526 197.777 30.3339 197.641C30.3229 197.56 30.301 197.476 30.2703 197.391C30.1212 197.439 29.9596 197.476 29.7863 197.495V197.955C29.7863 198.093 29.6744 198.205 29.5363 198.205C29.3983 198.205 29.2863 198.093 29.2863 197.955ZM30.304 196.461C30.4271 196.519 30.5409 196.59 30.6453 196.668C30.601 196.695 30.5544 196.722 30.5056 196.748C30.4584 196.673 30.4085 196.6 30.3577 196.532C30.34 196.508 30.3221 196.484 30.304 196.461ZM29.7863 196.991C29.8723 196.979 29.955 196.962 30.0341 196.94C30.0091 196.903 29.983 196.866 29.9559 196.829C29.901 196.755 29.8437 196.685 29.7863 196.619V196.991ZM31.1891 197.776C32.0004 197.698 32.6355 198.095 33.0238 198.337C33.0523 198.355 33.0796 198.372 33.1055 198.388C33.1572 198.42 33.1851 198.46 33.1926 198.476C33.1926 198.528 33.1313 198.518 33.0269 198.502L33.0269 198.502C32.9553 198.491 32.8634 198.476 32.757 198.476C32.548 198.476 32.1473 198.592 31.973 198.649C31.6031 198.797 30.9819 199.322 30.4829 199.744C30.3944 199.819 30.3096 199.89 30.2309 199.956C29.8127 200.304 29.1296 200.545 28.75 200.566C27.966 200.653 27.2692 200.217 27.0078 200.043C26.7003 199.838 26.0561 199.551 25.8921 199.531C25.8058 199.521 25.7819 199.451 25.7939 199.414C25.7939 199.414 25.9625 198.998 26.8336 199.259C27.079 199.332 27.2692 199.433 27.7047 199.694C27.9074 199.816 28.1864 199.869 28.3145 199.869C28.559 199.869 28.9242 199.782 29.2727 199.607C29.5514 199.468 29.6856 199.356 29.7425 199.305C29.7941 199.251 29.8558 199.145 29.7953 199.085C29.7219 199.011 29.6484 199.062 29.4706 199.184C29.4375 199.206 29.4008 199.232 29.3598 199.259C29.1507 199.398 28.8081 199.491 28.6629 199.52C28.4016 199.607 28.0532 199.52 27.966 199.433C27.8964 199.363 28.0532 199.288 28.1403 199.259C28.1693 199.259 28.2971 199.224 28.5758 199.085C28.9242 198.91 28.9242 198.91 29.4469 198.562L29.4469 198.562C29.5344 198.504 29.617 198.445 29.6979 198.388C30.1007 198.103 30.4635 197.846 31.1891 197.776ZM27.3221 197.903C27.0435 197.822 26.802 197.865 26.7867 197.903C26.7695 197.918 26.7533 198.005 26.8931 198.057C27.0679 198.123 27.5467 198.417 27.6785 198.508C27.7047 198.526 27.7388 198.55 27.7778 198.578L27.7779 198.578L27.7779 198.578L27.7779 198.578L27.7779 198.578C27.9347 198.687 28.1706 198.853 28.2944 198.926C28.393 198.984 28.4676 198.988 28.5197 198.952C28.5501 198.93 28.6153 198.879 28.6842 198.812C28.7385 198.759 28.7052 198.673 28.6842 198.658C28.5829 198.582 28.3417 198.405 28.1877 198.308C27.9951 198.186 27.7113 198.016 27.3221 197.903ZM26.6941 198.124C26.3942 198.002 26.2571 198.047 26.2261 198.085C26.1637 198.137 26.2001 198.199 26.2261 198.223C26.3922 198.349 26.7557 198.6 26.9065 198.693C27.0849 198.804 27.4623 199.086 27.6059 199.193L27.6059 199.193L27.628 199.209C27.7385 199.291 27.8338 199.258 27.8706 199.244C27.9385 199.211 28.0657 199.146 28.1177 199.101C28.1802 199.047 28.1335 198.974 28.0981 198.945C27.9429 198.835 27.605 198.599 27.4958 198.531C27.3593 198.446 27.069 198.275 26.6941 198.124ZM27.9066 197.941C27.9304 197.887 28.0585 197.808 28.4437 197.941C28.8565 198.083 29.1131 198.24 29.1925 198.293C29.2304 198.316 29.2946 198.378 29.2493 198.432C29.2039 198.487 29.1593 198.519 29.1316 198.534C29.1152 198.547 29.0567 198.579 29.0075 198.572C28.975 198.567 28.9276 198.546 28.8577 198.514L28.8577 198.514L28.8577 198.514C28.8218 198.498 28.7799 198.479 28.7311 198.459C28.6162 198.411 28.1978 198.193 27.9898 198.073C27.9545 198.054 27.8885 198.001 27.9066 197.941Z" fill="#EEEEEE"/>
<path d="M44.6883 199.961L44.6882 199.961C44.6762 199.947 44.6632 199.932 44.6491 199.916C44.5461 199.798 44.3919 199.621 44.2655 199.341C44.1217 199.023 44.0176 198.584 44.0176 197.941C44.0176 197.113 43.4905 196.471 42.8031 196.315L42.6085 196.271V196.071V195.82C42.6085 195.724 42.5419 195.685 42.5062 195.685C42.4706 195.685 42.404 195.724 42.404 195.82V196.071V196.271L42.2094 196.315C41.522 196.471 40.9949 197.113 40.9949 197.941C40.9949 198.584 40.8908 199.023 40.747 199.341C40.6206 199.621 40.4664 199.798 40.3634 199.916C40.3493 199.932 40.3363 199.947 40.3243 199.961C40.2999 199.99 40.2889 200.024 40.2891 200.059L44.6883 199.961ZM44.6883 199.961C44.7126 199.99 44.7236 200.024 44.7234 200.059L44.7234 200.06M44.6883 199.961L44.7234 200.06M44.7234 200.06C44.7232 200.101 44.7077 200.139 44.686 200.164C44.6666 200.187 44.6453 200.196 44.6199 200.196H40.3926C40.3672 200.196 40.3459 200.187 40.3265 200.164M44.7234 200.06L40.3265 200.164M40.3265 200.164C40.3048 200.139 40.2893 200.101 40.2891 200.059L40.3265 200.164ZM42.9057 201.082C42.8251 201.25 42.6671 201.353 42.5062 201.353C42.3454 201.353 42.1874 201.25 42.1068 201.082H42.9057Z" stroke="#EEEEEE" stroke-width="0.5"/>
<path fill-rule="evenodd" clip-rule="evenodd" d="M54.4615 195.764C54.2129 195.764 54.0115 195.965 54.0115 196.214V197.705C54.0115 197.954 54.2129 198.155 54.4615 198.155H55.9531C56.2017 198.155 56.4031 197.954 56.4031 197.705V196.214C56.4031 195.965 56.2017 195.764 55.9531 195.764H54.4615ZM54.5115 197.655V196.264H55.9031V197.655H54.5115ZM51.4129 195.766C51.1644 195.766 50.9629 195.968 50.9629 196.216V197.708C50.9629 197.956 51.1644 198.158 51.4129 198.158H52.9046C53.1531 198.158 53.3546 197.956 53.3546 197.708V196.216C53.3546 195.968 53.1531 195.766 52.9046 195.766H51.4129ZM51.4629 197.658V196.266H52.8546V197.658H51.4629ZM50.9758 199.238C50.9758 198.989 51.1773 198.788 51.4258 198.788H52.9175C53.166 198.788 53.3675 198.989 53.3675 199.238V200.729C53.3675 200.978 53.166 201.179 52.9175 201.179H51.4258C51.1773 201.179 50.9758 200.978 50.9758 200.729V199.238ZM51.4758 199.288V200.679H52.8675V199.288H51.4758ZM54.4591 198.787C54.2106 198.787 54.0091 198.988 54.0091 199.237V200.728C54.0091 200.977 54.2106 201.178 54.4591 201.178H55.9508C56.1993 201.178 56.4008 200.977 56.4008 200.728V199.237C56.4008 198.988 56.1993 198.787 55.9508 198.787H54.4591ZM54.5091 200.678V199.287H55.9008V200.678H54.5091Z" fill="#EEEEEE"/>
<path d="M13.523 105.773C13.5265 105.775 13.5437 105.786 13.5466 105.787C13.5468 105.788 13.56 105.796 13.5651 105.799C13.581 105.81 13.5961 105.821 13.6102 105.832C13.6138 105.835 13.6264 105.846 13.6293 105.848C13.6325 105.851 13.6477 105.864 13.6498 105.866C13.6629 105.878 13.675 105.89 13.6862 105.903C13.6883 105.905 13.7187 105.941 13.7209 105.944C13.7253 105.95 13.7296 105.956 13.7336 105.962C13.7356 105.964 13.7471 105.982 13.7507 105.987C13.7525 105.99 13.7641 106.01 13.7657 106.013C13.7687 106.018 13.7772 106.035 13.7785 106.037C13.7838 106.048 13.7886 106.059 13.7928 106.069C13.7949 106.074 13.7969 106.079 13.7987 106.084C13.7989 106.085 13.799 106.085 13.7991 106.085C13.8008 106.09 13.8025 106.095 13.804 106.099C13.8041 106.099 13.8041 106.1 13.8042 106.1C13.8073 106.109 13.8101 106.118 13.8126 106.127C13.8132 106.129 13.8138 106.132 13.8144 106.134C13.8171 106.144 13.8193 106.154 13.8211 106.163C13.8223 106.169 13.8232 106.175 13.824 106.18C13.8243 106.182 13.8257 106.191 13.826 106.194C13.8267 106.2 13.8272 106.206 13.8275 106.21C13.8278 106.214 13.8282 106.223 13.8282 106.224C13.8283 106.225 13.8283 106.226 13.8283 106.227C13.8282 106.23 13.8283 106.231 13.8283 106.231V109.351C13.6992 109.351 13.5702 109.319 13.4545 109.254L11.0516 107.918C10.8203 107.789 10.6777 107.551 10.6777 107.294V104.621C10.6777 104.516 10.7016 104.414 10.7456 104.322L13.523 105.773Z" fill="#0087FE"/>
<path d="M16.979 104.621V107.294C16.979 107.552 16.8364 107.789 16.6051 107.918L14.202 109.254C14.0863 109.319 13.9572 109.351 13.8282 109.351V106.231C13.8282 106.231 13.8281 106.23 13.8282 106.227C13.8282 106.226 13.8282 106.225 13.8282 106.224C13.8282 106.223 13.8283 106.221 13.8284 106.219C13.8285 106.217 13.8287 106.214 13.8289 106.21C13.8293 106.206 13.8298 106.2 13.8305 106.195C13.8308 106.192 13.8312 106.189 13.8317 106.185C13.8319 106.184 13.8322 106.182 13.8325 106.18C13.8332 106.175 13.8342 106.169 13.8354 106.163C13.8372 106.154 13.8394 106.144 13.8421 106.134C13.8426 106.132 13.8433 106.129 13.8439 106.127C13.8463 106.118 13.8491 106.109 13.8523 106.1C13.8523 106.1 13.8524 106.1 13.8525 106.099C13.8541 106.095 13.8557 106.09 13.8574 106.086C13.8574 106.085 13.8576 106.085 13.8577 106.085C13.8596 106.08 13.8616 106.074 13.8637 106.069C13.8679 106.059 13.8727 106.048 13.8779 106.037C13.8833 106.027 13.8891 106.016 13.8956 106.004C13.8972 106.002 13.8988 105.999 13.9005 105.996C13.9021 105.993 13.9039 105.99 13.9057 105.987C13.9093 105.982 13.9129 105.976 13.9169 105.97C13.9188 105.967 13.9208 105.965 13.9228 105.962C13.9268 105.956 13.9311 105.95 13.9355 105.944C13.9377 105.942 13.9399 105.939 13.9422 105.936C13.9444 105.933 13.9468 105.93 13.9492 105.927C13.9515 105.924 13.954 105.921 13.9565 105.918C13.959 105.915 13.9615 105.912 13.9641 105.91L13.9702 105.903C13.9815 105.891 13.9936 105.878 14.0066 105.866C14.0088 105.864 14.0111 105.862 14.0134 105.86C14.0148 105.859 14.0162 105.858 14.0176 105.856C14.0207 105.854 14.0239 105.851 14.0272 105.848C14.03 105.846 14.0329 105.843 14.0359 105.841C14.0393 105.838 14.0427 105.835 14.0463 105.832C14.0604 105.821 14.0755 105.81 14.0915 105.799C14.3502 105.625 16.6883 104.435 16.911 104.321C16.9551 104.414 16.979 104.516 16.979 104.621Z" fill="#009CFD"/>
<path d="M10.7461 104.321C10.8097 104.188 10.9154 104.073 11.0521 103.997L13.4552 102.661C13.6865 102.532 13.9716 102.532 14.2028 102.661L16.6059 103.997C16.7426 104.073 16.8484 104.188 16.9119 104.321C16.6893 104.435 14.3512 105.625 14.0925 105.799C14.0765 105.81 14.0402 105.838 14.0369 105.841C14.034 105.843 14.0218 105.853 14.0186 105.856C14.0172 105.857 13.9826 105.89 13.9713 105.903C13.9692 105.905 13.9527 105.924 13.9503 105.927C13.9479 105.93 13.9386 105.941 13.9365 105.944C13.9321 105.95 13.9198 105.967 13.9179 105.97C13.914 105.976 13.8982 106.001 13.8966 106.004C13.895 106.007 13.8803 106.035 13.879 106.037C13.8737 106.048 13.8689 106.059 13.8647 106.069C13.8626 106.074 13.855 106.095 13.8535 106.099C13.8534 106.099 13.8473 106.118 13.8449 106.127C13.8442 106.129 13.8381 106.154 13.8363 106.163C13.8351 106.169 13.8341 106.175 13.8334 106.18C13.833 106.182 13.8317 106.191 13.8314 106.194C13.8307 106.2 13.8301 106.206 13.8298 106.21C13.8296 106.213 13.8294 106.216 13.8293 106.219C13.8292 106.221 13.8291 106.223 13.8291 106.224C13.829 106.225 13.829 106.226 13.829 106.227C13.829 106.226 13.829 106.225 13.829 106.224C13.829 106.223 13.8289 106.221 13.8288 106.219C13.8287 106.217 13.8285 106.214 13.8283 106.21C13.828 106.206 13.8274 106.2 13.8267 106.194C13.8264 106.191 13.8251 106.182 13.8247 106.18C13.824 106.175 13.8179 106.144 13.815 106.134C13.8145 106.132 13.8047 106.099 13.8046 106.099C13.8031 106.095 13.7955 106.074 13.7934 106.069C13.7892 106.059 13.7844 106.048 13.7791 106.037C13.7778 106.035 13.7631 106.007 13.7615 106.004C13.7599 106.002 13.7531 105.99 13.7512 105.987C13.7478 105.982 13.7363 105.964 13.7342 105.962C13.7303 105.956 13.7171 105.938 13.7148 105.936C13.7126 105.933 13.6889 105.905 13.6867 105.903C13.6755 105.891 13.6634 105.878 13.6504 105.866C13.6482 105.864 13.6143 105.835 13.6107 105.832C13.5966 105.821 13.5815 105.81 13.5656 105.799C13.5603 105.796 13.527 105.775 13.5235 105.773L10.7461 104.321Z" fill="#0093FE"/>
<path d="M14.7044 106.335C14.5888 106.335 14.4849 106.383 14.4132 106.46L14.4131 106.46C14.2698 106.614 14.0614 106.712 13.8293 106.712C13.3969 106.712 13.0465 106.374 13.0465 105.958C13.0465 105.541 13.3969 105.204 13.8293 105.204C14.0614 105.204 14.2698 105.301 14.4132 105.455V105.455C14.4848 105.532 14.5888 105.581 14.7044 105.581C14.9206 105.581 15.0958 105.412 15.0958 105.204C15.0958 105.105 15.0564 105.015 14.992 104.948C14.7894 104.731 14.5227 104.572 14.2207 104.497V104.071C14.2207 103.864 14.0461 103.695 13.8307 103.695C13.6138 103.695 13.4379 103.865 13.4379 104.074V104.497C12.7626 104.664 12.2637 105.255 12.2637 105.958C12.2637 106.66 12.7626 107.251 13.4379 107.418V107.844C13.4379 108.052 13.6124 108.22 13.8278 108.22C14.0448 108.22 14.2207 108.05 14.2207 107.841V107.418C14.5212 107.343 14.7867 107.185 14.989 106.97C14.9931 106.966 14.9971 106.962 15.001 106.958C15.0026 106.956 15.0042 106.954 15.0057 106.953L15.0056 106.952C15.062 106.887 15.0959 106.803 15.0959 106.712C15.0958 106.503 14.9206 106.335 14.7044 106.335Z" fill="#EEEEEE"/>
<rect x="28.1211" y="86.5697" width="17.4507" height="2.42371" rx="1.21186" fill="#AAAAAA"/>
<rect x="28.1191" y="212.601" width="17.4507" height="6.30165" rx="3.15082" fill="#AAAAAA"/>
<rect x="10.6777" y="117.108" width="52.3522" height="26.6608" rx="5" fill="#0094FF"/>
<path fill-rule="evenodd" clip-rule="evenodd" d="M39.3977 118.501C39.3588 118.037 38.9892 117.107 37.8223 117.107H39.3977V118.501ZM58.0329 117.108C60.7943 117.108 63.0329 119.346 63.0329 122.108V122.682H44.4017C41.6402 122.682 39.4017 120.444 39.4017 117.682V117.108H58.0329Z" fill="#FFD600"/>
<path fill-rule="evenodd" clip-rule="evenodd" d="M39.3977 118.501C39.3588 118.037 38.9892 117.107 37.8223 117.107H39.3977V118.501ZM58.0329 117.108C60.7943 117.108 63.0329 119.346 63.0329 122.108V122.682H44.4017C41.6402 122.682 39.4017 120.444 39.4017 117.682V117.108H58.0329Z" fill="#4062DA"/>
<path fill-rule="evenodd" clip-rule="evenodd" d="M39.3977 118.501C39.3588 118.037 38.9892 117.107 37.8223 117.107H39.3977V118.501ZM58.0329 117.108C60.7943 117.108 63.0329 119.346 63.0329 122.108V122.682H44.4017C41.6402 122.682 39.4017 120.444 39.4017 117.682V117.108H58.0329Z" fill="#333333"/>
<rect x="10.6777" y="149.585" width="52.3522" height="15.027" rx="5" fill="#C9C9C9"/>
<rect x="10.6777" y="170.429" width="52.3522" height="15.027" rx="5" fill="#C9C9C9"/>
<path d="M48.8106 103.05H48.0195C47.7434 103.05 47.5195 103.274 47.5195 103.55V104.411M48.8106 107.897H48.0195C47.7434 107.897 47.5195 107.673 47.5195 107.397V106.537M51.0621 103.05H51.867C52.1431 103.05 52.367 103.274 52.367 103.55V104.411M51.0621 107.897H51.867C52.1431 107.897 52.367 107.673 52.367 107.397V106.537M47.5195 105.411H52.367" stroke="#EEEEEE" stroke-width="0.5"/>
<path fill-rule="evenodd" clip-rule="evenodd" d="M62.4288 102.559H62.6788V102.809V103.932H62.1788V103.059H61.4043V102.559H62.4288ZM56.9883 102.559H56.7383V102.809V103.932H57.2383V103.059H58.0128V102.559H56.9883ZM56.9914 108.501H56.7414V108.251V107.128H57.2414V108.001H58.016V108.501H56.9914ZM62.4308 108.501H62.6808V108.251V107.128H62.1808V108.001H61.4062V108.501H62.4308ZM60.1891 103.321H59.9391V103.571V105.02V105.27H60.1891H61.6039H61.8539V105.02V103.571V103.321H61.6039H60.1891ZM60.4391 104.77V103.821H61.3539V104.77H60.4391ZM57.5436 103.338H57.7936H59.2085H59.4585V103.588V105.037V105.287H59.2085H57.7936H57.5436V105.037V103.588V103.338ZM58.0436 103.838V104.787H58.9585V103.838H58.0436ZM57.5249 105.755H57.7749H59.1897H59.4397V106.005V107.453V107.703H59.1897H57.7749H57.5249V107.453V106.005V105.755ZM58.0249 106.255V107.203H58.9397V106.255H58.0249ZM60.4822 106.296H61.4137V107.232H60.4822V106.296Z" fill="#EEEEEE"/>
<rect x="37.5742" y="131.305" width="17.4507" height="1.45423" rx="0.727114" fill="#EEEEEE"/>
<path d="M111.23 70.2397C110.998 70.3885 110.93 70.6977 111.079 70.9303C111.228 71.1629 111.537 71.2308 111.77 71.0819L111.23 70.2397ZM167 78.5873L167.437 72.8304L162.233 75.3304L167 78.5873ZM108.777 73.0768C109.007 72.9236 109.069 72.6132 108.916 72.3834C108.763 72.1537 108.452 72.0916 108.223 72.2448L108.777 73.0768ZM105.223 74.2448C104.993 74.3979 104.931 74.7084 105.084 74.9381C105.237 75.1679 105.548 75.23 105.777 75.0768L105.223 74.2448ZM102.29 77.5678C102.515 77.4075 102.567 77.0953 102.407 76.8704C102.247 76.6456 101.934 76.5934 101.71 76.7537L102.29 77.5678ZM99.7097 78.1803C99.4848 78.3406 99.4326 78.6529 99.5929 78.8777C99.7533 79.1025 100.066 79.1547 100.29 78.9944L99.7097 78.1803ZM111.77 71.0819C134.248 56.6955 156.956 62.7524 164.63 74.7998L165.473 74.2626C157.416 61.6136 134.028 55.6494 111.23 70.2397L111.77 71.0819ZM108.223 72.2448L105.223 74.2448L105.777 75.0768L108.777 73.0768L108.223 72.2448ZM101.71 76.7537L99.7097 78.1803L100.29 78.9944L102.29 77.5678L101.71 76.7537Z" fill="#0093FE"/>
<circle cx="52" cy="69.6608" r="12" fill="url(#paint0_linear_61_623)"/>
<path d="M61.5 69.6608C61.5 74.9075 57.2467 79.1608 52 79.1608C46.7533 79.1608 42.5 74.9075 42.5 69.6608C42.5 64.4141 46.7533 60.1608 52 60.1608C57.2467 60.1608 61.5 64.4141 61.5 69.6608Z" fill="url(#paint1_linear_61_623)" stroke="#EEEEEE" stroke-width="0.5"/>
<path d="M54.2176 70.7522C53.9058 70.7522 53.6258 70.8921 53.4324 71.1144L53.4322 71.1142C53.0458 71.5614 52.4837 71.8431 51.8579 71.8431C50.6922 71.8431 49.7473 70.8663 49.7473 69.6613C49.7473 68.4563 50.6922 67.4795 51.8579 67.4795C52.4837 67.4795 53.0458 67.7612 53.4324 68.2084V68.2082C53.6255 68.4305 53.9058 68.5704 54.2176 68.5704C54.8003 68.5704 55.2729 68.0819 55.2729 67.4795C55.2729 67.1939 55.1667 66.9342 54.993 66.7396C54.4468 66.1137 53.7275 65.6522 52.9132 65.4356V64.2026C52.9132 63.6024 52.4426 63.1158 51.8619 63.1158C51.2769 63.1158 50.8026 63.6061 50.8026 64.2109V65.4351C48.982 65.9195 47.6367 67.6281 47.6367 69.6613C47.6367 71.6945 48.982 73.4031 50.8026 73.8875V75.12C50.8026 75.7202 51.2733 76.2068 51.8539 76.2068C52.439 76.2068 52.9132 75.7165 52.9132 75.1117V73.887C53.7235 73.6713 54.4394 73.2133 54.9848 72.5919C54.996 72.5797 55.0067 72.5673 55.0173 72.5546C55.0215 72.5498 55.0257 72.545 55.0299 72.5402L55.0297 72.54C55.1817 72.351 55.2731 72.1082 55.2731 71.8431C55.2729 71.2407 54.8005 70.7522 54.2176 70.7522Z" fill="#EEEEEE"/>
<circle cx="89" cy="28.6608" r="12" fill="url(#paint2_linear_61_623)"/>
<path d="M98.5 28.6608C98.5 33.9075 94.2467 38.1608 89 38.1608C83.7533 38.1608 79.5 33.9075 79.5 28.6608C79.5 23.4141 83.7533 19.1608 89 19.1608C94.2467 19.1608 98.5 23.4141 98.5 28.6608Z" fill="url(#paint3_linear_61_623)" stroke="#EEEEEE" stroke-width="0.5"/>
<path d="M91.2176 29.7522C90.9058 29.7522 90.6258 29.8921 90.4324 30.1144L90.4322 30.1142C90.0458 30.5614 89.4837 30.8431 88.8579 30.8431C87.6922 30.8431 86.7473 29.8663 86.7473 28.6613C86.7473 27.4563 87.6922 26.4795 88.8579 26.4795C89.4837 26.4795 90.0458 26.7612 90.4324 27.2084V27.2082C90.6255 27.4305 90.9058 27.5704 91.2176 27.5704C91.8003 27.5704 92.2729 27.0819 92.2729 26.4795C92.2729 26.1939 92.1667 25.9342 91.993 25.7396C91.4468 25.1137 90.7275 24.6522 89.9132 24.4356V23.2026C89.9132 22.6024 89.4426 22.1158 88.8619 22.1158C88.2769 22.1158 87.8026 22.6061 87.8026 23.2109V24.4351C85.982 24.9195 84.6367 26.6281 84.6367 28.6613C84.6367 30.6945 85.982 32.4031 87.8026 32.8875V34.12C87.8026 34.7202 88.2733 35.2068 88.8539 35.2068C89.439 35.2068 89.9132 34.7165 89.9132 34.1117V32.887C90.7235 32.6713 91.4394 32.2133 91.9848 31.5919C91.996 31.5797 92.0067 31.5673 92.0173 31.5546C92.0215 31.5498 92.0257 31.545 92.0299 31.5402L92.0297 31.54C92.1817 31.351 92.2731 31.1082 92.2731 30.8431C92.2729 30.2407 91.8005 29.7522 91.2176 29.7522Z" fill="#EEEEEE"/>
<circle cx="152" cy="12.6608" r="12" fill="url(#paint4_linear_61_623)"/>
<path d="M161.5 12.6608C161.5 17.9075 157.247 22.1608 152 22.1608C146.753 22.1608 142.5 17.9075 142.5 12.6608C142.5 7.41406 146.753 3.16077 152 3.16077C157.247 3.16077 161.5 7.41406 161.5 12.6608Z" fill="url(#paint5_linear_61_623)" stroke="#EEEEEE" stroke-width="0.5"/>
<path d="M154.218 13.7522C153.906 13.7522 153.626 13.8921 153.432 14.1144L153.432 14.1142C153.046 14.5614 152.484 14.8431 151.858 14.8431C150.692 14.8431 149.747 13.8663 149.747 12.6613C149.747 11.4563 150.692 10.4795 151.858 10.4795C152.484 10.4795 153.046 10.7612 153.432 11.2084V11.2082C153.626 11.4305 153.906 11.5704 154.218 11.5704C154.8 11.5704 155.273 11.0819 155.273 10.4795C155.273 10.1939 155.167 9.93424 154.993 9.73963C154.447 9.11366 153.727 8.65221 152.913 8.43555V7.20261C152.913 6.60239 152.443 6.11584 151.862 6.11584C151.277 6.11584 150.803 6.6061 150.803 7.2109V8.43512C148.982 8.91948 147.637 10.6281 147.637 12.6613C147.637 14.6945 148.982 16.4031 150.803 16.8875V18.12C150.803 18.7202 151.273 19.2068 151.854 19.2068C152.439 19.2068 152.913 18.7165 152.913 18.1117V16.887C153.723 16.6713 154.439 16.2133 154.985 15.5919C154.996 15.5797 155.007 15.5673 155.017 15.5546C155.021 15.5498 155.026 15.545 155.03 15.5402L155.03 15.54C155.182 15.351 155.273 15.1082 155.273 14.8431C155.273 14.2407 154.801 13.7522 154.218 13.7522Z" fill="#EEEEEE"/>
<circle cx="194" cy="30.6608" r="12" fill="url(#paint6_linear_61_623)"/>
<path d="M203.5 30.6608C203.5 35.9075 199.247 40.1608 194 40.1608C188.753 40.1608 184.5 35.9075 184.5 30.6608C184.5 25.4141 188.753 21.1608 194 21.1608C199.247 21.1608 203.5 25.4141 203.5 30.6608Z" fill="url(#paint7_linear_61_623)" stroke="#EEEEEE" stroke-width="0.5"/>
<path d="M196.218 31.7522C195.906 31.7522 195.626 31.8921 195.432 32.1144L195.432 32.1142C195.046 32.5614 194.484 32.8431 193.858 32.8431C192.692 32.8431 191.747 31.8663 191.747 30.6613C191.747 29.4563 192.692 28.4795 193.858 28.4795C194.484 28.4795 195.046 28.7612 195.432 29.2084V29.2082C195.626 29.4305 195.906 29.5704 196.218 29.5704C196.8 29.5704 197.273 29.0819 197.273 28.4795C197.273 28.1939 197.167 27.9342 196.993 27.7396C196.447 27.1137 195.727 26.6522 194.913 26.4356V25.2026C194.913 24.6024 194.443 24.1158 193.862 24.1158C193.277 24.1158 192.803 24.6061 192.803 25.2109V26.4351C190.982 26.9195 189.637 28.6281 189.637 30.6613C189.637 32.6945 190.982 34.4031 192.803 34.8875V36.12C192.803 36.7202 193.273 37.2068 193.854 37.2068C194.439 37.2068 194.913 36.7165 194.913 36.1117V34.887C195.723 34.6713 196.439 34.2133 196.985 33.5919C196.996 33.5797 197.007 33.5673 197.017 33.5546C197.021 33.5498 197.026 33.545 197.03 33.5402L197.03 33.54C197.182 33.351 197.273 33.1082 197.273 32.8431C197.273 32.2407 196.801 31.7522 196.218 31.7522Z" fill="#EEEEEE"/>
<circle cx="219" cy="66.6608" r="12" fill="url(#paint8_linear_61_623)"/>
<path d="M228.5 66.6608C228.5 71.9075 224.247 76.1608 219 76.1608C213.753 76.1608 209.5 71.9075 209.5 66.6608C209.5 61.4141 213.753 57.1608 219 57.1608C224.247 57.1608 228.5 61.4141 228.5 66.6608Z" fill="url(#paint9_linear_61_623)" stroke="#EEEEEE" stroke-width="0.5"/>
<path d="M221.218 67.7522C220.906 67.7522 220.626 67.8921 220.432 68.1144L220.432 68.1142C220.046 68.5614 219.484 68.8431 218.858 68.8431C217.692 68.8431 216.747 67.8663 216.747 66.6613C216.747 65.4563 217.692 64.4795 218.858 64.4795C219.484 64.4795 220.046 64.7612 220.432 65.2084V65.2082C220.626 65.4305 220.906 65.5704 221.218 65.5704C221.8 65.5704 222.273 65.0819 222.273 64.4795C222.273 64.1939 222.167 63.9342 221.993 63.7396C221.447 63.1137 220.727 62.6522 219.913 62.4356V61.2026C219.913 60.6024 219.443 60.1158 218.862 60.1158C218.277 60.1158 217.803 60.6061 217.803 61.2109V62.4351C215.982 62.9195 214.637 64.6281 214.637 66.6613C214.637 68.6945 215.982 70.4031 217.803 70.8875V72.12C217.803 72.7202 218.273 73.2068 218.854 73.2068C219.439 73.2068 219.913 72.7165 219.913 72.1117V70.887C220.723 70.6713 221.439 70.2133 221.985 69.5919C221.996 69.5797 222.007 69.5673 222.017 69.5546C222.021 69.5498 222.026 69.545 222.03 69.5402L222.03 69.54C222.182 69.351 222.273 69.1082 222.273 68.8431C222.273 68.2407 221.801 67.7522 221.218 67.7522Z" fill="#EEEEEE"/>
<defs>
<linearGradient id="paint0_linear_61_623" x1="52" y1="57.6608" x2="52" y2="81.6608" gradientUnits="userSpaceOnUse">
<stop stop-color="#FFB800"/>
<stop offset="0.364583" stop-color="#FFC42B"/>
<stop offset="0.5" stop-color="#FFDD85"/>
<stop offset="0.703125" stop-color="#F1BD35"/>
<stop offset="1" stop-color="#FFD772"/>
</linearGradient>
<linearGradient id="paint1_linear_61_623" x1="52" y1="59.9108" x2="52" y2="79.4108" gradientUnits="userSpaceOnUse">
<stop stop-color="#FFB800"/>
<stop offset="0.364583" stop-color="#FFC42B"/>
<stop offset="0.5" stop-color="#FFDD85"/>
<stop offset="0.703125" stop-color="#F1BD35"/>
<stop offset="1" stop-color="#FFD772"/>
</linearGradient>
<linearGradient id="paint2_linear_61_623" x1="89" y1="16.6608" x2="89" y2="40.6608" gradientUnits="userSpaceOnUse">
<stop stop-color="#FFB800"/>
<stop offset="0.364583" stop-color="#FFC42B"/>
<stop offset="0.5" stop-color="#FFDD85"/>
<stop offset="0.703125" stop-color="#F1BD35"/>
<stop offset="1" stop-color="#FFD772"/>
</linearGradient>
<linearGradient id="paint3_linear_61_623" x1="89" y1="18.9108" x2="89" y2="38.4108" gradientUnits="userSpaceOnUse">
<stop stop-color="#FFB800"/>
<stop offset="0.364583" stop-color="#FFC42B"/>
<stop offset="0.5" stop-color="#FFDD85"/>
<stop offset="0.703125" stop-color="#F1BD35"/>
<stop offset="1" stop-color="#FFD772"/>
</linearGradient>
<linearGradient id="paint4_linear_61_623" x1="152" y1="0.660767" x2="152" y2="24.6608" gradientUnits="userSpaceOnUse">
<stop stop-color="#FFB800"/>
<stop offset="0.364583" stop-color="#FFC42B"/>
<stop offset="0.5" stop-color="#FFDD85"/>
<stop offset="0.703125" stop-color="#F1BD35"/>
<stop offset="1" stop-color="#FFD772"/>
</linearGradient>
<linearGradient id="paint5_linear_61_623" x1="152" y1="2.91077" x2="152" y2="22.4108" gradientUnits="userSpaceOnUse">
<stop stop-color="#FFB800"/>
<stop offset="0.364583" stop-color="#FFC42B"/>
<stop offset="0.5" stop-color="#FFDD85"/>
<stop offset="0.703125" stop-color="#F1BD35"/>
<stop offset="1" stop-color="#FFD772"/>
</linearGradient>
<linearGradient id="paint6_linear_61_623" x1="194" y1="18.6608" x2="194" y2="42.6608" gradientUnits="userSpaceOnUse">
<stop stop-color="#FFB800"/>
<stop offset="0.364583" stop-color="#FFC42B"/>
<stop offset="0.5" stop-color="#FFDD85"/>
<stop offset="0.703125" stop-color="#F1BD35"/>
<stop offset="1" stop-color="#FFD772"/>
</linearGradient>
<linearGradient id="paint7_linear_61_623" x1="194" y1="20.9108" x2="194" y2="40.4108" gradientUnits="userSpaceOnUse">
<stop stop-color="#FFB800"/>
<stop offset="0.364583" stop-color="#FFC42B"/>
<stop offset="0.5" stop-color="#FFDD85"/>
<stop offset="0.703125" stop-color="#F1BD35"/>
<stop offset="1" stop-color="#FFD772"/>
</linearGradient>
<linearGradient id="paint8_linear_61_623" x1="219" y1="54.6608" x2="219" y2="78.6608" gradientUnits="userSpaceOnUse">
<stop stop-color="#FFB800"/>
<stop offset="0.364583" stop-color="#FFC42B"/>
<stop offset="0.5" stop-color="#FFDD85"/>
<stop offset="0.703125" stop-color="#F1BD35"/>
<stop offset="1" stop-color="#FFD772"/>
</linearGradient>
<linearGradient id="paint9_linear_61_623" x1="219" y1="56.9108" x2="219" y2="76.4108" gradientUnits="userSpaceOnUse">
<stop stop-color="#FFB800"/>
<stop offset="0.364583" stop-color="#FFC42B"/>
<stop offset="0.5" stop-color="#FFDD85"/>
<stop offset="0.703125" stop-color="#F1BD35"/>
<stop offset="1" stop-color="#FFD772"/>
</linearGradient>
</defs>
</svg>
