<svg width="31" height="30" viewBox="0 0 31 30" fill="none" xmlns="http://www.w3.org/2000/svg">
<path d="M10.5343 24.2892C10.5343 24.4102 10.3952 24.507 10.2198 24.507C10.0202 24.5251 9.88105 24.4283 9.88105 24.2892C9.88105 24.1683 10.0202 24.0715 10.1956 24.0715C10.377 24.0533 10.5343 24.1501 10.5343 24.2892ZM8.65323 24.0171C8.61089 24.138 8.73186 24.2771 8.91331 24.3134C9.07056 24.3739 9.25202 24.3134 9.28831 24.1925C9.3246 24.0715 9.20968 23.9324 9.02823 23.8779C8.87097 23.8356 8.69556 23.8961 8.65323 24.0171ZM11.3266 23.9142C11.1512 23.9566 11.0302 24.0715 11.0484 24.2106C11.0665 24.3316 11.2238 24.4102 11.4052 24.3679C11.5806 24.3255 11.7016 24.2106 11.6835 24.0896C11.6653 23.9747 11.502 23.8961 11.3266 23.9142ZM15.3065 0.736816C6.91734 0.736816 0.5 7.10577 0.5 15.4949C0.5 22.2025 4.72177 27.9425 10.752 29.9626C11.5262 30.1017 11.7984 29.6239 11.7984 29.2308C11.7984 28.8558 11.7802 26.7872 11.7802 25.5171C11.7802 25.5171 7.54637 26.4243 6.65726 23.7146C6.65726 23.7146 5.96774 21.9546 4.97581 21.5009C4.97581 21.5009 3.59073 20.5513 5.07258 20.5695C5.07258 20.5695 6.57863 20.6904 7.40726 22.13C8.73185 24.4646 10.9516 23.7933 11.8165 23.3941C11.9556 22.4263 12.3488 21.755 12.7843 21.3558C9.40323 20.9808 5.99194 20.4908 5.99194 14.6723C5.99194 13.009 6.45161 12.1743 7.41935 11.1098C7.2621 10.7167 6.74798 9.09569 7.57661 7.00295C8.84073 6.6098 11.75 8.63601 11.75 8.63601C12.9597 8.2973 14.2601 8.1219 15.5484 8.1219C16.8367 8.1219 18.1371 8.2973 19.3468 8.63601C19.3468 8.63601 22.256 6.60375 23.5202 7.00295C24.3488 9.10174 23.8347 10.7167 23.6774 11.1098C24.6452 12.1804 25.2379 13.015 25.2379 14.6723C25.2379 20.509 21.6754 20.9747 18.2944 21.3558C18.8508 21.8336 19.3226 22.7408 19.3226 24.1622C19.3226 26.2005 19.3044 28.7227 19.3044 29.2187C19.3044 29.6118 19.5827 30.0896 20.3508 29.9505C26.3992 27.9425 30.5 22.2025 30.5 15.4949C30.5 7.10577 23.6956 0.736816 15.3065 0.736816ZM6.37903 21.5977C6.3004 21.6582 6.31855 21.7973 6.42137 21.9122C6.51815 22.009 6.65726 22.0513 6.73589 21.9727C6.81452 21.9122 6.79637 21.7731 6.69355 21.6582C6.59677 21.5614 6.45766 21.5191 6.37903 21.5977ZM5.72581 21.1078C5.68347 21.1864 5.74395 21.2832 5.86492 21.3437C5.96169 21.4042 6.08266 21.386 6.125 21.3013C6.16734 21.2227 6.10685 21.1259 5.98589 21.0654C5.86492 21.0292 5.76815 21.0473 5.72581 21.1078ZM7.68548 23.261C7.58871 23.3396 7.625 23.5211 7.76411 23.636C7.90323 23.7751 8.07863 23.7933 8.15726 23.6965C8.23589 23.6179 8.1996 23.4364 8.07863 23.3215C7.94556 23.1824 7.76411 23.1642 7.68548 23.261ZM6.99597 22.3719C6.89919 22.4324 6.89919 22.5896 6.99597 22.7288C7.09274 22.8679 7.25605 22.9283 7.33468 22.8679C7.43145 22.7892 7.43145 22.632 7.33468 22.4929C7.25 22.3538 7.09274 22.2933 6.99597 22.3719Z" fill="white"/>
</svg>
