<svg width="51" height="50" viewBox="0 0 51 50" fill="none" xmlns="http://www.w3.org/2000/svg">
<path d="M20.5343 33.9272C20.5343 34.0481 20.3952 34.1449 20.2198 34.1449C20.0202 34.1631 19.881 34.0663 19.881 33.9272C19.881 33.8062 20.0202 33.7094 20.1956 33.7094C20.377 33.6913 20.5343 33.7881 20.5343 33.9272ZM18.6532 33.655C18.6109 33.776 18.7319 33.9151 18.9133 33.9514C19.0706 34.0119 19.252 33.9514 19.2883 33.8304C19.3246 33.7094 19.2097 33.5703 19.0282 33.5159C18.871 33.4735 18.6956 33.534 18.6532 33.655ZM21.3266 33.5522C21.1512 33.5945 21.0302 33.7094 21.0484 33.8485C21.0665 33.9695 21.2238 34.0481 21.4052 34.0058C21.5806 33.9635 21.7016 33.8485 21.6835 33.7276C21.6653 33.6127 21.502 33.534 21.3266 33.5522ZM25.3065 10.3748C16.9173 10.3748 10.5 16.7437 10.5 25.1328C10.5 31.8405 14.7218 37.5804 20.752 39.6006C21.5262 39.7397 21.7984 39.2619 21.7984 38.8687C21.7984 38.4937 21.7802 36.4252 21.7802 35.155C21.7802 35.155 17.5464 36.0623 16.6573 33.3526C16.6573 33.3526 15.9677 31.5925 14.9758 31.1389C14.9758 31.1389 13.5907 30.1893 15.0726 30.2074C15.0726 30.2074 16.5786 30.3284 17.4073 31.7679C18.7319 34.1026 20.9516 33.4312 21.8165 33.032C21.9556 32.0643 22.3488 31.3929 22.7843 30.9937C19.4032 30.6187 15.9919 30.1288 15.9919 24.3102C15.9919 22.6469 16.4516 21.8123 17.4194 20.7477C17.2621 20.3546 16.748 18.7336 17.5766 16.6409C18.8407 16.2477 21.75 18.274 21.75 18.274C22.9597 17.9352 24.2601 17.7598 25.5484 17.7598C26.8367 17.7598 28.1371 17.9352 29.3468 18.274C29.3468 18.274 32.256 16.2417 33.5202 16.6409C34.3488 18.7397 33.8347 20.3546 33.6774 20.7477C34.6452 21.8183 35.2379 22.653 35.2379 24.3102C35.2379 30.1469 31.6754 30.6127 28.2944 30.9937C28.8508 31.4715 29.3226 32.3788 29.3226 33.8002C29.3226 35.8385 29.3044 38.3606 29.3044 38.8566C29.3044 39.2498 29.5827 39.7276 30.3508 39.5885C36.3992 37.5804 40.5 31.8405 40.5 25.1328C40.5 16.7437 33.6956 10.3748 25.3065 10.3748ZM16.379 31.2356C16.3004 31.2961 16.3185 31.4352 16.4214 31.5502C16.5181 31.6469 16.6573 31.6893 16.7359 31.6106C16.8145 31.5502 16.7964 31.411 16.6935 31.2961C16.5968 31.1994 16.4577 31.157 16.379 31.2356ZM15.7258 30.7457C15.6835 30.8244 15.744 30.9211 15.8649 30.9816C15.9617 31.0421 16.0827 31.024 16.125 30.9393C16.1673 30.8606 16.1069 30.7639 15.9859 30.7034C15.8649 30.6671 15.7681 30.6852 15.7258 30.7457ZM17.6855 32.8989C17.5887 32.9776 17.625 33.159 17.7641 33.274C17.9032 33.4131 18.0786 33.4312 18.1573 33.3344C18.2359 33.2558 18.1996 33.0744 18.0786 32.9594C17.9456 32.8203 17.7641 32.8022 17.6855 32.8989ZM16.996 32.0098C16.8992 32.0703 16.8992 32.2276 16.996 32.3667C17.0927 32.5058 17.256 32.5663 17.3347 32.5058C17.4315 32.4272 17.4315 32.2699 17.3347 32.1308C17.25 31.9917 17.0927 31.9312 16.996 32.0098Z" fill="white"/>
</svg>
