<svg width="21" height="22" viewBox="0 0 21 22" fill="none" xmlns="http://www.w3.org/2000/svg">
<path d="M10.3603 0.998535C15.884 0.998535 20.3618 5.47638 20.3618 11.0001C20.3618 16.5238 15.884 21.0016 10.3603 21.0016C4.83661 21.0016 0.358765 16.5238 0.358765 11.0001C0.358765 5.47638 4.83661 0.998535 10.3603 0.998535ZM13.2992 15.4998H7.4214C8.07344 17.914 9.20683 19.5016 10.3603 19.5016C11.5138 19.5016 12.6471 17.914 13.2992 15.4998ZM5.86862 15.5004L3.14613 15.5003C4.10447 17.0333 5.53792 18.2389 7.2403 18.9109C6.71803 18.0911 6.28703 17.0648 5.97003 15.8954L5.86862 15.5004ZM17.5745 15.5003L14.852 15.5004C14.5282 16.8342 14.0606 18 13.4792 18.9109C15.0762 18.2809 16.4359 17.1819 17.3893 15.7838L17.5745 15.5003ZM5.45373 8.99944H2.09612L2.09137 9.01669C1.93928 9.65299 1.85876 10.3171 1.85876 11.0001C1.85876 12.0563 2.05134 13.0674 2.40332 14.0004L5.57648 14C5.43418 13.0509 5.35876 12.0427 5.35876 11.0001C5.35876 10.3161 5.39122 9.64688 5.45373 8.99944ZM13.7572 8.9995H6.96338C6.89536 9.63979 6.85876 10.3095 6.85876 11.0001C6.85876 12.0596 6.9449 13.0699 7.09849 14.0002H13.6221C13.7757 13.0699 13.8618 12.0596 13.8618 11.0001C13.8618 10.3095 13.8252 9.63979 13.7572 8.9995ZM18.6249 8.9986L15.2669 8.99946C15.3294 9.64689 15.3618 10.3161 15.3618 11.0001C15.3618 12.0427 15.2864 13.0509 15.1441 14L18.3173 14.0004C18.6692 13.0674 18.8618 12.0563 18.8618 11.0001C18.8618 10.3107 18.7798 9.64048 18.6249 8.9986ZM7.24136 3.08924L7.21845 3.09795C5.17114 3.91266 3.51512 5.49998 2.61045 7.49984L5.65857 7.50021C5.97193 5.74742 6.51877 4.22149 7.24136 3.08924ZM10.3603 2.49854L10.2446 2.50384C8.97923 2.61959 7.75673 4.62156 7.18902 7.49979H13.5316C12.9654 4.62963 11.7482 2.63082 10.4866 2.50485L10.3603 2.49854ZM13.4803 3.0893L13.5871 3.26339C14.2563 4.37585 14.7645 5.83574 15.062 7.50021L18.1101 7.49984C17.2455 5.58844 15.6945 4.0539 13.7715 3.21057L13.4803 3.0893Z" fill="#212121"/>
</svg>
