<svg width="345" height="486" viewBox="0 0 345 486" fill="none" xmlns="http://www.w3.org/2000/svg">
<path d="M2.84933 318.891C-8.11884 283.686 14.96 269.842 31.6408 270.071C42.609 269.086 87.8526 263.883 119.386 247.38C150.92 230.878 258.545 243.942 312.015 270.071C357.942 292.514 345.143 324.466 336.693 340.207C317.499 375.962 333.186 374.587 342.177 417.218C349.718 452.974 310.061 445.006 286.651 466.726C259.23 492.167 248.262 495.605 169.428 456.412C141.457 442.505 97.4498 464.663 48.7785 461.225C0.107256 457.787 -5.3768 425.47 11.0754 397.965C27.5277 370.461 16.5595 362.898 2.84933 318.891Z" fill="#E6F4FF"/>
<rect x="117.278" y="0.890625" width="224.007" height="417.928" rx="15" transform="rotate(7.89475 117.278 0.890625)" fill="#A9A9A9"/>
<rect x="116.647" width="218.5" height="409.688" rx="10" transform="rotate(7.89475 116.647 0)" fill="white"/>
<rect x="116.647" width="218.5" height="409.688" rx="10" transform="rotate(7.89475 116.647 0)" fill="#4D4D4D" fill-opacity="0.2"/>
<rect x="126.937" y="30.4524" width="189.75" height="346.438" rx="10" transform="rotate(7.89475 126.937 30.4524)" fill="#151515"/>
<rect x="104.573" y="327.761" width="155.25" height="30.1875" rx="12" transform="rotate(7.89475 104.573 327.761)" fill="#333333"/>
<path d="M139.292 347.362C139.297 347.359 139.323 347.347 139.328 347.345C139.328 347.345 139.349 347.335 139.356 347.331C139.381 347.319 139.405 347.306 139.427 347.292C139.433 347.289 139.453 347.276 139.457 347.273C139.462 347.27 139.486 347.253 139.49 347.25C139.511 347.235 139.53 347.22 139.549 347.204C139.552 347.201 139.603 347.154 139.606 347.15C139.614 347.143 139.621 347.135 139.628 347.128C139.631 347.124 139.651 347.101 139.657 347.093C139.66 347.09 139.681 347.063 139.683 347.059C139.689 347.052 139.704 347.029 139.707 347.026C139.716 347.011 139.725 346.996 139.733 346.982C139.737 346.975 139.741 346.968 139.745 346.961C139.745 346.961 139.745 346.96 139.745 346.96C139.749 346.953 139.752 346.947 139.755 346.941C139.755 346.94 139.755 346.94 139.756 346.94C139.762 346.927 139.768 346.914 139.773 346.902C139.774 346.898 139.776 346.895 139.777 346.892C139.783 346.877 139.788 346.863 139.792 346.85C139.795 346.842 139.798 346.834 139.8 346.826C139.801 346.824 139.804 346.81 139.806 346.806C139.808 346.797 139.81 346.79 139.811 346.783C139.812 346.778 139.814 346.765 139.815 346.763C139.815 346.762 139.815 346.761 139.815 346.759C139.816 346.755 139.816 346.752 139.816 346.752L140.448 342.199C140.265 342.174 140.076 342.195 139.899 342.267L136.23 343.746C135.876 343.888 135.626 344.208 135.574 344.583L135.033 348.485C135.012 348.638 135.025 348.792 135.069 348.935L139.292 347.362Z" fill="white"/>
<path d="M143.948 349.721L144.489 345.819C144.541 345.444 144.388 345.069 144.086 344.835L140.957 342.413C140.807 342.297 140.631 342.224 140.448 342.199L139.817 346.752C139.817 346.752 139.816 346.755 139.816 346.759C139.816 346.76 139.815 346.762 139.815 346.763C139.815 346.765 139.815 346.767 139.815 346.77C139.814 346.774 139.814 346.778 139.813 346.783C139.813 346.79 139.813 346.798 139.813 346.807C139.812 346.811 139.812 346.815 139.812 346.82C139.812 346.823 139.812 346.825 139.812 346.828C139.812 346.835 139.813 346.844 139.813 346.853C139.814 346.867 139.815 346.881 139.817 346.897C139.817 346.901 139.817 346.904 139.818 346.908C139.819 346.921 139.822 346.935 139.824 346.949C139.824 346.949 139.824 346.95 139.824 346.95C139.826 346.957 139.827 346.964 139.828 346.971C139.828 346.971 139.829 346.972 139.829 346.972C139.83 346.98 139.832 346.988 139.834 346.996C139.838 347.012 139.843 347.028 139.848 347.045C139.853 347.062 139.859 347.079 139.866 347.097C139.868 347.101 139.87 347.106 139.871 347.11C139.873 347.115 139.875 347.119 139.877 347.124C139.881 347.133 139.885 347.142 139.889 347.151C139.891 347.155 139.894 347.16 139.896 347.165C139.9 347.174 139.905 347.183 139.91 347.192C139.913 347.197 139.916 347.202 139.918 347.206C139.921 347.211 139.923 347.216 139.926 347.22C139.929 347.225 139.932 347.23 139.935 347.235C139.938 347.239 139.941 347.244 139.944 347.249L139.951 347.26C139.965 347.28 139.979 347.3 139.995 347.32C139.998 347.324 140.001 347.327 140.004 347.331C140.005 347.333 140.007 347.335 140.009 347.337C140.013 347.342 140.017 347.346 140.021 347.351C140.024 347.355 140.028 347.359 140.031 347.363C140.036 347.368 140.04 347.373 140.044 347.378C140.062 347.397 140.081 347.416 140.102 347.435C140.432 347.739 143.499 349.936 143.791 350.145C143.872 350.018 143.927 349.874 143.948 349.721Z" fill="white"/>
<path d="M135.069 348.935C135.132 349.143 135.258 349.331 135.436 349.468L138.565 351.89C138.866 352.124 139.27 352.179 139.623 352.037L143.293 350.558C143.502 350.474 143.674 350.328 143.791 350.145C143.499 349.936 140.433 347.74 140.102 347.435C140.081 347.416 140.036 347.368 140.032 347.363C140.028 347.359 140.013 347.342 140.009 347.337C140.007 347.335 139.965 347.28 139.951 347.26C139.949 347.256 139.929 347.225 139.927 347.221C139.924 347.216 139.913 347.197 139.911 347.193C139.905 347.183 139.892 347.156 139.889 347.151C139.885 347.142 139.868 347.102 139.866 347.097C139.864 347.093 139.849 347.05 139.848 347.046C139.843 347.029 139.838 347.012 139.834 346.996C139.832 346.988 139.826 346.957 139.824 346.95C139.824 346.95 139.82 346.921 139.818 346.908C139.817 346.905 139.814 346.867 139.813 346.853C139.813 346.844 139.812 346.836 139.812 346.828C139.812 346.825 139.812 346.811 139.812 346.807C139.813 346.798 139.813 346.79 139.813 346.784C139.814 346.779 139.814 346.774 139.815 346.77C139.815 346.768 139.815 346.765 139.815 346.763C139.815 346.762 139.816 346.761 139.816 346.759C139.816 346.761 139.815 346.762 139.815 346.763C139.815 346.765 139.814 346.768 139.814 346.77C139.813 346.774 139.812 346.778 139.811 346.783C139.81 346.79 139.808 346.797 139.806 346.806C139.805 346.81 139.801 346.824 139.8 346.826C139.798 346.834 139.783 346.877 139.777 346.892C139.776 346.895 139.755 346.94 139.755 346.941C139.752 346.947 139.737 346.975 139.733 346.982C139.725 346.997 139.716 347.011 139.707 347.026C139.704 347.03 139.678 347.067 139.675 347.071C139.672 347.074 139.66 347.09 139.657 347.093C139.651 347.101 139.631 347.124 139.628 347.128C139.621 347.135 139.599 347.158 139.595 347.162C139.591 347.165 139.552 347.201 139.549 347.204C139.53 347.22 139.511 347.235 139.49 347.25C139.487 347.253 139.433 347.289 139.427 347.292C139.405 347.306 139.381 347.319 139.356 347.331C139.348 347.335 139.297 347.359 139.292 347.361L135.069 348.935Z" fill="white"/>
<path d="M141.076 346.773C140.912 346.751 140.775 346.66 140.689 346.533L140.689 346.534C140.517 346.28 140.242 346.097 139.914 346.051C139.302 345.966 138.738 346.39 138.654 346.998C138.57 347.606 138.997 348.168 139.609 348.252C139.937 348.298 140.252 348.197 140.486 347.999L140.486 347.999C140.603 347.901 140.759 347.851 140.923 347.874C141.229 347.916 141.442 348.197 141.4 348.501C141.38 348.645 141.307 348.768 141.202 348.854C140.871 349.13 140.462 349.31 140.019 349.36L139.933 349.982C139.891 350.285 139.61 350.496 139.305 350.454C138.999 350.411 138.784 350.13 138.826 349.824L138.912 349.207C137.991 348.83 137.404 347.87 137.546 346.845C137.689 345.819 138.514 345.055 139.503 344.943L139.589 344.322C139.631 344.019 139.912 343.808 140.217 343.85C140.524 343.892 140.738 344.174 140.696 344.479L140.61 345.097C141.021 345.265 141.364 345.548 141.607 345.901C141.612 345.908 141.617 345.915 141.621 345.922C141.623 345.925 141.625 345.928 141.627 345.93L141.627 345.931C141.693 346.037 141.724 346.166 141.706 346.3C141.663 346.604 141.381 346.816 141.076 346.773Z" fill="#333333"/>
<path fill-rule="evenodd" clip-rule="evenodd" d="M164.685 347.968C164.512 347.847 164.362 347.724 164.241 347.613C164.616 347.368 165.052 347.175 165.544 347.087C165.39 347.219 165.234 347.364 165.084 347.518C164.948 347.658 164.813 347.808 164.685 347.968ZM165.586 348.006C165.788 347.799 165.999 347.612 166.2 347.454L166.042 348.595C165.775 348.53 165.525 348.435 165.297 348.326C165.388 348.216 165.485 348.109 165.586 348.006ZM165.81 350.266L165.945 349.292C165.558 349.204 165.203 349.065 164.886 348.904C164.773 349.097 164.683 349.294 164.624 349.49C164.569 349.675 164.373 349.78 164.188 349.725C164.003 349.669 163.898 349.474 163.954 349.289C164.031 349.031 164.146 348.781 164.286 348.543C164.044 348.374 163.841 348.202 163.683 348.049C163.27 348.43 162.981 348.842 162.827 349.138C162.738 349.31 162.527 349.377 162.356 349.288C162.184 349.2 162.117 348.988 162.205 348.817C162.43 348.382 162.867 347.788 163.493 347.291C164.27 346.673 165.359 346.19 166.703 346.377C168.044 346.563 168.992 347.326 169.609 348.131C170.107 348.781 170.402 349.473 170.526 349.953C170.574 350.141 170.462 350.332 170.274 350.38C170.087 350.428 169.896 350.316 169.848 350.129C169.76 349.789 169.559 349.291 169.223 348.793C169.003 348.902 168.742 349.02 168.447 349.122C168.516 349.39 168.556 349.664 168.556 349.933C168.555 350.127 168.398 350.283 168.205 350.283C168.012 350.282 167.855 350.125 167.856 349.932C167.856 349.731 167.826 349.521 167.771 349.306C167.423 349.376 167.043 349.412 166.638 349.389L166.504 350.362C166.477 350.553 166.3 350.687 166.109 350.661C165.917 350.634 165.784 350.457 165.81 350.266ZM167.626 347.373C168.083 347.589 168.465 347.893 168.778 348.231C168.609 348.31 168.422 348.389 168.22 348.459C168.14 348.272 168.051 348.091 167.958 347.92C167.853 347.728 167.741 347.544 167.626 347.373ZM166.735 348.693C167.015 348.704 167.283 348.682 167.534 348.638C167.476 348.509 167.412 348.381 167.343 348.255C167.203 347.997 167.047 347.757 166.894 347.548L166.735 348.693ZM169.304 350.411C170.844 350.476 171.931 351.384 172.596 351.939L172.596 351.939C172.645 351.98 172.691 352.019 172.735 352.055C172.824 352.129 172.866 352.211 172.876 352.244C172.862 352.34 172.75 352.306 172.559 352.249C172.427 352.209 172.259 352.158 172.06 352.13C171.668 352.076 170.887 352.188 170.546 352.25C169.815 352.431 168.514 353.254 167.47 353.914C167.284 354.031 167.107 354.143 166.942 354.246C166.069 354.79 164.726 355.064 164.01 355.003C162.518 354.963 161.326 353.966 160.881 353.572C160.358 353.108 159.226 352.402 158.924 352.323C158.765 352.282 158.738 352.144 158.77 352.079C158.77 352.079 159.194 351.342 160.759 352.058C161.199 352.259 161.529 352.497 162.277 353.1C162.626 353.38 163.135 353.551 163.375 353.585C163.833 353.648 164.54 353.58 165.238 353.344C165.796 353.155 166.077 352.98 166.197 352.9C166.307 352.811 166.45 352.63 166.353 352.501C166.234 352.344 166.084 352.419 165.719 352.602L165.719 352.602C165.651 352.636 165.575 352.673 165.491 352.714C165.064 352.921 164.397 353.006 164.118 353.022C163.606 353.118 162.975 352.864 162.835 352.678C162.722 352.529 163.036 352.429 163.207 352.397C163.261 352.405 163.509 352.372 164.068 352.184C164.766 351.948 164.766 351.948 165.836 351.431L165.836 351.431C166.015 351.344 166.185 351.256 166.351 351.17C167.18 350.74 167.926 350.353 169.304 350.411ZM162.03 349.643C161.53 349.419 161.066 349.438 161.028 349.504C160.992 349.528 160.939 349.686 161.187 349.821C161.497 349.99 162.317 350.665 162.54 350.87C162.585 350.91 162.642 350.964 162.708 351.025C162.974 351.272 163.372 351.642 163.585 351.811C163.755 351.946 163.893 351.972 164 351.918C164.063 351.887 164.198 351.807 164.345 351.699C164.46 351.615 164.42 351.445 164.385 351.411C164.215 351.242 163.809 350.849 163.546 350.627C163.217 350.349 162.729 349.957 162.03 349.643ZM160.771 349.891C160.241 349.586 159.972 349.634 159.904 349.696C159.774 349.778 159.826 349.903 159.868 349.956C160.147 350.235 160.762 350.799 161.02 351.013C161.326 351.267 161.959 351.892 162.2 352.13L162.2 352.13L162.237 352.166C162.423 352.349 162.61 352.31 162.683 352.294C162.819 352.249 163.073 352.161 163.183 352.09C163.314 352.005 163.245 351.857 163.186 351.793C162.924 351.547 162.353 351.017 162.166 350.862C161.932 350.668 161.433 350.272 160.771 349.891ZM163.097 349.863C163.155 349.769 163.416 349.654 164.102 350.003C164.838 350.376 165.278 350.736 165.413 350.856C165.477 350.91 165.581 351.042 165.482 351.132C165.383 351.222 165.292 351.271 165.236 351.293C165.202 351.312 165.084 351.357 164.994 351.33C164.934 351.313 164.851 351.26 164.728 351.184L164.728 351.184C164.665 351.144 164.592 351.098 164.506 351.047C164.303 350.927 163.577 350.411 163.218 350.133C163.157 350.088 163.047 349.972 163.097 349.863Z" fill="white"/>
<path d="M194.867 357.216L194.867 357.216C194.851 357.192 194.833 357.165 194.815 357.136C194.675 356.923 194.46 356.594 194.315 356.102C194.15 355.543 194.081 354.801 194.226 353.758C194.404 352.469 193.722 351.366 192.698 350.979L192.324 350.838L192.379 350.442L192.435 350.039C192.442 349.991 192.429 349.953 192.413 349.93C192.398 349.909 192.386 349.906 192.382 349.906C192.378 349.905 192.365 349.904 192.345 349.921C192.323 349.938 192.301 349.971 192.294 350.02L192.238 350.423L192.183 350.818L191.786 350.852C190.694 350.946 189.738 351.822 189.559 353.111C189.414 354.154 189.146 354.849 188.835 355.342C188.562 355.776 188.265 356.034 188.073 356.201C188.047 356.224 188.023 356.245 188.001 356.264L194.867 357.216ZM194.867 357.216C194.886 357.247 194.893 357.28 194.887 357.317L194.887 357.317M194.867 357.216L194.887 357.317M194.887 357.317C194.881 357.362 194.858 357.399 194.835 357.419C194.825 357.428 194.818 357.432 194.814 357.433C194.811 357.434 194.807 357.435 194.797 357.434L188.009 356.492C188 356.491 187.996 356.489 187.993 356.487C187.99 356.485 187.984 356.48 187.976 356.468C187.96 356.443 187.948 356.4 187.954 356.355L194.887 357.317ZM191.654 358.638C191.508 358.779 191.318 358.844 191.146 358.82C190.973 358.796 190.808 358.682 190.706 358.507L191.654 358.638ZM187.954 356.355C187.959 356.319 187.974 356.289 188.001 356.264L187.954 356.355Z" stroke="white"/>
<path fill-rule="evenodd" clip-rule="evenodd" d="M212.701 352.624C211.88 352.51 211.123 353.083 211.009 353.903L210.851 355.045C210.737 355.866 211.31 356.623 212.131 356.737L213.273 356.895C214.093 357.009 214.851 356.436 214.964 355.616L215.123 354.474C215.236 353.653 214.664 352.896 213.843 352.782L212.701 352.624ZM212 354.041C212.038 353.767 212.29 353.576 212.564 353.614L213.706 353.772C213.979 353.81 214.17 354.063 214.132 354.336L213.974 355.478C213.936 355.752 213.683 355.943 213.41 355.905L212.268 355.746C211.994 355.709 211.803 355.456 211.841 355.183L212 354.041ZM217.698 353.316C216.877 353.203 216.12 353.776 216.006 354.596L215.848 355.738C215.734 356.559 216.307 357.316 217.127 357.43L218.269 357.588C219.09 357.702 219.847 357.129 219.961 356.309L220.119 355.167C220.233 354.346 219.66 353.589 218.84 353.475L217.698 353.316ZM216.996 354.734C217.034 354.46 217.287 354.269 217.56 354.307L218.702 354.465C218.976 354.503 219.167 354.756 219.129 355.029L218.971 356.171C218.933 356.445 218.68 356.636 218.407 356.598L217.265 356.439C216.991 356.401 216.8 356.149 216.838 355.875L216.996 354.734ZM210.316 358.9C210.43 358.08 211.188 357.507 212.008 357.62L213.15 357.779C213.971 357.892 214.544 358.65 214.43 359.47L214.271 360.612C214.158 361.433 213.4 362.006 212.58 361.892L211.438 361.734C210.617 361.62 210.044 360.863 210.158 360.042L210.316 358.9ZM211.871 358.611C211.597 358.573 211.345 358.764 211.307 359.037L211.148 360.179C211.111 360.453 211.302 360.705 211.575 360.743L212.717 360.902C212.991 360.94 213.243 360.749 213.281 360.475L213.439 359.333C213.477 359.06 213.286 358.807 213.013 358.769L211.871 358.611ZM217.005 358.313C216.184 358.199 215.427 358.772 215.313 359.593L215.155 360.735C215.041 361.555 215.614 362.313 216.434 362.427L217.576 362.585C218.397 362.699 219.154 362.126 219.268 361.305L219.427 360.163C219.54 359.343 218.967 358.585 218.147 358.472L217.005 358.313ZM216.304 359.73C216.342 359.457 216.594 359.266 216.868 359.304L218.009 359.462C218.283 359.5 218.474 359.753 218.436 360.026L218.278 361.168C218.24 361.442 217.987 361.632 217.714 361.595L216.572 361.436C216.298 361.398 216.107 361.146 216.145 360.872L216.304 359.73Z" fill="white"/>
<path d="M147.173 71.5427C147.184 71.5381 147.239 71.5139 147.248 71.5099C147.249 71.5096 147.291 71.4904 147.307 71.4823C147.358 71.4571 147.407 71.4309 147.453 71.4039C147.465 71.3973 147.506 71.3717 147.515 71.3658C147.526 71.3591 147.576 71.3256 147.583 71.3203C147.627 71.2904 147.667 71.2595 147.705 71.2281C147.712 71.2223 147.816 71.1275 147.824 71.12C147.839 71.105 147.854 71.0897 147.868 71.0745C147.875 71.0669 147.916 71.0213 147.929 71.0059C147.936 70.9982 147.978 70.9449 147.983 70.9374C147.994 70.9224 148.026 70.8776 148.031 70.8702C148.051 70.8404 148.069 70.8111 148.086 70.7827C148.094 70.7685 148.102 70.754 148.11 70.7402C148.11 70.7394 148.111 70.7383 148.111 70.7375C148.118 70.7244 148.125 70.7116 148.131 70.6989C148.131 70.6983 148.132 70.6979 148.132 70.6972C148.145 70.6708 148.157 70.6451 148.168 70.6207C148.17 70.6143 148.173 70.6079 148.176 70.6017C148.188 70.5718 148.199 70.5437 148.208 70.5176C148.213 70.5006 148.218 70.4842 148.223 70.469C148.225 70.4642 148.232 70.4366 148.234 70.4281C148.239 70.4111 148.243 70.3959 148.245 70.3827C148.248 70.3728 148.253 70.3464 148.253 70.3424C148.254 70.3396 148.254 70.3369 148.254 70.3347C148.255 70.3256 148.256 70.3208 148.256 70.3208L149.527 61.1574C149.148 61.1048 148.756 61.1466 148.39 61.2886L140.787 64.2356C140.055 64.5193 139.54 65.1596 139.435 65.9155L138.346 73.767C138.303 74.0762 138.332 74.3852 138.423 74.6749L147.173 71.5427Z" fill="#0087FE"/>
<path d="M156.856 76.3339L157.945 68.4822C158.05 67.7265 157.728 66.97 157.101 66.4977L150.587 61.5934C150.273 61.3571 149.907 61.2102 149.528 61.1576L148.257 70.3208C148.257 70.3208 148.256 70.3256 148.255 70.3347C148.255 70.3369 148.254 70.3396 148.254 70.3425C148.254 70.3465 148.253 70.3512 148.253 70.3563C148.252 70.3641 148.251 70.373 148.251 70.3833C148.25 70.397 148.249 70.4127 148.249 70.43C148.249 70.4388 148.249 70.448 148.249 70.4577C148.249 70.4625 148.249 70.4675 148.249 70.4725C148.249 70.4883 148.25 70.5055 148.251 70.5235C148.252 70.5512 148.255 70.5809 148.258 70.613C148.259 70.6197 148.26 70.6266 148.261 70.6335C148.264 70.6599 148.269 70.6879 148.274 70.7169C148.274 70.7176 148.275 70.718 148.275 70.7187C148.278 70.7326 148.28 70.7471 148.283 70.7612C148.284 70.7621 148.284 70.7633 148.284 70.7643C148.288 70.7797 148.291 70.7957 148.295 70.8117C148.304 70.8437 148.313 70.8767 148.324 70.9107C148.336 70.9448 148.348 70.9795 148.363 71.0149C148.366 71.0238 148.37 71.0326 148.374 71.0419C148.377 71.0508 148.381 71.0597 148.386 71.0691C148.394 71.0871 148.402 71.1055 148.411 71.1237C148.416 71.1329 148.42 71.1421 148.425 71.1516C148.435 71.17 148.445 71.1888 148.455 71.2075C148.461 71.2168 148.466 71.2263 148.472 71.2359C148.477 71.2452 148.483 71.2548 148.489 71.2644C148.494 71.2738 148.5 71.2832 148.507 71.2929C148.513 71.3023 148.519 71.312 148.525 71.3217L148.541 71.3441C148.569 71.3846 148.599 71.4254 148.633 71.4659C148.638 71.473 148.644 71.4799 148.65 71.4868C148.654 71.4912 148.657 71.4955 148.661 71.4996C148.669 71.5091 148.677 71.5186 148.686 71.5281C148.693 71.5364 148.7 71.5446 148.708 71.5529C148.717 71.5625 148.726 71.5721 148.735 71.582C148.772 71.6207 148.812 71.6592 148.855 71.6972C149.544 72.314 155.927 76.7633 156.534 77.1869C156.702 76.9326 156.814 76.6431 156.856 76.3339Z" fill="#009CFD"/>
<path d="M138.423 74.675C138.555 75.0941 138.82 75.4725 139.19 75.7514L145.705 80.656C146.332 81.1281 147.169 81.2442 147.901 80.9605L155.504 78.0136C155.936 77.846 156.294 77.5536 156.535 77.1865C155.927 76.7632 149.544 72.3139 148.855 71.6968C148.812 71.6586 148.717 71.5624 148.708 71.5526C148.701 71.5445 148.669 71.509 148.661 71.4995C148.658 71.4954 148.569 71.3845 148.541 71.344C148.536 71.3365 148.495 71.2738 148.489 71.2644C148.483 71.255 148.461 71.2169 148.456 71.2076C148.445 71.189 148.416 71.133 148.412 71.1238C148.402 71.1056 148.366 71.0241 148.363 71.0153C148.359 71.0064 148.327 70.9196 148.325 70.9111C148.313 70.877 148.304 70.8438 148.296 70.812C148.291 70.7961 148.277 70.7329 148.275 70.719C148.275 70.7184 148.265 70.6605 148.261 70.6338C148.26 70.6269 148.252 70.5511 148.25 70.5235C148.249 70.5056 148.249 70.4883 148.249 70.4725C148.249 70.4675 148.249 70.4389 148.249 70.4301C148.249 70.4125 148.25 70.3968 148.251 70.3834C148.251 70.3733 148.252 70.3644 148.253 70.3564C148.253 70.3512 148.254 70.3465 148.254 70.3426C148.254 70.3396 148.255 70.337 148.255 70.3348C148.255 70.337 148.254 70.3396 148.254 70.3425C148.253 70.3465 148.252 70.3511 148.251 70.3562C148.25 70.3639 148.248 70.3726 148.246 70.3827C148.243 70.3959 148.24 70.4112 148.235 70.4282C148.233 70.4367 148.225 70.4643 148.224 70.469C148.219 70.4842 148.189 70.5721 148.176 70.6017C148.174 70.6079 148.132 70.6983 148.131 70.6989C148.125 70.7116 148.095 70.7685 148.086 70.7827C148.07 70.8114 148.051 70.8404 148.031 70.8702C148.026 70.8776 147.972 70.9525 147.966 70.96C147.96 70.9676 147.936 70.998 147.929 71.0057C147.917 71.0209 147.876 71.0667 147.869 71.0742C147.855 71.0895 147.809 71.1353 147.801 71.1427C147.793 71.1503 147.712 71.2221 147.705 71.2279C147.667 71.2592 147.627 71.2902 147.584 71.3201C147.576 71.3254 147.465 71.3971 147.453 71.4036C147.407 71.4309 147.358 71.457 147.307 71.482C147.29 71.4903 147.184 71.5378 147.173 71.5424L138.423 74.675Z" fill="#0093FE"/>
<path d="M150.87 70.3738C150.53 70.3267 150.245 70.1424 150.065 69.8875L150.065 69.8877C149.707 69.3752 149.134 69.0044 148.453 68.9098C147.183 68.7337 146.016 69.5826 145.846 70.8059C145.677 72.0292 146.568 73.1636 147.838 73.3397C148.52 73.4342 149.172 73.2332 149.656 72.8375L149.656 72.8377C149.898 72.6412 150.223 72.5416 150.563 72.5887C151.198 72.6767 151.644 73.244 151.559 73.8556C151.519 74.1455 151.366 74.393 151.15 74.5644C150.467 75.1173 149.618 75.4771 148.7 75.574L148.527 76.8257C148.442 77.435 147.861 77.8579 147.229 77.7701C146.591 77.6818 146.143 77.1124 146.229 76.4984L146.401 75.2556C144.486 74.4889 143.261 72.5511 143.547 70.487C143.833 68.423 145.539 66.8917 147.591 66.675L147.764 65.4238C147.849 64.8145 148.43 64.3916 149.063 64.4793C149.7 64.5677 150.148 65.1371 150.063 65.7511L149.89 66.9943C150.742 67.3358 151.458 67.9088 151.965 68.622C151.975 68.6361 151.985 68.6504 151.995 68.6648C151.999 68.6703 152.003 68.6758 152.007 68.6813L152.006 68.6815C152.145 68.8963 152.211 69.1566 152.173 69.4257C152.088 70.0373 151.505 70.4618 150.87 70.3738Z" fill="white"/>
<rect x="198.049" y="19.9958" width="51.75" height="7.1875" rx="3.59375" transform="rotate(7.89475 198.049 19.9958)" fill="#AAAAAA"/>
<rect x="146.714" y="390.202" width="51.75" height="18.6875" rx="9.34375" transform="rotate(7.89475 146.714 390.202)" fill="#AAAAAA"/>
<rect x="134.352" y="102.591" width="155.25" height="79.0625" rx="5" transform="rotate(7.89475 134.352 102.591)" fill="#0094FF"/>
<path fill-rule="evenodd" clip-rule="evenodd" d="M283.228 123.23C285.963 123.609 287.873 126.134 287.494 128.869L285.91 140.291L221.448 131.352C218.713 130.973 216.803 128.448 217.182 125.713L218.766 114.291L283.228 123.23ZM218.183 118.383C218.258 117.003 217.551 114.124 214.124 113.649L218.75 114.29L218.183 118.383Z" fill="#FFD600"/>
<path fill-rule="evenodd" clip-rule="evenodd" d="M283.228 123.23C285.963 123.609 287.873 126.134 287.494 128.869L285.91 140.291L221.448 131.352C218.713 130.973 216.803 128.448 217.182 125.713L218.766 114.291L283.228 123.23ZM218.183 118.383C218.258 117.003 217.551 114.124 214.124 113.649L218.75 114.29L218.183 118.383Z" fill="#4062DA"/>
<path fill-rule="evenodd" clip-rule="evenodd" d="M283.228 123.23C285.963 123.609 287.873 126.134 287.494 128.869L285.91 140.291L221.448 131.352C218.713 130.973 216.803 128.448 217.182 125.713L218.766 114.291L283.228 123.23ZM218.183 118.383C218.258 117.003 217.551 114.124 214.124 113.649L218.75 114.29L218.183 118.383Z" fill="#333333"/>
<rect x="121.118" y="197.991" width="155.25" height="44.5625" rx="5" transform="rotate(7.89475 121.118 197.991)" fill="#C9C9C9"/>
<rect x="112.635" y="259.218" width="155.25" height="44.5625" rx="5" transform="rotate(7.89475 112.635 259.218)" fill="#C9C9C9"/>
<path d="M252.087 76.8301L249.285 76.4416C248.738 76.3657 248.233 76.7477 248.157 77.2947L247.74 80.301M250.112 91.0688L247.31 90.6803C246.763 90.6044 246.381 90.0995 246.457 89.5524L246.874 86.547M258.7 77.7471L261.543 78.1413C262.09 78.2172 262.472 78.7221 262.396 79.2692L261.979 82.2755M256.726 91.9859L259.568 92.3801C260.115 92.4559 260.62 92.0739 260.696 91.5269L261.113 88.5215M247.332 83.2403L261.571 85.2148" stroke="white"/>
<path fill-rule="evenodd" clip-rule="evenodd" d="M292.222 81.1664L292.717 81.2351L292.649 81.7303L292.191 85.0288L291.201 84.8914L291.589 82.0882L289.076 81.7396L289.213 80.7491L292.222 81.1664ZM276.196 78.9488L275.701 78.8801L275.632 79.3753L275.175 82.6738L276.165 82.8112L276.554 80.008L279.068 80.3565L279.205 79.366L276.196 78.9488ZM289.933 98.1429L290.428 98.2116L290.497 97.7163L290.954 94.4179L289.964 94.2805L289.575 97.0837L287.061 96.7351L286.924 97.7257L289.933 98.1429ZM273.94 95.926L273.445 95.8574L273.514 95.3621L273.971 92.0636L274.962 92.201L274.573 95.0042L277.087 95.3528L276.949 96.3433L273.94 95.926ZM285.317 82.5002L284.822 82.4315L284.753 82.9268L284.163 87.1818L284.094 87.6771L284.589 87.7458L288.745 88.322L289.24 88.3907L289.309 87.8954L289.899 83.6403L289.967 83.145L289.472 83.0764L285.317 82.5002ZM285.222 86.8239L285.675 83.5594L288.839 83.9982L288.387 87.2628L285.222 86.8239ZM277.777 81.5035L278.272 81.5721L282.427 82.1483L282.923 82.217L282.854 82.7123L282.264 86.9674L282.195 87.4626L281.7 87.394L277.545 86.8178L277.049 86.7491L277.118 86.2538L277.708 81.9987L277.777 81.5035ZM278.63 82.6313L278.177 85.8959L281.342 86.3348L281.795 83.0702L278.63 82.6313ZM276.742 88.593L277.237 88.6617L281.392 89.2379L281.888 89.3066L281.819 89.8018L281.229 94.0569L281.16 94.5522L280.665 94.4835L276.51 93.9073L276.014 93.8386L276.083 93.3434L276.673 89.0883L276.742 88.593ZM277.595 89.7209L277.142 92.9855L280.307 93.4243L280.76 90.1597L277.595 89.7209ZM285.021 91.119L287.756 91.4984L287.375 94.2471L284.639 93.8678L285.021 91.119Z" fill="white"/>
<rect x="207.592" y="155.25" width="51.75" height="4.3125" rx="2.15625" transform="rotate(7.89475 207.592 155.25)" fill="white"/>
</svg>
