<svg width="498" height="381" viewBox="0 0 498 381" fill="none" xmlns="http://www.w3.org/2000/svg">
<path d="M3.8524 154.083C-10.9204 93.2631 18.3217 66.5075 65.4504 44.2006C89.0147 33.0472 119.285 41.1491 161.757 12.6399C204.229 -15.8693 349.186 6.70058 421.204 51.8401C483.062 90.6122 495.396 124.607 495.396 154.083C495.396 191.261 508.707 230.144 475.139 302.382C448.756 359.158 417.5 373.756 388.5 373.756C354.5 373.756 344.088 351.953 229.158 373.756C185.25 382.085 115.473 387.891 82.4002 363.932C29.1091 325.326 29.8972 316.799 29.8972 264.378C29.8972 221.003 22.3184 230.107 3.8524 154.083Z" fill="#E6F4FF"/>
</svg>
