<svg width="51" height="50" viewBox="0 0 51 50" fill="none" xmlns="http://www.w3.org/2000/svg">
<path d="M25.5033 17.3102C21.2468 17.3102 17.8134 20.7435 17.8134 25.0001C17.8134 29.2566 21.2468 32.69 25.5033 32.69C29.7599 32.69 33.1933 29.2566 33.1933 25.0001C33.1933 20.7435 29.7599 17.3102 25.5033 17.3102ZM25.5033 29.9995C22.7527 29.9995 20.5039 27.7575 20.5039 25.0001C20.5039 22.2427 22.746 20.0006 25.5033 20.0006C28.2607 20.0006 30.5028 22.2427 30.5028 25.0001C30.5028 27.7575 28.254 29.9995 25.5033 29.9995ZM35.3015 16.9956C35.3015 17.9928 34.4983 18.7893 33.5078 18.7893C32.5106 18.7893 31.7142 17.9861 31.7142 16.9956C31.7142 16.0051 32.5173 15.202 33.5078 15.202C34.4983 15.202 35.3015 16.0051 35.3015 16.9956ZM40.3946 18.816C40.2808 16.4133 39.732 14.2851 37.9718 12.5316C36.2184 10.7781 34.0901 10.2293 31.6874 10.1088C29.2111 9.96828 21.7889 9.96828 19.3126 10.1088C16.9166 10.2226 14.7883 10.7714 13.0282 12.5249C11.268 14.2784 10.7259 16.4067 10.6054 18.8093C10.4649 21.2856 10.4649 28.7078 10.6054 31.1841C10.7192 33.5868 11.268 35.7151 13.0282 37.4686C14.7883 39.222 16.9099 39.7708 19.3126 39.8913C21.7889 40.0319 29.2111 40.0319 31.6874 39.8913C34.0901 39.7775 36.2184 39.2287 37.9718 37.4686C39.7253 35.7151 40.2741 33.5868 40.3946 31.1841C40.5351 28.7078 40.5351 21.2923 40.3946 18.816ZM37.1955 33.8411C36.6735 35.1529 35.6629 36.1635 34.3444 36.6922C32.3701 37.4753 27.6852 37.2946 25.5033 37.2946C23.3215 37.2946 18.6299 37.4686 16.6623 36.6922C15.3505 36.1702 14.3399 35.1596 13.8112 33.8411C13.0282 31.8668 13.2089 27.1819 13.2089 25.0001C13.2089 22.8183 13.0349 18.1267 13.8112 16.159C14.3332 14.8473 15.3438 13.8367 16.6623 13.3079C18.6366 12.5249 23.3215 12.7056 25.5033 12.7056C27.6852 12.7056 32.3767 12.5316 34.3444 13.3079C35.6562 13.83 36.6668 14.8406 37.1955 16.159C37.9785 18.1334 37.7978 22.8183 37.7978 25.0001C37.7978 27.1819 37.9785 31.8735 37.1955 33.8411Z" fill="white"/>
</svg>
