<svg width="46" height="51" viewBox="0 0 46 51" fill="none" xmlns="http://www.w3.org/2000/svg">
<path d="M20.4654 1.44339C22.0124 0.550219 23.9184 0.55022 25.4654 1.4434L42.8104 11.4576C44.3574 12.3508 45.3104 14.0014 45.3104 15.7877V35.8163C45.3104 37.6026 44.3574 39.2532 42.8104 40.1464L25.4654 50.1606C23.9184 51.0538 22.0124 51.0538 20.4654 50.1606L3.12037 40.1464C1.57338 39.2532 0.620392 37.6026 0.620392 35.8163V15.7877C0.620392 14.0014 1.57338 12.3508 3.12038 11.4576L20.4654 1.44339Z" fill="#0093FE"/>
<path d="M20.7971 24.4413C20.8215 24.4563 20.9437 24.5346 20.9643 24.5474C20.9659 24.5485 21.0593 24.6102 21.0954 24.6357C21.2087 24.7152 21.3159 24.7963 21.4159 24.8785C21.4409 24.8985 21.5309 24.9757 21.5509 24.9935C21.5737 25.0135 21.6815 25.1129 21.6971 25.1285C21.7898 25.2168 21.8754 25.3068 21.9548 25.3968C21.9698 25.4135 22.186 25.6824 22.2015 25.7035C22.2326 25.7457 22.2632 25.7885 22.2915 25.8307C22.306 25.8518 22.3876 25.9779 22.4126 26.0202C22.426 26.0413 22.5082 26.1868 22.5193 26.2074C22.5404 26.2479 22.601 26.3691 22.6104 26.3891C22.6476 26.4691 22.6815 26.5474 22.7115 26.6229C22.7265 26.6607 22.7404 26.6991 22.7537 26.7357C22.7548 26.7379 22.756 26.7407 22.7565 26.7429C22.7687 26.7774 22.7804 26.8113 22.791 26.8446C22.7915 26.8463 22.7921 26.8474 22.7926 26.8491C22.8148 26.9185 22.8343 26.9857 22.8521 27.0496C22.8565 27.0663 22.861 27.0829 22.8648 27.0991C22.8843 27.1768 22.8998 27.2496 22.9126 27.3168C22.921 27.3607 22.9276 27.4029 22.9332 27.4418C22.9354 27.4541 22.9448 27.5246 22.9471 27.5463C22.9521 27.5896 22.956 27.6285 22.9582 27.6618C22.9598 27.6868 22.9632 27.7535 22.9632 27.7635C22.9637 27.7707 22.9637 27.7774 22.9637 27.7829C22.9632 27.8057 22.9637 27.8179 22.9637 27.8179V50.802C22.0476 50.802 21.1315 50.5653 20.3104 50.0909L3.25696 40.2441C1.61528 39.2963 0.603607 37.5447 0.603607 35.6485V15.9551C0.603607 15.1795 0.773053 14.429 1.08528 13.7473L20.7971 24.4413Z" fill="#0087FE"/>
<path d="M45.3272 15.9552V35.6492C45.3272 37.5448 44.3155 39.2965 42.6739 40.2448L25.6188 50.091C24.7977 50.5654 23.8815 50.8021 22.9654 50.8021V27.8186C22.9654 27.8186 22.9649 27.8064 22.9654 27.7836C22.9654 27.7781 22.9654 27.7714 22.966 27.7642C22.966 27.7542 22.9665 27.7425 22.9671 27.7297C22.9676 27.7103 22.9693 27.6881 22.971 27.6625C22.9738 27.6286 22.9771 27.5897 22.9821 27.547C22.9843 27.5253 22.9871 27.5025 22.9904 27.4786C22.9921 27.467 22.9943 27.4547 22.996 27.4425C23.0015 27.4036 23.0082 27.3614 23.0165 27.3175C23.0293 27.2497 23.0449 27.1775 23.0643 27.0997C23.0682 27.0836 23.0726 27.067 23.0771 27.0503C23.0943 26.9864 23.1138 26.9192 23.1365 26.8497C23.1371 26.8481 23.1376 26.847 23.1382 26.8453C23.1493 26.812 23.161 26.7775 23.1727 26.7436C23.1732 26.7414 23.1743 26.7386 23.1754 26.7364C23.1888 26.6997 23.2027 26.6614 23.2177 26.6236C23.2477 26.5475 23.2815 26.4697 23.3188 26.3897C23.3565 26.3097 23.3982 26.2286 23.4438 26.1464C23.4554 26.1259 23.4671 26.1053 23.4788 26.0836C23.4904 26.0631 23.5027 26.0425 23.516 26.0209C23.541 25.9792 23.5671 25.937 23.5949 25.8953C23.6088 25.8742 23.6227 25.8531 23.6371 25.8314C23.6654 25.7892 23.696 25.7464 23.7271 25.7042C23.7427 25.6831 23.7588 25.6614 23.7749 25.6397C23.7904 25.6186 23.8071 25.597 23.8243 25.5753C23.841 25.5542 23.8582 25.5331 23.8765 25.5114C23.8938 25.4903 23.9115 25.4686 23.9304 25.447L23.9738 25.397C24.0538 25.307 24.1393 25.217 24.2321 25.1286C24.2477 25.1131 24.2638 25.0981 24.2799 25.0831C24.2899 25.0736 24.2999 25.0642 24.3099 25.0553C24.3321 25.0347 24.3549 25.0142 24.3782 24.9936C24.3982 24.9758 24.4188 24.9581 24.4399 24.9403C24.4638 24.9197 24.4882 24.8992 24.5138 24.8781C24.6138 24.7953 24.721 24.7142 24.8343 24.6353C26.6704 23.3525 43.2644 14.5813 44.8444 13.7463C45.1578 14.4291 45.3272 15.1797 45.3272 15.9552Z" fill="#009CFD"/>
<path d="M1.08524 13.7468C1.53635 12.7607 2.28691 11.9196 3.25691 11.3596L20.312 1.51284C21.9537 0.565056 23.977 0.565056 25.6181 1.51284L42.6732 11.3596C43.6432 11.9196 44.3938 12.7612 44.8449 13.7468C43.2649 14.5812 26.6709 23.3524 24.8348 24.6357C24.7215 24.7152 24.4643 24.9196 24.4404 24.9407C24.4198 24.958 24.3331 25.0346 24.3109 25.0552C24.3009 25.0641 24.0548 25.3069 23.9748 25.3969C23.9598 25.4135 23.8426 25.5541 23.8259 25.5752C23.8087 25.5963 23.7431 25.6824 23.7281 25.7035C23.6965 25.7458 23.6093 25.8735 23.5959 25.8946C23.5681 25.9363 23.4559 26.1246 23.4448 26.1452C23.4331 26.1658 23.3292 26.3685 23.3198 26.3885C23.282 26.4685 23.2481 26.5469 23.2187 26.6224C23.2031 26.6602 23.1492 26.8108 23.1387 26.8441C23.1381 26.8458 23.0948 26.9846 23.0776 27.0491C23.0731 27.0658 23.0298 27.2497 23.0165 27.3169C23.0081 27.3608 23.0015 27.403 22.9959 27.4419C22.9937 27.4541 22.9842 27.5247 22.982 27.5463C22.977 27.5897 22.9731 27.6285 22.9709 27.6619C22.9692 27.6869 22.9676 27.7091 22.967 27.7291C22.9665 27.7419 22.9659 27.7535 22.9659 27.7635C22.9654 27.7708 22.9654 27.7774 22.9654 27.783C22.9654 27.7774 22.9654 27.7708 22.9648 27.7635C22.9648 27.7535 22.9642 27.7419 22.9637 27.7291C22.9631 27.7097 22.9615 27.6874 22.9598 27.6619C22.9576 27.6285 22.9537 27.5897 22.9487 27.5463C22.9465 27.5247 22.937 27.4541 22.9348 27.4419C22.9292 27.403 22.8859 27.1763 22.8659 27.0991C22.862 27.083 22.7926 26.8463 22.792 26.8446C22.7815 26.8113 22.7276 26.6608 22.712 26.623C22.6826 26.5469 22.6487 26.4691 22.6109 26.3891C22.6015 26.3691 22.4976 26.1663 22.4859 26.1458C22.4748 26.1252 22.4265 26.0419 22.4131 26.0208C22.3887 25.9791 22.307 25.8524 22.292 25.8313C22.2642 25.7891 22.1709 25.6608 22.1542 25.6396C22.1387 25.6185 21.9704 25.4141 21.9554 25.3974C21.8754 25.3074 21.7898 25.2174 21.6976 25.1291C21.682 25.1135 21.4415 24.8991 21.4159 24.8791C21.3159 24.7963 21.2087 24.7152 21.0953 24.6363C21.0581 24.6102 20.8215 24.4569 20.797 24.4419L1.08524 13.7468Z" fill="#0093FE"/>
<path d="M29.1765 28.5798C28.3559 28.5798 27.6187 28.9359 27.1098 29.502L27.1092 29.5015C26.092 30.6404 24.6126 31.3576 22.9653 31.3576C19.897 31.3576 17.4097 28.8704 17.4097 25.802C17.4097 22.7337 19.897 20.2464 22.9653 20.2464C24.6126 20.2464 26.092 20.9637 27.1098 22.1025V22.102C27.6181 22.6681 28.3559 23.0242 29.1765 23.0242C30.7104 23.0242 31.9543 21.7803 31.9543 20.2464C31.9543 19.5192 31.6748 18.8581 31.2176 18.3625C29.7798 16.7686 27.8865 15.5936 25.7431 15.042V11.9025C25.7431 10.3741 24.5042 9.13525 22.9759 9.13525C21.4359 9.13525 20.1875 10.3836 20.1875 11.9236V15.0408C15.3953 16.2742 11.8542 20.6248 11.8542 25.802C11.8542 30.9793 15.3953 35.3298 20.1875 36.5632V39.7015C20.1875 41.2299 21.4264 42.4688 22.9548 42.4688C24.4948 42.4688 25.7431 41.2204 25.7431 39.6804V36.5621C27.8759 36.0126 29.7604 34.8465 31.1959 33.2643C31.2254 33.2332 31.2537 33.2015 31.2815 33.1693C31.2926 33.1571 31.3037 33.1448 31.3148 33.1326L31.3143 33.1321C31.7143 32.6509 31.9548 32.0326 31.9548 31.3576C31.9543 29.8237 30.7109 28.5798 29.1765 28.5798Z" fill="white"/>
</svg>
