<svg width="147" height="51" viewBox="0 0 147 51" fill="none" xmlns="http://www.w3.org/2000/svg">
<path d="M20.4654 1.44339C22.0124 0.550219 23.9184 0.55022 25.4654 1.4434L42.8104 11.4576C44.3574 12.3508 45.3104 14.0014 45.3104 15.7877V35.8163C45.3104 37.6026 44.3574 39.2532 42.8104 40.1464L25.4654 50.1606C23.9184 51.0538 22.0124 51.0538 20.4654 50.1606L3.12037 40.1464C1.57338 39.2532 0.620392 37.6026 0.620392 35.8163V15.7877C0.620392 14.0014 1.57338 12.3508 3.12038 11.4576L20.4654 1.44339Z" fill="#0093FE"/>
<path d="M20.7971 24.4413C20.8215 24.4563 20.9437 24.5346 20.9643 24.5474C20.9659 24.5485 21.0593 24.6102 21.0954 24.6357C21.2087 24.7152 21.3159 24.7963 21.4159 24.8785C21.4409 24.8985 21.5309 24.9757 21.5509 24.9935C21.5737 25.0135 21.6815 25.1129 21.6971 25.1285C21.7898 25.2168 21.8754 25.3068 21.9548 25.3968C21.9698 25.4135 22.186 25.6824 22.2015 25.7035C22.2326 25.7457 22.2632 25.7885 22.2915 25.8307C22.306 25.8518 22.3876 25.9779 22.4126 26.0202C22.426 26.0413 22.5082 26.1868 22.5193 26.2074C22.5404 26.2479 22.601 26.3691 22.6104 26.3891C22.6476 26.4691 22.6815 26.5474 22.7115 26.6229C22.7265 26.6607 22.7404 26.6991 22.7537 26.7357C22.7548 26.7379 22.756 26.7407 22.7565 26.7429C22.7687 26.7774 22.7804 26.8113 22.791 26.8446C22.7915 26.8463 22.7921 26.8474 22.7926 26.8491C22.8148 26.9185 22.8343 26.9857 22.8521 27.0496C22.8565 27.0663 22.861 27.0829 22.8648 27.0991C22.8843 27.1768 22.8998 27.2496 22.9126 27.3168C22.921 27.3607 22.9276 27.4029 22.9332 27.4418C22.9354 27.4541 22.9448 27.5246 22.9471 27.5463C22.9521 27.5896 22.956 27.6285 22.9582 27.6618C22.9598 27.6868 22.9632 27.7535 22.9632 27.7635C22.9637 27.7707 22.9637 27.7774 22.9637 27.7829C22.9632 27.8057 22.9637 27.8179 22.9637 27.8179V50.802C22.0476 50.802 21.1315 50.5653 20.3104 50.0909L3.25696 40.2441C1.61528 39.2963 0.603607 37.5447 0.603607 35.6485V15.9551C0.603607 15.1795 0.773053 14.429 1.08528 13.7473L20.7971 24.4413Z" fill="#0087FE"/>
<path d="M45.3272 15.9552V35.6492C45.3272 37.5448 44.3155 39.2965 42.6739 40.2448L25.6188 50.091C24.7977 50.5654 23.8815 50.8021 22.9654 50.8021V27.8186C22.9654 27.8186 22.9649 27.8064 22.9654 27.7836C22.9654 27.7781 22.9654 27.7714 22.966 27.7642C22.966 27.7542 22.9665 27.7425 22.9671 27.7297C22.9676 27.7103 22.9693 27.6881 22.971 27.6625C22.9738 27.6286 22.9771 27.5897 22.9821 27.547C22.9843 27.5253 22.9871 27.5025 22.9904 27.4786C22.9921 27.467 22.9943 27.4547 22.996 27.4425C23.0015 27.4036 23.0082 27.3614 23.0165 27.3175C23.0293 27.2497 23.0449 27.1775 23.0643 27.0997C23.0682 27.0836 23.0726 27.067 23.0771 27.0503C23.0943 26.9864 23.1138 26.9192 23.1365 26.8497C23.1371 26.8481 23.1376 26.847 23.1382 26.8453C23.1493 26.812 23.161 26.7775 23.1727 26.7436C23.1732 26.7414 23.1743 26.7386 23.1754 26.7364C23.1888 26.6997 23.2027 26.6614 23.2177 26.6236C23.2477 26.5475 23.2815 26.4697 23.3188 26.3897C23.3565 26.3097 23.3982 26.2286 23.4438 26.1464C23.4554 26.1259 23.4671 26.1053 23.4788 26.0836C23.4904 26.0631 23.5027 26.0425 23.516 26.0209C23.541 25.9792 23.5671 25.937 23.5949 25.8953C23.6088 25.8742 23.6227 25.8531 23.6371 25.8314C23.6654 25.7892 23.696 25.7464 23.7271 25.7042C23.7427 25.6831 23.7588 25.6614 23.7749 25.6397C23.7904 25.6186 23.8071 25.597 23.8243 25.5753C23.841 25.5542 23.8582 25.5331 23.8765 25.5114C23.8938 25.4903 23.9115 25.4686 23.9304 25.447L23.9738 25.397C24.0538 25.307 24.1393 25.217 24.2321 25.1286C24.2477 25.1131 24.2638 25.0981 24.2799 25.0831C24.2899 25.0736 24.2999 25.0642 24.3099 25.0553C24.3321 25.0347 24.3549 25.0142 24.3782 24.9936C24.3982 24.9758 24.4188 24.9581 24.4399 24.9403C24.4638 24.9197 24.4882 24.8992 24.5138 24.8781C24.6138 24.7953 24.721 24.7142 24.8343 24.6353C26.6704 23.3525 43.2644 14.5813 44.8444 13.7463C45.1578 14.4291 45.3272 15.1797 45.3272 15.9552Z" fill="#009CFD"/>
<path d="M1.08524 13.7468C1.53635 12.7607 2.28691 11.9196 3.25691 11.3596L20.312 1.51284C21.9537 0.565056 23.977 0.565056 25.6181 1.51284L42.6732 11.3596C43.6432 11.9196 44.3938 12.7612 44.8449 13.7468C43.2649 14.5812 26.6709 23.3524 24.8348 24.6357C24.7215 24.7152 24.4643 24.9196 24.4404 24.9407C24.4198 24.958 24.3331 25.0346 24.3109 25.0552C24.3009 25.0641 24.0548 25.3069 23.9748 25.3969C23.9598 25.4135 23.8426 25.5541 23.8259 25.5752C23.8087 25.5963 23.7431 25.6824 23.7281 25.7035C23.6965 25.7458 23.6093 25.8735 23.5959 25.8946C23.5681 25.9363 23.4559 26.1246 23.4448 26.1452C23.4331 26.1658 23.3292 26.3685 23.3198 26.3885C23.282 26.4685 23.2481 26.5469 23.2187 26.6224C23.2031 26.6602 23.1492 26.8108 23.1387 26.8441C23.1381 26.8458 23.0948 26.9846 23.0776 27.0491C23.0731 27.0658 23.0298 27.2497 23.0165 27.3169C23.0081 27.3608 23.0015 27.403 22.9959 27.4419C22.9937 27.4541 22.9842 27.5247 22.982 27.5463C22.977 27.5897 22.9731 27.6285 22.9709 27.6619C22.9692 27.6869 22.9676 27.7091 22.967 27.7291C22.9665 27.7419 22.9659 27.7535 22.9659 27.7635C22.9654 27.7708 22.9654 27.7774 22.9654 27.783C22.9654 27.7774 22.9654 27.7708 22.9648 27.7635C22.9648 27.7535 22.9642 27.7419 22.9637 27.7291C22.9631 27.7097 22.9615 27.6874 22.9598 27.6619C22.9576 27.6285 22.9537 27.5897 22.9487 27.5463C22.9465 27.5247 22.937 27.4541 22.9348 27.4419C22.9292 27.403 22.8859 27.1763 22.8659 27.0991C22.862 27.083 22.7926 26.8463 22.792 26.8446C22.7815 26.8113 22.7276 26.6608 22.712 26.623C22.6826 26.5469 22.6487 26.4691 22.6109 26.3891C22.6015 26.3691 22.4976 26.1663 22.4859 26.1458C22.4748 26.1252 22.4265 26.0419 22.4131 26.0208C22.3887 25.9791 22.307 25.8524 22.292 25.8313C22.2642 25.7891 22.1709 25.6608 22.1542 25.6396C22.1387 25.6185 21.9704 25.4141 21.9554 25.3974C21.8754 25.3074 21.7898 25.2174 21.6976 25.1291C21.682 25.1135 21.4415 24.8991 21.4159 24.8791C21.3159 24.7963 21.2087 24.7152 21.0953 24.6363C21.0581 24.6102 20.8215 24.4569 20.797 24.4419L1.08524 13.7468Z" fill="#0093FE"/>
<path d="M29.1765 28.5798C28.3559 28.5798 27.6187 28.9359 27.1098 29.502L27.1092 29.5015C26.092 30.6404 24.6126 31.3576 22.9653 31.3576C19.897 31.3576 17.4097 28.8704 17.4097 25.802C17.4097 22.7337 19.897 20.2464 22.9653 20.2464C24.6126 20.2464 26.092 20.9637 27.1098 22.1025V22.102C27.6181 22.6681 28.3559 23.0242 29.1765 23.0242C30.7104 23.0242 31.9543 21.7803 31.9543 20.2464C31.9543 19.5192 31.6748 18.8581 31.2176 18.3625C29.7798 16.7686 27.8865 15.5936 25.7431 15.042V11.9025C25.7431 10.3741 24.5042 9.13525 22.9759 9.13525C21.4359 9.13525 20.1875 10.3836 20.1875 11.9236V15.0408C15.3953 16.2742 11.8542 20.6248 11.8542 25.802C11.8542 30.9793 15.3953 35.3298 20.1875 36.5632V39.7015C20.1875 41.2299 21.4264 42.4688 22.9548 42.4688C24.4948 42.4688 25.7431 41.2204 25.7431 39.6804V36.5621C27.8759 36.0126 29.7604 34.8465 31.1959 33.2643C31.2254 33.2332 31.2537 33.2015 31.2815 33.1693C31.2926 33.1571 31.3037 33.1448 31.3148 33.1326L31.3143 33.1321C31.7143 32.6509 31.9548 32.0326 31.9548 31.3576C31.9543 29.8237 30.7109 28.5798 29.1765 28.5798Z" fill="white"/>
<path d="M70.9872 33.502C70.0539 33.502 69.2072 33.282 68.4472 32.842C67.7005 32.402 67.1072 31.8087 66.6672 31.062C66.2405 30.302 66.0272 29.462 66.0272 28.542C66.0272 27.6087 66.2405 26.7687 66.6672 26.022C67.1072 25.2753 67.7005 24.6887 68.4472 24.262C69.2072 23.822 70.0539 23.602 70.9872 23.602C71.7205 23.602 72.4005 23.742 73.0272 24.022C73.6539 24.2887 74.1939 24.682 74.6472 25.202L73.4472 26.402C73.1539 26.0553 72.7939 25.7953 72.3672 25.622C71.9539 25.4353 71.4939 25.342 70.9872 25.342C70.3872 25.342 69.8539 25.482 69.3872 25.762C68.9205 26.0287 68.5539 26.402 68.2872 26.882C68.0205 27.362 67.8872 27.9153 67.8872 28.542C67.8872 29.1687 68.0205 29.722 68.2872 30.202C68.5539 30.682 68.9205 31.062 69.3872 31.342C69.8539 31.622 70.3872 31.762 70.9872 31.762C71.4939 31.762 71.9539 31.6753 72.3672 31.502C72.7939 31.3153 73.1605 31.0487 73.4672 30.702L74.6472 31.902C74.2072 32.4087 73.6672 32.802 73.0272 33.082C72.4005 33.362 71.7205 33.502 70.9872 33.502ZM81.4324 33.502C80.7124 33.502 80.059 33.3553 79.4724 33.062C78.899 32.7553 78.439 32.3353 78.0924 31.802C77.7457 31.2687 77.5524 30.662 77.5124 29.982V27.122C77.5524 26.4287 77.7457 25.822 78.0924 25.302C78.4524 24.7687 78.919 24.3553 79.4924 24.062C80.079 23.7553 80.7257 23.602 81.4324 23.602C82.299 23.602 83.079 23.822 83.7724 24.262C84.479 24.702 85.0324 25.2953 85.4324 26.042C85.8324 26.7887 86.0324 27.6287 86.0324 28.562C86.0324 29.4953 85.8324 30.3353 85.4324 31.082C85.0324 31.8287 84.479 32.422 83.7724 32.862C83.079 33.2887 82.299 33.502 81.4324 33.502ZM81.1324 31.802C81.7324 31.802 82.259 31.662 82.7124 31.382C83.1657 31.102 83.5257 30.722 83.7924 30.242C84.059 29.7487 84.1924 29.182 84.1924 28.542C84.1924 27.9153 84.059 27.3553 83.7924 26.862C83.5257 26.3687 83.1657 25.9887 82.7124 25.722C82.259 25.442 81.739 25.302 81.1524 25.302C80.5524 25.302 80.0257 25.442 79.5724 25.722C79.119 25.9887 78.7657 26.3687 78.5124 26.862C78.259 27.3553 78.1324 27.922 78.1324 28.562C78.1324 29.1887 78.2524 29.7487 78.4924 30.242C78.7457 30.722 79.099 31.102 79.5524 31.382C80.019 31.662 80.5457 31.802 81.1324 31.802ZM76.4324 37.282V23.802H78.2324V26.302L77.8924 28.602L78.2324 30.922V37.282H76.4324ZM92.473 33.502C91.5263 33.502 90.673 33.2887 89.913 32.862C89.153 32.422 88.553 31.8287 88.113 31.082C87.673 30.3353 87.453 29.4887 87.453 28.542C87.453 27.6087 87.6663 26.7687 88.093 26.022C88.533 25.2753 89.1196 24.6887 89.853 24.262C90.5996 23.822 91.433 23.602 92.353 23.602C93.233 23.602 94.0063 23.802 94.673 24.202C95.353 24.602 95.8796 25.1553 96.253 25.862C96.6396 26.5687 96.833 27.3687 96.833 28.262C96.833 28.3953 96.8263 28.542 96.813 28.702C96.7996 28.8487 96.773 29.022 96.733 29.222H88.713V27.722H95.773L95.113 28.302C95.113 27.662 94.9996 27.122 94.773 26.682C94.5463 26.2287 94.2263 25.882 93.813 25.642C93.3996 25.3887 92.8996 25.262 92.313 25.262C91.6996 25.262 91.1596 25.3953 90.693 25.662C90.2263 25.9287 89.8663 26.302 89.613 26.782C89.3596 27.262 89.233 27.8287 89.233 28.482C89.233 29.1487 89.3663 29.7353 89.633 30.242C89.8996 30.7353 90.2796 31.122 90.773 31.402C91.2663 31.6687 91.833 31.802 92.473 31.802C93.0063 31.802 93.493 31.7087 93.933 31.522C94.3863 31.3353 94.773 31.0553 95.093 30.682L96.253 31.862C95.7996 32.3953 95.2396 32.802 94.573 33.082C93.9196 33.362 93.2196 33.502 92.473 33.502ZM101.816 33.502C101.282 33.502 100.776 33.4353 100.296 33.302C99.829 33.1553 99.3956 32.9553 98.9956 32.702C98.5956 32.4353 98.249 32.122 97.9556 31.762L99.1156 30.602C99.4623 31.0287 99.8623 31.3487 100.316 31.562C100.769 31.762 101.276 31.862 101.836 31.862C102.396 31.862 102.829 31.7687 103.136 31.582C103.442 31.382 103.596 31.1087 103.596 30.762C103.596 30.4153 103.469 30.1487 103.216 29.962C102.976 29.762 102.662 29.602 102.276 29.482C101.889 29.3487 101.476 29.222 101.036 29.102C100.609 28.9687 100.202 28.802 99.8156 28.602C99.429 28.402 99.109 28.1287 98.8556 27.782C98.6156 27.4353 98.4956 26.9753 98.4956 26.402C98.4956 25.8287 98.6356 25.3353 98.9156 24.922C99.1956 24.4953 99.5823 24.1687 100.076 23.942C100.582 23.7153 101.189 23.602 101.896 23.602C102.642 23.602 103.302 23.7353 103.876 24.002C104.462 24.2553 104.942 24.642 105.316 25.162L104.156 26.322C103.889 25.9753 103.556 25.7087 103.156 25.522C102.769 25.3353 102.329 25.242 101.836 25.242C101.316 25.242 100.916 25.3353 100.636 25.522C100.369 25.6953 100.236 25.942 100.236 26.262C100.236 26.582 100.356 26.8287 100.596 27.002C100.836 27.1753 101.149 27.322 101.536 27.442C101.936 27.562 102.349 27.6887 102.776 27.822C103.202 27.942 103.609 28.1087 103.996 28.322C104.382 28.5353 104.696 28.822 104.936 29.182C105.189 29.542 105.316 30.0153 105.316 30.602C105.316 31.4953 104.996 32.202 104.356 32.722C103.729 33.242 102.882 33.502 101.816 33.502ZM111.671 33.502C110.737 33.502 109.897 33.282 109.151 32.842C108.404 32.402 107.811 31.8087 107.371 31.062C106.931 30.302 106.711 29.4553 106.711 28.522C106.711 27.602 106.931 26.7753 107.371 26.042C107.811 25.2953 108.404 24.702 109.151 24.262C109.897 23.822 110.737 23.602 111.671 23.602C112.591 23.602 113.424 23.822 114.171 24.262C114.931 24.6887 115.531 25.2753 115.971 26.022C116.411 26.7687 116.631 27.602 116.631 28.522C116.631 29.4553 116.411 30.302 115.971 31.062C115.531 31.8087 114.931 32.402 114.171 32.842C113.424 33.282 112.591 33.502 111.671 33.502ZM111.671 31.762C112.271 31.762 112.804 31.622 113.271 31.342C113.737 31.062 114.104 30.682 114.371 30.202C114.637 29.7087 114.771 29.1487 114.771 28.522C114.771 27.9087 114.631 27.362 114.351 26.882C114.084 26.402 113.717 26.0287 113.251 25.762C112.797 25.482 112.271 25.342 111.671 25.342C111.071 25.342 110.537 25.482 110.071 25.762C109.604 26.0287 109.237 26.402 108.971 26.882C108.704 27.362 108.571 27.9087 108.571 28.522C108.571 29.1487 108.704 29.7087 108.971 30.202C109.237 30.682 109.604 31.062 110.071 31.342C110.537 31.622 111.071 31.762 111.671 31.762ZM119.848 33.502C119.475 33.502 119.162 33.3753 118.908 33.122C118.668 32.8553 118.548 32.542 118.548 32.182C118.548 31.8087 118.668 31.502 118.908 31.262C119.162 31.0087 119.475 30.882 119.848 30.882C120.222 30.882 120.528 31.0087 120.768 31.262C121.022 31.502 121.148 31.8087 121.148 32.182C121.148 32.542 121.022 32.8553 120.768 33.122C120.528 33.3753 120.222 33.502 119.848 33.502ZM129.069 33.502C128.349 33.502 127.696 33.3553 127.109 33.062C126.536 32.7553 126.076 32.3353 125.729 31.802C125.382 31.2687 125.189 30.662 125.149 29.982V27.122C125.189 26.4287 125.382 25.822 125.729 25.302C126.089 24.7687 126.556 24.3553 127.129 24.062C127.716 23.7553 128.362 23.602 129.069 23.602C129.936 23.602 130.716 23.822 131.409 24.262C132.116 24.702 132.669 25.2953 133.069 26.042C133.469 26.7887 133.669 27.6287 133.669 28.562C133.669 29.4953 133.469 30.3353 133.069 31.082C132.669 31.8287 132.116 32.422 131.409 32.862C130.716 33.2887 129.936 33.502 129.069 33.502ZM128.769 31.802C129.369 31.802 129.896 31.662 130.349 31.382C130.802 31.102 131.162 30.722 131.429 30.242C131.696 29.7487 131.829 29.182 131.829 28.542C131.829 27.9153 131.696 27.3553 131.429 26.862C131.162 26.3687 130.802 25.9887 130.349 25.722C129.896 25.442 129.376 25.302 128.789 25.302C128.189 25.302 127.662 25.442 127.209 25.722C126.756 25.9887 126.402 26.3687 126.149 26.862C125.896 27.3553 125.769 27.922 125.769 28.562C125.769 29.1887 125.889 29.7487 126.129 30.242C126.382 30.722 126.736 31.102 127.189 31.382C127.656 31.662 128.182 31.802 128.769 31.802ZM124.069 37.282V23.802H125.869V26.302L125.529 28.602L125.869 30.922V37.282H124.069ZM142.43 33.302V27.762C142.43 27.042 142.203 26.4487 141.75 25.982C141.296 25.5153 140.71 25.282 139.99 25.282C139.51 25.282 139.083 25.3887 138.71 25.602C138.336 25.8153 138.043 26.1087 137.83 26.482C137.616 26.8553 137.51 27.282 137.51 27.762L136.77 27.342C136.77 26.622 136.93 25.982 137.25 25.422C137.57 24.862 138.016 24.422 138.59 24.102C139.163 23.7687 139.81 23.602 140.53 23.602C141.25 23.602 141.883 23.762 142.43 24.082C142.99 24.402 143.43 24.8487 143.75 25.422C144.07 25.9953 144.23 26.6553 144.23 27.402V33.302H142.43ZM135.71 33.302V19.022H137.51V33.302H135.71Z" fill="#0093FE"/>
</svg>
