<svg width="466" height="365" viewBox="0 0 466 365" fill="none" xmlns="http://www.w3.org/2000/svg">
<rect x="0.423828" y="94.106" width="125.826" height="234.752" rx="15" fill="#A9A9A9"/>
<rect y="93.6606" width="122.733" height="230.124" rx="10" fill="white"/>
<rect y="93.6606" width="122.733" height="230.124" rx="10" fill="#4D4D4D" fill-opacity="0.2"/>
<rect x="8.07422" y="109.809" width="106.584" height="194.596" rx="10" fill="#151515"/>
<rect x="18.5781" y="276.951" width="87.2048" height="16.9565" rx="8.47824" fill="#333333"/>
<path d="M30.176 284.712C30.1805 284.709 30.203 284.695 30.2067 284.693C30.2071 284.692 30.2242 284.681 30.2308 284.676C30.2517 284.662 30.2714 284.647 30.2898 284.632C30.2943 284.628 30.3109 284.614 30.3146 284.611C30.3188 284.607 30.3386 284.589 30.3414 284.586C30.3585 284.57 30.3742 284.554 30.3888 284.537C30.3915 284.534 30.4313 284.485 30.4341 284.481C30.4398 284.474 30.4455 284.466 30.4507 284.458C30.4533 284.454 30.4683 284.431 30.4729 284.424C30.4754 284.42 30.4905 284.393 30.4925 284.389C30.4964 284.382 30.5075 284.36 30.5093 284.356C30.5161 284.342 30.5223 284.327 30.5279 284.314C30.5306 284.307 30.5332 284.3 30.5356 284.293C30.5358 284.293 30.536 284.292 30.5361 284.292C30.5384 284.285 30.5405 284.279 30.5425 284.273C30.5426 284.273 30.5427 284.273 30.5428 284.272C30.5468 284.26 30.5504 284.247 30.5537 284.236C30.5545 284.233 30.5553 284.23 30.556 284.227C30.5596 284.212 30.5625 284.199 30.5648 284.187C30.5663 284.179 30.5676 284.171 30.5686 284.164C30.569 284.162 30.5707 284.149 30.5711 284.145C30.5721 284.137 30.5728 284.13 30.5732 284.124C30.5735 284.119 30.5741 284.107 30.5741 284.105C30.5742 284.104 30.5742 284.103 30.5742 284.102C30.5741 284.097 30.5742 284.095 30.5742 284.095V279.897C30.4058 279.897 30.2375 279.94 30.0866 280.027L26.9525 281.826C26.6508 281.999 26.4648 282.319 26.4648 282.665V286.262C26.4648 286.404 26.496 286.541 26.5534 286.665L30.176 284.712Z" fill="white"/>
<path d="M34.6839 286.262V282.665C34.6839 282.319 34.498 281.999 34.1963 281.826L31.0619 280.027C30.911 279.94 30.7426 279.897 30.5743 279.897V284.095C30.5743 284.095 30.5742 284.097 30.5743 284.102C30.5743 284.103 30.5743 284.104 30.5744 284.105C30.5744 284.107 30.5745 284.109 30.5746 284.111C30.5747 284.115 30.575 284.119 30.5753 284.124C30.5758 284.13 30.5764 284.137 30.5773 284.145C30.5777 284.149 30.5782 284.153 30.5789 284.157C30.5792 284.159 30.5796 284.162 30.5799 284.164C30.5809 284.171 30.5821 284.179 30.5837 284.187C30.586 284.199 30.5889 284.212 30.5924 284.226C30.5932 284.229 30.594 284.232 30.5948 284.236C30.598 284.247 30.6015 284.259 30.6057 284.272C30.6058 284.272 30.6059 284.273 30.606 284.273C30.6081 284.279 30.6102 284.285 30.6123 284.292C30.6125 284.292 30.6127 284.292 30.6129 284.293C30.6153 284.3 30.6179 284.307 30.6206 284.313C30.6261 284.327 30.6324 284.342 30.6392 284.356C30.6461 284.371 30.6538 284.386 30.6622 284.401C30.6643 284.404 30.6665 284.408 30.6686 284.412C30.6707 284.416 30.673 284.42 30.6754 284.424C30.68 284.431 30.6848 284.439 30.6899 284.446C30.6925 284.45 30.6951 284.454 30.6977 284.458C30.7029 284.466 30.7085 284.474 30.7142 284.481C30.7171 284.485 30.7201 284.489 30.723 284.493C30.7259 284.497 30.7289 284.501 30.7321 284.505C30.7352 284.509 30.7383 284.513 30.7417 284.517C30.7449 284.52 30.7481 284.524 30.7516 284.528L30.7596 284.538C30.7743 284.554 30.79 284.57 30.8071 284.587C30.8099 284.589 30.8129 284.592 30.8158 284.595C30.8177 284.597 30.8195 284.598 30.8213 284.6C30.8254 284.604 30.8296 284.607 30.8339 284.611C30.8376 284.614 30.8414 284.618 30.8452 284.621C30.8496 284.625 30.8541 284.628 30.8588 284.632C30.8772 284.647 30.8969 284.662 30.9177 284.677C31.2552 284.911 34.3048 286.513 34.5952 286.666C34.6528 286.541 34.6839 286.404 34.6839 286.262Z" fill="white"/>
<path d="M26.5527 286.665C26.6356 286.846 26.7736 286.999 26.9518 287.101L30.0862 288.9C30.388 289.073 30.7598 289.073 31.0614 288.9L34.1958 287.101C34.3741 286.999 34.512 286.845 34.5949 286.665C34.3046 286.513 31.2549 284.911 30.9175 284.677C30.8966 284.662 30.8494 284.625 30.845 284.621C30.8412 284.618 30.8253 284.604 30.8212 284.6C30.8193 284.598 30.7741 284.554 30.7594 284.537C30.7566 284.534 30.7351 284.509 30.732 284.505C30.7289 284.501 30.7168 284.485 30.7141 284.481C30.7082 284.474 30.6922 284.45 30.6898 284.447C30.6847 284.439 30.664 284.405 30.662 284.401C30.6599 284.397 30.6408 284.36 30.639 284.356C30.6321 284.342 30.6259 284.327 30.6204 284.314C30.6176 284.307 30.6077 284.279 30.6057 284.273C30.6056 284.273 30.5977 284.247 30.5945 284.236C30.5937 284.233 30.5857 284.199 30.5833 284.187C30.5817 284.179 30.5805 284.171 30.5795 284.164C30.5791 284.162 30.5774 284.149 30.5769 284.145C30.576 284.137 30.5753 284.13 30.5749 284.124C30.5746 284.119 30.5743 284.115 30.5742 284.111C30.5741 284.109 30.574 284.107 30.574 284.105C30.5739 284.104 30.5739 284.103 30.5739 284.102C30.5739 284.103 30.5739 284.104 30.5738 284.105C30.5738 284.107 30.5737 284.109 30.5736 284.111C30.5735 284.115 30.5732 284.119 30.5729 284.124C30.5725 284.13 30.5717 284.137 30.5708 284.145C30.5704 284.149 30.5687 284.162 30.5683 284.164C30.5672 284.171 30.5593 284.212 30.5556 284.227C30.5549 284.23 30.5421 284.273 30.542 284.273C30.5401 284.279 30.5302 284.307 30.5273 284.314C30.5219 284.327 30.5157 284.342 30.5087 284.356C30.507 284.36 30.4879 284.397 30.4858 284.401C30.4837 284.404 30.4748 284.42 30.4724 284.424C30.4679 284.431 30.4529 284.454 30.4501 284.458C30.445 284.466 30.4279 284.489 30.4248 284.493C30.422 284.497 30.391 284.534 30.3883 284.537C30.3736 284.554 30.3578 284.57 30.3409 284.586C30.338 284.589 30.2938 284.628 30.2891 284.632C30.2707 284.647 30.251 284.662 30.2302 284.676C30.2234 284.681 30.1799 284.709 30.1754 284.712L26.5527 286.665Z" fill="white"/>
<path d="M31.7167 283.956C31.5659 283.956 31.4304 283.891 31.3369 283.788L31.3368 283.788C31.1499 283.58 30.878 283.449 30.5752 283.449C30.0113 283.449 29.5542 283.903 29.5542 284.464C29.5542 285.024 30.0113 285.478 30.5752 285.478C30.878 285.478 31.1499 285.347 31.3369 285.139V285.139C31.4303 285.036 31.5659 284.971 31.7167 284.971C31.9986 284.971 32.2272 285.198 32.2272 285.478C32.2272 285.611 32.1759 285.732 32.0918 285.822C31.8276 286.114 31.4796 286.328 31.0857 286.429V287.002C31.0857 287.282 30.858 287.508 30.5772 287.508C30.2941 287.508 30.0647 287.28 30.0647 286.999V286.429C29.184 286.204 28.5332 285.409 28.5332 284.464C28.5332 283.518 29.184 282.723 30.0647 282.498V281.925C30.0647 281.646 30.2924 281.419 30.5733 281.419C30.8563 281.419 31.0857 281.647 31.0857 281.929V282.498C31.4777 282.599 31.824 282.812 32.0879 283.101C32.0933 283.106 32.0985 283.112 32.1036 283.118C32.1056 283.12 32.1077 283.122 32.1097 283.125L32.1096 283.125C32.1831 283.213 32.2273 283.326 32.2273 283.449C32.2272 283.729 31.9987 283.956 31.7167 283.956Z" fill="#333333"/>
<path fill-rule="evenodd" clip-rule="evenodd" d="M47.6174 282.121C47.4875 282.053 47.3713 281.983 47.2713 281.917C47.5206 281.707 47.8097 281.524 48.1407 281.396C48.0565 281.496 47.9734 281.601 47.8932 281.71C47.7977 281.84 47.7045 281.977 47.6174 282.121ZM48.4567 282.126C48.584 281.953 48.7184 281.793 48.8506 281.65V282.513C48.6488 282.489 48.4555 282.446 48.2741 282.391C48.3317 282.301 48.3929 282.212 48.4567 282.126ZM48.8506 284.045V283.217C48.5277 283.186 48.2233 283.114 47.9454 283.021C47.8789 283.188 47.8306 283.355 47.8052 283.518C47.7756 283.709 47.5967 283.84 47.4057 283.81C47.2147 283.78 47.0839 283.602 47.1135 283.411C47.1486 283.185 47.2144 282.962 47.3014 282.746C47.0979 282.64 46.921 282.528 46.7763 282.425C46.4796 282.794 46.287 283.17 46.1933 283.436C46.129 283.618 45.9291 283.714 45.7468 283.649C45.5645 283.585 45.4689 283.385 45.5332 283.203C45.6787 282.791 45.9907 282.215 46.4806 281.701C47.0899 281.062 47.992 280.502 49.2006 280.502C50.4072 280.502 51.3361 281.06 51.9774 281.694C52.4942 282.204 52.838 282.776 53.0066 283.186C53.0802 283.365 52.995 283.569 52.8163 283.643C52.6375 283.716 52.433 283.631 52.3594 283.452C52.2461 283.177 52.0206 282.784 51.6847 282.403C51.5199 282.514 51.3266 282.634 51.1068 282.748C51.1935 282.965 51.2576 283.19 51.2886 283.417C51.3147 283.608 51.1807 283.785 50.9892 283.811C50.7977 283.837 50.6212 283.703 50.595 283.512C50.5732 283.352 50.5275 283.188 50.4629 283.023C50.1853 283.116 49.8805 283.187 49.5506 283.218V284.045C49.5506 284.238 49.3939 284.395 49.2006 284.395C49.0073 284.395 48.8506 284.238 48.8506 284.045ZM50.2597 281.391C50.5988 281.517 50.9003 281.698 51.1641 281.907C51.0497 281.979 50.9253 282.053 50.7913 282.122C50.7042 281.979 50.611 281.842 50.5155 281.714C50.4327 281.602 50.3467 281.494 50.2597 281.391ZM49.5506 282.514C49.7567 282.491 49.9516 282.448 50.1348 282.393C50.0776 282.304 50.0167 282.216 49.9529 282.13C49.8232 281.955 49.6857 281.792 49.5506 281.647V282.514ZM51.9546 283.747C53.3061 283.617 54.3639 284.277 55.0107 284.681C55.0583 284.711 55.1037 284.739 55.1468 284.766C55.233 284.819 55.2794 284.887 55.2919 284.913C55.2919 284.999 55.1898 284.983 55.016 284.956C54.8966 284.937 54.7435 284.913 54.5664 284.913C54.2182 284.913 53.5507 285.105 53.2605 285.201C52.6443 285.447 51.6096 286.322 50.7783 287.024C50.6308 287.149 50.4897 287.268 50.3585 287.378C49.662 287.958 48.5241 288.36 47.8918 288.393C46.5859 288.538 45.4251 287.813 44.9898 287.523C44.4776 287.181 43.4044 286.703 43.1313 286.671C42.9875 286.654 42.9477 286.537 42.9677 286.476C42.9677 286.476 43.2486 285.781 44.6996 286.217C45.1083 286.339 45.4251 286.507 46.1506 286.942C46.4883 287.145 46.9529 287.232 47.1663 287.232C47.5737 287.232 48.182 287.087 48.7624 286.797C49.2267 286.565 49.4503 286.378 49.5451 286.294C49.6309 286.203 49.7337 286.027 49.633 285.926C49.5107 285.804 49.3883 285.888 49.0921 286.091C49.037 286.129 48.9758 286.171 48.9075 286.217C48.5593 286.449 47.9885 286.604 47.7467 286.652C47.3114 286.797 46.731 286.652 46.5859 286.507C46.4698 286.391 46.731 286.265 46.8761 286.217C46.9245 286.217 47.1373 286.159 47.6016 285.926C48.182 285.636 48.182 285.636 49.0526 285.056L49.0526 285.056C49.1983 284.959 49.3359 284.861 49.4708 284.766C50.1418 284.291 50.746 283.863 51.9546 283.747ZM45.512 283.958C45.0481 283.823 44.6458 283.896 44.6203 283.958C44.5916 283.983 44.5645 284.128 44.7975 284.215C45.0887 284.325 45.8862 284.815 46.1057 284.967C46.1494 284.997 46.2062 285.037 46.2712 285.082L46.2713 285.082L46.2713 285.082C46.5325 285.265 46.9255 285.54 47.1316 285.662C47.2958 285.759 47.4202 285.765 47.507 285.705C47.5576 285.67 47.6662 285.584 47.781 285.472C47.8714 285.384 47.8159 285.242 47.781 285.215C47.6122 285.089 47.2105 284.795 46.9539 284.633C46.6332 284.431 46.1603 284.147 45.512 283.958ZM44.4659 284.326C43.9663 284.124 43.738 284.198 43.6863 284.261C43.5824 284.348 43.643 284.451 43.6863 284.492C43.963 284.701 44.5684 285.119 44.8196 285.275C45.1167 285.459 45.7455 285.928 45.9846 286.107L45.9846 286.107L45.9847 286.107L45.9847 286.107L46.0214 286.134C46.2055 286.271 46.3643 286.215 46.4257 286.192C46.5388 286.136 46.7505 286.029 46.8371 285.954C46.9413 285.863 46.8636 285.742 46.8046 285.694C46.546 285.511 45.9832 285.117 45.8013 285.004C45.5739 284.864 45.0903 284.578 44.4659 284.326ZM46.4858 284.021C46.5253 283.931 46.7388 283.8 47.3804 284.021C48.0679 284.258 48.4954 284.519 48.6277 284.607C48.6907 284.647 48.7978 284.75 48.7222 284.84C48.6466 284.931 48.5724 284.985 48.5262 285.01C48.4989 285.031 48.4014 285.085 48.3195 285.072C48.2654 285.064 48.1864 285.029 48.07 284.977L48.07 284.977C48.0102 284.95 47.9404 284.919 47.8592 284.884C47.6676 284.804 46.9708 284.441 46.6243 284.242C46.5656 284.21 46.4555 284.122 46.4858 284.021Z" fill="white"/>
<path d="M66.6953 287.552C66.6973 287.881 66.9335 288.194 67.2843 288.194H74.3257C74.6765 288.194 74.9128 287.881 74.9146 287.552C74.9156 287.401 74.8668 287.246 74.7567 287.117L67.2342 287.441C67.2536 287.418 67.2751 287.393 67.2983 287.367C67.4702 287.17 67.7348 286.866 67.9508 286.388C68.1962 285.844 68.371 285.101 68.371 284.021C68.371 282.678 69.2247 281.645 70.329 281.395L70.7183 281.306V280.907V280.489C70.7183 280.435 70.7379 280.395 70.7592 280.372C70.7799 280.349 70.7965 280.347 70.805 280.347C70.8134 280.347 70.8301 280.349 70.8507 280.372C70.8721 280.395 70.8917 280.435 70.8917 280.489V280.907V281.306L71.2809 281.395C72.3852 281.645 73.239 282.678 73.239 284.021C73.239 285.101 73.4138 285.844 73.6592 286.388C73.8752 286.866 74.1398 287.17 74.3117 287.367C74.3349 287.393 74.3564 287.418 74.3759 287.441L74.3761 287.441C74.4025 287.472 74.4149 287.508 74.4147 287.549L74.4147 287.55C74.4144 287.599 74.3954 287.644 74.3727 287.67C74.3624 287.682 74.3537 287.687 74.3483 287.69C74.3437 287.692 74.3374 287.694 74.3257 287.694H67.2843C67.2726 287.694 67.2663 287.692 67.2618 287.69C67.2564 287.687 67.2476 287.682 67.2374 287.67C67.2147 287.644 67.1956 287.599 67.1953 287.549L66.6953 287.552ZM66.6953 287.552C66.6944 287.401 66.7432 287.246 66.8533 287.117L67.1953 287.549M66.6953 287.552L67.1953 287.549M67.1953 287.549C67.1951 287.509 67.2073 287.472 67.2341 287.441L67.1953 287.549ZM71.324 289.337C71.1932 289.517 70.997 289.621 70.805 289.621C70.613 289.621 70.4168 289.517 70.286 289.337H71.324Z" stroke="white"/>
<path fill-rule="evenodd" clip-rule="evenodd" d="M91.3867 280.311C90.5583 280.311 89.8867 280.982 89.8867 281.811V282.962C89.8867 283.79 90.5583 284.462 91.3867 284.462H92.5377C93.3662 284.462 94.0377 283.79 94.0377 282.962V281.811C94.0377 280.982 93.3662 280.311 92.5377 280.311H91.3867ZM90.8867 281.811C90.8867 281.534 91.1106 281.311 91.3867 281.311H92.5377C92.8139 281.311 93.0377 281.534 93.0377 281.811V282.962C93.0377 283.238 92.8139 283.462 92.5377 283.462H91.3867C91.1106 283.462 90.8867 283.238 90.8867 282.962V281.811ZM86.3086 280.315C85.4802 280.315 84.8086 280.986 84.8086 281.815V282.966C84.8086 283.794 85.4802 284.466 86.3086 284.466H87.4596C88.288 284.466 88.9596 283.794 88.9596 282.966V281.815C88.9596 280.986 88.288 280.315 87.4596 280.315H86.3086ZM85.8086 281.815C85.8086 281.539 86.0325 281.315 86.3086 281.315H87.4596C87.7358 281.315 87.9596 281.539 87.9596 281.815V282.966C87.9596 283.242 87.7358 283.466 87.4596 283.466H86.3086C86.0325 283.466 85.8086 283.242 85.8086 282.966V281.815ZM84.83 286.848C84.83 286.019 85.5016 285.348 86.33 285.348H87.481C88.3094 285.348 88.981 286.019 88.981 286.848V287.999C88.981 288.827 88.3094 289.499 87.481 289.499H86.33C85.5016 289.499 84.83 288.827 84.83 287.999V286.848ZM86.33 286.348C86.0539 286.348 85.83 286.571 85.83 286.848V287.999C85.83 288.275 86.0539 288.499 86.33 288.499H87.481C87.7572 288.499 87.981 288.275 87.981 287.999V286.848C87.981 286.571 87.7572 286.348 87.481 286.348H86.33ZM91.3828 285.346C90.5544 285.346 89.8828 286.018 89.8828 286.846V287.997C89.8828 288.826 90.5544 289.497 91.3828 289.497H92.5338C93.3623 289.497 94.0338 288.826 94.0338 287.997V286.846C94.0338 286.018 93.3623 285.346 92.5338 285.346H91.3828ZM90.8828 286.846C90.8828 286.57 91.1067 286.346 91.3828 286.346H92.5338C92.81 286.346 93.0338 286.57 93.0338 286.846V287.997C93.0338 288.273 92.81 288.497 92.5338 288.497H91.3828C91.1067 288.497 90.8828 288.273 90.8828 287.997V286.846Z" fill="white"/>
<path d="M22.5266 130.494C22.5324 130.497 22.561 130.515 22.5659 130.518C22.5663 130.518 22.5882 130.532 22.5966 130.538C22.6232 130.556 22.6484 130.574 22.6719 130.593C22.6777 130.597 22.6989 130.615 22.7036 130.619C22.7089 130.623 22.7342 130.646 22.7379 130.649C22.7596 130.669 22.7797 130.69 22.7984 130.71C22.8019 130.714 22.8526 130.775 22.8563 130.779C22.8636 130.789 22.8707 130.799 22.8774 130.808C22.8808 130.813 22.8999 130.841 22.9058 130.851C22.9089 130.856 22.9282 130.889 22.9308 130.893C22.9358 130.902 22.95 130.93 22.9522 130.934C22.961 130.952 22.9689 130.97 22.976 130.987C22.9795 130.996 22.9827 131.004 22.9859 131.013C22.9861 131.013 22.9864 131.014 22.9865 131.014C22.9894 131.022 22.9921 131.03 22.9946 131.037C22.9947 131.038 22.9949 131.038 22.995 131.038C23.0002 131.054 23.0048 131.069 23.0089 131.084C23.01 131.087 23.011 131.091 23.0119 131.095C23.0165 131.112 23.0202 131.129 23.0232 131.144C23.0251 131.154 23.0267 131.164 23.028 131.172C23.0285 131.175 23.0307 131.191 23.0312 131.196C23.0324 131.206 23.0333 131.215 23.0338 131.222C23.0342 131.228 23.035 131.243 23.035 131.245C23.0352 131.247 23.0352 131.248 23.0352 131.249C23.035 131.255 23.0352 131.257 23.0352 131.257V136.454C22.8201 136.454 22.6051 136.4 22.4124 136.293L18.4099 134.067C18.0246 133.852 17.7871 133.456 17.7871 133.028V128.575C17.7871 128.4 17.8269 128.23 17.9002 128.076L22.5266 130.494Z" fill="#0087FE"/>
<path d="M28.2836 128.575V133.028C28.2836 133.456 28.0462 133.852 27.6609 134.067L23.658 136.293C23.4652 136.4 23.2502 136.454 23.0352 136.454V131.257C23.0352 131.257 23.0351 131.255 23.0352 131.25C23.0352 131.248 23.0352 131.247 23.0353 131.245C23.0353 131.243 23.0355 131.24 23.0356 131.237C23.0357 131.233 23.0361 131.228 23.0365 131.222C23.0372 131.215 23.038 131.206 23.0391 131.196C23.0396 131.191 23.0403 131.186 23.0411 131.181C23.0415 131.178 23.042 131.175 23.0424 131.172C23.0437 131.164 23.0453 131.154 23.0472 131.144C23.0502 131.129 23.0539 131.113 23.0584 131.095C23.0593 131.091 23.0604 131.088 23.0614 131.084C23.0655 131.069 23.07 131.054 23.0754 131.038C23.0755 131.038 23.0756 131.038 23.0758 131.037C23.0784 131.03 23.0811 131.022 23.0839 131.014C23.084 131.014 23.0842 131.013 23.0845 131.013C23.0876 131.005 23.0909 130.996 23.0944 130.987C23.1015 130.97 23.1094 130.953 23.1181 130.934C23.127 130.916 23.1368 130.898 23.1475 130.879C23.1502 130.875 23.153 130.87 23.1557 130.865C23.1584 130.861 23.1613 130.856 23.1644 130.851C23.1703 130.842 23.1764 130.832 23.1829 130.823C23.1862 130.818 23.1895 130.813 23.1929 130.808C23.1995 130.799 23.2067 130.789 23.214 130.779C23.2176 130.775 23.2214 130.77 23.2252 130.765C23.2288 130.76 23.2328 130.755 23.2368 130.75C23.2407 130.746 23.2448 130.741 23.2491 130.736C23.2531 130.731 23.2573 130.726 23.2617 130.721L23.2719 130.71C23.2907 130.69 23.3107 130.669 23.3325 130.649C23.3362 130.646 23.3399 130.642 23.3437 130.639C23.3461 130.637 23.3484 130.635 23.3508 130.633C23.356 130.628 23.3613 130.623 23.3668 130.619C23.3715 130.615 23.3763 130.611 23.3813 130.607C23.3869 130.602 23.3926 130.597 23.3986 130.593C23.4221 130.574 23.4473 130.556 23.4739 130.538C23.9048 130.248 27.7995 128.265 28.1703 128.076C28.2439 128.23 28.2836 128.4 28.2836 128.575Z" fill="#009CFD"/>
<path d="M17.9004 128.076C18.0063 127.853 18.1824 127.663 18.4101 127.536L22.413 125.31C22.7983 125.096 23.2732 125.096 23.6584 125.31L27.6613 127.536C27.889 127.663 28.0651 127.853 28.171 128.076C27.8002 128.265 23.9055 130.248 23.4745 130.538C23.4479 130.556 23.3876 130.602 23.382 130.607C23.3771 130.611 23.3568 130.628 23.3516 130.633C23.3492 130.635 23.2915 130.69 23.2727 130.71C23.2692 130.714 23.2417 130.746 23.2378 130.75C23.2337 130.755 23.2183 130.775 23.2148 130.779C23.2074 130.789 23.1869 130.818 23.1838 130.823C23.1772 130.832 23.1509 130.875 23.1483 130.879C23.1456 130.884 23.1212 130.93 23.119 130.934C23.1101 130.952 23.1021 130.97 23.0952 130.987C23.0916 130.996 23.0789 131.03 23.0765 131.037C23.0763 131.038 23.0662 131.069 23.0621 131.084C23.0611 131.087 23.0509 131.129 23.0478 131.144C23.0458 131.154 23.0442 131.164 23.0429 131.172C23.0424 131.175 23.0402 131.191 23.0397 131.196C23.0385 131.206 23.0376 131.215 23.0371 131.222C23.0367 131.228 23.0363 131.233 23.0362 131.237C23.036 131.24 23.0359 131.243 23.0359 131.245C23.0358 131.247 23.0358 131.248 23.0358 131.249C23.0358 131.248 23.0358 131.247 23.0356 131.245C23.0356 131.243 23.0355 131.24 23.0354 131.237C23.0353 131.233 23.0349 131.228 23.0345 131.222C23.0339 131.215 23.033 131.206 23.0319 131.196C23.0313 131.191 23.0291 131.175 23.0286 131.172C23.0273 131.164 23.0171 131.112 23.0124 131.095C23.0115 131.091 22.9952 131.038 22.9951 131.037C22.9926 131.03 22.98 130.996 22.9763 130.987C22.9694 130.97 22.9615 130.952 22.9526 130.934C22.9504 130.93 22.926 130.884 22.9232 130.879C22.9206 130.875 22.9093 130.856 22.9062 130.851C22.9004 130.842 22.8813 130.813 22.8777 130.808C22.8712 130.799 22.8493 130.77 22.8454 130.765C22.8417 130.76 22.8022 130.714 22.7987 130.71C22.7799 130.69 22.7599 130.669 22.7382 130.649C22.7346 130.646 22.6781 130.597 22.6721 130.593C22.6486 130.574 22.6235 130.556 22.5969 130.538C22.5881 130.532 22.5326 130.497 22.5269 130.494L17.9004 128.076Z" fill="#0093FE"/>
<path d="M24.4934 131.43C24.3008 131.43 24.1278 131.51 24.0083 131.638L24.0082 131.638C23.7694 131.895 23.4222 132.058 23.0356 132.058C22.3154 132.058 21.7317 131.495 21.7317 130.802C21.7317 130.108 22.3154 129.546 23.0356 129.546C23.4222 129.546 23.7694 129.708 24.0083 129.965V129.965C24.1276 130.093 24.3008 130.174 24.4934 130.174C24.8534 130.174 25.1453 129.892 25.1453 129.546C25.1453 129.381 25.0798 129.232 24.9724 129.12C24.635 128.759 24.1906 128.494 23.6876 128.369V127.659C23.6876 127.314 23.3968 127.033 23.0381 127.033C22.6766 127.033 22.3836 127.316 22.3836 127.664V128.369C21.2589 128.647 20.4277 129.631 20.4277 130.802C20.4277 131.972 21.2589 132.956 22.3836 133.235V133.944C22.3836 134.29 22.6744 134.57 23.0331 134.57C23.3946 134.57 23.6876 134.287 23.6876 133.939V133.234C24.1881 133.11 24.6304 132.846 24.9674 132.489C24.9743 132.482 24.9809 132.475 24.9874 132.467C24.99 132.464 24.9927 132.462 24.9953 132.459L24.9951 132.459C25.089 132.35 25.1455 132.21 25.1455 132.058C25.1453 131.711 24.8535 131.43 24.4934 131.43Z" fill="white"/>
<rect x="46.8438" y="98.5061" width="29.0683" height="4.03726" rx="2.01863" fill="#AAAAAA"/>
<rect x="46.8398" y="308.441" width="29.0683" height="10.4969" rx="5.24843" fill="#AAAAAA"/>
<rect x="17.7871" y="149.374" width="87.2048" height="44.4098" rx="5" fill="#0094FF"/>
<path fill-rule="evenodd" clip-rule="evenodd" d="M65.6262 151.695C65.5614 150.922 64.9458 149.374 63.002 149.374H65.6262V151.695ZM99.9961 149.375C102.758 149.375 104.996 151.613 104.996 154.375V158.66H70.6328C67.8714 158.66 65.6328 156.422 65.6328 153.66V149.375H99.9961Z" fill="#FFD600"/>
<path fill-rule="evenodd" clip-rule="evenodd" d="M65.6262 151.695C65.5614 150.922 64.9458 149.374 63.002 149.374H65.6262V151.695ZM99.9961 149.375C102.758 149.375 104.996 151.613 104.996 154.375V158.66H70.6328C67.8714 158.66 65.6328 156.422 65.6328 153.66V149.375H99.9961Z" fill="#4062DA"/>
<path fill-rule="evenodd" clip-rule="evenodd" d="M65.6262 151.695C65.5614 150.922 64.9458 149.374 63.002 149.374H65.6262V151.695ZM99.9961 149.375C102.758 149.375 104.996 151.613 104.996 154.375V158.66H70.6328C67.8714 158.66 65.6328 156.422 65.6328 153.66V149.375H99.9961Z" fill="#333333"/>
<rect x="17.7852" y="203.474" width="87.2048" height="25.031" rx="5" fill="#C9C9C9"/>
<rect x="17.7871" y="238.193" width="87.2048" height="25.031" rx="5" fill="#C9C9C9"/>
<path d="M81.3049 125.958H80.1543C79.602 125.958 79.1543 126.405 79.1543 126.958V128.224M81.3049 134.032H80.1543C79.602 134.032 79.1543 133.584 79.1543 133.032V131.766M85.0552 125.958H86.2288C86.7811 125.958 87.2288 126.405 87.2288 126.958V128.224M85.0552 134.032H86.2288C86.7811 134.032 87.2288 133.584 87.2288 133.032V131.766M79.1543 129.891H87.2288" stroke="white"/>
<path fill-rule="evenodd" clip-rule="evenodd" d="M103.986 125.057H104.486V125.557V127.428H103.486V126.057H102.28V125.057H103.986ZM94.9238 125.057H94.4238V125.557V127.428H95.4238V126.057H96.6305V125.057H94.9238ZM94.9296 135.122H94.4296V134.622V132.751H95.4296V134.122H96.6363V135.122H94.9296ZM103.99 135.122H104.49V134.622V132.752H103.49V134.122H102.284V135.122H103.99ZM100.258 126.327H99.7578V126.827V129.24V129.74H100.258H102.615H103.115V129.24V126.827V126.327H102.615H100.258ZM100.758 128.74V127.327H102.115V128.74H100.758ZM95.7676 126.355H96.2676H98.6243H99.1243V126.855V129.268V129.768H98.6243H96.2676H95.7676V129.268V126.855V126.355ZM96.7676 127.355V128.768H98.1243V127.355H96.7676ZM95.7363 130.379H96.2363H98.5931H99.0931V130.879V133.293V133.793H98.5931H96.2363H95.7363V133.293V130.879V130.379ZM96.7363 131.379V132.793H98.0931V131.379H96.7363ZM100.746 131.366H102.298V132.925H100.746V131.366Z" fill="white"/>
<rect x="62.5898" y="173.022" width="29.0683" height="2.42236" rx="1.21118" fill="white"/>
<path d="M20.166 358.245V360.747C20.166 362.815 25.2051 364.497 31.416 364.497C37.627 364.497 42.666 362.815 42.666 360.747V358.245C40.2461 359.95 35.8223 360.747 31.416 360.747C27.0098 360.747 22.5859 359.95 20.166 358.245ZM38.916 341.997C45.127 341.997 50.166 340.315 50.166 338.247C50.166 336.179 45.127 334.497 38.916 334.497C32.7051 334.497 27.666 336.179 27.666 338.247C27.666 340.315 32.7051 341.997 38.916 341.997ZM20.166 352.099V355.122C20.166 357.19 25.2051 358.872 31.416 358.872C37.627 358.872 42.666 357.19 42.666 355.122V352.099C40.2461 354.091 35.8164 355.122 31.416 355.122C27.0156 355.122 22.5859 354.091 20.166 352.099ZM44.541 352.743C47.8984 352.093 50.166 350.886 50.166 349.497V346.995C48.8066 347.956 46.8086 348.612 44.541 349.017V352.743ZM31.416 343.872C25.2051 343.872 20.166 345.97 20.166 348.56C20.166 351.149 25.2051 353.247 31.416 353.247C37.627 353.247 42.666 351.149 42.666 348.56C42.666 345.97 37.627 343.872 31.416 343.872ZM44.2656 347.171C47.7812 346.538 50.166 345.296 50.166 343.872V341.37C48.0859 342.841 44.5117 343.632 40.75 343.819C42.4785 344.657 43.75 345.782 44.2656 347.171Z" fill="#FFBC0F"/>
<circle cx="63" cy="353.661" r="11" fill="url(#paint0_linear_57_1542)"/>
<circle cx="63" cy="353.661" r="8.6875" fill="url(#paint1_linear_57_1542)" stroke="white" stroke-width="0.5"/>
<path d="M62.8799 349.165C63.8132 349.165 64.5459 349.337 65.0779 349.683C65.6099 350.028 65.9692 350.518 66.1559 351.153H67.2059V351.909H66.2959C66.3052 351.993 66.3099 352.077 66.3099 352.161C66.3192 352.245 66.3239 352.329 66.3239 352.413C66.3239 352.534 66.3192 352.66 66.3099 352.791C66.3006 352.912 66.2866 353.033 66.2679 353.155H67.2059V353.911H66.0719C65.9319 354.293 65.7172 354.634 65.4279 354.933C65.1386 355.231 64.7652 355.469 64.3079 355.647C63.8506 355.815 63.2952 355.899 62.6419 355.899H61.8579V359.161H60.6959V353.911H59.4779V353.155H60.6959V351.909H59.4779V351.153H60.6959V349.165H62.8799ZM64.7699 353.911H61.8579V354.863H62.5719C63.1226 354.863 63.5799 354.788 63.9439 354.639C64.3079 354.489 64.5832 354.247 64.7699 353.911ZM65.0499 351.909H61.8579V353.155H65.0359C65.0546 353.052 65.0686 352.945 65.0779 352.833C65.0872 352.711 65.0919 352.59 65.0919 352.469C65.0919 352.366 65.0872 352.273 65.0779 352.189C65.0779 352.095 65.0686 352.002 65.0499 351.909ZM62.8379 350.201H61.8579V351.153H64.8119C64.6439 350.835 64.3966 350.597 64.0699 350.439C63.7432 350.28 63.3326 350.201 62.8379 350.201Z" fill="white"/>
<circle cx="74" cy="68.6606" r="11" fill="url(#paint2_linear_57_1542)"/>
<circle cx="74" cy="68.6606" r="8.6875" fill="url(#paint3_linear_57_1542)" stroke="white" stroke-width="0.5"/>
<path d="M73.8799 64.1646C74.8132 64.1646 75.5459 64.3373 76.0779 64.6826C76.6099 65.028 76.9692 65.518 77.1559 66.1526H78.2059V66.9086H77.2959C77.3052 66.9926 77.3099 67.0766 77.3099 67.1606C77.3192 67.2446 77.3239 67.3286 77.3239 67.4126C77.3239 67.534 77.3192 67.66 77.3099 67.7906C77.3006 67.912 77.2866 68.0333 77.2679 68.1546H78.2059V68.9106H77.0719C76.9319 69.2933 76.7172 69.634 76.4279 69.9326C76.1386 70.2313 75.7652 70.4693 75.3079 70.6466C74.8506 70.8146 74.2952 70.8986 73.6419 70.8986H72.8579V74.1606H71.6959V68.9106H70.4779V68.1546H71.6959V66.9086H70.4779V66.1526H71.6959V64.1646H73.8799ZM75.7699 68.9106H72.8579V69.8626H73.5719C74.1226 69.8626 74.5799 69.788 74.9439 69.6386C75.3079 69.4893 75.5832 69.2466 75.7699 68.9106ZM76.0499 66.9086H72.8579V68.1546H76.0359C76.0546 68.052 76.0686 67.9446 76.0779 67.8326C76.0872 67.7113 76.0919 67.59 76.0919 67.4686C76.0919 67.366 76.0872 67.2726 76.0779 67.1886C76.0779 67.0953 76.0686 67.002 76.0499 66.9086ZM73.8379 65.2006H72.8579V66.1526H75.8119C75.6439 65.8353 75.3966 65.5973 75.0699 65.4386C74.7432 65.28 74.3326 65.2006 73.8379 65.2006Z" fill="white"/>
<circle cx="141" cy="16.6606" r="11" fill="url(#paint4_linear_57_1542)"/>
<circle cx="141" cy="16.6606" r="8.6875" fill="url(#paint5_linear_57_1542)" stroke="white" stroke-width="0.5"/>
<path d="M140.88 12.1646C141.813 12.1646 142.546 12.3373 143.078 12.6826C143.61 13.028 143.969 13.518 144.156 14.1526H145.206V14.9086H144.296C144.305 14.9926 144.31 15.0766 144.31 15.1606C144.319 15.2446 144.324 15.3286 144.324 15.4126C144.324 15.534 144.319 15.66 144.31 15.7906C144.301 15.912 144.287 16.0333 144.268 16.1546H145.206V16.9106H144.072C143.932 17.2933 143.717 17.634 143.428 17.9326C143.139 18.2313 142.765 18.4693 142.308 18.6466C141.851 18.8146 141.295 18.8986 140.642 18.8986H139.858V22.1606H138.696V16.9106H137.478V16.1546H138.696V14.9086H137.478V14.1526H138.696V12.1646H140.88ZM142.77 16.9106H139.858V17.8626H140.572C141.123 17.8626 141.58 17.788 141.944 17.6386C142.308 17.4893 142.583 17.2466 142.77 16.9106ZM143.05 14.9086H139.858V16.1546H143.036C143.055 16.052 143.069 15.9446 143.078 15.8326C143.087 15.7113 143.092 15.59 143.092 15.4686C143.092 15.366 143.087 15.2726 143.078 15.1886C143.078 15.0953 143.069 15.002 143.05 14.9086ZM140.838 13.2006H139.858V14.1526H142.812C142.644 13.8353 142.397 13.5973 142.07 13.4386C141.743 13.28 141.333 13.2006 140.838 13.2006Z" fill="white"/>
<circle cx="215" cy="11.6606" r="11" fill="url(#paint6_linear_57_1542)"/>
<circle cx="215" cy="11.6606" r="8.6875" fill="url(#paint7_linear_57_1542)" stroke="white" stroke-width="0.5"/>
<path d="M214.88 7.16464C215.813 7.16464 216.546 7.33731 217.078 7.68264C217.61 8.02798 217.969 8.51798 218.156 9.15264H219.206V9.90864H218.296C218.305 9.99264 218.31 10.0766 218.31 10.1606C218.319 10.2446 218.324 10.3286 218.324 10.4126C218.324 10.534 218.319 10.66 218.31 10.7906C218.301 10.912 218.287 11.0333 218.268 11.1546H219.206V11.9106H218.072C217.932 12.2933 217.717 12.634 217.428 12.9326C217.139 13.2313 216.765 13.4693 216.308 13.6466C215.851 13.8146 215.295 13.8986 214.642 13.8986H213.858V17.1606H212.696V11.9106H211.478V11.1546H212.696V9.90864H211.478V9.15264H212.696V7.16464H214.88ZM216.77 11.9106H213.858V12.8626H214.572C215.123 12.8626 215.58 12.788 215.944 12.6386C216.308 12.4893 216.583 12.2466 216.77 11.9106ZM217.05 9.90864H213.858V11.1546H217.036C217.055 11.052 217.069 10.9446 217.078 10.8326C217.087 10.7113 217.092 10.59 217.092 10.4686C217.092 10.366 217.087 10.2726 217.078 10.1886C217.078 10.0953 217.069 10.002 217.05 9.90864ZM214.838 8.20064H213.858V9.15264H216.812C216.644 8.83531 216.397 8.59731 216.07 8.43864C215.743 8.27998 215.333 8.20064 214.838 8.20064Z" fill="white"/>
<circle cx="279" cy="52.6606" r="11" fill="url(#paint8_linear_57_1542)"/>
<circle cx="279" cy="52.6606" r="8.6875" fill="url(#paint9_linear_57_1542)" stroke="white" stroke-width="0.5"/>
<path d="M278.88 48.1646C279.813 48.1646 280.546 48.3373 281.078 48.6826C281.61 49.028 281.969 49.518 282.156 50.1526H283.206V50.9086H282.296C282.305 50.9926 282.31 51.0766 282.31 51.1606C282.319 51.2446 282.324 51.3286 282.324 51.4126C282.324 51.534 282.319 51.66 282.31 51.7906C282.301 51.912 282.287 52.0333 282.268 52.1546H283.206V52.9106H282.072C281.932 53.2933 281.717 53.634 281.428 53.9326C281.139 54.2313 280.765 54.4693 280.308 54.6466C279.851 54.8146 279.295 54.8986 278.642 54.8986H277.858V58.1606H276.696V52.9106H275.478V52.1546H276.696V50.9086H275.478V50.1526H276.696V48.1646H278.88ZM280.77 52.9106H277.858V53.8626H278.572C279.123 53.8626 279.58 53.788 279.944 53.6386C280.308 53.4893 280.583 53.2466 280.77 52.9106ZM281.05 50.9086H277.858V52.1546H281.036C281.055 52.052 281.069 51.9446 281.078 51.8326C281.087 51.7113 281.092 51.59 281.092 51.4686C281.092 51.366 281.087 51.2726 281.078 51.1886C281.078 51.0953 281.069 51.002 281.05 50.9086ZM278.838 49.2006H277.858V50.1526H280.812C280.644 49.8353 280.397 49.5973 280.07 49.4386C279.743 49.28 279.333 49.2006 278.838 49.2006Z" fill="white"/>
<path d="M177.961 79.2776C177.496 79.5753 177.36 80.1938 177.658 80.659C177.955 81.1241 178.574 81.2599 179.039 80.9622L177.961 79.2776ZM234 88.0464L233.546 76.5083L223.781 82.6701L234 88.0464ZM176.055 82.9519C176.514 82.6456 176.638 82.0247 176.332 81.5652C176.026 81.1057 175.405 80.9815 174.945 81.2878L176.055 82.9519ZM171.945 83.2878C171.486 83.5942 171.362 84.2151 171.668 84.6746C171.974 85.1341 172.595 85.2583 173.055 84.9519L171.945 83.2878ZM169.581 87.434C170.03 87.1133 170.135 86.4888 169.814 86.0392C169.493 85.5896 168.869 85.4851 168.419 85.8058L169.581 87.434ZM166.419 87.2323C165.97 87.553 165.865 88.1775 166.186 88.6271C166.507 89.0768 167.131 89.1813 167.581 88.8606L166.419 87.2323ZM179.039 80.9622C199.063 68.147 219.189 71.7373 228.486 81.1376L229.908 79.7313C219.815 69.526 198.609 66.063 177.961 79.2776L179.039 80.9622ZM174.945 81.2878L171.945 83.2878L173.055 84.9519L176.055 82.9519L174.945 81.2878ZM168.419 85.8058L166.419 87.2323L167.581 88.8606L169.581 87.434L168.419 85.8058Z" fill="white"/>
<path d="M441 188.661V288.661M281 188.661V288.661M251 188.661V288.661M411 188.661V288.661M246 308.661H446M226 333.661H466M461 161.161V168.661H231V161.161C281 143.661 311 128.661 343.5 103.661H348.5C381 128.661 411 143.661 461 161.161Z" stroke="white" stroke-width="8"/>
<path d="M343.319 205.117C349.719 205.117 354.743 206.301 358.391 208.669C362.039 211.037 364.503 214.397 365.783 218.749H372.983V223.933H366.743C366.807 224.509 366.839 225.085 366.839 225.661C366.903 226.237 366.935 226.813 366.935 227.389C366.935 228.221 366.903 229.085 366.839 229.981C366.775 230.813 366.679 231.645 366.551 232.477H372.983V237.661H365.207C364.247 240.285 362.775 242.621 360.791 244.669C358.807 246.717 356.247 248.349 353.111 249.565C349.975 250.717 346.167 251.293 341.687 251.293H336.311V273.661H328.343V237.661H319.991V232.477H328.343V223.933H319.991V218.749H328.343V205.117H343.319ZM356.279 237.661H336.311V244.189H341.207C344.983 244.189 348.119 243.677 350.615 242.653C353.111 241.629 354.999 239.965 356.279 237.661ZM358.199 223.933H336.311V232.477H358.103C358.231 231.773 358.327 231.037 358.391 230.269C358.455 229.437 358.487 228.605 358.487 227.773C358.487 227.069 358.455 226.429 358.391 225.853C358.391 225.213 358.327 224.573 358.199 223.933ZM343.031 212.221H336.311V218.749H356.567C355.415 216.573 353.719 214.941 351.479 213.853C349.239 212.765 346.423 212.221 343.031 212.221Z" fill="white"/>
<defs>
<linearGradient id="paint0_linear_57_1542" x1="63" y1="342.661" x2="63" y2="364.661" gradientUnits="userSpaceOnUse">
<stop stop-color="#FFB800"/>
<stop offset="0.364583" stop-color="#FFC42B"/>
<stop offset="0.5" stop-color="#FFDD85"/>
<stop offset="0.703125" stop-color="#F1BD35"/>
<stop offset="1" stop-color="#FFD772"/>
</linearGradient>
<linearGradient id="paint1_linear_57_1542" x1="63" y1="344.723" x2="63" y2="362.598" gradientUnits="userSpaceOnUse">
<stop stop-color="#FFB800"/>
<stop offset="0.364583" stop-color="#FFC42B"/>
<stop offset="0.5" stop-color="#FFDD85"/>
<stop offset="0.703125" stop-color="#F1BD35"/>
<stop offset="1" stop-color="#FFD772"/>
</linearGradient>
<linearGradient id="paint2_linear_57_1542" x1="74" y1="57.6606" x2="74" y2="79.6606" gradientUnits="userSpaceOnUse">
<stop stop-color="#FFB800"/>
<stop offset="0.364583" stop-color="#FFC42B"/>
<stop offset="0.5" stop-color="#FFDD85"/>
<stop offset="0.703125" stop-color="#F1BD35"/>
<stop offset="1" stop-color="#FFD772"/>
</linearGradient>
<linearGradient id="paint3_linear_57_1542" x1="74" y1="59.7231" x2="74" y2="77.5981" gradientUnits="userSpaceOnUse">
<stop stop-color="#FFB800"/>
<stop offset="0.364583" stop-color="#FFC42B"/>
<stop offset="0.5" stop-color="#FFDD85"/>
<stop offset="0.703125" stop-color="#F1BD35"/>
<stop offset="1" stop-color="#FFD772"/>
</linearGradient>
<linearGradient id="paint4_linear_57_1542" x1="141" y1="5.66064" x2="141" y2="27.6606" gradientUnits="userSpaceOnUse">
<stop stop-color="#FFB800"/>
<stop offset="0.364583" stop-color="#FFC42B"/>
<stop offset="0.5" stop-color="#FFDD85"/>
<stop offset="0.703125" stop-color="#F1BD35"/>
<stop offset="1" stop-color="#FFD772"/>
</linearGradient>
<linearGradient id="paint5_linear_57_1542" x1="141" y1="7.72314" x2="141" y2="25.5981" gradientUnits="userSpaceOnUse">
<stop stop-color="#FFB800"/>
<stop offset="0.364583" stop-color="#FFC42B"/>
<stop offset="0.5" stop-color="#FFDD85"/>
<stop offset="0.703125" stop-color="#F1BD35"/>
<stop offset="1" stop-color="#FFD772"/>
</linearGradient>
<linearGradient id="paint6_linear_57_1542" x1="215" y1="0.660645" x2="215" y2="22.6606" gradientUnits="userSpaceOnUse">
<stop stop-color="#FFB800"/>
<stop offset="0.364583" stop-color="#FFC42B"/>
<stop offset="0.5" stop-color="#FFDD85"/>
<stop offset="0.703125" stop-color="#F1BD35"/>
<stop offset="1" stop-color="#FFD772"/>
</linearGradient>
<linearGradient id="paint7_linear_57_1542" x1="215" y1="2.72314" x2="215" y2="20.5981" gradientUnits="userSpaceOnUse">
<stop stop-color="#FFB800"/>
<stop offset="0.364583" stop-color="#FFC42B"/>
<stop offset="0.5" stop-color="#FFDD85"/>
<stop offset="0.703125" stop-color="#F1BD35"/>
<stop offset="1" stop-color="#FFD772"/>
</linearGradient>
<linearGradient id="paint8_linear_57_1542" x1="279" y1="41.6606" x2="279" y2="63.6606" gradientUnits="userSpaceOnUse">
<stop stop-color="#FFB800"/>
<stop offset="0.364583" stop-color="#FFC42B"/>
<stop offset="0.5" stop-color="#FFDD85"/>
<stop offset="0.703125" stop-color="#F1BD35"/>
<stop offset="1" stop-color="#FFD772"/>
</linearGradient>
<linearGradient id="paint9_linear_57_1542" x1="279" y1="43.7231" x2="279" y2="61.5981" gradientUnits="userSpaceOnUse">
<stop stop-color="#FFB800"/>
<stop offset="0.364583" stop-color="#FFC42B"/>
<stop offset="0.5" stop-color="#FFDD85"/>
<stop offset="0.703125" stop-color="#F1BD35"/>
<stop offset="1" stop-color="#FFD772"/>
</linearGradient>
</defs>
</svg>
