<svg width="227" height="226" viewBox="0 0 227 226" fill="none" xmlns="http://www.w3.org/2000/svg">
<rect x="114.359" y="1.10999" width="113.103" height="211.015" rx="15" transform="rotate(7.89475 114.359 1.10999)" fill="#A9A9A9"/>
<rect x="114.039" y="0.660767" width="110.323" height="206.855" rx="10" transform="rotate(7.89475 114.039 0.660767)" fill="#EEEEEE"/>
<rect x="114.039" y="0.660767" width="110.323" height="206.855" rx="10" transform="rotate(7.89475 114.039 0.660767)" fill="#4D4D4D" fill-opacity="0.2"/>
<rect x="119.238" y="16.0367" width="95.8064" height="174.919" rx="10" transform="rotate(7.89475 119.238 16.0367)" fill="#151515"/>
<rect x="107.945" y="166.148" width="78.387" height="15.2419" rx="7.62097" transform="rotate(7.89475 107.945 166.148)" fill="#333333"/>
<path d="M106.561 173.559C106.566 173.556 106.593 173.544 106.597 173.542C106.598 173.542 106.618 173.533 106.626 173.529C106.651 173.516 106.674 173.503 106.696 173.489C106.702 173.486 106.722 173.473 106.727 173.47C106.732 173.467 106.756 173.45 106.759 173.448C106.78 173.433 106.8 173.417 106.818 173.401C106.822 173.399 106.872 173.351 106.876 173.348C106.883 173.34 106.89 173.332 106.897 173.325C106.901 173.321 106.92 173.298 106.926 173.291C106.93 173.287 106.95 173.26 106.953 173.257C106.958 173.249 106.974 173.227 106.976 173.223C106.986 173.208 106.995 173.194 107.003 173.179C107.007 173.172 107.01 173.165 107.014 173.158C107.014 173.158 107.015 173.157 107.015 173.157C107.018 173.15 107.022 173.144 107.025 173.138C107.025 173.137 107.025 173.137 107.025 173.137C107.031 173.124 107.037 173.111 107.042 173.099C107.044 173.096 107.045 173.092 107.046 173.089C107.052 173.075 107.057 173.061 107.062 173.048C107.065 173.039 107.067 173.031 107.069 173.023C107.07 173.021 107.074 173.007 107.075 173.003C107.077 172.995 107.079 172.987 107.08 172.981C107.081 172.976 107.084 172.962 107.084 172.961C107.084 172.959 107.085 172.958 107.085 172.957C107.085 172.952 107.086 172.95 107.086 172.95L107.717 168.396C107.535 168.371 107.345 168.393 107.169 168.464L103.499 169.943C103.146 170.086 102.896 170.405 102.844 170.78L102.303 174.682C102.282 174.835 102.295 174.989 102.338 175.132L106.561 173.559Z" fill="#EEEEEE"/>
<path d="M111.217 175.918L111.758 172.016C111.81 171.641 111.657 171.266 111.356 171.033L108.227 168.611C108.076 168.494 107.9 168.422 107.717 168.397L107.086 172.95C107.086 172.95 107.085 172.952 107.085 172.957C107.085 172.958 107.085 172.959 107.084 172.96C107.084 172.962 107.084 172.965 107.084 172.967C107.083 172.971 107.083 172.976 107.083 172.981C107.082 172.988 107.082 172.995 107.082 173.004C107.082 173.008 107.081 173.013 107.081 173.018C107.081 173.02 107.082 173.023 107.082 173.025C107.082 173.033 107.082 173.041 107.082 173.05C107.083 173.064 107.084 173.079 107.086 173.095C107.086 173.098 107.087 173.102 107.087 173.105C107.089 173.118 107.091 173.132 107.093 173.146C107.093 173.147 107.093 173.147 107.094 173.147C107.095 173.154 107.096 173.161 107.098 173.168C107.098 173.169 107.098 173.169 107.098 173.17C107.1 173.177 107.101 173.185 107.103 173.193C107.107 173.209 107.112 173.226 107.117 173.242C107.122 173.259 107.128 173.277 107.135 173.294C107.137 173.299 107.139 173.303 107.141 173.308C107.142 173.312 107.144 173.316 107.146 173.321C107.15 173.33 107.154 173.339 107.158 173.348C107.161 173.353 107.163 173.357 107.165 173.362C107.17 173.371 107.175 173.38 107.18 173.39C107.182 173.394 107.185 173.399 107.187 173.404C107.19 173.408 107.193 173.413 107.195 173.418C107.198 173.422 107.201 173.427 107.204 173.432C107.207 173.437 107.21 173.441 107.213 173.446L107.22 173.457C107.234 173.477 107.248 173.498 107.264 173.518C107.267 173.521 107.27 173.524 107.273 173.528C107.274 173.53 107.276 173.532 107.278 173.534C107.282 173.539 107.286 173.544 107.29 173.548C107.293 173.552 107.297 173.557 107.301 173.561C107.305 173.565 107.309 173.57 107.314 173.575C107.331 173.594 107.35 173.613 107.371 173.632C107.702 173.937 110.768 176.133 111.06 176.342C111.142 176.216 111.196 176.072 111.217 175.918Z" fill="#EEEEEE"/>
<path d="M102.338 175.133C102.401 175.34 102.527 175.528 102.705 175.666L105.834 178.088C106.136 178.321 106.539 178.377 106.892 178.234L110.562 176.755C110.771 176.671 110.944 176.525 111.061 176.342C110.769 176.133 107.702 173.937 107.371 173.632C107.351 173.613 107.305 173.565 107.301 173.561C107.297 173.557 107.282 173.539 107.278 173.534C107.276 173.532 107.234 173.477 107.221 173.457C107.218 173.454 107.199 173.423 107.196 173.418C107.193 173.413 107.182 173.394 107.18 173.39C107.175 173.381 107.161 173.353 107.159 173.348C107.154 173.339 107.137 173.299 107.136 173.294C107.134 173.29 107.119 173.247 107.117 173.243C107.112 173.226 107.107 173.209 107.104 173.194C107.102 173.186 107.095 173.154 107.094 173.148C107.094 173.147 107.089 173.118 107.087 173.105C107.087 173.102 107.083 173.064 107.082 173.051C107.082 173.042 107.082 173.033 107.082 173.025C107.082 173.023 107.082 173.008 107.082 173.004C107.082 172.995 107.082 172.988 107.083 172.981C107.083 172.976 107.083 172.971 107.084 172.967C107.084 172.965 107.084 172.963 107.085 172.961C107.085 172.959 107.085 172.958 107.085 172.957C107.085 172.958 107.085 172.959 107.084 172.961C107.084 172.963 107.084 172.965 107.083 172.967C107.082 172.971 107.082 172.976 107.081 172.981C107.079 172.987 107.077 172.995 107.075 173.003C107.074 173.007 107.07 173.021 107.069 173.023C107.067 173.031 107.052 173.075 107.046 173.089C107.045 173.093 107.025 173.138 107.025 173.138C107.022 173.144 107.007 173.172 107.003 173.18C106.995 173.194 106.986 173.208 106.976 173.223C106.974 173.227 106.947 173.264 106.944 173.268C106.942 173.272 106.93 173.287 106.926 173.291C106.92 173.298 106.901 173.321 106.897 173.325C106.89 173.332 106.868 173.355 106.864 173.359C106.861 173.363 106.822 173.399 106.818 173.401C106.8 173.417 106.78 173.433 106.759 173.447C106.756 173.45 106.702 173.486 106.696 173.489C106.674 173.503 106.651 173.516 106.626 173.528C106.618 173.533 106.566 173.556 106.561 173.559L102.338 175.133Z" fill="#EEEEEE"/>
<path d="M108.344 172.971C108.181 172.948 108.044 172.857 107.958 172.731L107.958 172.731C107.786 172.477 107.511 172.294 107.183 172.249C106.571 172.164 106.007 172.588 105.923 173.196C105.838 173.804 106.266 174.365 106.877 174.45C107.206 174.495 107.52 174.394 107.755 174.197L107.755 174.197C107.871 174.099 108.028 174.049 108.192 174.071C108.498 174.114 108.711 174.394 108.669 174.698C108.649 174.842 108.575 174.966 108.471 175.051C108.14 175.327 107.731 175.508 107.288 175.558L107.202 176.18C107.16 176.482 106.879 176.694 106.574 176.651C106.267 176.609 106.053 176.327 106.095 176.022L106.181 175.404C105.259 175.027 104.673 174.068 104.815 173.042C104.957 172.016 105.783 171.252 106.772 171.141L106.858 170.519C106.9 170.216 107.181 170.005 107.486 170.047C107.793 170.09 108.007 170.372 107.965 170.677L107.879 171.294C108.289 171.462 108.633 171.745 108.876 172.098C108.881 172.105 108.885 172.112 108.89 172.12C108.892 172.122 108.894 172.125 108.896 172.128L108.896 172.128C108.962 172.234 108.993 172.363 108.975 172.497C108.932 172.801 108.65 173.013 108.344 172.971Z" fill="#333333"/>
<path fill-rule="evenodd" clip-rule="evenodd" d="M131.954 174.165C131.781 174.044 131.631 173.922 131.51 173.81C131.885 173.566 132.321 173.372 132.813 173.285C132.658 173.417 132.503 173.561 132.353 173.715C132.216 173.855 132.082 174.006 131.954 174.165ZM132.854 174.204C133.057 173.996 133.268 173.81 133.469 173.651L133.311 174.793C133.044 174.727 132.794 174.633 132.566 174.523C132.657 174.414 132.754 174.307 132.854 174.204ZM133.079 176.463L133.214 175.489C132.827 175.402 132.472 175.263 132.155 175.101C132.042 175.294 131.952 175.491 131.893 175.688C131.837 175.873 131.642 175.978 131.457 175.922C131.272 175.867 131.167 175.671 131.223 175.486C131.3 175.228 131.415 174.978 131.555 174.74C131.313 174.572 131.11 174.399 130.952 174.246C130.539 174.627 130.249 175.039 130.096 175.336C130.007 175.507 129.796 175.575 129.624 175.486C129.453 175.397 129.385 175.186 129.474 175.014C129.699 174.579 130.136 173.985 130.761 173.488C131.539 172.87 132.628 172.388 133.972 172.574C135.313 172.76 136.261 173.523 136.878 174.329C137.376 174.978 137.67 175.67 137.795 176.151C137.843 176.338 137.73 176.529 137.543 176.577C137.356 176.626 137.165 176.513 137.117 176.326C137.029 175.986 136.827 175.489 136.492 174.991C136.272 175.1 136.011 175.217 135.716 175.319C135.785 175.588 135.825 175.861 135.825 176.131C135.824 176.324 135.667 176.481 135.474 176.48C135.281 176.48 135.124 176.323 135.125 176.129C135.125 175.929 135.095 175.718 135.04 175.504C134.692 175.573 134.312 175.609 133.907 175.586L133.772 176.559C133.746 176.751 133.569 176.885 133.378 176.858C133.186 176.832 133.052 176.655 133.079 176.463ZM134.894 173.57C135.352 173.787 135.734 174.09 136.047 174.428C135.878 174.508 135.691 174.587 135.489 174.657C135.409 174.47 135.32 174.289 135.227 174.117C135.122 173.925 135.009 173.742 134.894 173.57ZM134.004 174.89C134.284 174.902 134.552 174.88 134.803 174.836C134.745 174.707 134.681 174.579 134.612 174.453C134.472 174.195 134.316 173.955 134.163 173.745L134.004 174.89ZM136.573 176.609C138.113 176.673 139.2 177.581 139.864 178.136L139.864 178.136C139.913 178.177 139.96 178.216 140.004 178.253C140.093 178.326 140.135 178.409 140.145 178.441C140.131 178.538 140.019 178.504 139.827 178.446C139.696 178.407 139.528 178.356 139.329 178.328C138.937 178.274 138.156 178.385 137.815 178.448C137.083 178.629 135.783 179.451 134.739 180.111C134.553 180.229 134.376 180.341 134.211 180.443C133.337 180.987 131.995 181.262 131.278 181.201C129.787 181.16 128.594 180.163 128.15 179.769C127.627 179.305 126.495 178.6 126.193 178.521C126.033 178.479 126.007 178.342 126.039 178.276C126.039 178.276 126.463 177.539 128.027 178.255C128.468 178.457 128.798 178.695 129.546 179.297C129.894 179.578 130.403 179.749 130.643 179.782C131.102 179.846 131.808 179.777 132.507 179.542C133.065 179.353 133.346 179.178 133.465 179.098C133.576 179.009 133.719 178.827 133.622 178.698C133.503 178.541 133.352 178.617 132.987 178.799L132.987 178.799C132.919 178.833 132.844 178.871 132.76 178.911C132.332 179.118 131.666 179.203 131.387 179.22C130.874 179.315 130.244 179.061 130.104 178.876C129.991 178.727 130.305 178.626 130.475 178.594C130.53 178.602 130.778 178.57 131.337 178.381C132.035 178.145 132.035 178.145 133.105 177.628L133.105 177.628C133.284 177.542 133.454 177.454 133.62 177.367C134.449 176.938 135.195 176.551 136.573 176.609ZM129.299 175.841C128.798 175.617 128.335 175.636 128.296 175.702C128.26 175.725 128.207 175.884 128.456 176.019C128.766 176.187 129.586 176.862 129.809 177.067C129.854 177.108 129.911 177.162 129.977 177.223C130.242 177.469 130.641 177.84 130.854 178.009C131.023 178.143 131.162 178.17 131.269 178.116C131.332 178.084 131.467 178.004 131.614 177.897C131.729 177.812 131.689 177.643 131.654 177.608C131.484 177.439 131.078 177.047 130.815 176.825C130.486 176.547 129.998 176.154 129.299 175.841ZM128.039 176.089C127.509 175.783 127.241 175.832 127.173 175.894C127.043 175.975 127.095 176.101 127.137 176.154C127.416 176.432 128.031 176.996 128.289 177.211C128.594 177.464 129.228 178.089 129.469 178.327L129.469 178.327L129.506 178.364C129.692 178.547 129.879 178.508 129.952 178.492C130.087 178.447 130.342 178.359 130.451 178.288C130.583 178.203 130.514 178.054 130.455 177.991C130.193 177.745 129.622 177.214 129.435 177.059C129.201 176.866 128.702 176.47 128.039 176.089ZM130.366 176.061C130.424 175.966 130.685 175.852 131.371 176.2C132.107 176.574 132.546 176.933 132.681 177.053C132.746 177.108 132.85 177.24 132.751 177.33C132.652 177.42 132.56 177.469 132.505 177.49C132.471 177.509 132.353 177.555 132.262 177.528C132.203 177.51 132.12 177.458 131.997 177.381L131.997 177.381C131.934 177.342 131.861 177.296 131.775 177.245C131.572 177.124 130.845 176.609 130.487 176.33C130.426 176.286 130.316 176.17 130.366 176.061Z" fill="#EEEEEE"/>
<path d="M162.136 183.414L162.136 183.413C162.12 183.389 162.103 183.362 162.084 183.334C161.945 183.121 161.729 182.791 161.584 182.299C161.42 181.74 161.351 180.999 161.495 179.955C161.674 178.667 160.992 177.563 159.967 177.176L159.594 177.035L159.649 176.64L159.704 176.236C159.711 176.188 159.698 176.15 159.683 176.128C159.668 176.106 159.655 176.103 159.651 176.103C159.647 176.102 159.634 176.101 159.614 176.118C159.593 176.136 159.57 176.169 159.564 176.217L159.508 176.62L159.453 177.015L159.055 177.05C157.964 177.143 157.007 178.02 156.829 179.308C156.684 180.352 156.415 181.046 156.105 181.54C155.832 181.974 155.535 182.232 155.343 182.399C155.317 182.421 155.293 182.442 155.271 182.461L162.136 183.414ZM162.136 183.414C162.156 183.444 162.162 183.478 162.157 183.514L162.157 183.515M162.136 183.414L162.157 183.515M162.157 183.515C162.15 183.559 162.128 183.597 162.105 183.617C162.095 183.626 162.087 183.629 162.083 183.63C162.081 183.631 162.076 183.632 162.067 183.631L155.278 182.69C155.269 182.688 155.265 182.686 155.263 182.685C155.26 182.682 155.253 182.677 155.246 182.666C155.229 182.64 155.217 182.598 155.223 182.553L162.157 183.515ZM158.923 184.836C158.778 184.976 158.588 185.042 158.415 185.018C158.242 184.994 158.077 184.879 157.976 184.704L158.923 184.836ZM155.223 182.553C155.228 182.516 155.243 182.486 155.271 182.462L155.223 182.553Z" stroke="#EEEEEE"/>
<path fill-rule="evenodd" clip-rule="evenodd" d="M179.97 178.821C179.15 178.707 178.392 179.28 178.278 180.101L178.12 181.243C178.006 182.063 178.579 182.821 179.4 182.934L180.542 183.093C181.362 183.207 182.12 182.634 182.234 181.813L182.392 180.671C182.506 179.85 181.933 179.093 181.112 178.979L179.97 178.821ZM179.269 180.238C179.307 179.964 179.559 179.773 179.833 179.811L180.975 179.97C181.248 180.008 181.439 180.26 181.401 180.534L181.243 181.676C181.205 181.949 180.953 182.14 180.679 182.102L179.537 181.944C179.264 181.906 179.073 181.653 179.111 181.38L179.269 180.238ZM184.967 179.514C184.146 179.4 183.389 179.973 183.275 180.794L183.117 181.935C183.003 182.756 183.576 183.514 184.397 183.627L185.538 183.786C186.359 183.899 187.116 183.326 187.23 182.506L187.389 181.364C187.502 180.543 186.929 179.786 186.109 179.672L184.967 179.514ZM184.266 180.931C184.304 180.657 184.556 180.466 184.83 180.504L185.972 180.663C186.245 180.701 186.436 180.953 186.398 181.227L186.24 182.369C186.202 182.642 185.949 182.833 185.676 182.795L184.534 182.637C184.26 182.599 184.069 182.346 184.107 182.073L184.266 180.931ZM177.585 185.097C177.699 184.277 178.457 183.704 179.277 183.818L180.419 183.976C181.24 184.09 181.813 184.847 181.699 185.668L181.541 186.81C181.427 187.63 180.669 188.203 179.849 188.09L178.707 187.931C177.886 187.817 177.313 187.06 177.427 186.239L177.585 185.097ZM179.14 184.808C178.866 184.77 178.614 184.961 178.576 185.235L178.418 186.377C178.38 186.65 178.571 186.903 178.844 186.941L179.986 187.099C180.26 187.137 180.512 186.946 180.55 186.672L180.708 185.531C180.746 185.257 180.555 185.005 180.282 184.967L179.14 184.808ZM184.274 184.511C183.453 184.397 182.696 184.97 182.582 185.79L182.424 186.932C182.31 187.753 182.883 188.51 183.704 188.624L184.846 188.782C185.666 188.896 186.424 188.323 186.537 187.503L186.696 186.361C186.81 185.54 186.237 184.783 185.416 184.669L184.274 184.511ZM183.573 185.928C183.611 185.654 183.863 185.463 184.137 185.501L185.279 185.659C185.552 185.697 185.743 185.95 185.705 186.223L185.547 187.365C185.509 187.639 185.256 187.83 184.983 187.792L183.841 187.634C183.567 187.596 183.376 187.343 183.414 187.07L183.573 185.928Z" fill="#EEEEEE"/>
<path d="M129.452 36.7845C129.458 36.7822 129.485 36.77 129.49 36.768C129.49 36.7678 129.512 36.7581 129.52 36.754C129.546 36.7413 129.57 36.7281 129.594 36.7145C129.599 36.7111 129.62 36.6982 129.625 36.6952C129.63 36.6918 129.656 36.675 129.659 36.6723C129.681 36.6572 129.702 36.6415 129.721 36.6257C129.724 36.6228 129.777 36.5749 129.781 36.5711C129.788 36.5635 129.796 36.5558 129.803 36.5481C129.807 36.5443 129.827 36.5213 129.834 36.5135C129.837 36.5097 129.858 36.4827 129.861 36.4789C129.867 36.4714 129.883 36.4487 129.885 36.445C129.895 36.43 129.905 36.4152 129.913 36.4008C129.917 36.3937 129.921 36.3864 129.925 36.3794C129.925 36.3789 129.926 36.3784 129.926 36.378C129.929 36.3714 129.933 36.3649 129.936 36.3585C129.936 36.3582 129.936 36.358 129.936 36.3577C129.943 36.3443 129.949 36.3314 129.954 36.319C129.956 36.3158 129.957 36.3126 129.958 36.3094C129.965 36.2943 129.97 36.2801 129.974 36.267C129.977 36.2584 129.98 36.2501 129.982 36.2424C129.983 36.24 129.987 36.2261 129.988 36.2218C129.99 36.2132 129.992 36.2055 129.994 36.1989C129.995 36.1939 129.997 36.1805 129.997 36.1785C129.998 36.1771 129.998 36.1758 129.998 36.1746C129.999 36.17 129.999 36.1676 129.999 36.1676L130.641 31.5409C130.449 31.5144 130.251 31.5355 130.066 31.6072L126.228 33.0951C125.858 33.2384 125.598 33.5617 125.545 33.9433L124.995 37.9076C124.974 38.0637 124.988 38.2197 125.034 38.366L129.452 36.7845Z" fill="#0087FE"/>
<path d="M134.342 39.2037L134.892 35.2393C134.945 34.8578 134.782 34.4758 134.466 34.2374L131.176 31.7611C131.018 31.6418 130.833 31.5676 130.642 31.5411L130 36.1676C130 36.1676 130 36.1701 129.999 36.1747C129.999 36.1758 129.999 36.1771 129.999 36.1786C129.999 36.1806 129.998 36.183 129.998 36.1856C129.998 36.1895 129.997 36.194 129.997 36.1992C129.997 36.2061 129.996 36.214 129.996 36.2228C129.996 36.2272 129.996 36.2319 129.996 36.2368C129.996 36.2392 129.996 36.2417 129.996 36.2442C129.996 36.2522 129.996 36.2609 129.997 36.27C129.998 36.284 129.999 36.299 130.001 36.3152C130.001 36.3186 130.002 36.322 130.002 36.3255C130.004 36.3389 130.006 36.353 130.009 36.3676C130.009 36.368 130.009 36.3682 130.009 36.3686C130.011 36.3756 130.012 36.3829 130.014 36.39C130.014 36.3905 130.014 36.3911 130.014 36.3916C130.016 36.3993 130.018 36.4075 130.02 36.4155C130.024 36.4317 130.029 36.4483 130.034 36.4655C130.04 36.4827 130.046 36.5002 130.054 36.5181C130.055 36.5226 130.057 36.5271 130.059 36.5318C130.061 36.5362 130.063 36.5407 130.065 36.5455C130.069 36.5546 130.073 36.5638 130.078 36.573C130.08 36.5777 130.083 36.5823 130.085 36.5871C130.09 36.5964 130.095 36.6059 130.1 36.6153C130.103 36.62 130.106 36.6249 130.109 36.6297C130.111 36.6344 130.114 36.6392 130.117 36.6441C130.12 36.6488 130.123 36.6536 130.126 36.6585C130.129 36.6632 130.132 36.6681 130.136 36.673L130.143 36.6843C130.158 36.7048 130.173 36.7254 130.19 36.7458C130.193 36.7494 130.196 36.7529 130.199 36.7564C130.2 36.7586 130.202 36.7608 130.204 36.7628C130.208 36.7676 130.212 36.7724 130.217 36.7772C130.22 36.7814 130.224 36.7856 130.228 36.7898C130.232 36.7946 130.237 36.7994 130.242 36.8044C130.26 36.824 130.28 36.8434 130.302 36.8626C130.65 37.174 133.873 39.4205 134.18 39.6344C134.264 39.506 134.321 39.3598 134.342 39.2037Z" fill="#009CFD"/>
<path d="M125.035 38.3661C125.102 38.5777 125.235 38.7688 125.422 38.9096L128.712 41.386C129.028 41.6243 129.451 41.683 129.82 41.5397L133.659 40.0518C133.878 39.9672 134.058 39.8195 134.18 39.6342C133.873 39.4205 130.65 37.174 130.302 36.8624C130.281 36.8431 130.233 36.7945 130.228 36.7896C130.224 36.7855 130.208 36.7676 130.204 36.7628C130.203 36.7607 130.158 36.7047 130.144 36.6843C130.141 36.6805 130.12 36.6488 130.118 36.6441C130.115 36.6393 130.103 36.6201 130.101 36.6154C130.095 36.606 130.081 36.5777 130.078 36.5731C130.074 36.5639 130.056 36.5227 130.054 36.5183C130.052 36.5138 130.036 36.47 130.034 36.4657C130.029 36.4485 130.024 36.4317 130.02 36.4157C130.018 36.4076 130.011 36.3757 130.009 36.3687C130.009 36.3684 130.004 36.3392 130.002 36.3257C130.002 36.3222 129.998 36.2839 129.997 36.27C129.996 36.2609 129.996 36.2522 129.996 36.2443C129.996 36.2417 129.996 36.2273 129.996 36.2228C129.996 36.214 129.997 36.206 129.997 36.1992C129.997 36.1942 129.998 36.1896 129.998 36.1856C129.998 36.183 129.999 36.1807 129.999 36.1786C129.999 36.1772 129.999 36.1758 129.999 36.1747C129.999 36.1758 129.999 36.1772 129.999 36.1786C129.998 36.1806 129.998 36.183 129.997 36.1855C129.997 36.1894 129.996 36.1938 129.995 36.1989C129.993 36.2056 129.992 36.2133 129.989 36.2219C129.988 36.2262 129.984 36.2401 129.983 36.2425C129.981 36.2502 129.966 36.2945 129.959 36.3095C129.958 36.3126 129.937 36.3583 129.937 36.3586C129.934 36.365 129.918 36.3937 129.914 36.4009C129.906 36.4153 129.896 36.43 129.886 36.445C129.884 36.4488 129.856 36.4866 129.853 36.4904C129.851 36.4942 129.838 36.5096 129.835 36.5134C129.828 36.5211 129.808 36.5443 129.804 36.5481C129.797 36.5558 129.774 36.5789 129.77 36.5827C129.766 36.5865 129.725 36.6227 129.722 36.6257C129.702 36.6415 129.682 36.6571 129.66 36.6722C129.657 36.6749 129.6 36.7111 129.594 36.7144C129.571 36.7281 129.547 36.7413 129.521 36.7539C129.512 36.7581 129.458 36.7821 129.453 36.7844L125.035 38.3661Z" fill="#0093FE"/>
<path d="M131.319 36.1944C131.147 36.1706 131.003 36.0775 130.913 35.9488L130.913 35.9489C130.732 35.6902 130.443 35.5029 130.099 35.4552C129.457 35.3663 128.868 35.7949 128.782 36.4125C128.697 37.0302 129.147 37.603 129.788 37.6919C130.133 37.7396 130.462 37.6381 130.706 37.4383L130.706 37.4384C130.828 37.3392 130.992 37.2889 131.164 37.3127C131.484 37.3571 131.71 37.6436 131.667 37.9524C131.646 38.0987 131.57 38.2237 131.46 38.3102C131.115 38.5894 130.687 38.7711 130.224 38.82L130.136 39.452C130.093 39.7597 129.8 39.9731 129.48 39.9289C129.159 39.8842 128.933 39.5968 128.976 39.2868L129.063 38.6593C128.096 38.2721 127.477 37.2937 127.621 36.2516C127.766 35.2094 128.627 34.4362 129.663 34.3268L129.751 33.6951C129.794 33.3874 130.087 33.1739 130.406 33.2182C130.728 33.2628 130.954 33.5503 130.911 33.8603L130.824 34.488C131.255 34.6604 131.616 34.9498 131.872 35.3099C131.877 35.317 131.882 35.3242 131.887 35.3315C131.889 35.3343 131.891 35.3371 131.893 35.3398L131.893 35.3399C131.963 35.4484 131.996 35.5798 131.977 35.7157C131.934 36.0245 131.64 36.2388 131.319 36.1944Z" fill="#EEEEEE"/>
<rect x="155.139" y="10.7574" width="26.129" height="3.62903" rx="1.81451" transform="rotate(7.89475 155.139 10.7574)" fill="#AAAAAA"/>
<rect x="129.223" y="197.676" width="26.129" height="9.43548" rx="4.71774" transform="rotate(7.89475 129.223 197.676)" fill="#AAAAAA"/>
<rect x="122.982" y="52.4569" width="78.387" height="39.9193" rx="5" transform="rotate(7.89475 122.982 52.4569)" fill="#0094FF"/>
<path fill-rule="evenodd" clip-rule="evenodd" d="M195.699 62.5428C198.434 62.9221 200.344 65.4469 199.965 68.1822L199.505 71.4972L169.41 67.324C166.675 66.9447 164.765 64.4199 165.144 61.6846L165.604 58.3696L195.699 62.5428ZM165.311 60.4364C165.349 59.7395 164.992 58.2858 163.262 58.0459L165.598 58.3698L165.311 60.4364Z" fill="#FFD600"/>
<path fill-rule="evenodd" clip-rule="evenodd" d="M195.699 62.5428C198.434 62.9221 200.344 65.4469 199.965 68.1822L199.505 71.4972L169.41 67.324C166.675 66.9447 164.765 64.4199 165.144 61.6846L165.604 58.3696L195.699 62.5428ZM165.311 60.4364C165.349 59.7395 164.992 58.2858 163.262 58.0459L165.598 58.3698L165.311 60.4364Z" fill="#4062DA"/>
<path fill-rule="evenodd" clip-rule="evenodd" d="M195.699 62.5428C198.434 62.9221 200.344 65.4469 199.965 68.1822L199.505 71.4972L169.41 67.324C166.675 66.9447 164.765 64.4199 165.144 61.6846L165.604 58.3696L195.699 62.5428ZM165.311 60.4364C165.349 59.7395 164.992 58.2858 163.262 58.0459L165.598 58.3698L165.311 60.4364Z" fill="#333333"/>
<rect x="116.299" y="100.629" width="78.387" height="22.5" rx="5" transform="rotate(7.89475 116.299 100.629)" fill="#C9C9C9"/>
<rect x="112.016" y="131.54" width="78.387" height="22.5" rx="5" transform="rotate(7.89475 112.016 131.54)" fill="#C9C9C9"/>
<path d="M182.425 39.4545L181.5 39.3263C180.953 39.2505 180.448 39.6324 180.372 40.1795L180.23 41.207M181.428 46.6438L180.503 46.5156C179.956 46.4397 179.574 45.9348 179.65 45.3877L179.793 44.3607M185.764 39.9175L186.709 40.0485C187.256 40.1244 187.638 40.6294 187.562 41.1764L187.419 42.2039M184.767 47.1068L185.712 47.2378C186.259 47.3137 186.764 46.9317 186.839 46.3846L186.982 45.3576M180.024 42.6911L187.213 43.688" stroke="#EEEEEE"/>
<path fill-rule="evenodd" clip-rule="evenodd" d="M202.729 41.3965L203.224 41.4652L203.156 41.9605L202.925 43.6259L201.934 43.4885L202.097 42.3184L201.072 42.1764L201.21 41.1858L202.729 41.3965ZM194.636 40.2768L194.14 40.2081L194.072 40.7034L193.841 42.3688L194.831 42.5062L194.993 41.336L196.017 41.478L196.155 40.4875L194.636 40.2768ZM193.428 49.3368L192.932 49.2681L193.001 48.7728L193.232 47.1074L194.222 47.2448L194.06 48.4149L195.084 48.5569L194.947 49.5474L193.428 49.3368ZM201.502 50.4565L201.997 50.5252L202.066 50.0299L202.297 48.3645L201.306 48.2271L201.144 49.3973L200.12 49.2553L199.983 50.2458L201.502 50.4565ZM199.242 42.0692L198.746 42.0005L198.678 42.4958L198.38 44.6442L198.311 45.1395L198.806 45.2081L200.904 45.4991L201.4 45.5678L201.468 45.0725L201.766 42.9241L201.835 42.4288L201.34 42.3601L199.242 42.0692ZM199.439 44.2863L199.599 43.1284L200.707 43.282L200.546 44.4399L199.439 44.2863ZM195.189 41.5324L195.685 41.601L197.783 41.892L198.278 41.9606L198.209 42.4559L197.911 44.6043L197.843 45.0996L197.347 45.0309L195.249 44.74L194.754 44.6713L194.823 44.1761L195.121 42.0276L195.189 41.5324ZM196.043 42.6602L195.882 43.8182L196.989 43.9717L197.15 42.8138L196.043 42.6602ZM194.668 45.1113L195.163 45.1799L197.261 45.4709L197.756 45.5395L197.687 46.0348L197.389 48.1832L197.321 48.6785L196.825 48.6098L194.728 48.3189L194.232 48.2502L194.301 47.755L194.599 45.6065L194.668 45.1113ZM195.521 46.2391L195.36 47.397L196.468 47.5506L196.628 46.3927L195.521 46.2391ZM199.058 46.6664L200.439 46.8579L200.247 48.2458L198.866 48.0543L199.058 46.6664Z" fill="#EEEEEE"/>
<rect x="159.959" y="79.0458" width="26.129" height="2.17742" rx="1.08871" transform="rotate(7.89475 159.959 79.0458)" fill="#EEEEEE"/>
<path d="M20.58 105.789L14.7467 102.908L11.498 107.297L18.7762 110.914L20.58 105.789Z" fill="#FFC9A6"/>
<path d="M5.44128 100.934C4.96564 103.914 6.95792 106.758 9.89251 107.288C12.8271 107.817 15.5912 105.825 16.0668 102.837C16.5425 99.8573 14.5502 97.0124 11.6156 96.4829C8.68099 95.9535 5.91691 97.9457 5.44128 100.934Z" fill="#FFC9A6"/>
<path d="M0.101254 94.4996C-0.159 95.074 0.101245 95.765 0.666624 96.0432L13.5088 102.155C14.0742 102.424 14.7562 102.173 15.0165 101.598C15.2768 101.024 15.0165 100.324 14.4511 100.055L1.60893 93.9432C1.03457 93.674 0.361508 93.9253 0.101254 94.4996Z" fill="black"/>
<path d="M45.3949 88.7739L32.8579 111.748L18.149 103.734L15.8965 110.815L34.4284 123.316C35.9091 124.133 37.7399 123.558 38.4758 122.033L51.9103 105.134L45.3949 88.7739Z" fill="#EAD1B9"/>
<path d="M54.5478 79.5935L55.1311 79.1807C57.0695 77.8166 60.0131 78.8307 58.6759 76.8473L47.3773 59.9757L40.4043 64.8846L49.6747 78.6691C50.7786 80.3024 52.9593 80.7153 54.5478 79.5935Z" fill="#FCC9A7"/>
<path d="M34.5432 68.2858C36.8945 72.8986 42.4586 74.6755 46.9547 72.2704C51.4598 69.8653 53.2008 64.1756 50.8495 59.5718C48.0136 54.0167 43.4188 52.9218 38.4381 55.5872C33.933 57.9923 32.192 63.682 34.5432 68.2858Z" fill="#FCC9A7"/>
<path d="M45.8958 77.269C48.0316 76.1293 48.8662 73.4281 47.7445 71.2383L43.6701 63.2512L34.4805 68.1601L37.801 74.6755C39.3356 77.6729 42.9612 78.8395 45.8958 77.269Z" fill="#FCC9A7"/>
<path d="M35.7379 70.0267L35.3251 73.6613C35.2982 74.2357 35.8994 74.5946 36.42 74.3164L38.6904 73.6164L35.7379 70.0267Z" fill="#FCC9A7"/>
<path d="M47.7721 65.8177L52.3311 67.3702C52.3311 67.3702 55.8131 52.4998 44.6491 50.6691C44.6491 50.6691 35.3158 50.1127 31.8428 58.0998C30.8556 60.3793 30.9454 63.9151 33.503 64.4446C33.503 64.4446 33.521 64.642 33.503 64.4446C33.3325 62.4433 34.0594 60.7023 34.0594 60.7023C34.0594 60.7023 36.2312 66.0061 40.6376 65.4946L41.9119 67.46C42.3965 68.2048 43.8683 67.9177 44.6401 67.4959L45.5106 67.0292L44.344 64.7318L47.7721 65.8177Z" fill="#0B1226"/>
<path d="M43.5097 63.0628C42.5764 64.1217 42.6662 65.764 43.6982 66.7153C44.7392 67.6666 46.3366 67.5858 47.27 66.5179C48.2033 65.4589 48.1136 63.8166 47.0815 62.8653C46.0405 61.9141 44.4431 61.9948 43.5097 63.0628Z" fill="#FCC9A7"/>
<path d="M70.2439 210.672L71.8413 218.892L66.0708 220.113L64.1055 211.722L70.2439 210.672Z" fill="#FCC9A7"/>
<path d="M72.8917 218.399C72.7302 217.968 72.2097 217.815 71.8597 218.102C71.1687 218.659 69.9302 219.341 68.0905 219.197C66.1879 219.045 65.47 218.049 65.2007 217.331C65.0572 216.954 64.6533 216.765 64.2854 216.927L52.7265 222.24C52.0265 222.563 51.4791 223.155 51.2009 223.891C50.9406 224.582 51.4611 225.318 52.1791 225.291L72.1468 224.609C72.9366 224.582 73.5378 223.891 73.466 223.083L73.134 219.152C73.125 219.09 73.1161 219.027 73.0891 218.964L72.8917 218.399Z" fill="#0C0C0C"/>
<path d="M50.2494 210.313L49.6661 218.668L43.7969 218.291L44.0482 209.667L50.2494 210.313Z" fill="#FCC9A7"/>
<path d="M42.0742 122.49L42.2447 212.377H52.4844L55.8049 133.574L42.0742 122.49Z" fill="#0C0C0C"/>
<path d="M45.9961 82.0702C45.9961 82.0702 47.5756 78.4895 49.1999 77.6728C50.8242 76.8561 58.2101 75.7882 58.2101 75.7882C58.2101 75.7882 66.6279 81.4958 66.5023 91.7176L65.7664 122.49H42.0653C42.0743 122.49 40.3064 94.706 45.9961 82.0702Z" fill="#F7E0C6"/>
<path d="M42.0742 122.49L46.2652 135.467L51.4164 171.059L62.1766 213.283L72.1829 212.108L63.9176 170.602L64.1509 139.497C64.1509 139.497 64.6535 136.643 63.2176 122.499H42.0742V122.49Z" fill="#232322"/>
<path d="M56.2262 154.645C56.4416 157.912 59.2057 160.389 62.4005 160.173C65.5954 159.958 68.0184 157.131 67.803 153.855C67.5876 150.58 64.8236 148.112 61.6287 148.327C58.4339 148.543 56.0108 151.37 56.2262 154.645Z" fill="#FCC9A7"/>
<path d="M59.3915 151.152H65.3594V139.944H59.3915V151.152Z" fill="#FCC9A7"/>
<path d="M66.2862 90.7036V142.602H58.0837L55.185 88.0383C55.0504 85.4447 56.1363 82.896 58.1914 81.3794C60.5337 79.6563 63.6747 79.5037 65.8913 87.7511C66.1605 88.7113 66.2862 89.7075 66.2862 90.7036Z" fill="#F7E0C6"/>
<path d="M66.2863 142.602V139.12H57.9043L58.0927 142.602H66.2863Z" fill="#FFEEE3"/>
<path d="M51.129 217.07C50.9854 216.631 50.4738 216.451 50.1059 216.72C49.3879 217.241 48.1136 217.86 46.2918 217.627C44.3983 217.384 43.7252 216.352 43.4919 215.617C43.3662 215.231 42.9714 215.024 42.6034 215.168L30.8112 219.897C30.0933 220.184 29.5189 220.75 29.2138 221.477C28.9266 222.159 29.4022 222.913 30.1292 222.931L50.1059 223.236C50.8956 223.245 51.5238 222.581 51.4969 221.782L51.3533 217.833C51.3533 217.77 51.3354 217.708 51.3174 217.645L51.129 217.07Z" fill="#0C0C0C"/>
<path d="M55.8047 95.2266L57.0252 122.49L55.8047 95.2266Z" stroke="#E8CCB1" stroke-width="0.7847" stroke-miterlimit="10" stroke-linecap="round" stroke-linejoin="round"/>
<path d="M37.0036 61.6986C37.0036 61.6986 30.3985 71.4537 28.2447 63.0896C26.0909 54.7256 39.9651 57.2115 39.9651 57.2115L37.0036 61.6986Z" fill="#0B1226"/>
<path d="M58.2088 75.7882C58.2088 75.7882 48.1756 85.8663 46.9551 80.2215C46.9551 80.2215 48.0409 77.5023 51.8999 75.4741L58.2088 75.7882Z" fill="#FCC9A7"/>
<path d="M18.149 103.725L15.8965 110.806L18.6426 112.654L21.1105 105.34L18.149 103.725Z" fill="#FFEEE3"/>
</svg>
