<svg width="480" height="249" viewBox="0 0 480 249" fill="none" xmlns="http://www.w3.org/2000/svg">
<path d="M28.3473 64.1227C64.1301 29.3332 110.648 36.2911 110.648 36.2911C110.648 36.2911 166.267 43.6081 202.887 25.8542C239.508 8.10042 300.962 -14.9646 363.058 13.1456C416.394 37.2906 449.61 65.3378 464.058 78.6456C486.72 99.5193 484.465 158.39 455.522 203.375C432.774 238.732 393.563 241.705 368.558 241.705C339.242 241.705 331.058 210.146 241.453 241.705C205.411 254.4 139.164 246.566 110.648 231.646C64.6983 207.604 39.5937 219.912 12.5578 189.646C-6.4521 168.364 -5.91434 97.4334 28.3473 64.1227Z" fill="#ECF7FF"/>
</svg>
