<svg width="51" height="50" viewBox="0 0 51 50" fill="none" xmlns="http://www.w3.org/2000/svg">
<path d="M37.4163 18.8895C37.4354 19.156 37.4354 19.4225 37.4354 19.689C37.4354 27.8171 31.2488 37.1827 19.9417 37.1827C16.4581 37.1827 13.2221 36.1738 10.5 34.4226C10.9949 34.4796 11.4708 34.4987 11.9848 34.4987C14.8591 34.4987 17.5051 33.5279 19.618 31.8718C16.915 31.8147 14.6497 30.0444 13.8693 27.6078C14.25 27.6649 14.6307 27.7029 15.0305 27.7029C15.5825 27.7029 16.1346 27.6268 16.6485 27.4936C13.8312 26.9225 11.7182 24.4479 11.7182 21.4593V21.3832C12.5367 21.84 13.4886 22.1256 14.4974 22.1636C12.8413 21.0595 11.7563 19.175 11.7563 17.043C11.7563 15.9009 12.0608 14.8539 12.5939 13.9402C15.6205 17.6712 20.1701 20.1077 25.2715 20.3742C25.1764 19.9174 25.1193 19.4415 25.1193 18.9656C25.1193 15.5773 27.8604 12.8171 31.2678 12.8171C33.0381 12.8171 34.637 13.5595 35.7602 14.7588C37.1497 14.4923 38.4822 13.9783 39.6625 13.274C39.2055 14.7017 38.2348 15.9009 36.9594 16.6623C38.1967 16.5291 39.396 16.1864 40.5 15.7106C39.6626 16.9288 38.6156 18.0138 37.4163 18.8895Z" fill="white"/>
</svg>
