<svg width="51" height="50" viewBox="0 0 51 50" fill="none" xmlns="http://www.w3.org/2000/svg">
<path d="M39.8731 17.7536C39.5281 16.4544 38.5115 15.4313 37.2208 15.0841C34.8813 14.4531 25.5 14.4531 25.5 14.4531C25.5 14.4531 16.1188 14.4531 13.7792 15.0841C12.4885 15.4313 11.4719 16.4544 11.1269 17.7536C10.5 20.1083 10.5 25.0213 10.5 25.0213C10.5 25.0213 10.5 29.9343 11.1269 32.289C11.4719 33.5882 12.4885 34.5687 13.7792 34.9159C16.1188 35.5468 25.5 35.5468 25.5 35.5468C25.5 35.5468 34.8812 35.5468 37.2208 34.9159C38.5115 34.5687 39.5281 33.5882 39.8731 32.289C40.5 29.9343 40.5 25.0213 40.5 25.0213C40.5 25.0213 40.5 20.1083 39.8731 17.7536ZM22.4318 29.4819V20.5607L30.2727 25.0214L22.4318 29.4819Z" fill="white"/>
</svg>
