<svg width="300" height="300" viewBox="0 0 300 300" fill="none" xmlns="http://www.w3.org/2000/svg">
<rect width="300" height="300" fill="white"/>
<path d="M63.8614 180.342C77.1066 167.097 97.6643 166.545 106.288 167.925L132.416 193.018C133.451 199.055 132.416 214.231 124.914 230.271C117.951 245.156 103.614 250.449 98.2679 251.742C97.4401 246.982 100.165 238.204 101.631 234.41C84.8675 245.378 64.81 245.361 56.8766 243.981C53.1514 227.218 61.8781 206.126 66.7071 197.675C60.4984 202.021 51.5302 202.59 47.8223 202.331C47.6498 200.521 50.6162 193.587 63.8614 180.342Z" fill="#E7B53A"/>
<path d="M89.5161 180.761C96.7068 173.57 107.867 173.27 112.549 174.019L126.734 187.642C127.295 190.919 126.734 199.159 122.661 207.866C118.881 215.947 111.098 218.821 108.195 219.523C107.746 216.939 109.225 212.173 110.021 210.113C100.92 216.068 90.0311 216.059 85.7241 215.31C83.7017 206.209 88.4394 194.758 91.061 190.17C87.6903 192.53 82.8216 192.839 80.8086 192.698C80.715 191.715 82.3254 187.951 89.5161 180.761Z" fill="#FDD262"/>
<path d="M154.922 195.864L206.92 150.851C203.816 172.84 194.761 184.74 184.931 198.71C175.101 212.679 162.683 217.594 157.251 216.301C152.904 215.266 153.888 202.245 154.922 195.864Z" fill="#0094FF"/>
<path d="M105.175 145.425L124.16 118.957L148.9 92.339C126.993 95.9814 115.319 105.325 101.594 115.495C87.8699 125.664 83.2605 138.199 84.6868 143.598C85.8278 147.917 98.8208 146.615 105.175 145.425Z" fill="#0094FF"/>
<path d="M232.456 48.3673C217.952 49.3343 199.095 58.1509 191.574 62.4485C197.214 65.2687 210.378 72.4604 217.146 78.5844C223.915 84.7084 233.396 101.314 237.425 108.7C241.588 101.179 250.506 82.8551 251.795 70.9294C253.407 56.0223 250.586 47.1587 232.456 48.3673Z" fill="#0093FE"/>
<path d="M112.238 131.966C138.366 91.6097 191.657 62.377 191.657 62.377C191.657 62.377 204.474 63.2292 220.255 80.0444C236.035 96.8596 237.446 108.684 237.446 108.684C221.148 135.847 200.453 163.268 166.822 189.138C155.856 197.573 149.49 197.934 145.351 195.605L104.994 155.249C103.183 149.299 103.765 145.053 112.238 131.966Z" fill="url(#paint0_linear_1_20)"/>
<path d="M107.394 181.756L113.676 175.182C114.053 174.788 114.675 174.767 115.076 175.136L124.248 183.559C124.658 183.936 124.681 184.576 124.299 184.981L117.388 192.316C115.429 194.394 112.794 195.706 109.956 196.016L106.509 196.391C104.485 196.612 102.833 194.795 103.246 192.801L104.319 187.615C104.775 185.412 105.84 183.382 107.394 181.756Z" fill="#E7A23A"/>
<path d="M105.511 167.925C101.993 162.544 104.908 156.542 106.805 154.214L146.127 193.277C146.127 193.277 141.47 198.192 134.485 196.123C126.293 188.965 109.03 173.306 105.511 167.925Z" fill="#404040"/>
<defs>
<linearGradient id="paint0_linear_1_20" x1="137.143" y1="80.0705" x2="218.554" y2="159.025" gradientUnits="userSpaceOnUse">
<stop stop-color="#EDEDED"/>
<stop offset="0.697158" stop-color="#9A9A9A"/>
<stop offset="1" stop-color="#EDEDED"/>
</linearGradient>
</defs>
</svg>
