<svg width="300" height="300" viewBox="0 0 300 300" fill="none" xmlns="http://www.w3.org/2000/svg">
<rect width="300" height="300" fill="white"/>
<path d="M153.841 43.6025C151.612 41.6848 148.267 41.6849 146.04 43.6037C131.519 56.113 102.663 71.9367 59.5109 73.153C56.5721 73.2358 54.179 75.6162 54.2074 78.556C54.9646 156.946 72.9045 227.109 148.062 257.461C149.256 257.943 150.632 257.96 151.838 257.509C229.647 228.418 245.145 157.016 245.793 78.5553C245.817 75.6155 243.424 73.2358 240.485 73.153C197.325 71.9368 168.377 56.1121 153.841 43.6025Z" fill="#0093FE"/>
<path d="M153.888 67.8072C151.625 65.931 148.28 65.9311 146.018 67.8087C134.595 77.2902 112.848 88.824 80.8067 89.9912C77.8687 90.0983 75.4705 92.4728 75.5073 95.4125C76.2635 155.762 90.3467 209.669 148.079 233.212C149.271 233.699 150.643 233.716 151.848 233.261C211.613 210.682 223.845 155.831 224.494 95.4123C224.525 92.4726 222.128 90.0983 219.19 89.9913C187.139 88.8241 165.327 77.2892 153.888 67.8072Z" fill="white"/>
<path d="M142.228 157.507C136.674 151.119 121.877 146.209 113.33 143.799C111.722 143.346 110.653 145.26 111.89 146.345C119.377 152.911 133.67 166.091 141.846 177.785C143.377 179.976 147.107 179.796 148.292 177.416C160.993 151.909 183.071 129.202 190.747 121.727C191.255 121.232 190.664 120.437 190.017 120.748C179.836 125.652 150.149 141.058 142.228 157.507Z" fill="#0093FE"/>
</svg>
